<?xml version="1.0" encoding="utf-8" standalone="no"?>
<!DOCTYPE svg PUBLIC "-//W3C//DTD SVG 1.1//EN"
  "http://www.w3.org/Graphics/SVG/1.1/DTD/svg11.dtd">
<svg xmlns:xlink="http://www.w3.org/1999/xlink" width="1080pt" height="576pt" viewBox="0 0 1080 576" xmlns="http://www.w3.org/2000/svg" version="1.1">
 <metadata>
  <rdf:RDF xmlns:dc="http://purl.org/dc/elements/1.1/" xmlns:cc="http://creativecommons.org/ns#" xmlns:rdf="http://www.w3.org/1999/02/22-rdf-syntax-ns#">
   <cc:Work>
    <dc:type rdf:resource="http://purl.org/dc/dcmitype/StillImage"/>
    <dc:date>2024-02-16T17:56:25.926262</dc:date>
    <dc:format>image/svg+xml</dc:format>
    <dc:creator>
     <cc:Agent>
      <dc:title>Matplotlib v3.8.0, https://matplotlib.org/</dc:title>
     </cc:Agent>
    </dc:creator>
   </cc:Work>
  </rdf:RDF>
 </metadata>
 <defs>
  <style type="text/css">*{stroke-linejoin: round; stroke-linecap: butt}</style>
 </defs>
 <g id="figure_1">
  <g id="patch_1">
   <path d="M 0 576 
L 1080 576 
L 1080 0 
L 0 0 
z
" style="fill: #ffffff"/>
  </g>
  <g id="axes_1">
   <g id="matplotlib.axis_1"/>
   <g id="matplotlib.axis_2"/>
   <g id="patch_2">
    <path d="M 720.84524 288.8602 
C 720.84524 256.20865 713.449596 223.977234 699.21495 194.591888 
C 684.980304 165.206542 664.272975 139.42348 638.651527 119.183295 
C 613.030078 98.94311 583.153862 84.76667 551.271547 77.720984 
C 519.389231 70.675297 486.32129 70.94168 454.556619 78.500081 
L 469.573174 141.608117 
C 491.808443 136.317236 514.956002 136.130768 537.273623 141.062749 
C 559.591243 145.994729 580.504595 155.918237 598.439609 170.086366 
C 616.374623 184.254496 630.869753 202.302639 640.834005 222.872381 
C 650.798257 243.442124 655.975208 266.004115 655.975208 288.8602 
z
" style="fill: #e4bb3d; stroke: #ffffff; stroke-linejoin: miter"/>
   </g>
   <g id="patch_3">
    <path d="M 454.556619 78.500081 
C 415.908865 87.696313 380.532735 107.36776 352.328726 135.345491 
C 324.124716 163.323222 304.168949 198.539749 294.661705 237.112173 
L 357.646734 252.636581 
C 364.301805 225.635885 378.270841 200.984316 398.013648 181.399904 
C 417.756454 161.815492 442.519746 148.045479 469.573174 141.608117 
z
" style="fill: #219a55; stroke: #ffffff; stroke-linejoin: miter"/>
   </g>
   <g id="patch_4">
    <path d="M 294.661705 237.112173 
C 282.307617 287.234703 288.301857 340.16128 311.55258 386.25136 
C 334.803302 432.34144 373.80755 468.615701 421.460724 488.466811 
C 469.113898 508.31792 522.335637 510.462677 571.431633 494.510414 
C 620.527629 478.558151 662.324256 445.540044 689.208283 401.470319 
L 633.829338 367.687284 
C 615.010519 398.536091 585.75288 421.648766 551.385683 432.81535 
C 517.018486 443.981934 479.763268 442.480604 446.406047 428.584828 
C 413.048825 414.689051 385.745851 389.297068 369.470346 357.034012 
C 353.19484 324.770956 348.998872 287.722352 357.646734 252.636581 
z
" style="fill: #5d7aa2; stroke: #ffffff; stroke-linejoin: miter"/>
   </g>
   <g id="patch_5">
    <path d="M 689.208283 401.470319 
C 691.022603 398.49619 692.764781 395.478648 694.433292 392.420336 
C 696.101803 389.362024 697.696159 386.263836 699.214964 383.128484 
L 640.834014 354.847999 
C 639.770851 357.042745 638.654802 359.211477 637.486844 361.352295 
C 636.318887 363.493114 635.099362 365.605393 633.829338 367.687284 
z
" style="fill: #57423d; stroke: #ffffff; stroke-linejoin: miter"/>
   </g>
   <g id="patch_6">
    <path d="M 699.214964 383.128484 
C 702.759608 375.811081 705.888713 368.299571 708.587368 360.62975 
C 711.286022 352.959929 713.549933 345.143998 715.368312 337.219202 
L 652.141359 322.711501 
C 650.868493 328.258858 649.283756 333.73001 647.394697 339.098885 
C 645.505639 344.46776 643.315266 349.725816 640.834014 354.847999 
z
" style="fill: #d13942; stroke: #ffffff; stroke-linejoin: miter"/>
   </g>
   <g id="patch_7">
    <path d="M 715.368312 337.219202 
C 717.186691 329.294406 718.556646 321.273353 719.471647 313.194264 
C 720.386648 305.115176 720.845241 296.990906 720.84524 288.860168 
L 655.975208 288.860178 
C 655.975209 294.551694 655.654194 300.238683 655.013693 305.894045 
C 654.373192 311.549407 653.414224 317.164144 652.141359 322.711501 
z
" style="fill: #bfa7a0; stroke: #ffffff; stroke-linejoin: miter"/>
   </g>
   <g id="patch_8">
    <path d="M 655.975208 288.8602 
C 655.975208 271.74957 653.073843 254.762155 647.394691 238.621496 
C 641.715538 222.480837 633.34039 207.419393 622.625967 194.078674 
L 572.048467 234.699328 
C 578.170994 242.322596 582.956793 250.929135 586.202023 260.152369 
C 589.447253 269.375603 591.105176 279.082697 591.105176 288.8602 
z
" style="fill: #efd68b; stroke: #ffffff; stroke-linejoin: miter"/>
   </g>
   <g id="patch_9">
    <path d="M 622.625967 194.078674 
C 614.981691 184.560649 606.213944 176.002266 596.513985 168.590213 
C 586.814025 161.17816 576.252898 154.966727 565.060981 150.091407 
L 539.154189 209.563747 
C 545.54957 212.349644 551.5845 215.899034 557.127334 220.134493 
C 562.670168 224.369952 567.680309 229.260457 572.048467 234.699328 
z
" style="fill: #f0da97; stroke: #ffffff; stroke-linejoin: miter"/>
   </g>
   <g id="patch_10">
    <path d="M 565.060981 150.091407 
C 558.351044 147.168487 551.437935 144.736083 544.37608 142.813347 
C 537.314225 140.89061 530.122204 139.4826 522.856638 138.600401 
L 515.037422 202.997458 
C 519.189173 203.501572 523.2989 204.306149 527.334246 205.404855 
C 531.369592 206.503562 535.31994 207.893507 539.154189 209.563747 
z
" style="fill: #f2dfa3; stroke: #ffffff; stroke-linejoin: miter"/>
   </g>
   <g id="patch_11">
    <path d="M 522.856638 138.600401 
C 520.435725 138.306449 518.008061 138.071047 515.575774 137.894401 
C 513.143486 137.717754 510.707284 137.599916 508.269302 137.540988 
L 506.701801 202.392079 
C 508.094934 202.425752 509.487049 202.493088 510.876928 202.594029 
C 512.266807 202.69497 513.654043 202.829485 515.037422 202.997458 
z
" style="fill: #f4e3af; stroke: #ffffff; stroke-linejoin: miter"/>
   </g>
   <g id="patch_12">
    <path d="M 508.269302 137.540988 
C 506.644025 137.501704 505.01822 137.488607 503.392521 137.501703 
C 501.766821 137.514799 500.141439 137.554086 498.517005 137.619548 
L 501.12906 202.43697 
C 502.057308 202.399563 502.986098 202.377114 503.915069 202.36963 
C 504.84404 202.362147 505.773071 202.369631 506.701801 202.392079 
z
" style="fill: #f6e7bb; stroke: #ffffff; stroke-linejoin: miter"/>
   </g>
   <g id="patch_13">
    <path d="M 498.517005 137.619548 
C 496.080289 137.717745 493.646302 137.874815 491.217175 138.090623 
C 488.788049 138.306431 486.364493 138.580912 483.94863 138.913827 
L 492.804274 203.176558 
C 494.184767 202.986321 495.569657 202.829475 496.957729 202.706156 
C 498.345801 202.582837 499.736651 202.493083 501.12906 202.43697 
z
" style="fill: #f7ecc7; stroke: #ffffff; stroke-linejoin: miter"/>
   </g>
   <g id="patch_14">
    <path d="M 483.94863 138.913827 
C 483.143377 139.024794 482.339031 139.142246 481.53567 139.266171 
C 480.732309 139.390096 479.92996 139.520491 479.128699 139.657342 
L 490.050028 203.601424 
C 490.507891 203.523223 490.966377 203.448712 491.42544 203.377898 
C 491.884503 203.307083 492.344129 203.239968 492.804274 203.176558 
z
" style="fill: #f9f0d4; stroke: #ffffff; stroke-linejoin: miter"/>
   </g>
   <g id="patch_15">
    <path d="M 479.128699 139.657342 
C 478.327439 139.794193 477.527295 139.937497 476.728343 140.087238 
C 475.929392 140.23698 475.13166 140.393155 474.335224 140.555749 
L 487.3109 204.114799 
C 487.766005 204.021889 488.221852 203.932646 488.678396 203.847079 
C 489.13494 203.761512 489.592165 203.679625 490.050028 203.601424 
z
" style="fill: #fbf4e0; stroke: #ffffff; stroke-linejoin: miter"/>
   </g>
   <g id="patch_16">
    <path d="M 474.335224 140.555749 
C 473.538789 140.718342 472.743676 140.887349 471.949963 141.062752 
C 471.156251 141.238155 470.363964 141.419949 469.57318 141.608116 
L 484.589731 204.716152 
C 485.041608 204.608628 485.494343 204.504746 485.947893 204.404515 
C 486.401443 204.304285 486.855794 204.20771 487.3109 204.114799 
z
" style="fill: #fcf8ec; stroke: #ffffff; stroke-linejoin: miter"/>
   </g>
   <g id="patch_17">
    <path d="M 469.57318 141.608116 
C 456.108953 144.811927 443.147539 149.847338 431.051689 156.573423 
C 418.955838 163.299508 407.839455 171.652929 398.013653 181.399899 
L 443.698573 227.454314 
C 449.313317 221.884617 455.665536 217.111233 462.577451 213.267756 
C 469.489365 209.424279 476.895887 206.546901 484.589731 204.716152 
z
" style="fill: #37a466; stroke: #ffffff; stroke-linejoin: miter"/>
   </g>
   <g id="patch_18">
    <path d="M 398.013653 181.399899 
C 392.239654 187.127573 386.93667 193.31131 382.156226 199.891027 
C 377.375782 206.470744 373.133412 213.425062 369.470334 220.686411 
L 427.388105 249.903749 
C 429.481292 245.754407 431.905504 241.780511 434.637186 238.020673 
C 437.368868 234.260835 440.399145 230.727271 443.698573 227.454314 
z
" style="fill: #59b380; stroke: #ffffff; stroke-linejoin: miter"/>
   </g>
   <g id="patch_19">
    <path d="M 369.470334 220.686411 
C 368.005768 223.589632 366.635136 226.539295 365.360573 229.530806 
C 364.086009 232.522317 362.908176 235.554123 361.828906 238.621505 
L 423.021575 260.152374 
C 423.6383 258.399585 424.311348 256.667124 425.03967 254.957689 
C 425.767992 253.248254 426.55121 251.562733 427.388105 249.903749 
z
" style="fill: #7ac299; stroke: #ffffff; stroke-linejoin: miter"/>
   </g>
   <g id="patch_20">
    <path d="M 361.828906 238.621505 
C 361.559111 239.388288 361.295496 240.157232 361.038089 240.928262 
C 360.780681 241.699292 360.529489 242.472383 360.284536 243.24746 
L 422.139078 262.795777 
C 422.279051 262.352876 422.422589 261.91111 422.569679 261.470521 
C 422.716769 261.029932 422.867406 260.590536 423.021575 260.152374 
z
" style="fill: #9bd1b2; stroke: #ffffff; stroke-linejoin: miter"/>
   </g>
   <g id="patch_21">
    <path d="M 360.284536 243.24746 
C 359.794622 244.797638 359.329715 246.35561 358.889996 247.920767 
C 358.450277 249.485924 358.035803 251.058064 357.646735 252.636574 
L 420.631763 268.160985 
C 420.854088 267.258979 421.09093 266.360614 421.342198 265.466238 
C 421.593466 264.571863 421.859127 263.681593 422.139078 262.795777 
z
" style="fill: #bde1cc; stroke: #ffffff; stroke-linejoin: miter"/>
   </g>
   <g id="patch_22">
    <path d="M 357.646735 252.636574 
C 350.991663 279.637271 351.90448 307.956886 360.284542 334.47296 
C 368.664603 360.989034 384.192169 384.689847 405.155201 402.962199 
C 426.118234 421.234552 451.716891 433.381262 479.12872 438.063062 
C 506.540549 442.744861 534.719653 439.783114 560.559064 429.504378 
L 536.581665 369.228302 
C 521.816287 375.101865 505.713942 376.794292 490.05004 374.118978 
C 474.386138 371.443664 459.758334 364.502687 447.779458 354.061342 
C 435.800582 343.619998 426.927688 330.076676 422.139081 314.924634 
C 417.350475 299.772592 416.828865 283.589955 420.631763 268.160985 
z
" style="fill: #6d87ab; stroke: #ffffff; stroke-linejoin: miter"/>
   </g>
   <g id="patch_23">
    <path d="M 560.559064 429.504378 
C 575.697533 423.482402 589.764907 415.055553 602.217329 404.54962 
C 614.669751 394.043688 625.344654 381.595827 633.829338 367.687284 
L 578.450393 333.904248 
C 573.602003 341.851987 567.502058 348.96505 560.386388 354.96844 
C 553.270718 360.97183 545.232219 365.787173 536.581665 369.228302 
z
" style="fill: #cfd7e3; stroke: #ffffff; stroke-linejoin: miter"/>
   </g>
   <g id="patch_24">
    <path d="M 633.829338 367.687284 
C 635.099362 365.605393 636.318887 363.493114 637.486844 361.352295 
C 638.654802 359.211477 639.770851 357.042745 640.834014 354.847999 
L 582.453065 326.567513 
C 581.845543 327.821654 581.207801 329.06093 580.540397 330.284255 
C 579.872992 331.507579 579.176121 332.714596 578.450393 333.904248 
z
" style="fill: #675550; stroke: #ffffff; stroke-linejoin: miter"/>
   </g>
   <g id="patch_25">
    <path d="M 640.834014 354.847999 
C 643.315266 349.725816 645.505639 344.46776 647.394697 339.098885 
C 649.283756 333.73001 650.868493 328.258858 652.141359 322.711501 
L 588.914405 308.203801 
C 588.187053 311.373719 587.281489 314.500092 586.202027 317.56802 
C 585.122565 320.635949 583.870923 323.640552 582.453065 326.567513 
z
" style="fill: #d64c55; stroke: #ffffff; stroke-linejoin: miter"/>
   </g>
   <g id="patch_26">
    <path d="M 652.141359 322.711501 
C 653.414224 317.164144 654.373192 311.549407 655.013693 305.894045 
C 655.654194 300.238683 655.975209 294.551694 655.975208 288.860178 
L 591.105176 288.860187 
C 591.105176 292.112482 590.921739 295.36219 590.555739 298.593826 
C 590.189738 301.825461 589.641757 305.033882 588.914405 308.203801 
z
" style="fill: #c5b0a9; stroke: #ffffff; stroke-linejoin: miter"/>
   </g>
   <g id="text_1">
    <!-- Genetics -->
    <g style="fill: #262626" transform="translate(652.055499 106.16151) scale(0.143 -0.143)">
     <defs>
      <path id="DejaVuSans-47" d="M 3809 666 
L 3809 1919 
L 2778 1919 
L 2778 2438 
L 4434 2438 
L 4434 434 
Q 4069 175 3628 42 
Q 3188 -91 2688 -91 
Q 1594 -91 976 548 
Q 359 1188 359 2328 
Q 359 3472 976 4111 
Q 1594 4750 2688 4750 
Q 3144 4750 3555 4637 
Q 3966 4525 4313 4306 
L 4313 3634 
Q 3963 3931 3569 4081 
Q 3175 4231 2741 4231 
Q 1884 4231 1454 3753 
Q 1025 3275 1025 2328 
Q 1025 1384 1454 906 
Q 1884 428 2741 428 
Q 3075 428 3337 486 
Q 3600 544 3809 666 
z
" transform="scale(0.015625)"/>
      <path id="DejaVuSans-65" d="M 3597 1894 
L 3597 1613 
L 953 1613 
Q 991 1019 1311 708 
Q 1631 397 2203 397 
Q 2534 397 2845 478 
Q 3156 559 3463 722 
L 3463 178 
Q 3153 47 2828 -22 
Q 2503 -91 2169 -91 
Q 1331 -91 842 396 
Q 353 884 353 1716 
Q 353 2575 817 3079 
Q 1281 3584 2069 3584 
Q 2775 3584 3186 3129 
Q 3597 2675 3597 1894 
z
M 3022 2063 
Q 3016 2534 2758 2815 
Q 2500 3097 2075 3097 
Q 1594 3097 1305 2825 
Q 1016 2553 972 2059 
L 3022 2063 
z
" transform="scale(0.015625)"/>
      <path id="DejaVuSans-6e" d="M 3513 2113 
L 3513 0 
L 2938 0 
L 2938 2094 
Q 2938 2591 2744 2837 
Q 2550 3084 2163 3084 
Q 1697 3084 1428 2787 
Q 1159 2491 1159 1978 
L 1159 0 
L 581 0 
L 581 3500 
L 1159 3500 
L 1159 2956 
Q 1366 3272 1645 3428 
Q 1925 3584 2291 3584 
Q 2894 3584 3203 3211 
Q 3513 2838 3513 2113 
z
" transform="scale(0.015625)"/>
      <path id="DejaVuSans-74" d="M 1172 4494 
L 1172 3500 
L 2356 3500 
L 2356 3053 
L 1172 3053 
L 1172 1153 
Q 1172 725 1289 603 
Q 1406 481 1766 481 
L 2356 481 
L 2356 0 
L 1766 0 
Q 1100 0 847 248 
Q 594 497 594 1153 
L 594 3053 
L 172 3053 
L 172 3500 
L 594 3500 
L 594 4494 
L 1172 4494 
z
" transform="scale(0.015625)"/>
      <path id="DejaVuSans-69" d="M 603 3500 
L 1178 3500 
L 1178 0 
L 603 0 
L 603 3500 
z
M 603 4863 
L 1178 4863 
L 1178 4134 
L 603 4134 
L 603 4863 
z
" transform="scale(0.015625)"/>
      <path id="DejaVuSans-63" d="M 3122 3366 
L 3122 2828 
Q 2878 2963 2633 3030 
Q 2388 3097 2138 3097 
Q 1578 3097 1268 2742 
Q 959 2388 959 1747 
Q 959 1106 1268 751 
Q 1578 397 2138 397 
Q 2388 397 2633 464 
Q 2878 531 3122 666 
L 3122 134 
Q 2881 22 2623 -34 
Q 2366 -91 2075 -91 
Q 1284 -91 818 406 
Q 353 903 353 1747 
Q 353 2603 823 3093 
Q 1294 3584 2113 3584 
Q 2378 3584 2631 3529 
Q 2884 3475 3122 3366 
z
" transform="scale(0.015625)"/>
      <path id="DejaVuSans-73" d="M 2834 3397 
L 2834 2853 
Q 2591 2978 2328 3040 
Q 2066 3103 1784 3103 
Q 1356 3103 1142 2972 
Q 928 2841 928 2578 
Q 928 2378 1081 2264 
Q 1234 2150 1697 2047 
L 1894 2003 
Q 2506 1872 2764 1633 
Q 3022 1394 3022 966 
Q 3022 478 2636 193 
Q 2250 -91 1575 -91 
Q 1294 -91 989 -36 
Q 684 19 347 128 
L 347 722 
Q 666 556 975 473 
Q 1284 391 1588 391 
Q 1994 391 2212 530 
Q 2431 669 2431 922 
Q 2431 1156 2273 1281 
Q 2116 1406 1581 1522 
L 1381 1569 
Q 847 1681 609 1914 
Q 372 2147 372 2553 
Q 372 3047 722 3315 
Q 1072 3584 1716 3584 
Q 2034 3584 2315 3537 
Q 2597 3491 2834 3397 
z
" transform="scale(0.015625)"/>
     </defs>
     <use xlink:href="#DejaVuSans-47"/>
     <use xlink:href="#DejaVuSans-65" x="77.490234"/>
     <use xlink:href="#DejaVuSans-6e" x="139.013672"/>
     <use xlink:href="#DejaVuSans-65" x="202.392578"/>
     <use xlink:href="#DejaVuSans-74" x="263.916016"/>
     <use xlink:href="#DejaVuSans-69" x="303.125"/>
     <use xlink:href="#DejaVuSans-63" x="330.908203"/>
     <use xlink:href="#DejaVuSans-73" x="385.888672"/>
    </g>
   </g>
   <g id="text_2">
    <!-- 29% -->
    <g style="fill: #262626" transform="translate(601.208849 148.939455) scale(0.156 -0.156)">
     <defs>
      <path id="DejaVuSans-32" d="M 1228 531 
L 3431 531 
L 3431 0 
L 469 0 
L 469 531 
Q 828 903 1448 1529 
Q 2069 2156 2228 2338 
Q 2531 2678 2651 2914 
Q 2772 3150 2772 3378 
Q 2772 3750 2511 3984 
Q 2250 4219 1831 4219 
Q 1534 4219 1204 4116 
Q 875 4013 500 3803 
L 500 4441 
Q 881 4594 1212 4672 
Q 1544 4750 1819 4750 
Q 2544 4750 2975 4387 
Q 3406 4025 3406 3419 
Q 3406 3131 3298 2873 
Q 3191 2616 2906 2266 
Q 2828 2175 2409 1742 
Q 1991 1309 1228 531 
z
" transform="scale(0.015625)"/>
      <path id="DejaVuSans-39" d="M 703 97 
L 703 672 
Q 941 559 1184 500 
Q 1428 441 1663 441 
Q 2288 441 2617 861 
Q 2947 1281 2994 2138 
Q 2813 1869 2534 1725 
Q 2256 1581 1919 1581 
Q 1219 1581 811 2004 
Q 403 2428 403 3163 
Q 403 3881 828 4315 
Q 1253 4750 1959 4750 
Q 2769 4750 3195 4129 
Q 3622 3509 3622 2328 
Q 3622 1225 3098 567 
Q 2575 -91 1691 -91 
Q 1453 -91 1209 -44 
Q 966 3 703 97 
z
M 1959 2075 
Q 2384 2075 2632 2365 
Q 2881 2656 2881 3163 
Q 2881 3666 2632 3958 
Q 2384 4250 1959 4250 
Q 1534 4250 1286 3958 
Q 1038 3666 1038 3163 
Q 1038 2656 1286 2365 
Q 1534 2075 1959 2075 
z
" transform="scale(0.015625)"/>
      <path id="DejaVuSans-25" d="M 4653 2053 
Q 4381 2053 4226 1822 
Q 4072 1591 4072 1178 
Q 4072 772 4226 539 
Q 4381 306 4653 306 
Q 4919 306 5073 539 
Q 5228 772 5228 1178 
Q 5228 1588 5073 1820 
Q 4919 2053 4653 2053 
z
M 4653 2450 
Q 5147 2450 5437 2106 
Q 5728 1763 5728 1178 
Q 5728 594 5436 251 
Q 5144 -91 4653 -91 
Q 4153 -91 3862 251 
Q 3572 594 3572 1178 
Q 3572 1766 3864 2108 
Q 4156 2450 4653 2450 
z
M 1428 4353 
Q 1159 4353 1004 4120 
Q 850 3888 850 3481 
Q 850 3069 1003 2837 
Q 1156 2606 1428 2606 
Q 1700 2606 1854 2837 
Q 2009 3069 2009 3481 
Q 2009 3884 1853 4118 
Q 1697 4353 1428 4353 
z
M 4250 4750 
L 4750 4750 
L 1831 -91 
L 1331 -91 
L 4250 4750 
z
M 1428 4750 
Q 1922 4750 2215 4408 
Q 2509 4066 2509 3481 
Q 2509 2891 2217 2550 
Q 1925 2209 1428 2209 
Q 931 2209 642 2551 
Q 353 2894 353 3481 
Q 353 4063 643 4406 
Q 934 4750 1428 4750 
z
" transform="scale(0.015625)"/>
     </defs>
     <use xlink:href="#DejaVuSans-32"/>
     <use xlink:href="#DejaVuSans-39" x="63.623047"/>
     <use xlink:href="#DejaVuSans-25" x="127.246094"/>
    </g>
   </g>
   <g id="text_3">
    <!-- Epigenetics -->
    <g style="fill: #262626" transform="translate(254.383856 123.939927) scale(0.143 -0.143)">
     <defs>
      <path id="DejaVuSans-45" d="M 628 4666 
L 3578 4666 
L 3578 4134 
L 1259 4134 
L 1259 2753 
L 3481 2753 
L 3481 2222 
L 1259 2222 
L 1259 531 
L 3634 531 
L 3634 0 
L 628 0 
L 628 4666 
z
" transform="scale(0.015625)"/>
      <path id="DejaVuSans-70" d="M 1159 525 
L 1159 -1331 
L 581 -1331 
L 581 3500 
L 1159 3500 
L 1159 2969 
Q 1341 3281 1617 3432 
Q 1894 3584 2278 3584 
Q 2916 3584 3314 3078 
Q 3713 2572 3713 1747 
Q 3713 922 3314 415 
Q 2916 -91 2278 -91 
Q 1894 -91 1617 61 
Q 1341 213 1159 525 
z
M 3116 1747 
Q 3116 2381 2855 2742 
Q 2594 3103 2138 3103 
Q 1681 3103 1420 2742 
Q 1159 2381 1159 1747 
Q 1159 1113 1420 752 
Q 1681 391 2138 391 
Q 2594 391 2855 752 
Q 3116 1113 3116 1747 
z
" transform="scale(0.015625)"/>
      <path id="DejaVuSans-67" d="M 2906 1791 
Q 2906 2416 2648 2759 
Q 2391 3103 1925 3103 
Q 1463 3103 1205 2759 
Q 947 2416 947 1791 
Q 947 1169 1205 825 
Q 1463 481 1925 481 
Q 2391 481 2648 825 
Q 2906 1169 2906 1791 
z
M 3481 434 
Q 3481 -459 3084 -895 
Q 2688 -1331 1869 -1331 
Q 1566 -1331 1297 -1286 
Q 1028 -1241 775 -1147 
L 775 -588 
Q 1028 -725 1275 -790 
Q 1522 -856 1778 -856 
Q 2344 -856 2625 -561 
Q 2906 -266 2906 331 
L 2906 616 
Q 2728 306 2450 153 
Q 2172 0 1784 0 
Q 1141 0 747 490 
Q 353 981 353 1791 
Q 353 2603 747 3093 
Q 1141 3584 1784 3584 
Q 2172 3584 2450 3431 
Q 2728 3278 2906 2969 
L 2906 3500 
L 3481 3500 
L 3481 434 
z
" transform="scale(0.015625)"/>
     </defs>
     <use xlink:href="#DejaVuSans-45"/>
     <use xlink:href="#DejaVuSans-70" x="63.183594"/>
     <use xlink:href="#DejaVuSans-69" x="126.660156"/>
     <use xlink:href="#DejaVuSans-67" x="154.443359"/>
     <use xlink:href="#DejaVuSans-65" x="217.919922"/>
     <use xlink:href="#DejaVuSans-6e" x="279.443359"/>
     <use xlink:href="#DejaVuSans-65" x="342.822266"/>
     <use xlink:href="#DejaVuSans-74" x="404.345703"/>
     <use xlink:href="#DejaVuSans-69" x="443.554688"/>
     <use xlink:href="#DejaVuSans-63" x="471.337891"/>
     <use xlink:href="#DejaVuSans-73" x="526.318359"/>
    </g>
   </g>
   <g id="text_4">
    <!-- 17% -->
    <g style="fill: #262626" transform="translate(357.834468 162.677322) scale(0.156 -0.156)">
     <defs>
      <path id="DejaVuSans-31" d="M 794 531 
L 1825 531 
L 1825 4091 
L 703 3866 
L 703 4441 
L 1819 4666 
L 2450 4666 
L 2450 531 
L 3481 531 
L 3481 0 
L 794 0 
L 794 531 
z
" transform="scale(0.015625)"/>
      <path id="DejaVuSans-37" d="M 525 4666 
L 3525 4666 
L 3525 4397 
L 1831 0 
L 1172 0 
L 2766 4134 
L 525 4134 
L 525 4666 
z
" transform="scale(0.015625)"/>
     </defs>
     <use xlink:href="#DejaVuSans-31"/>
     <use xlink:href="#DejaVuSans-37" x="63.623047"/>
     <use xlink:href="#DejaVuSans-25" x="127.246094"/>
    </g>
   </g>
   <g id="text_5">
    <!-- Transcriptomics -->
    <g style="fill: #262626" transform="translate(301.00457 512.373378) scale(0.143 -0.143)">
     <defs>
      <path id="DejaVuSans-54" d="M -19 4666 
L 3928 4666 
L 3928 4134 
L 2272 4134 
L 2272 0 
L 1638 0 
L 1638 4134 
L -19 4134 
L -19 4666 
z
" transform="scale(0.015625)"/>
      <path id="DejaVuSans-72" d="M 2631 2963 
Q 2534 3019 2420 3045 
Q 2306 3072 2169 3072 
Q 1681 3072 1420 2755 
Q 1159 2438 1159 1844 
L 1159 0 
L 581 0 
L 581 3500 
L 1159 3500 
L 1159 2956 
Q 1341 3275 1631 3429 
Q 1922 3584 2338 3584 
Q 2397 3584 2469 3576 
Q 2541 3569 2628 3553 
L 2631 2963 
z
" transform="scale(0.015625)"/>
      <path id="DejaVuSans-61" d="M 2194 1759 
Q 1497 1759 1228 1600 
Q 959 1441 959 1056 
Q 959 750 1161 570 
Q 1363 391 1709 391 
Q 2188 391 2477 730 
Q 2766 1069 2766 1631 
L 2766 1759 
L 2194 1759 
z
M 3341 1997 
L 3341 0 
L 2766 0 
L 2766 531 
Q 2569 213 2275 61 
Q 1981 -91 1556 -91 
Q 1019 -91 701 211 
Q 384 513 384 1019 
Q 384 1609 779 1909 
Q 1175 2209 1959 2209 
L 2766 2209 
L 2766 2266 
Q 2766 2663 2505 2880 
Q 2244 3097 1772 3097 
Q 1472 3097 1187 3025 
Q 903 2953 641 2809 
L 641 3341 
Q 956 3463 1253 3523 
Q 1550 3584 1831 3584 
Q 2591 3584 2966 3190 
Q 3341 2797 3341 1997 
z
" transform="scale(0.015625)"/>
      <path id="DejaVuSans-6f" d="M 1959 3097 
Q 1497 3097 1228 2736 
Q 959 2375 959 1747 
Q 959 1119 1226 758 
Q 1494 397 1959 397 
Q 2419 397 2687 759 
Q 2956 1122 2956 1747 
Q 2956 2369 2687 2733 
Q 2419 3097 1959 3097 
z
M 1959 3584 
Q 2709 3584 3137 3096 
Q 3566 2609 3566 1747 
Q 3566 888 3137 398 
Q 2709 -91 1959 -91 
Q 1206 -91 779 398 
Q 353 888 353 1747 
Q 353 2609 779 3096 
Q 1206 3584 1959 3584 
z
" transform="scale(0.015625)"/>
      <path id="DejaVuSans-6d" d="M 3328 2828 
Q 3544 3216 3844 3400 
Q 4144 3584 4550 3584 
Q 5097 3584 5394 3201 
Q 5691 2819 5691 2113 
L 5691 0 
L 5113 0 
L 5113 2094 
Q 5113 2597 4934 2840 
Q 4756 3084 4391 3084 
Q 3944 3084 3684 2787 
Q 3425 2491 3425 1978 
L 3425 0 
L 2847 0 
L 2847 2094 
Q 2847 2600 2669 2842 
Q 2491 3084 2119 3084 
Q 1678 3084 1418 2786 
Q 1159 2488 1159 1978 
L 1159 0 
L 581 0 
L 581 3500 
L 1159 3500 
L 1159 2956 
Q 1356 3278 1631 3431 
Q 1906 3584 2284 3584 
Q 2666 3584 2933 3390 
Q 3200 3197 3328 2828 
z
" transform="scale(0.015625)"/>
     </defs>
     <use xlink:href="#DejaVuSans-54"/>
     <use xlink:href="#DejaVuSans-72" x="46.333984"/>
     <use xlink:href="#DejaVuSans-61" x="87.447266"/>
     <use xlink:href="#DejaVuSans-6e" x="148.726562"/>
     <use xlink:href="#DejaVuSans-73" x="212.105469"/>
     <use xlink:href="#DejaVuSans-63" x="264.205078"/>
     <use xlink:href="#DejaVuSans-72" x="319.185547"/>
     <use xlink:href="#DejaVuSans-69" x="360.298828"/>
     <use xlink:href="#DejaVuSans-70" x="388.082031"/>
     <use xlink:href="#DejaVuSans-74" x="451.558594"/>
     <use xlink:href="#DejaVuSans-6f" x="490.767578"/>
     <use xlink:href="#DejaVuSans-6d" x="551.949219"/>
     <use xlink:href="#DejaVuSans-69" x="649.361328"/>
     <use xlink:href="#DejaVuSans-63" x="677.144531"/>
     <use xlink:href="#DejaVuSans-73" x="732.125"/>
    </g>
   </g>
   <g id="text_6">
    <!-- 45% -->
    <g style="fill: #262626" transform="translate(416.596667 462.830444) scale(0.156 -0.156)">
     <defs>
      <path id="DejaVuSans-34" d="M 2419 4116 
L 825 1625 
L 2419 1625 
L 2419 4116 
z
M 2253 4666 
L 3047 4666 
L 3047 1625 
L 3713 1625 
L 3713 1100 
L 3047 1100 
L 3047 0 
L 2419 0 
L 2419 1100 
L 313 1100 
L 313 1709 
L 2253 4666 
z
" transform="scale(0.015625)"/>
      <path id="DejaVuSans-35" d="M 691 4666 
L 3169 4666 
L 3169 4134 
L 1269 4134 
L 1269 2991 
Q 1406 3038 1543 3061 
Q 1681 3084 1819 3084 
Q 2600 3084 3056 2656 
Q 3513 2228 3513 1497 
Q 3513 744 3044 326 
Q 2575 -91 1722 -91 
Q 1428 -91 1123 -41 
Q 819 9 494 109 
L 494 744 
Q 775 591 1075 516 
Q 1375 441 1709 441 
Q 2250 441 2565 725 
Q 2881 1009 2881 1497 
Q 2881 1984 2565 2268 
Q 2250 2553 1709 2553 
Q 1456 2553 1204 2497 
Q 953 2441 691 2322 
L 691 4666 
z
" transform="scale(0.015625)"/>
     </defs>
     <use xlink:href="#DejaVuSans-34"/>
     <use xlink:href="#DejaVuSans-35" x="63.623047"/>
     <use xlink:href="#DejaVuSans-25" x="127.246094"/>
    </g>
   </g>
   <g id="text_7">
    <!-- Proteomics -->
    <g style="fill: #262626" transform="translate(713.415441 406.722256) scale(0.143 -0.143)">
     <defs>
      <path id="DejaVuSans-50" d="M 1259 4147 
L 1259 2394 
L 2053 2394 
Q 2494 2394 2734 2622 
Q 2975 2850 2975 3272 
Q 2975 3691 2734 3919 
Q 2494 4147 2053 4147 
L 1259 4147 
z
M 628 4666 
L 2053 4666 
Q 2838 4666 3239 4311 
Q 3641 3956 3641 3272 
Q 3641 2581 3239 2228 
Q 2838 1875 2053 1875 
L 1259 1875 
L 1259 0 
L 628 0 
L 628 4666 
z
" transform="scale(0.015625)"/>
     </defs>
     <use xlink:href="#DejaVuSans-50"/>
     <use xlink:href="#DejaVuSans-72" x="58.552734"/>
     <use xlink:href="#DejaVuSans-6f" x="97.416016"/>
     <use xlink:href="#DejaVuSans-74" x="158.597656"/>
     <use xlink:href="#DejaVuSans-65" x="197.806641"/>
     <use xlink:href="#DejaVuSans-6f" x="259.330078"/>
     <use xlink:href="#DejaVuSans-6d" x="320.511719"/>
     <use xlink:href="#DejaVuSans-69" x="417.923828"/>
     <use xlink:href="#DejaVuSans-63" x="445.707031"/>
     <use xlink:href="#DejaVuSans-73" x="500.6875"/>
    </g>
   </g>
   <g id="text_8">
    <!-- 2% -->
    <g style="fill: #262626" transform="translate(653.586099 381.190941) scale(0.156 -0.156)">
     <use xlink:href="#DejaVuSans-32"/>
     <use xlink:href="#DejaVuSans-25" x="63.623047"/>
    </g>
   </g>
   <g id="text_9">
    <!-- Clinical -->
    <g style="fill: #262626" transform="translate(728.984925 371.752611) scale(0.143 -0.143)">
     <defs>
      <path id="DejaVuSans-43" d="M 4122 4306 
L 4122 3641 
Q 3803 3938 3442 4084 
Q 3081 4231 2675 4231 
Q 1875 4231 1450 3742 
Q 1025 3253 1025 2328 
Q 1025 1406 1450 917 
Q 1875 428 2675 428 
Q 3081 428 3442 575 
Q 3803 722 4122 1019 
L 4122 359 
Q 3791 134 3420 21 
Q 3050 -91 2638 -91 
Q 1578 -91 968 557 
Q 359 1206 359 2328 
Q 359 3453 968 4101 
Q 1578 4750 2638 4750 
Q 3056 4750 3426 4639 
Q 3797 4528 4122 4306 
z
" transform="scale(0.015625)"/>
      <path id="DejaVuSans-6c" d="M 603 4863 
L 1178 4863 
L 1178 0 
L 603 0 
L 603 4863 
z
" transform="scale(0.015625)"/>
     </defs>
     <use xlink:href="#DejaVuSans-43"/>
     <use xlink:href="#DejaVuSans-6c" x="69.824219"/>
     <use xlink:href="#DejaVuSans-69" x="97.607422"/>
     <use xlink:href="#DejaVuSans-6e" x="125.390625"/>
     <use xlink:href="#DejaVuSans-69" x="188.769531"/>
     <use xlink:href="#DejaVuSans-63" x="216.552734"/>
     <use xlink:href="#DejaVuSans-61" x="271.533203"/>
     <use xlink:href="#DejaVuSans-6c" x="332.8125"/>
    </g>
   </g>
   <g id="text_10">
    <!-- 4% -->
    <g style="fill: #262626" transform="translate(665.617064 354.168943) scale(0.156 -0.156)">
     <use xlink:href="#DejaVuSans-34"/>
     <use xlink:href="#DejaVuSans-25" x="63.623047"/>
    </g>
   </g>
   <g id="text_11">
    <!-- Other -->
    <g style="fill: #262626" transform="translate(740.957632 319.573577) scale(0.143 -0.143)">
     <defs>
      <path id="DejaVuSans-4f" d="M 2522 4238 
Q 1834 4238 1429 3725 
Q 1025 3213 1025 2328 
Q 1025 1447 1429 934 
Q 1834 422 2522 422 
Q 3209 422 3611 934 
Q 4013 1447 4013 2328 
Q 4013 3213 3611 3725 
Q 3209 4238 2522 4238 
z
M 2522 4750 
Q 3503 4750 4090 4092 
Q 4678 3434 4678 2328 
Q 4678 1225 4090 567 
Q 3503 -91 2522 -91 
Q 1538 -91 948 565 
Q 359 1222 359 2328 
Q 359 3434 948 4092 
Q 1538 4750 2522 4750 
z
" transform="scale(0.015625)"/>
      <path id="DejaVuSans-68" d="M 3513 2113 
L 3513 0 
L 2938 0 
L 2938 2094 
Q 2938 2591 2744 2837 
Q 2550 3084 2163 3084 
Q 1697 3084 1428 2787 
Q 1159 2491 1159 1978 
L 1159 0 
L 581 0 
L 581 4863 
L 1159 4863 
L 1159 2956 
Q 1366 3272 1645 3428 
Q 1925 3584 2291 3584 
Q 2894 3584 3203 3211 
Q 3513 2838 3513 2113 
z
" transform="scale(0.015625)"/>
     </defs>
     <use xlink:href="#DejaVuSans-4f"/>
     <use xlink:href="#DejaVuSans-74" x="78.710938"/>
     <use xlink:href="#DejaVuSans-68" x="117.919922"/>
     <use xlink:href="#DejaVuSans-65" x="181.298828"/>
     <use xlink:href="#DejaVuSans-72" x="242.822266"/>
    </g>
   </g>
   <g id="text_12">
    <!-- 4% -->
    <g style="fill: #262626" transform="translate(674.868701 313.84878) scale(0.156 -0.156)">
     <use xlink:href="#DejaVuSans-34"/>
     <use xlink:href="#DejaVuSans-25" x="63.623047"/>
    </g>
   </g>
   <g id="legend_1">
    <g id="patch_27">
     <path d="M 822.754452 418.001384 
L 1046.314843 418.001384 
Q 1049.174843 418.001384 1049.174843 415.141384 
L 1049.174843 17.766728 
Q 1049.174843 14.906728 1046.314843 14.906728 
L 822.754452 14.906728 
Q 819.894452 14.906728 819.894452 17.766728 
L 819.894452 415.141384 
Q 819.894452 418.001384 822.754452 418.001384 
z
" style="fill: #ffffff; opacity: 0.8; stroke: #cccccc; stroke-linejoin: miter"/>
    </g>
    <g id="patch_28">
     <path d="M 825.614452 31.492494 
L 854.214452 31.492494 
L 854.214452 21.482494 
L 825.614452 21.482494 
z
" style="fill: #efd68b; stroke: #ffffff; stroke-linejoin: miter"/>
    </g>
    <g id="text_13">
     <!-- SNPs -->
     <g style="fill: #262626" transform="translate(865.654452 31.492494) scale(0.143 -0.143)">
      <defs>
       <path id="DejaVuSans-53" d="M 3425 4513 
L 3425 3897 
Q 3066 4069 2747 4153 
Q 2428 4238 2131 4238 
Q 1616 4238 1336 4038 
Q 1056 3838 1056 3469 
Q 1056 3159 1242 3001 
Q 1428 2844 1947 2747 
L 2328 2669 
Q 3034 2534 3370 2195 
Q 3706 1856 3706 1288 
Q 3706 609 3251 259 
Q 2797 -91 1919 -91 
Q 1588 -91 1214 -16 
Q 841 59 441 206 
L 441 856 
Q 825 641 1194 531 
Q 1563 422 1919 422 
Q 2459 422 2753 634 
Q 3047 847 3047 1241 
Q 3047 1584 2836 1778 
Q 2625 1972 2144 2069 
L 1759 2144 
Q 1053 2284 737 2584 
Q 422 2884 422 3419 
Q 422 4038 858 4394 
Q 1294 4750 2059 4750 
Q 2388 4750 2728 4690 
Q 3069 4631 3425 4513 
z
" transform="scale(0.015625)"/>
       <path id="DejaVuSans-4e" d="M 628 4666 
L 1478 4666 
L 3547 763 
L 3547 4666 
L 4159 4666 
L 4159 0 
L 3309 0 
L 1241 3903 
L 1241 0 
L 628 0 
L 628 4666 
z
" transform="scale(0.015625)"/>
      </defs>
      <use xlink:href="#DejaVuSans-53"/>
      <use xlink:href="#DejaVuSans-4e" x="63.476562"/>
      <use xlink:href="#DejaVuSans-50" x="138.28125"/>
      <use xlink:href="#DejaVuSans-73" x="196.833984"/>
     </g>
    </g>
    <g id="patch_29">
     <path d="M 825.614452 52.482212 
L 854.214452 52.482212 
L 854.214452 42.472212 
L 825.614452 42.472212 
z
" style="fill: #f0da97; stroke: #ffffff; stroke-linejoin: miter"/>
    </g>
    <g id="text_14">
     <!-- CNV -->
     <g style="fill: #262626" transform="translate(865.654452 52.482212) scale(0.143 -0.143)">
      <defs>
       <path id="DejaVuSans-56" d="M 1831 0 
L 50 4666 
L 709 4666 
L 2188 738 
L 3669 4666 
L 4325 4666 
L 2547 0 
L 1831 0 
z
" transform="scale(0.015625)"/>
      </defs>
      <use xlink:href="#DejaVuSans-43"/>
      <use xlink:href="#DejaVuSans-4e" x="69.824219"/>
      <use xlink:href="#DejaVuSans-56" x="144.628906"/>
     </g>
    </g>
    <g id="patch_30">
     <path d="M 825.614452 73.471931 
L 854.214452 73.471931 
L 854.214452 63.461931 
L 825.614452 63.461931 
z
" style="fill: #f2dfa3; stroke: #ffffff; stroke-linejoin: miter"/>
    </g>
    <g id="text_15">
     <!-- SNV -->
     <g style="fill: #262626" transform="translate(865.654452 73.471931) scale(0.143 -0.143)">
      <use xlink:href="#DejaVuSans-53"/>
      <use xlink:href="#DejaVuSans-4e" x="63.476562"/>
      <use xlink:href="#DejaVuSans-56" x="138.28125"/>
     </g>
    </g>
    <g id="patch_31">
     <path d="M 825.614452 94.46165 
L 854.214452 94.46165 
L 854.214452 84.45165 
L 825.614452 84.45165 
z
" style="fill: #f4e3af; stroke: #ffffff; stroke-linejoin: miter"/>
    </g>
    <g id="text_16">
     <!-- WES -->
     <g style="fill: #262626" transform="translate(865.654452 94.46165) scale(0.143 -0.143)">
      <defs>
       <path id="DejaVuSans-57" d="M 213 4666 
L 850 4666 
L 1831 722 
L 2809 4666 
L 3519 4666 
L 4500 722 
L 5478 4666 
L 6119 4666 
L 4947 0 
L 4153 0 
L 3169 4050 
L 2175 0 
L 1381 0 
L 213 4666 
z
" transform="scale(0.015625)"/>
      </defs>
      <use xlink:href="#DejaVuSans-57"/>
      <use xlink:href="#DejaVuSans-45" x="98.876953"/>
      <use xlink:href="#DejaVuSans-53" x="162.060547"/>
     </g>
    </g>
    <g id="patch_32">
     <path d="M 825.614452 115.451369 
L 854.214452 115.451369 
L 854.214452 105.441369 
L 825.614452 105.441369 
z
" style="fill: #f6e7bb; stroke: #ffffff; stroke-linejoin: miter"/>
    </g>
    <g id="text_17">
     <!-- WGS -->
     <g style="fill: #262626" transform="translate(865.654452 115.451369) scale(0.143 -0.143)">
      <use xlink:href="#DejaVuSans-57"/>
      <use xlink:href="#DejaVuSans-47" x="98.876953"/>
      <use xlink:href="#DejaVuSans-53" x="176.367188"/>
     </g>
    </g>
    <g id="patch_33">
     <path d="M 825.614452 136.441087 
L 854.214452 136.441087 
L 854.214452 126.431087 
L 825.614452 126.431087 
z
" style="fill: #f7ecc7; stroke: #ffffff; stroke-linejoin: miter"/>
    </g>
    <g id="text_18">
     <!-- genotype -->
     <g style="fill: #262626" transform="translate(865.654452 136.441087) scale(0.143 -0.143)">
      <defs>
       <path id="DejaVuSans-79" d="M 2059 -325 
Q 1816 -950 1584 -1140 
Q 1353 -1331 966 -1331 
L 506 -1331 
L 506 -850 
L 844 -850 
Q 1081 -850 1212 -737 
Q 1344 -625 1503 -206 
L 1606 56 
L 191 3500 
L 800 3500 
L 1894 763 
L 2988 3500 
L 3597 3500 
L 2059 -325 
z
" transform="scale(0.015625)"/>
      </defs>
      <use xlink:href="#DejaVuSans-67"/>
      <use xlink:href="#DejaVuSans-65" x="63.476562"/>
      <use xlink:href="#DejaVuSans-6e" x="125"/>
      <use xlink:href="#DejaVuSans-6f" x="188.378906"/>
      <use xlink:href="#DejaVuSans-74" x="249.560547"/>
      <use xlink:href="#DejaVuSans-79" x="288.769531"/>
      <use xlink:href="#DejaVuSans-70" x="347.949219"/>
      <use xlink:href="#DejaVuSans-65" x="411.425781"/>
     </g>
    </g>
    <g id="patch_34">
     <path d="M 825.614452 157.430806 
L 854.214452 157.430806 
L 854.214452 147.420806 
L 825.614452 147.420806 
z
" style="fill: #f9f0d4; stroke: #ffffff; stroke-linejoin: miter"/>
    </g>
    <g id="text_19">
     <!-- Copy number alterations -->
     <g style="fill: #262626" transform="translate(865.654452 157.430806) scale(0.143 -0.143)">
      <defs>
       <path id="DejaVuSans-20" transform="scale(0.015625)"/>
       <path id="DejaVuSans-75" d="M 544 1381 
L 544 3500 
L 1119 3500 
L 1119 1403 
Q 1119 906 1312 657 
Q 1506 409 1894 409 
Q 2359 409 2629 706 
Q 2900 1003 2900 1516 
L 2900 3500 
L 3475 3500 
L 3475 0 
L 2900 0 
L 2900 538 
Q 2691 219 2414 64 
Q 2138 -91 1772 -91 
Q 1169 -91 856 284 
Q 544 659 544 1381 
z
M 1991 3584 
L 1991 3584 
z
" transform="scale(0.015625)"/>
       <path id="DejaVuSans-62" d="M 3116 1747 
Q 3116 2381 2855 2742 
Q 2594 3103 2138 3103 
Q 1681 3103 1420 2742 
Q 1159 2381 1159 1747 
Q 1159 1113 1420 752 
Q 1681 391 2138 391 
Q 2594 391 2855 752 
Q 3116 1113 3116 1747 
z
M 1159 2969 
Q 1341 3281 1617 3432 
Q 1894 3584 2278 3584 
Q 2916 3584 3314 3078 
Q 3713 2572 3713 1747 
Q 3713 922 3314 415 
Q 2916 -91 2278 -91 
Q 1894 -91 1617 61 
Q 1341 213 1159 525 
L 1159 0 
L 581 0 
L 581 4863 
L 1159 4863 
L 1159 2969 
z
" transform="scale(0.015625)"/>
      </defs>
      <use xlink:href="#DejaVuSans-43"/>
      <use xlink:href="#DejaVuSans-6f" x="69.824219"/>
      <use xlink:href="#DejaVuSans-70" x="131.005859"/>
      <use xlink:href="#DejaVuSans-79" x="194.482422"/>
      <use xlink:href="#DejaVuSans-20" x="253.662109"/>
      <use xlink:href="#DejaVuSans-6e" x="285.449219"/>
      <use xlink:href="#DejaVuSans-75" x="348.828125"/>
      <use xlink:href="#DejaVuSans-6d" x="412.207031"/>
      <use xlink:href="#DejaVuSans-62" x="509.619141"/>
      <use xlink:href="#DejaVuSans-65" x="573.095703"/>
      <use xlink:href="#DejaVuSans-72" x="634.619141"/>
      <use xlink:href="#DejaVuSans-20" x="675.732422"/>
      <use xlink:href="#DejaVuSans-61" x="707.519531"/>
      <use xlink:href="#DejaVuSans-6c" x="768.798828"/>
      <use xlink:href="#DejaVuSans-74" x="796.582031"/>
      <use xlink:href="#DejaVuSans-65" x="835.791016"/>
      <use xlink:href="#DejaVuSans-72" x="897.314453"/>
      <use xlink:href="#DejaVuSans-61" x="938.427734"/>
      <use xlink:href="#DejaVuSans-74" x="999.707031"/>
      <use xlink:href="#DejaVuSans-69" x="1038.916016"/>
      <use xlink:href="#DejaVuSans-6f" x="1066.699219"/>
      <use xlink:href="#DejaVuSans-6e" x="1127.880859"/>
      <use xlink:href="#DejaVuSans-73" x="1191.259766"/>
     </g>
    </g>
    <g id="patch_35">
     <path d="M 825.614452 178.420525 
L 854.214452 178.420525 
L 854.214452 168.410525 
L 825.614452 168.410525 
z
" style="fill: #fbf4e0; stroke: #ffffff; stroke-linejoin: miter"/>
    </g>
    <g id="text_20">
     <!-- Fusions -->
     <g style="fill: #262626" transform="translate(865.654452 178.420525) scale(0.143 -0.143)">
      <defs>
       <path id="DejaVuSans-46" d="M 628 4666 
L 3309 4666 
L 3309 4134 
L 1259 4134 
L 1259 2759 
L 3109 2759 
L 3109 2228 
L 1259 2228 
L 1259 0 
L 628 0 
L 628 4666 
z
" transform="scale(0.015625)"/>
      </defs>
      <use xlink:href="#DejaVuSans-46"/>
      <use xlink:href="#DejaVuSans-75" x="52.019531"/>
      <use xlink:href="#DejaVuSans-73" x="115.398438"/>
      <use xlink:href="#DejaVuSans-69" x="167.498047"/>
      <use xlink:href="#DejaVuSans-6f" x="195.28125"/>
      <use xlink:href="#DejaVuSans-6e" x="256.462891"/>
      <use xlink:href="#DejaVuSans-73" x="319.841797"/>
     </g>
    </g>
    <g id="patch_36">
     <path d="M 825.614452 199.410244 
L 854.214452 199.410244 
L 854.214452 189.400244 
L 825.614452 189.400244 
z
" style="fill: #fcf8ec; stroke: #ffffff; stroke-linejoin: miter"/>
    </g>
    <g id="text_21">
     <!-- Mutations -->
     <g style="fill: #262626" transform="translate(865.654452 199.410244) scale(0.143 -0.143)">
      <defs>
       <path id="DejaVuSans-4d" d="M 628 4666 
L 1569 4666 
L 2759 1491 
L 3956 4666 
L 4897 4666 
L 4897 0 
L 4281 0 
L 4281 4097 
L 3078 897 
L 2444 897 
L 1241 4097 
L 1241 0 
L 628 0 
L 628 4666 
z
" transform="scale(0.015625)"/>
      </defs>
      <use xlink:href="#DejaVuSans-4d"/>
      <use xlink:href="#DejaVuSans-75" x="86.279297"/>
      <use xlink:href="#DejaVuSans-74" x="149.658203"/>
      <use xlink:href="#DejaVuSans-61" x="188.867188"/>
      <use xlink:href="#DejaVuSans-74" x="250.146484"/>
      <use xlink:href="#DejaVuSans-69" x="289.355469"/>
      <use xlink:href="#DejaVuSans-6f" x="317.138672"/>
      <use xlink:href="#DejaVuSans-6e" x="378.320312"/>
      <use xlink:href="#DejaVuSans-73" x="441.699219"/>
     </g>
    </g>
    <g id="patch_37">
     <path d="M 825.614452 220.399962 
L 854.214452 220.399962 
L 854.214452 210.389962 
L 825.614452 210.389962 
z
" style="fill: #37a466; stroke: #ffffff; stroke-linejoin: miter"/>
    </g>
    <g id="text_22">
     <!-- CpGs (methylation) -->
     <g style="fill: #262626" transform="translate(865.654452 220.399962) scale(0.143 -0.143)">
      <defs>
       <path id="DejaVuSans-28" d="M 1984 4856 
Q 1566 4138 1362 3434 
Q 1159 2731 1159 2009 
Q 1159 1288 1364 580 
Q 1569 -128 1984 -844 
L 1484 -844 
Q 1016 -109 783 600 
Q 550 1309 550 2009 
Q 550 2706 781 3412 
Q 1013 4119 1484 4856 
L 1984 4856 
z
" transform="scale(0.015625)"/>
       <path id="DejaVuSans-29" d="M 513 4856 
L 1013 4856 
Q 1481 4119 1714 3412 
Q 1947 2706 1947 2009 
Q 1947 1309 1714 600 
Q 1481 -109 1013 -844 
L 513 -844 
Q 928 -128 1133 580 
Q 1338 1288 1338 2009 
Q 1338 2731 1133 3434 
Q 928 4138 513 4856 
z
" transform="scale(0.015625)"/>
      </defs>
      <use xlink:href="#DejaVuSans-43"/>
      <use xlink:href="#DejaVuSans-70" x="69.824219"/>
      <use xlink:href="#DejaVuSans-47" x="133.300781"/>
      <use xlink:href="#DejaVuSans-73" x="210.791016"/>
      <use xlink:href="#DejaVuSans-20" x="262.890625"/>
      <use xlink:href="#DejaVuSans-28" x="294.677734"/>
      <use xlink:href="#DejaVuSans-6d" x="333.691406"/>
      <use xlink:href="#DejaVuSans-65" x="431.103516"/>
      <use xlink:href="#DejaVuSans-74" x="492.626953"/>
      <use xlink:href="#DejaVuSans-68" x="531.835938"/>
      <use xlink:href="#DejaVuSans-79" x="595.214844"/>
      <use xlink:href="#DejaVuSans-6c" x="654.394531"/>
      <use xlink:href="#DejaVuSans-61" x="682.177734"/>
      <use xlink:href="#DejaVuSans-74" x="743.457031"/>
      <use xlink:href="#DejaVuSans-69" x="782.666016"/>
      <use xlink:href="#DejaVuSans-6f" x="810.449219"/>
      <use xlink:href="#DejaVuSans-6e" x="871.630859"/>
      <use xlink:href="#DejaVuSans-29" x="935.009766"/>
     </g>
    </g>
    <g id="patch_38">
     <path d="M 825.614452 241.389681 
L 854.214452 241.389681 
L 854.214452 231.379681 
L 825.614452 231.379681 
z
" style="fill: #59b380; stroke: #ffffff; stroke-linejoin: miter"/>
    </g>
    <g id="text_23">
     <!-- miRNA -->
     <g style="fill: #262626" transform="translate(865.654452 241.389681) scale(0.143 -0.143)">
      <defs>
       <path id="DejaVuSans-52" d="M 2841 2188 
Q 3044 2119 3236 1894 
Q 3428 1669 3622 1275 
L 4263 0 
L 3584 0 
L 2988 1197 
Q 2756 1666 2539 1819 
Q 2322 1972 1947 1972 
L 1259 1972 
L 1259 0 
L 628 0 
L 628 4666 
L 2053 4666 
Q 2853 4666 3247 4331 
Q 3641 3997 3641 3322 
Q 3641 2881 3436 2590 
Q 3231 2300 2841 2188 
z
M 1259 4147 
L 1259 2491 
L 2053 2491 
Q 2509 2491 2742 2702 
Q 2975 2913 2975 3322 
Q 2975 3731 2742 3939 
Q 2509 4147 2053 4147 
L 1259 4147 
z
" transform="scale(0.015625)"/>
       <path id="DejaVuSans-41" d="M 2188 4044 
L 1331 1722 
L 3047 1722 
L 2188 4044 
z
M 1831 4666 
L 2547 4666 
L 4325 0 
L 3669 0 
L 3244 1197 
L 1141 1197 
L 716 0 
L 50 0 
L 1831 4666 
z
" transform="scale(0.015625)"/>
      </defs>
      <use xlink:href="#DejaVuSans-6d"/>
      <use xlink:href="#DejaVuSans-69" x="97.412109"/>
      <use xlink:href="#DejaVuSans-52" x="125.195312"/>
      <use xlink:href="#DejaVuSans-4e" x="194.677734"/>
      <use xlink:href="#DejaVuSans-41" x="269.482422"/>
     </g>
    </g>
    <g id="patch_39">
     <path d="M 825.614452 262.3794 
L 854.214452 262.3794 
L 854.214452 252.3694 
L 825.614452 252.3694 
z
" style="fill: #7ac299; stroke: #ffffff; stroke-linejoin: miter"/>
    </g>
    <g id="text_24">
     <!-- sc-ATAC -->
     <g style="fill: #262626" transform="translate(865.654452 262.3794) scale(0.143 -0.143)">
      <defs>
       <path id="DejaVuSans-2d" d="M 313 2009 
L 1997 2009 
L 1997 1497 
L 313 1497 
L 313 2009 
z
" transform="scale(0.015625)"/>
      </defs>
      <use xlink:href="#DejaVuSans-73"/>
      <use xlink:href="#DejaVuSans-63" x="52.099609"/>
      <use xlink:href="#DejaVuSans-2d" x="107.080078"/>
      <use xlink:href="#DejaVuSans-41" x="140.914062"/>
      <use xlink:href="#DejaVuSans-54" x="201.572266"/>
      <use xlink:href="#DejaVuSans-41" x="254.90625"/>
      <use xlink:href="#DejaVuSans-43" x="321.564453"/>
     </g>
    </g>
    <g id="patch_40">
     <path d="M 825.614452 283.369119 
L 854.214452 283.369119 
L 854.214452 273.359119 
L 825.614452 273.359119 
z
" style="fill: #9bd1b2; stroke: #ffffff; stroke-linejoin: miter"/>
    </g>
    <g id="text_25">
     <!-- ncRNA -->
     <g style="fill: #262626" transform="translate(865.654452 283.369119) scale(0.143 -0.143)">
      <use xlink:href="#DejaVuSans-6e"/>
      <use xlink:href="#DejaVuSans-63" x="63.378906"/>
      <use xlink:href="#DejaVuSans-52" x="118.359375"/>
      <use xlink:href="#DejaVuSans-4e" x="187.841797"/>
      <use xlink:href="#DejaVuSans-41" x="262.646484"/>
     </g>
    </g>
    <g id="patch_41">
     <path d="M 825.614452 304.358837 
L 854.214452 304.358837 
L 854.214452 294.348837 
L 825.614452 294.348837 
z
" style="fill: #bde1cc; stroke: #ffffff; stroke-linejoin: miter"/>
    </g>
    <g id="text_26">
     <!-- ChIP-seq -->
     <g style="fill: #262626" transform="translate(865.654452 304.358837) scale(0.143 -0.143)">
      <defs>
       <path id="DejaVuSans-49" d="M 628 4666 
L 1259 4666 
L 1259 0 
L 628 0 
L 628 4666 
z
" transform="scale(0.015625)"/>
       <path id="DejaVuSans-71" d="M 947 1747 
Q 947 1113 1208 752 
Q 1469 391 1925 391 
Q 2381 391 2643 752 
Q 2906 1113 2906 1747 
Q 2906 2381 2643 2742 
Q 2381 3103 1925 3103 
Q 1469 3103 1208 2742 
Q 947 2381 947 1747 
z
M 2906 525 
Q 2725 213 2448 61 
Q 2172 -91 1784 -91 
Q 1150 -91 751 415 
Q 353 922 353 1747 
Q 353 2572 751 3078 
Q 1150 3584 1784 3584 
Q 2172 3584 2448 3432 
Q 2725 3281 2906 2969 
L 2906 3500 
L 3481 3500 
L 3481 -1331 
L 2906 -1331 
L 2906 525 
z
" transform="scale(0.015625)"/>
      </defs>
      <use xlink:href="#DejaVuSans-43"/>
      <use xlink:href="#DejaVuSans-68" x="69.824219"/>
      <use xlink:href="#DejaVuSans-49" x="133.203125"/>
      <use xlink:href="#DejaVuSans-50" x="162.695312"/>
      <use xlink:href="#DejaVuSans-2d" x="220.748047"/>
      <use xlink:href="#DejaVuSans-73" x="256.832031"/>
      <use xlink:href="#DejaVuSans-65" x="308.931641"/>
      <use xlink:href="#DejaVuSans-71" x="370.455078"/>
     </g>
    </g>
    <g id="patch_42">
     <path d="M 825.614452 325.348556 
L 854.214452 325.348556 
L 854.214452 315.338556 
L 825.614452 315.338556 
z
" style="fill: #6d87ab; stroke: #ffffff; stroke-linejoin: miter"/>
    </g>
    <g id="text_27">
     <!-- mRNA (gene expression) -->
     <g style="fill: #262626" transform="translate(865.654452 325.348556) scale(0.143 -0.143)">
      <defs>
       <path id="DejaVuSans-78" d="M 3513 3500 
L 2247 1797 
L 3578 0 
L 2900 0 
L 1881 1375 
L 863 0 
L 184 0 
L 1544 1831 
L 300 3500 
L 978 3500 
L 1906 2253 
L 2834 3500 
L 3513 3500 
z
" transform="scale(0.015625)"/>
      </defs>
      <use xlink:href="#DejaVuSans-6d"/>
      <use xlink:href="#DejaVuSans-52" x="97.412109"/>
      <use xlink:href="#DejaVuSans-4e" x="166.894531"/>
      <use xlink:href="#DejaVuSans-41" x="241.699219"/>
      <use xlink:href="#DejaVuSans-20" x="310.107422"/>
      <use xlink:href="#DejaVuSans-28" x="341.894531"/>
      <use xlink:href="#DejaVuSans-67" x="380.908203"/>
      <use xlink:href="#DejaVuSans-65" x="444.384766"/>
      <use xlink:href="#DejaVuSans-6e" x="505.908203"/>
      <use xlink:href="#DejaVuSans-65" x="569.287109"/>
      <use xlink:href="#DejaVuSans-20" x="630.810547"/>
      <use xlink:href="#DejaVuSans-65" x="662.597656"/>
      <use xlink:href="#DejaVuSans-78" x="722.371094"/>
      <use xlink:href="#DejaVuSans-70" x="781.550781"/>
      <use xlink:href="#DejaVuSans-72" x="845.027344"/>
      <use xlink:href="#DejaVuSans-65" x="883.890625"/>
      <use xlink:href="#DejaVuSans-73" x="945.414062"/>
      <use xlink:href="#DejaVuSans-73" x="997.513672"/>
      <use xlink:href="#DejaVuSans-69" x="1049.613281"/>
      <use xlink:href="#DejaVuSans-6f" x="1077.396484"/>
      <use xlink:href="#DejaVuSans-6e" x="1138.578125"/>
      <use xlink:href="#DejaVuSans-29" x="1201.957031"/>
     </g>
    </g>
    <g id="patch_43">
     <path d="M 825.614452 346.338275 
L 854.214452 346.338275 
L 854.214452 336.328275 
L 825.614452 336.328275 
z
" style="fill: #cfd7e3; stroke: #ffffff; stroke-linejoin: miter"/>
    </g>
    <g id="text_28">
     <!-- sc-transcriptomics -->
     <g style="fill: #262626" transform="translate(865.654452 346.338275) scale(0.143 -0.143)">
      <use xlink:href="#DejaVuSans-73"/>
      <use xlink:href="#DejaVuSans-63" x="52.099609"/>
      <use xlink:href="#DejaVuSans-2d" x="107.080078"/>
      <use xlink:href="#DejaVuSans-74" x="143.164062"/>
      <use xlink:href="#DejaVuSans-72" x="182.373047"/>
      <use xlink:href="#DejaVuSans-61" x="223.486328"/>
      <use xlink:href="#DejaVuSans-6e" x="284.765625"/>
      <use xlink:href="#DejaVuSans-73" x="348.144531"/>
      <use xlink:href="#DejaVuSans-63" x="400.244141"/>
      <use xlink:href="#DejaVuSans-72" x="455.224609"/>
      <use xlink:href="#DejaVuSans-69" x="496.337891"/>
      <use xlink:href="#DejaVuSans-70" x="524.121094"/>
      <use xlink:href="#DejaVuSans-74" x="587.597656"/>
      <use xlink:href="#DejaVuSans-6f" x="626.806641"/>
      <use xlink:href="#DejaVuSans-6d" x="687.988281"/>
      <use xlink:href="#DejaVuSans-69" x="785.400391"/>
      <use xlink:href="#DejaVuSans-63" x="813.183594"/>
      <use xlink:href="#DejaVuSans-73" x="868.164062"/>
     </g>
    </g>
    <g id="patch_44">
     <path d="M 825.614452 367.327994 
L 854.214452 367.327994 
L 854.214452 357.317994 
L 825.614452 357.317994 
z
" style="fill: #675550; stroke: #ffffff; stroke-linejoin: miter"/>
    </g>
    <g id="text_29">
     <!-- proteome -->
     <g style="fill: #262626" transform="translate(865.654452 367.327994) scale(0.143 -0.143)">
      <use xlink:href="#DejaVuSans-70"/>
      <use xlink:href="#DejaVuSans-72" x="63.476562"/>
      <use xlink:href="#DejaVuSans-6f" x="102.339844"/>
      <use xlink:href="#DejaVuSans-74" x="163.521484"/>
      <use xlink:href="#DejaVuSans-65" x="202.730469"/>
      <use xlink:href="#DejaVuSans-6f" x="264.253906"/>
      <use xlink:href="#DejaVuSans-6d" x="325.435547"/>
      <use xlink:href="#DejaVuSans-65" x="422.847656"/>
     </g>
    </g>
    <g id="patch_45">
     <path d="M 825.614452 388.317712 
L 854.214452 388.317712 
L 854.214452 378.307712 
L 825.614452 378.307712 
z
" style="fill: #d64c55; stroke: #ffffff; stroke-linejoin: miter"/>
    </g>
    <g id="text_30">
     <!-- clinical -->
     <g style="fill: #262626" transform="translate(865.654452 388.317712) scale(0.143 -0.143)">
      <use xlink:href="#DejaVuSans-63"/>
      <use xlink:href="#DejaVuSans-6c" x="54.980469"/>
      <use xlink:href="#DejaVuSans-69" x="82.763672"/>
      <use xlink:href="#DejaVuSans-6e" x="110.546875"/>
      <use xlink:href="#DejaVuSans-69" x="173.925781"/>
      <use xlink:href="#DejaVuSans-63" x="201.708984"/>
      <use xlink:href="#DejaVuSans-61" x="256.689453"/>
      <use xlink:href="#DejaVuSans-6c" x="317.96875"/>
     </g>
    </g>
    <g id="patch_46">
     <path d="M 825.614452 409.307431 
L 854.214452 409.307431 
L 854.214452 399.297431 
L 825.614452 399.297431 
z
" style="fill: #c5b0a9; stroke: #ffffff; stroke-linejoin: miter"/>
    </g>
    <g id="text_31">
     <!-- other -->
     <g style="fill: #262626" transform="translate(865.654452 409.307431) scale(0.143 -0.143)">
      <use xlink:href="#DejaVuSans-6f"/>
      <use xlink:href="#DejaVuSans-74" x="61.181641"/>
      <use xlink:href="#DejaVuSans-68" x="100.390625"/>
      <use xlink:href="#DejaVuSans-65" x="163.769531"/>
      <use xlink:href="#DejaVuSans-72" x="225.292969"/>
     </g>
    </g>
   </g>
  </g>
 </g>
</svg>
