<?xml version="1.0" encoding="utf-8" standalone="no"?>
<!DOCTYPE svg PUBLIC "-//W3C//DTD SVG 1.1//EN"
  "http://www.w3.org/Graphics/SVG/1.1/DTD/svg11.dtd">
<svg xmlns:xlink="http://www.w3.org/1999/xlink" width="576pt" height="792pt" viewBox="0 0 576 792" xmlns="http://www.w3.org/2000/svg" version="1.1">
 <metadata>
  <rdf:RDF xmlns:dc="http://purl.org/dc/elements/1.1/" xmlns:cc="http://creativecommons.org/ns#" xmlns:rdf="http://www.w3.org/1999/02/22-rdf-syntax-ns#">
   <cc:Work>
    <dc:type rdf:resource="http://purl.org/dc/dcmitype/StillImage"/>
    <dc:date>2024-02-16T17:05:07.948636</dc:date>
    <dc:format>image/svg+xml</dc:format>
    <dc:creator>
     <cc:Agent>
      <dc:title>Matplotlib v3.8.0, https://matplotlib.org/</dc:title>
     </cc:Agent>
    </dc:creator>
   </cc:Work>
  </rdf:RDF>
 </metadata>
 <defs>
  <style type="text/css">*{stroke-linejoin: round; stroke-linecap: butt}</style>
 </defs>
 <g id="figure_1">
  <g id="patch_1">
   <path d="M 0 792 
L 576 792 
L 576 0 
L 0 0 
z
" style="fill: #ffffff"/>
  </g>
  <g id="axes_1">
   <g id="patch_2">
    <path d="M 211.28 725.22 
L 537.767143 725.22 
L 537.767143 19.44 
L 211.28 19.44 
z
" style="fill: #ffffff"/>
   </g>
   <g id="matplotlib.axis_1">
    <g id="xtick_1">
     <g id="line2d_1">
      <path d="M 211.28 725.22 
L 211.28 19.44 
" clip-path="url(#p1c0ba325ce)" style="fill: none; stroke: #cccccc; stroke-linecap: round"/>
     </g>
     <g id="text_1">
      <!-- 0 -->
      <g style="fill: #262626" transform="translate(206.030937 747.257422) scale(0.165 -0.165)">
       <defs>
        <path id="DejaVuSans-30" d="M 2034 4250 
Q 1547 4250 1301 3770 
Q 1056 3291 1056 2328 
Q 1056 1369 1301 889 
Q 1547 409 2034 409 
Q 2525 409 2770 889 
Q 3016 1369 3016 2328 
Q 3016 3291 2770 3770 
Q 2525 4250 2034 4250 
z
M 2034 4750 
Q 2819 4750 3233 4129 
Q 3647 3509 3647 2328 
Q 3647 1150 3233 529 
Q 2819 -91 2034 -91 
Q 1250 -91 836 529 
Q 422 1150 422 2328 
Q 422 3509 836 4129 
Q 1250 4750 2034 4750 
z
" transform="scale(0.015625)"/>
       </defs>
       <use xlink:href="#DejaVuSans-30"/>
      </g>
     </g>
    </g>
    <g id="xtick_2">
     <g id="line2d_2">
      <path d="M 276.603558 725.22 
L 276.603558 19.44 
" clip-path="url(#p1c0ba325ce)" style="fill: none; stroke: #cccccc; stroke-linecap: round"/>
     </g>
     <g id="text_2">
      <!-- 10 -->
      <g style="fill: #262626" transform="translate(266.105433 747.257422) scale(0.165 -0.165)">
       <defs>
        <path id="DejaVuSans-31" d="M 794 531 
L 1825 531 
L 1825 4091 
L 703 3866 
L 703 4441 
L 1819 4666 
L 2450 4666 
L 2450 531 
L 3481 531 
L 3481 0 
L 794 0 
L 794 531 
z
" transform="scale(0.015625)"/>
       </defs>
       <use xlink:href="#DejaVuSans-31"/>
       <use xlink:href="#DejaVuSans-30" x="63.623047"/>
      </g>
     </g>
    </g>
    <g id="xtick_3">
     <g id="line2d_3">
      <path d="M 341.927116 725.22 
L 341.927116 19.44 
" clip-path="url(#p1c0ba325ce)" style="fill: none; stroke: #cccccc; stroke-linecap: round"/>
     </g>
     <g id="text_3">
      <!-- 20 -->
      <g style="fill: #262626" transform="translate(331.428991 747.257422) scale(0.165 -0.165)">
       <defs>
        <path id="DejaVuSans-32" d="M 1228 531 
L 3431 531 
L 3431 0 
L 469 0 
L 469 531 
Q 828 903 1448 1529 
Q 2069 2156 2228 2338 
Q 2531 2678 2651 2914 
Q 2772 3150 2772 3378 
Q 2772 3750 2511 3984 
Q 2250 4219 1831 4219 
Q 1534 4219 1204 4116 
Q 875 4013 500 3803 
L 500 4441 
Q 881 4594 1212 4672 
Q 1544 4750 1819 4750 
Q 2544 4750 2975 4387 
Q 3406 4025 3406 3419 
Q 3406 3131 3298 2873 
Q 3191 2616 2906 2266 
Q 2828 2175 2409 1742 
Q 1991 1309 1228 531 
z
" transform="scale(0.015625)"/>
       </defs>
       <use xlink:href="#DejaVuSans-32"/>
       <use xlink:href="#DejaVuSans-30" x="63.623047"/>
      </g>
     </g>
    </g>
    <g id="xtick_4">
     <g id="line2d_4">
      <path d="M 407.250674 725.22 
L 407.250674 19.44 
" clip-path="url(#p1c0ba325ce)" style="fill: none; stroke: #cccccc; stroke-linecap: round"/>
     </g>
     <g id="text_4">
      <!-- 30 -->
      <g style="fill: #262626" transform="translate(396.752549 747.257422) scale(0.165 -0.165)">
       <defs>
        <path id="DejaVuSans-33" d="M 2597 2516 
Q 3050 2419 3304 2112 
Q 3559 1806 3559 1356 
Q 3559 666 3084 287 
Q 2609 -91 1734 -91 
Q 1441 -91 1130 -33 
Q 819 25 488 141 
L 488 750 
Q 750 597 1062 519 
Q 1375 441 1716 441 
Q 2309 441 2620 675 
Q 2931 909 2931 1356 
Q 2931 1769 2642 2001 
Q 2353 2234 1838 2234 
L 1294 2234 
L 1294 2753 
L 1863 2753 
Q 2328 2753 2575 2939 
Q 2822 3125 2822 3475 
Q 2822 3834 2567 4026 
Q 2313 4219 1838 4219 
Q 1578 4219 1281 4162 
Q 984 4106 628 3988 
L 628 4550 
Q 988 4650 1302 4700 
Q 1616 4750 1894 4750 
Q 2613 4750 3031 4423 
Q 3450 4097 3450 3541 
Q 3450 3153 3228 2886 
Q 3006 2619 2597 2516 
z
" transform="scale(0.015625)"/>
       </defs>
       <use xlink:href="#DejaVuSans-33"/>
       <use xlink:href="#DejaVuSans-30" x="63.623047"/>
      </g>
     </g>
    </g>
    <g id="xtick_5">
     <g id="line2d_5">
      <path d="M 472.574232 725.22 
L 472.574232 19.44 
" clip-path="url(#p1c0ba325ce)" style="fill: none; stroke: #cccccc; stroke-linecap: round"/>
     </g>
     <g id="text_5">
      <!-- 40 -->
      <g style="fill: #262626" transform="translate(462.076107 747.257422) scale(0.165 -0.165)">
       <defs>
        <path id="DejaVuSans-34" d="M 2419 4116 
L 825 1625 
L 2419 1625 
L 2419 4116 
z
M 2253 4666 
L 3047 4666 
L 3047 1625 
L 3713 1625 
L 3713 1100 
L 3047 1100 
L 3047 0 
L 2419 0 
L 2419 1100 
L 313 1100 
L 313 1709 
L 2253 4666 
z
" transform="scale(0.015625)"/>
       </defs>
       <use xlink:href="#DejaVuSans-34"/>
       <use xlink:href="#DejaVuSans-30" x="63.623047"/>
      </g>
     </g>
    </g>
    <g id="text_6">
     <!-- Occurence [%] -->
     <g style="fill: #262626" transform="translate(308.178103 768.366094) scale(0.18 -0.18)">
      <defs>
       <path id="DejaVuSans-4f" d="M 2522 4238 
Q 1834 4238 1429 3725 
Q 1025 3213 1025 2328 
Q 1025 1447 1429 934 
Q 1834 422 2522 422 
Q 3209 422 3611 934 
Q 4013 1447 4013 2328 
Q 4013 3213 3611 3725 
Q 3209 4238 2522 4238 
z
M 2522 4750 
Q 3503 4750 4090 4092 
Q 4678 3434 4678 2328 
Q 4678 1225 4090 567 
Q 3503 -91 2522 -91 
Q 1538 -91 948 565 
Q 359 1222 359 2328 
Q 359 3434 948 4092 
Q 1538 4750 2522 4750 
z
" transform="scale(0.015625)"/>
       <path id="DejaVuSans-63" d="M 3122 3366 
L 3122 2828 
Q 2878 2963 2633 3030 
Q 2388 3097 2138 3097 
Q 1578 3097 1268 2742 
Q 959 2388 959 1747 
Q 959 1106 1268 751 
Q 1578 397 2138 397 
Q 2388 397 2633 464 
Q 2878 531 3122 666 
L 3122 134 
Q 2881 22 2623 -34 
Q 2366 -91 2075 -91 
Q 1284 -91 818 406 
Q 353 903 353 1747 
Q 353 2603 823 3093 
Q 1294 3584 2113 3584 
Q 2378 3584 2631 3529 
Q 2884 3475 3122 3366 
z
" transform="scale(0.015625)"/>
       <path id="DejaVuSans-75" d="M 544 1381 
L 544 3500 
L 1119 3500 
L 1119 1403 
Q 1119 906 1312 657 
Q 1506 409 1894 409 
Q 2359 409 2629 706 
Q 2900 1003 2900 1516 
L 2900 3500 
L 3475 3500 
L 3475 0 
L 2900 0 
L 2900 538 
Q 2691 219 2414 64 
Q 2138 -91 1772 -91 
Q 1169 -91 856 284 
Q 544 659 544 1381 
z
M 1991 3584 
L 1991 3584 
z
" transform="scale(0.015625)"/>
       <path id="DejaVuSans-72" d="M 2631 2963 
Q 2534 3019 2420 3045 
Q 2306 3072 2169 3072 
Q 1681 3072 1420 2755 
Q 1159 2438 1159 1844 
L 1159 0 
L 581 0 
L 581 3500 
L 1159 3500 
L 1159 2956 
Q 1341 3275 1631 3429 
Q 1922 3584 2338 3584 
Q 2397 3584 2469 3576 
Q 2541 3569 2628 3553 
L 2631 2963 
z
" transform="scale(0.015625)"/>
       <path id="DejaVuSans-65" d="M 3597 1894 
L 3597 1613 
L 953 1613 
Q 991 1019 1311 708 
Q 1631 397 2203 397 
Q 2534 397 2845 478 
Q 3156 559 3463 722 
L 3463 178 
Q 3153 47 2828 -22 
Q 2503 -91 2169 -91 
Q 1331 -91 842 396 
Q 353 884 353 1716 
Q 353 2575 817 3079 
Q 1281 3584 2069 3584 
Q 2775 3584 3186 3129 
Q 3597 2675 3597 1894 
z
M 3022 2063 
Q 3016 2534 2758 2815 
Q 2500 3097 2075 3097 
Q 1594 3097 1305 2825 
Q 1016 2553 972 2059 
L 3022 2063 
z
" transform="scale(0.015625)"/>
       <path id="DejaVuSans-6e" d="M 3513 2113 
L 3513 0 
L 2938 0 
L 2938 2094 
Q 2938 2591 2744 2837 
Q 2550 3084 2163 3084 
Q 1697 3084 1428 2787 
Q 1159 2491 1159 1978 
L 1159 0 
L 581 0 
L 581 3500 
L 1159 3500 
L 1159 2956 
Q 1366 3272 1645 3428 
Q 1925 3584 2291 3584 
Q 2894 3584 3203 3211 
Q 3513 2838 3513 2113 
z
" transform="scale(0.015625)"/>
       <path id="DejaVuSans-20" transform="scale(0.015625)"/>
       <path id="DejaVuSans-5b" d="M 550 4863 
L 1875 4863 
L 1875 4416 
L 1125 4416 
L 1125 -397 
L 1875 -397 
L 1875 -844 
L 550 -844 
L 550 4863 
z
" transform="scale(0.015625)"/>
       <path id="DejaVuSans-25" d="M 4653 2053 
Q 4381 2053 4226 1822 
Q 4072 1591 4072 1178 
Q 4072 772 4226 539 
Q 4381 306 4653 306 
Q 4919 306 5073 539 
Q 5228 772 5228 1178 
Q 5228 1588 5073 1820 
Q 4919 2053 4653 2053 
z
M 4653 2450 
Q 5147 2450 5437 2106 
Q 5728 1763 5728 1178 
Q 5728 594 5436 251 
Q 5144 -91 4653 -91 
Q 4153 -91 3862 251 
Q 3572 594 3572 1178 
Q 3572 1766 3864 2108 
Q 4156 2450 4653 2450 
z
M 1428 4353 
Q 1159 4353 1004 4120 
Q 850 3888 850 3481 
Q 850 3069 1003 2837 
Q 1156 2606 1428 2606 
Q 1700 2606 1854 2837 
Q 2009 3069 2009 3481 
Q 2009 3884 1853 4118 
Q 1697 4353 1428 4353 
z
M 4250 4750 
L 4750 4750 
L 1831 -91 
L 1331 -91 
L 4250 4750 
z
M 1428 4750 
Q 1922 4750 2215 4408 
Q 2509 4066 2509 3481 
Q 2509 2891 2217 2550 
Q 1925 2209 1428 2209 
Q 931 2209 642 2551 
Q 353 2894 353 3481 
Q 353 4063 643 4406 
Q 934 4750 1428 4750 
z
" transform="scale(0.015625)"/>
       <path id="DejaVuSans-5d" d="M 1947 4863 
L 1947 -844 
L 622 -844 
L 622 -397 
L 1369 -397 
L 1369 4416 
L 622 4416 
L 622 4863 
L 1947 4863 
z
" transform="scale(0.015625)"/>
      </defs>
      <use xlink:href="#DejaVuSans-4f"/>
      <use xlink:href="#DejaVuSans-63" x="78.710938"/>
      <use xlink:href="#DejaVuSans-63" x="133.691406"/>
      <use xlink:href="#DejaVuSans-75" x="188.671875"/>
      <use xlink:href="#DejaVuSans-72" x="252.050781"/>
      <use xlink:href="#DejaVuSans-65" x="290.914062"/>
      <use xlink:href="#DejaVuSans-6e" x="352.4375"/>
      <use xlink:href="#DejaVuSans-63" x="415.816406"/>
      <use xlink:href="#DejaVuSans-65" x="470.796875"/>
      <use xlink:href="#DejaVuSans-20" x="532.320312"/>
      <use xlink:href="#DejaVuSans-5b" x="564.107422"/>
      <use xlink:href="#DejaVuSans-25" x="603.121094"/>
      <use xlink:href="#DejaVuSans-5d" x="698.140625"/>
     </g>
    </g>
   </g>
   <g id="matplotlib.axis_2">
    <g id="ytick_1">
     <g id="text_7">
      <!-- oncology -->
      <g style="fill: #262626" transform="translate(127.138125 47.764336) scale(0.165 -0.165)">
       <defs>
        <path id="DejaVuSans-6f" d="M 1959 3097 
Q 1497 3097 1228 2736 
Q 959 2375 959 1747 
Q 959 1119 1226 758 
Q 1494 397 1959 397 
Q 2419 397 2687 759 
Q 2956 1122 2956 1747 
Q 2956 2369 2687 2733 
Q 2419 3097 1959 3097 
z
M 1959 3584 
Q 2709 3584 3137 3096 
Q 3566 2609 3566 1747 
Q 3566 888 3137 398 
Q 2709 -91 1959 -91 
Q 1206 -91 779 398 
Q 353 888 353 1747 
Q 353 2609 779 3096 
Q 1206 3584 1959 3584 
z
" transform="scale(0.015625)"/>
        <path id="DejaVuSans-6c" d="M 603 4863 
L 1178 4863 
L 1178 0 
L 603 0 
L 603 4863 
z
" transform="scale(0.015625)"/>
        <path id="DejaVuSans-67" d="M 2906 1791 
Q 2906 2416 2648 2759 
Q 2391 3103 1925 3103 
Q 1463 3103 1205 2759 
Q 947 2416 947 1791 
Q 947 1169 1205 825 
Q 1463 481 1925 481 
Q 2391 481 2648 825 
Q 2906 1169 2906 1791 
z
M 3481 434 
Q 3481 -459 3084 -895 
Q 2688 -1331 1869 -1331 
Q 1566 -1331 1297 -1286 
Q 1028 -1241 775 -1147 
L 775 -588 
Q 1028 -725 1275 -790 
Q 1522 -856 1778 -856 
Q 2344 -856 2625 -561 
Q 2906 -266 2906 331 
L 2906 616 
Q 2728 306 2450 153 
Q 2172 0 1784 0 
Q 1141 0 747 490 
Q 353 981 353 1791 
Q 353 2603 747 3093 
Q 1141 3584 1784 3584 
Q 2172 3584 2450 3431 
Q 2728 3278 2906 2969 
L 2906 3500 
L 3481 3500 
L 3481 434 
z
" transform="scale(0.015625)"/>
        <path id="DejaVuSans-79" d="M 2059 -325 
Q 1816 -950 1584 -1140 
Q 1353 -1331 966 -1331 
L 506 -1331 
L 506 -850 
L 844 -850 
Q 1081 -850 1212 -737 
Q 1344 -625 1503 -206 
L 1606 56 
L 191 3500 
L 800 3500 
L 1894 763 
L 2988 3500 
L 3597 3500 
L 2059 -325 
z
" transform="scale(0.015625)"/>
       </defs>
       <use xlink:href="#DejaVuSans-6f"/>
       <use xlink:href="#DejaVuSans-6e" x="61.181641"/>
       <use xlink:href="#DejaVuSans-63" x="124.560547"/>
       <use xlink:href="#DejaVuSans-6f" x="179.541016"/>
       <use xlink:href="#DejaVuSans-6c" x="240.722656"/>
       <use xlink:href="#DejaVuSans-6f" x="268.505859"/>
       <use xlink:href="#DejaVuSans-67" x="329.6875"/>
       <use xlink:href="#DejaVuSans-79" x="393.164062"/>
      </g>
     </g>
    </g>
    <g id="ytick_2">
     <g id="text_8">
      <!-- neurological disorders -->
      <g style="fill: #262626" transform="translate(19.204922 91.875586) scale(0.165 -0.165)">
       <defs>
        <path id="DejaVuSans-69" d="M 603 3500 
L 1178 3500 
L 1178 0 
L 603 0 
L 603 3500 
z
M 603 4863 
L 1178 4863 
L 1178 4134 
L 603 4134 
L 603 4863 
z
" transform="scale(0.015625)"/>
        <path id="DejaVuSans-61" d="M 2194 1759 
Q 1497 1759 1228 1600 
Q 959 1441 959 1056 
Q 959 750 1161 570 
Q 1363 391 1709 391 
Q 2188 391 2477 730 
Q 2766 1069 2766 1631 
L 2766 1759 
L 2194 1759 
z
M 3341 1997 
L 3341 0 
L 2766 0 
L 2766 531 
Q 2569 213 2275 61 
Q 1981 -91 1556 -91 
Q 1019 -91 701 211 
Q 384 513 384 1019 
Q 384 1609 779 1909 
Q 1175 2209 1959 2209 
L 2766 2209 
L 2766 2266 
Q 2766 2663 2505 2880 
Q 2244 3097 1772 3097 
Q 1472 3097 1187 3025 
Q 903 2953 641 2809 
L 641 3341 
Q 956 3463 1253 3523 
Q 1550 3584 1831 3584 
Q 2591 3584 2966 3190 
Q 3341 2797 3341 1997 
z
" transform="scale(0.015625)"/>
        <path id="DejaVuSans-64" d="M 2906 2969 
L 2906 4863 
L 3481 4863 
L 3481 0 
L 2906 0 
L 2906 525 
Q 2725 213 2448 61 
Q 2172 -91 1784 -91 
Q 1150 -91 751 415 
Q 353 922 353 1747 
Q 353 2572 751 3078 
Q 1150 3584 1784 3584 
Q 2172 3584 2448 3432 
Q 2725 3281 2906 2969 
z
M 947 1747 
Q 947 1113 1208 752 
Q 1469 391 1925 391 
Q 2381 391 2643 752 
Q 2906 1113 2906 1747 
Q 2906 2381 2643 2742 
Q 2381 3103 1925 3103 
Q 1469 3103 1208 2742 
Q 947 2381 947 1747 
z
" transform="scale(0.015625)"/>
        <path id="DejaVuSans-73" d="M 2834 3397 
L 2834 2853 
Q 2591 2978 2328 3040 
Q 2066 3103 1784 3103 
Q 1356 3103 1142 2972 
Q 928 2841 928 2578 
Q 928 2378 1081 2264 
Q 1234 2150 1697 2047 
L 1894 2003 
Q 2506 1872 2764 1633 
Q 3022 1394 3022 966 
Q 3022 478 2636 193 
Q 2250 -91 1575 -91 
Q 1294 -91 989 -36 
Q 684 19 347 128 
L 347 722 
Q 666 556 975 473 
Q 1284 391 1588 391 
Q 1994 391 2212 530 
Q 2431 669 2431 922 
Q 2431 1156 2273 1281 
Q 2116 1406 1581 1522 
L 1381 1569 
Q 847 1681 609 1914 
Q 372 2147 372 2553 
Q 372 3047 722 3315 
Q 1072 3584 1716 3584 
Q 2034 3584 2315 3537 
Q 2597 3491 2834 3397 
z
" transform="scale(0.015625)"/>
       </defs>
       <use xlink:href="#DejaVuSans-6e"/>
       <use xlink:href="#DejaVuSans-65" x="63.378906"/>
       <use xlink:href="#DejaVuSans-75" x="124.902344"/>
       <use xlink:href="#DejaVuSans-72" x="188.28125"/>
       <use xlink:href="#DejaVuSans-6f" x="227.144531"/>
       <use xlink:href="#DejaVuSans-6c" x="288.326172"/>
       <use xlink:href="#DejaVuSans-6f" x="316.109375"/>
       <use xlink:href="#DejaVuSans-67" x="377.291016"/>
       <use xlink:href="#DejaVuSans-69" x="440.767578"/>
       <use xlink:href="#DejaVuSans-63" x="468.550781"/>
       <use xlink:href="#DejaVuSans-61" x="523.53125"/>
       <use xlink:href="#DejaVuSans-6c" x="584.810547"/>
       <use xlink:href="#DejaVuSans-20" x="612.59375"/>
       <use xlink:href="#DejaVuSans-64" x="644.380859"/>
       <use xlink:href="#DejaVuSans-69" x="707.857422"/>
       <use xlink:href="#DejaVuSans-73" x="735.640625"/>
       <use xlink:href="#DejaVuSans-6f" x="787.740234"/>
       <use xlink:href="#DejaVuSans-72" x="848.921875"/>
       <use xlink:href="#DejaVuSans-64" x="888.285156"/>
       <use xlink:href="#DejaVuSans-65" x="951.761719"/>
       <use xlink:href="#DejaVuSans-72" x="1013.285156"/>
       <use xlink:href="#DejaVuSans-73" x="1054.398438"/>
      </g>
     </g>
    </g>
    <g id="ytick_3">
     <g id="text_9">
      <!-- immunology -->
      <g style="fill: #262626" transform="translate(99.121641 135.986836) scale(0.165 -0.165)">
       <defs>
        <path id="DejaVuSans-6d" d="M 3328 2828 
Q 3544 3216 3844 3400 
Q 4144 3584 4550 3584 
Q 5097 3584 5394 3201 
Q 5691 2819 5691 2113 
L 5691 0 
L 5113 0 
L 5113 2094 
Q 5113 2597 4934 2840 
Q 4756 3084 4391 3084 
Q 3944 3084 3684 2787 
Q 3425 2491 3425 1978 
L 3425 0 
L 2847 0 
L 2847 2094 
Q 2847 2600 2669 2842 
Q 2491 3084 2119 3084 
Q 1678 3084 1418 2786 
Q 1159 2488 1159 1978 
L 1159 0 
L 581 0 
L 581 3500 
L 1159 3500 
L 1159 2956 
Q 1356 3278 1631 3431 
Q 1906 3584 2284 3584 
Q 2666 3584 2933 3390 
Q 3200 3197 3328 2828 
z
" transform="scale(0.015625)"/>
       </defs>
       <use xlink:href="#DejaVuSans-69"/>
       <use xlink:href="#DejaVuSans-6d" x="27.783203"/>
       <use xlink:href="#DejaVuSans-6d" x="125.195312"/>
       <use xlink:href="#DejaVuSans-75" x="222.607422"/>
       <use xlink:href="#DejaVuSans-6e" x="285.986328"/>
       <use xlink:href="#DejaVuSans-6f" x="349.365234"/>
       <use xlink:href="#DejaVuSans-6c" x="410.546875"/>
       <use xlink:href="#DejaVuSans-6f" x="438.330078"/>
       <use xlink:href="#DejaVuSans-67" x="499.511719"/>
       <use xlink:href="#DejaVuSans-79" x="562.988281"/>
      </g>
     </g>
    </g>
    <g id="ytick_4">
     <g id="text_10">
      <!-- others -->
      <g style="fill: #262626" transform="translate(149.2275 180.098086) scale(0.165 -0.165)">
       <defs>
        <path id="DejaVuSans-74" d="M 1172 4494 
L 1172 3500 
L 2356 3500 
L 2356 3053 
L 1172 3053 
L 1172 1153 
Q 1172 725 1289 603 
Q 1406 481 1766 481 
L 2356 481 
L 2356 0 
L 1766 0 
Q 1100 0 847 248 
Q 594 497 594 1153 
L 594 3053 
L 172 3053 
L 172 3500 
L 594 3500 
L 594 4494 
L 1172 4494 
z
" transform="scale(0.015625)"/>
        <path id="DejaVuSans-68" d="M 3513 2113 
L 3513 0 
L 2938 0 
L 2938 2094 
Q 2938 2591 2744 2837 
Q 2550 3084 2163 3084 
Q 1697 3084 1428 2787 
Q 1159 2491 1159 1978 
L 1159 0 
L 581 0 
L 581 4863 
L 1159 4863 
L 1159 2956 
Q 1366 3272 1645 3428 
Q 1925 3584 2291 3584 
Q 2894 3584 3203 3211 
Q 3513 2838 3513 2113 
z
" transform="scale(0.015625)"/>
       </defs>
       <use xlink:href="#DejaVuSans-6f"/>
       <use xlink:href="#DejaVuSans-74" x="61.181641"/>
       <use xlink:href="#DejaVuSans-68" x="100.390625"/>
       <use xlink:href="#DejaVuSans-65" x="163.769531"/>
       <use xlink:href="#DejaVuSans-72" x="225.292969"/>
       <use xlink:href="#DejaVuSans-73" x="266.40625"/>
      </g>
     </g>
    </g>
    <g id="ytick_5">
     <g id="text_11">
      <!-- phenotype -->
      <g style="fill: #262626" transform="translate(113.280703 224.209336) scale(0.165 -0.165)">
       <defs>
        <path id="DejaVuSans-70" d="M 1159 525 
L 1159 -1331 
L 581 -1331 
L 581 3500 
L 1159 3500 
L 1159 2969 
Q 1341 3281 1617 3432 
Q 1894 3584 2278 3584 
Q 2916 3584 3314 3078 
Q 3713 2572 3713 1747 
Q 3713 922 3314 415 
Q 2916 -91 2278 -91 
Q 1894 -91 1617 61 
Q 1341 213 1159 525 
z
M 3116 1747 
Q 3116 2381 2855 2742 
Q 2594 3103 2138 3103 
Q 1681 3103 1420 2742 
Q 1159 2381 1159 1747 
Q 1159 1113 1420 752 
Q 1681 391 2138 391 
Q 2594 391 2855 752 
Q 3116 1113 3116 1747 
z
" transform="scale(0.015625)"/>
       </defs>
       <use xlink:href="#DejaVuSans-70"/>
       <use xlink:href="#DejaVuSans-68" x="63.476562"/>
       <use xlink:href="#DejaVuSans-65" x="126.855469"/>
       <use xlink:href="#DejaVuSans-6e" x="188.378906"/>
       <use xlink:href="#DejaVuSans-6f" x="251.757812"/>
       <use xlink:href="#DejaVuSans-74" x="312.939453"/>
       <use xlink:href="#DejaVuSans-79" x="352.148438"/>
       <use xlink:href="#DejaVuSans-70" x="411.328125"/>
       <use xlink:href="#DejaVuSans-65" x="474.804688"/>
      </g>
     </g>
    </g>
    <g id="ytick_6">
     <g id="text_12">
      <!-- covid -->
      <g style="fill: #262626" transform="translate(157.786875 268.320586) scale(0.165 -0.165)">
       <defs>
        <path id="DejaVuSans-76" d="M 191 3500 
L 800 3500 
L 1894 563 
L 2988 3500 
L 3597 3500 
L 2284 0 
L 1503 0 
L 191 3500 
z
" transform="scale(0.015625)"/>
       </defs>
       <use xlink:href="#DejaVuSans-63"/>
       <use xlink:href="#DejaVuSans-6f" x="54.980469"/>
       <use xlink:href="#DejaVuSans-76" x="116.162109"/>
       <use xlink:href="#DejaVuSans-69" x="175.341797"/>
       <use xlink:href="#DejaVuSans-64" x="203.125"/>
      </g>
     </g>
    </g>
    <g id="ytick_7">
     <g id="text_13">
      <!-- drug development -->
      <g style="fill: #262626" transform="translate(49.495312 312.431836) scale(0.165 -0.165)">
       <use xlink:href="#DejaVuSans-64"/>
       <use xlink:href="#DejaVuSans-72" x="63.476562"/>
       <use xlink:href="#DejaVuSans-75" x="104.589844"/>
       <use xlink:href="#DejaVuSans-67" x="167.96875"/>
       <use xlink:href="#DejaVuSans-20" x="231.445312"/>
       <use xlink:href="#DejaVuSans-64" x="263.232422"/>
       <use xlink:href="#DejaVuSans-65" x="326.708984"/>
       <use xlink:href="#DejaVuSans-76" x="388.232422"/>
       <use xlink:href="#DejaVuSans-65" x="447.412109"/>
       <use xlink:href="#DejaVuSans-6c" x="508.935547"/>
       <use xlink:href="#DejaVuSans-6f" x="536.71875"/>
       <use xlink:href="#DejaVuSans-70" x="597.900391"/>
       <use xlink:href="#DejaVuSans-6d" x="661.376953"/>
       <use xlink:href="#DejaVuSans-65" x="758.789062"/>
       <use xlink:href="#DejaVuSans-6e" x="820.3125"/>
       <use xlink:href="#DejaVuSans-74" x="883.691406"/>
      </g>
     </g>
    </g>
    <g id="ytick_8">
     <g id="text_14">
      <!-- population genetics -->
      <g style="fill: #262626" transform="translate(38.775469 356.543086) scale(0.165 -0.165)">
       <use xlink:href="#DejaVuSans-70"/>
       <use xlink:href="#DejaVuSans-6f" x="63.476562"/>
       <use xlink:href="#DejaVuSans-70" x="124.658203"/>
       <use xlink:href="#DejaVuSans-75" x="188.134766"/>
       <use xlink:href="#DejaVuSans-6c" x="251.513672"/>
       <use xlink:href="#DejaVuSans-61" x="279.296875"/>
       <use xlink:href="#DejaVuSans-74" x="340.576172"/>
       <use xlink:href="#DejaVuSans-69" x="379.785156"/>
       <use xlink:href="#DejaVuSans-6f" x="407.568359"/>
       <use xlink:href="#DejaVuSans-6e" x="468.75"/>
       <use xlink:href="#DejaVuSans-20" x="532.128906"/>
       <use xlink:href="#DejaVuSans-67" x="563.916016"/>
       <use xlink:href="#DejaVuSans-65" x="627.392578"/>
       <use xlink:href="#DejaVuSans-6e" x="688.916016"/>
       <use xlink:href="#DejaVuSans-65" x="752.294922"/>
       <use xlink:href="#DejaVuSans-74" x="813.818359"/>
       <use xlink:href="#DejaVuSans-69" x="853.027344"/>
       <use xlink:href="#DejaVuSans-63" x="880.810547"/>
       <use xlink:href="#DejaVuSans-73" x="935.791016"/>
      </g>
     </g>
    </g>
    <g id="ytick_9">
     <g id="text_15">
      <!-- heart disease -->
      <g style="fill: #262626" transform="translate(89.897109 400.654336) scale(0.165 -0.165)">
       <use xlink:href="#DejaVuSans-68"/>
       <use xlink:href="#DejaVuSans-65" x="63.378906"/>
       <use xlink:href="#DejaVuSans-61" x="124.902344"/>
       <use xlink:href="#DejaVuSans-72" x="186.181641"/>
       <use xlink:href="#DejaVuSans-74" x="227.294922"/>
       <use xlink:href="#DejaVuSans-20" x="266.503906"/>
       <use xlink:href="#DejaVuSans-64" x="298.291016"/>
       <use xlink:href="#DejaVuSans-69" x="361.767578"/>
       <use xlink:href="#DejaVuSans-73" x="389.550781"/>
       <use xlink:href="#DejaVuSans-65" x="441.650391"/>
       <use xlink:href="#DejaVuSans-61" x="503.173828"/>
       <use xlink:href="#DejaVuSans-73" x="564.453125"/>
       <use xlink:href="#DejaVuSans-65" x="616.552734"/>
      </g>
     </g>
    </g>
    <g id="ytick_10">
     <g id="text_16">
      <!-- cell differentation -->
      <g style="fill: #262626" transform="translate(56.108203 444.765586) scale(0.165 -0.165)">
       <defs>
        <path id="DejaVuSans-66" d="M 2375 4863 
L 2375 4384 
L 1825 4384 
Q 1516 4384 1395 4259 
Q 1275 4134 1275 3809 
L 1275 3500 
L 2222 3500 
L 2222 3053 
L 1275 3053 
L 1275 0 
L 697 0 
L 697 3053 
L 147 3053 
L 147 3500 
L 697 3500 
L 697 3744 
Q 697 4328 969 4595 
Q 1241 4863 1831 4863 
L 2375 4863 
z
" transform="scale(0.015625)"/>
       </defs>
       <use xlink:href="#DejaVuSans-63"/>
       <use xlink:href="#DejaVuSans-65" x="54.980469"/>
       <use xlink:href="#DejaVuSans-6c" x="116.503906"/>
       <use xlink:href="#DejaVuSans-6c" x="144.287109"/>
       <use xlink:href="#DejaVuSans-20" x="172.070312"/>
       <use xlink:href="#DejaVuSans-64" x="203.857422"/>
       <use xlink:href="#DejaVuSans-69" x="267.333984"/>
       <use xlink:href="#DejaVuSans-66" x="295.117188"/>
       <use xlink:href="#DejaVuSans-66" x="330.322266"/>
       <use xlink:href="#DejaVuSans-65" x="365.527344"/>
       <use xlink:href="#DejaVuSans-72" x="427.050781"/>
       <use xlink:href="#DejaVuSans-65" x="465.914062"/>
       <use xlink:href="#DejaVuSans-6e" x="527.4375"/>
       <use xlink:href="#DejaVuSans-74" x="590.816406"/>
       <use xlink:href="#DejaVuSans-61" x="630.025391"/>
       <use xlink:href="#DejaVuSans-74" x="691.304688"/>
       <use xlink:href="#DejaVuSans-69" x="730.513672"/>
       <use xlink:href="#DejaVuSans-6f" x="758.296875"/>
       <use xlink:href="#DejaVuSans-6e" x="819.478516"/>
      </g>
     </g>
    </g>
    <g id="ytick_11">
     <g id="text_17">
      <!-- metabolic disease -->
      <g style="fill: #262626" transform="translate(52.253906 488.876836) scale(0.165 -0.165)">
       <defs>
        <path id="DejaVuSans-62" d="M 3116 1747 
Q 3116 2381 2855 2742 
Q 2594 3103 2138 3103 
Q 1681 3103 1420 2742 
Q 1159 2381 1159 1747 
Q 1159 1113 1420 752 
Q 1681 391 2138 391 
Q 2594 391 2855 752 
Q 3116 1113 3116 1747 
z
M 1159 2969 
Q 1341 3281 1617 3432 
Q 1894 3584 2278 3584 
Q 2916 3584 3314 3078 
Q 3713 2572 3713 1747 
Q 3713 922 3314 415 
Q 2916 -91 2278 -91 
Q 1894 -91 1617 61 
Q 1341 213 1159 525 
L 1159 0 
L 581 0 
L 581 4863 
L 1159 4863 
L 1159 2969 
z
" transform="scale(0.015625)"/>
       </defs>
       <use xlink:href="#DejaVuSans-6d"/>
       <use xlink:href="#DejaVuSans-65" x="97.412109"/>
       <use xlink:href="#DejaVuSans-74" x="158.935547"/>
       <use xlink:href="#DejaVuSans-61" x="198.144531"/>
       <use xlink:href="#DejaVuSans-62" x="259.423828"/>
       <use xlink:href="#DejaVuSans-6f" x="322.900391"/>
       <use xlink:href="#DejaVuSans-6c" x="384.082031"/>
       <use xlink:href="#DejaVuSans-69" x="411.865234"/>
       <use xlink:href="#DejaVuSans-63" x="439.648438"/>
       <use xlink:href="#DejaVuSans-20" x="494.628906"/>
       <use xlink:href="#DejaVuSans-64" x="526.416016"/>
       <use xlink:href="#DejaVuSans-69" x="589.892578"/>
       <use xlink:href="#DejaVuSans-73" x="617.675781"/>
       <use xlink:href="#DejaVuSans-65" x="669.775391"/>
       <use xlink:href="#DejaVuSans-61" x="731.298828"/>
       <use xlink:href="#DejaVuSans-73" x="792.578125"/>
       <use xlink:href="#DejaVuSans-65" x="844.677734"/>
      </g>
     </g>
    </g>
    <g id="ytick_12">
     <g id="text_18">
      <!-- microorganisms -->
      <g style="fill: #262626" transform="translate(70.063594 532.988086) scale(0.165 -0.165)">
       <use xlink:href="#DejaVuSans-6d"/>
       <use xlink:href="#DejaVuSans-69" x="97.412109"/>
       <use xlink:href="#DejaVuSans-63" x="125.195312"/>
       <use xlink:href="#DejaVuSans-72" x="180.175781"/>
       <use xlink:href="#DejaVuSans-6f" x="219.039062"/>
       <use xlink:href="#DejaVuSans-6f" x="280.220703"/>
       <use xlink:href="#DejaVuSans-72" x="341.402344"/>
       <use xlink:href="#DejaVuSans-67" x="380.765625"/>
       <use xlink:href="#DejaVuSans-61" x="444.242188"/>
       <use xlink:href="#DejaVuSans-6e" x="505.521484"/>
       <use xlink:href="#DejaVuSans-69" x="568.900391"/>
       <use xlink:href="#DejaVuSans-73" x="596.683594"/>
       <use xlink:href="#DejaVuSans-6d" x="648.783203"/>
       <use xlink:href="#DejaVuSans-73" x="746.195312"/>
      </g>
     </g>
    </g>
    <g id="ytick_13">
     <g id="text_19">
      <!-- respitory disease -->
      <g style="fill: #262626" transform="translate(60.537422 577.099336) scale(0.165 -0.165)">
       <use xlink:href="#DejaVuSans-72"/>
       <use xlink:href="#DejaVuSans-65" x="38.863281"/>
       <use xlink:href="#DejaVuSans-73" x="100.386719"/>
       <use xlink:href="#DejaVuSans-70" x="152.486328"/>
       <use xlink:href="#DejaVuSans-69" x="215.962891"/>
       <use xlink:href="#DejaVuSans-74" x="243.746094"/>
       <use xlink:href="#DejaVuSans-6f" x="282.955078"/>
       <use xlink:href="#DejaVuSans-72" x="344.136719"/>
       <use xlink:href="#DejaVuSans-79" x="385.25"/>
       <use xlink:href="#DejaVuSans-20" x="444.429688"/>
       <use xlink:href="#DejaVuSans-64" x="476.216797"/>
       <use xlink:href="#DejaVuSans-69" x="539.693359"/>
       <use xlink:href="#DejaVuSans-73" x="567.476562"/>
       <use xlink:href="#DejaVuSans-65" x="619.576172"/>
       <use xlink:href="#DejaVuSans-61" x="681.099609"/>
       <use xlink:href="#DejaVuSans-73" x="742.378906"/>
       <use xlink:href="#DejaVuSans-65" x="794.478516"/>
      </g>
     </g>
    </g>
    <g id="ytick_14">
     <g id="text_20">
      <!-- tissue classification -->
      <g style="fill: #262626" transform="translate(40.959141 621.210586) scale(0.165 -0.165)">
       <use xlink:href="#DejaVuSans-74"/>
       <use xlink:href="#DejaVuSans-69" x="39.208984"/>
       <use xlink:href="#DejaVuSans-73" x="66.992188"/>
       <use xlink:href="#DejaVuSans-73" x="119.091797"/>
       <use xlink:href="#DejaVuSans-75" x="171.191406"/>
       <use xlink:href="#DejaVuSans-65" x="234.570312"/>
       <use xlink:href="#DejaVuSans-20" x="296.09375"/>
       <use xlink:href="#DejaVuSans-63" x="327.880859"/>
       <use xlink:href="#DejaVuSans-6c" x="382.861328"/>
       <use xlink:href="#DejaVuSans-61" x="410.644531"/>
       <use xlink:href="#DejaVuSans-73" x="471.923828"/>
       <use xlink:href="#DejaVuSans-73" x="524.023438"/>
       <use xlink:href="#DejaVuSans-69" x="576.123047"/>
       <use xlink:href="#DejaVuSans-66" x="603.90625"/>
       <use xlink:href="#DejaVuSans-69" x="639.111328"/>
       <use xlink:href="#DejaVuSans-63" x="666.894531"/>
       <use xlink:href="#DejaVuSans-61" x="721.875"/>
       <use xlink:href="#DejaVuSans-74" x="783.154297"/>
       <use xlink:href="#DejaVuSans-69" x="822.363281"/>
       <use xlink:href="#DejaVuSans-6f" x="850.146484"/>
       <use xlink:href="#DejaVuSans-6e" x="911.328125"/>
      </g>
     </g>
    </g>
    <g id="ytick_15">
     <g id="text_21">
      <!-- single-cell -->
      <g style="fill: #262626" transform="translate(118.586484 665.321836) scale(0.165 -0.165)">
       <defs>
        <path id="DejaVuSans-2d" d="M 313 2009 
L 1997 2009 
L 1997 1497 
L 313 1497 
L 313 2009 
z
" transform="scale(0.015625)"/>
       </defs>
       <use xlink:href="#DejaVuSans-73"/>
       <use xlink:href="#DejaVuSans-69" x="52.099609"/>
       <use xlink:href="#DejaVuSans-6e" x="79.882812"/>
       <use xlink:href="#DejaVuSans-67" x="143.261719"/>
       <use xlink:href="#DejaVuSans-6c" x="206.738281"/>
       <use xlink:href="#DejaVuSans-65" x="234.521484"/>
       <use xlink:href="#DejaVuSans-2d" x="296.044922"/>
       <use xlink:href="#DejaVuSans-63" x="332.128906"/>
       <use xlink:href="#DejaVuSans-65" x="387.109375"/>
       <use xlink:href="#DejaVuSans-6c" x="448.632812"/>
       <use xlink:href="#DejaVuSans-6c" x="476.416016"/>
      </g>
     </g>
    </g>
    <g id="ytick_16">
     <g id="text_22">
      <!-- opthalmology -->
      <g style="fill: #262626" transform="translate(88.499766 709.433086) scale(0.165 -0.165)">
       <use xlink:href="#DejaVuSans-6f"/>
       <use xlink:href="#DejaVuSans-70" x="61.181641"/>
       <use xlink:href="#DejaVuSans-74" x="124.658203"/>
       <use xlink:href="#DejaVuSans-68" x="163.867188"/>
       <use xlink:href="#DejaVuSans-61" x="227.246094"/>
       <use xlink:href="#DejaVuSans-6c" x="288.525391"/>
       <use xlink:href="#DejaVuSans-6d" x="316.308594"/>
       <use xlink:href="#DejaVuSans-6f" x="413.720703"/>
       <use xlink:href="#DejaVuSans-6c" x="474.902344"/>
       <use xlink:href="#DejaVuSans-6f" x="502.685547"/>
       <use xlink:href="#DejaVuSans-67" x="563.867188"/>
       <use xlink:href="#DejaVuSans-79" x="627.34375"/>
      </g>
     </g>
    </g>
   </g>
   <g id="patch_3">
    <path d="M 211.28 23.851125 
L 522.220136 23.851125 
L 522.220136 59.140125 
L 211.28 59.140125 
z
" clip-path="url(#p1c0ba325ce)" style="fill: #f9f7d7; stroke: #ffffff; stroke-linejoin: miter"/>
   </g>
   <g id="patch_4">
    <path d="M 211.28 67.962375 
L 277.910029 67.962375 
L 277.910029 103.251375 
L 211.28 103.251375 
z
" clip-path="url(#p1c0ba325ce)" style="fill: #f7f1c6; stroke: #ffffff; stroke-linejoin: miter"/>
   </g>
   <g id="patch_5">
    <path d="M 211.28 112.073625 
L 277.910029 112.073625 
L 277.910029 147.362625 
L 211.28 147.362625 
z
" clip-path="url(#p1c0ba325ce)" style="fill: #f4e8b5; stroke: #ffffff; stroke-linejoin: miter"/>
   </g>
   <g id="patch_6">
    <path d="M 211.28 156.184875 
L 277.910029 156.184875 
L 277.910029 191.473875 
L 211.28 191.473875 
z
" clip-path="url(#p1c0ba325ce)" style="fill: #f1dfa3; stroke: #ffffff; stroke-linejoin: miter"/>
   </g>
   <g id="patch_7">
    <path d="M 211.28 200.296125 
L 246.554721 200.296125 
L 246.554721 235.585125 
L 211.28 235.585125 
z
" clip-path="url(#p1c0ba325ce)" style="fill: #edd18a; stroke: #ffffff; stroke-linejoin: miter"/>
   </g>
   <g id="patch_8">
    <path d="M 211.28 244.407375 
L 228.917361 244.407375 
L 228.917361 279.696375 
L 211.28 279.696375 
z
" clip-path="url(#p1c0ba325ce)" style="fill: #eac26f; stroke: #ffffff; stroke-linejoin: miter"/>
   </g>
   <g id="patch_9">
    <path d="M 211.28 288.518625 
L 228.917361 288.518625 
L 228.917361 323.807625 
L 211.28 323.807625 
z
" clip-path="url(#p1c0ba325ce)" style="fill: #e7b25b; stroke: #ffffff; stroke-linejoin: miter"/>
   </g>
   <g id="patch_10">
    <path d="M 211.28 332.629875 
L 224.344712 332.629875 
L 224.344712 367.918875 
L 211.28 367.918875 
z
" clip-path="url(#p1c0ba325ce)" style="fill: #e4a04b; stroke: #ffffff; stroke-linejoin: miter"/>
   </g>
   <g id="patch_11">
    <path d="M 211.28 376.741125 
L 224.344712 376.741125 
L 224.344712 412.030125 
L 211.28 412.030125 
z
" clip-path="url(#p1c0ba325ce)" style="fill: #df8f3f; stroke: #ffffff; stroke-linejoin: miter"/>
   </g>
   <g id="patch_12">
    <path d="M 211.28 420.852375 
L 220.425298 420.852375 
L 220.425298 456.141375 
L 211.28 456.141375 
z
" clip-path="url(#p1c0ba325ce)" style="fill: #d67e35; stroke: #ffffff; stroke-linejoin: miter"/>
   </g>
   <g id="patch_13">
    <path d="M 211.28 464.963625 
L 220.425298 464.963625 
L 220.425298 500.252625 
L 211.28 500.252625 
z
" clip-path="url(#p1c0ba325ce)" style="fill: #cc6e2c; stroke: #ffffff; stroke-linejoin: miter"/>
   </g>
   <g id="patch_14">
    <path d="M 211.28 509.074875 
L 220.425298 509.074875 
L 220.425298 544.363875 
L 211.28 544.363875 
z
" clip-path="url(#p1c0ba325ce)" style="fill: #bd5e22; stroke: #ffffff; stroke-linejoin: miter"/>
   </g>
   <g id="patch_15">
    <path d="M 211.28 553.186125 
L 215.852649 553.186125 
L 215.852649 588.475125 
L 211.28 588.475125 
z
" clip-path="url(#p1c0ba325ce)" style="fill: #ae501b; stroke: #ffffff; stroke-linejoin: miter"/>
   </g>
   <g id="patch_16">
    <path d="M 211.28 597.297375 
L 215.852649 597.297375 
L 215.852649 632.586375 
L 211.28 632.586375 
z
" clip-path="url(#p1c0ba325ce)" style="fill: #994519; stroke: #ffffff; stroke-linejoin: miter"/>
   </g>
   <g id="patch_17">
    <path d="M 211.28 641.408625 
L 215.852649 641.408625 
L 215.852649 676.697625 
L 211.28 676.697625 
z
" clip-path="url(#p1c0ba325ce)" style="fill: #843a16; stroke: #ffffff; stroke-linejoin: miter"/>
   </g>
   <g id="patch_18">
    <path d="M 211.28 685.519875 
L 215.852649 685.519875 
L 215.852649 720.808875 
L 211.28 720.808875 
z
" clip-path="url(#p1c0ba325ce)" style="fill: #6f3114; stroke: #ffffff; stroke-linejoin: miter"/>
   </g>
   <g id="line2d_6">
    <path clip-path="url(#p1c0ba325ce)" style="fill: none; stroke: #424242; stroke-width: 2.7; stroke-linecap: round"/>
   </g>
   <g id="line2d_7">
    <path clip-path="url(#p1c0ba325ce)" style="fill: none; stroke: #424242; stroke-width: 2.7; stroke-linecap: round"/>
   </g>
   <g id="line2d_8">
    <path clip-path="url(#p1c0ba325ce)" style="fill: none; stroke: #424242; stroke-width: 2.7; stroke-linecap: round"/>
   </g>
   <g id="line2d_9">
    <path clip-path="url(#p1c0ba325ce)" style="fill: none; stroke: #424242; stroke-width: 2.7; stroke-linecap: round"/>
   </g>
   <g id="line2d_10">
    <path clip-path="url(#p1c0ba325ce)" style="fill: none; stroke: #424242; stroke-width: 2.7; stroke-linecap: round"/>
   </g>
   <g id="line2d_11">
    <path clip-path="url(#p1c0ba325ce)" style="fill: none; stroke: #424242; stroke-width: 2.7; stroke-linecap: round"/>
   </g>
   <g id="line2d_12">
    <path clip-path="url(#p1c0ba325ce)" style="fill: none; stroke: #424242; stroke-width: 2.7; stroke-linecap: round"/>
   </g>
   <g id="line2d_13">
    <path clip-path="url(#p1c0ba325ce)" style="fill: none; stroke: #424242; stroke-width: 2.7; stroke-linecap: round"/>
   </g>
   <g id="line2d_14">
    <path clip-path="url(#p1c0ba325ce)" style="fill: none; stroke: #424242; stroke-width: 2.7; stroke-linecap: round"/>
   </g>
   <g id="line2d_15">
    <path clip-path="url(#p1c0ba325ce)" style="fill: none; stroke: #424242; stroke-width: 2.7; stroke-linecap: round"/>
   </g>
   <g id="line2d_16">
    <path clip-path="url(#p1c0ba325ce)" style="fill: none; stroke: #424242; stroke-width: 2.7; stroke-linecap: round"/>
   </g>
   <g id="line2d_17">
    <path clip-path="url(#p1c0ba325ce)" style="fill: none; stroke: #424242; stroke-width: 2.7; stroke-linecap: round"/>
   </g>
   <g id="line2d_18">
    <path clip-path="url(#p1c0ba325ce)" style="fill: none; stroke: #424242; stroke-width: 2.7; stroke-linecap: round"/>
   </g>
   <g id="line2d_19">
    <path clip-path="url(#p1c0ba325ce)" style="fill: none; stroke: #424242; stroke-width: 2.7; stroke-linecap: round"/>
   </g>
   <g id="line2d_20">
    <path clip-path="url(#p1c0ba325ce)" style="fill: none; stroke: #424242; stroke-width: 2.7; stroke-linecap: round"/>
   </g>
   <g id="line2d_21">
    <path clip-path="url(#p1c0ba325ce)" style="fill: none; stroke: #424242; stroke-width: 2.7; stroke-linecap: round"/>
   </g>
   <g id="patch_19">
    <path d="M 211.28 725.22 
L 211.28 19.44 
" style="fill: none; stroke: #cccccc; stroke-width: 1.25; stroke-linejoin: miter; stroke-linecap: square"/>
   </g>
   <g id="patch_20">
    <path d="M 537.767143 725.22 
L 537.767143 19.44 
" style="fill: none; stroke: #cccccc; stroke-width: 1.25; stroke-linejoin: miter; stroke-linecap: square"/>
   </g>
   <g id="patch_21">
    <path d="M 211.28 725.22 
L 537.767143 725.22 
" style="fill: none; stroke: #cccccc; stroke-width: 1.25; stroke-linejoin: miter; stroke-linecap: square"/>
   </g>
   <g id="patch_22">
    <path d="M 211.28 19.44 
L 537.767143 19.44 
" style="fill: none; stroke: #cccccc; stroke-width: 1.25; stroke-linejoin: miter; stroke-linecap: square"/>
   </g>
   <g id="text_23">
    <!-- 47.6 -->
    <g style="fill: #262626" transform="translate(522.220136 46.4625) scale(0.18 -0.18)">
     <defs>
      <path id="DejaVuSans-37" d="M 525 4666 
L 3525 4666 
L 3525 4397 
L 1831 0 
L 1172 0 
L 2766 4134 
L 525 4134 
L 525 4666 
z
" transform="scale(0.015625)"/>
      <path id="DejaVuSans-2e" d="M 684 794 
L 1344 794 
L 1344 0 
L 684 0 
L 684 794 
z
" transform="scale(0.015625)"/>
      <path id="DejaVuSans-36" d="M 2113 2584 
Q 1688 2584 1439 2293 
Q 1191 2003 1191 1497 
Q 1191 994 1439 701 
Q 1688 409 2113 409 
Q 2538 409 2786 701 
Q 3034 994 3034 1497 
Q 3034 2003 2786 2293 
Q 2538 2584 2113 2584 
z
M 3366 4563 
L 3366 3988 
Q 3128 4100 2886 4159 
Q 2644 4219 2406 4219 
Q 1781 4219 1451 3797 
Q 1122 3375 1075 2522 
Q 1259 2794 1537 2939 
Q 1816 3084 2150 3084 
Q 2853 3084 3261 2657 
Q 3669 2231 3669 1497 
Q 3669 778 3244 343 
Q 2819 -91 2113 -91 
Q 1303 -91 875 529 
Q 447 1150 447 2328 
Q 447 3434 972 4092 
Q 1497 4750 2381 4750 
Q 2619 4750 2861 4703 
Q 3103 4656 3366 4563 
z
" transform="scale(0.015625)"/>
     </defs>
     <use xlink:href="#DejaVuSans-34"/>
     <use xlink:href="#DejaVuSans-37" x="63.623047"/>
     <use xlink:href="#DejaVuSans-2e" x="127.246094"/>
     <use xlink:href="#DejaVuSans-36" x="159.033203"/>
    </g>
   </g>
   <g id="text_24">
    <!-- 10.2 -->
    <g style="fill: #262626" transform="translate(277.910029 90.57375) scale(0.18 -0.18)">
     <use xlink:href="#DejaVuSans-31"/>
     <use xlink:href="#DejaVuSans-30" x="63.623047"/>
     <use xlink:href="#DejaVuSans-2e" x="127.246094"/>
     <use xlink:href="#DejaVuSans-32" x="159.033203"/>
    </g>
   </g>
   <g id="text_25">
    <!-- 10.2 -->
    <g style="fill: #262626" transform="translate(277.910029 134.685) scale(0.18 -0.18)">
     <use xlink:href="#DejaVuSans-31"/>
     <use xlink:href="#DejaVuSans-30" x="63.623047"/>
     <use xlink:href="#DejaVuSans-2e" x="127.246094"/>
     <use xlink:href="#DejaVuSans-32" x="159.033203"/>
    </g>
   </g>
   <g id="text_26">
    <!-- 10.2 -->
    <g style="fill: #262626" transform="translate(277.910029 178.79625) scale(0.18 -0.18)">
     <use xlink:href="#DejaVuSans-31"/>
     <use xlink:href="#DejaVuSans-30" x="63.623047"/>
     <use xlink:href="#DejaVuSans-2e" x="127.246094"/>
     <use xlink:href="#DejaVuSans-32" x="159.033203"/>
    </g>
   </g>
   <g id="text_27">
    <!-- 5.4 -->
    <g style="fill: #262626" transform="translate(246.554721 222.9075) scale(0.18 -0.18)">
     <defs>
      <path id="DejaVuSans-35" d="M 691 4666 
L 3169 4666 
L 3169 4134 
L 1269 4134 
L 1269 2991 
Q 1406 3038 1543 3061 
Q 1681 3084 1819 3084 
Q 2600 3084 3056 2656 
Q 3513 2228 3513 1497 
Q 3513 744 3044 326 
Q 2575 -91 1722 -91 
Q 1428 -91 1123 -41 
Q 819 9 494 109 
L 494 744 
Q 775 591 1075 516 
Q 1375 441 1709 441 
Q 2250 441 2565 725 
Q 2881 1009 2881 1497 
Q 2881 1984 2565 2268 
Q 2250 2553 1709 2553 
Q 1456 2553 1204 2497 
Q 953 2441 691 2322 
L 691 4666 
z
" transform="scale(0.015625)"/>
     </defs>
     <use xlink:href="#DejaVuSans-35"/>
     <use xlink:href="#DejaVuSans-2e" x="63.623047"/>
     <use xlink:href="#DejaVuSans-34" x="95.410156"/>
    </g>
   </g>
   <g id="text_28">
    <!-- 2.7 -->
    <g style="fill: #262626" transform="translate(228.917361 267.01875) scale(0.18 -0.18)">
     <use xlink:href="#DejaVuSans-32"/>
     <use xlink:href="#DejaVuSans-2e" x="63.623047"/>
     <use xlink:href="#DejaVuSans-37" x="95.410156"/>
    </g>
   </g>
   <g id="text_29">
    <!-- 2.7 -->
    <g style="fill: #262626" transform="translate(228.917361 311.13) scale(0.18 -0.18)">
     <use xlink:href="#DejaVuSans-32"/>
     <use xlink:href="#DejaVuSans-2e" x="63.623047"/>
     <use xlink:href="#DejaVuSans-37" x="95.410156"/>
    </g>
   </g>
   <g id="text_30">
    <!-- 2 -->
    <g style="fill: #262626" transform="translate(224.344712 355.24125) scale(0.18 -0.18)">
     <use xlink:href="#DejaVuSans-32"/>
    </g>
   </g>
   <g id="text_31">
    <!-- 2 -->
    <g style="fill: #262626" transform="translate(224.344712 399.3525) scale(0.18 -0.18)">
     <use xlink:href="#DejaVuSans-32"/>
    </g>
   </g>
   <g id="text_32">
    <!-- 1.4 -->
    <g style="fill: #262626" transform="translate(220.425298 443.46375) scale(0.18 -0.18)">
     <use xlink:href="#DejaVuSans-31"/>
     <use xlink:href="#DejaVuSans-2e" x="63.623047"/>
     <use xlink:href="#DejaVuSans-34" x="95.410156"/>
    </g>
   </g>
   <g id="text_33">
    <!-- 1.4 -->
    <g style="fill: #262626" transform="translate(220.425298 487.575) scale(0.18 -0.18)">
     <use xlink:href="#DejaVuSans-31"/>
     <use xlink:href="#DejaVuSans-2e" x="63.623047"/>
     <use xlink:href="#DejaVuSans-34" x="95.410156"/>
    </g>
   </g>
   <g id="text_34">
    <!-- 1.4 -->
    <g style="fill: #262626" transform="translate(220.425298 531.68625) scale(0.18 -0.18)">
     <use xlink:href="#DejaVuSans-31"/>
     <use xlink:href="#DejaVuSans-2e" x="63.623047"/>
     <use xlink:href="#DejaVuSans-34" x="95.410156"/>
    </g>
   </g>
   <g id="text_35">
    <!-- 0.7 -->
    <g style="fill: #262626" transform="translate(215.852649 575.7975) scale(0.18 -0.18)">
     <use xlink:href="#DejaVuSans-30"/>
     <use xlink:href="#DejaVuSans-2e" x="63.623047"/>
     <use xlink:href="#DejaVuSans-37" x="95.410156"/>
    </g>
   </g>
   <g id="text_36">
    <!-- 0.7 -->
    <g style="fill: #262626" transform="translate(215.852649 619.90875) scale(0.18 -0.18)">
     <use xlink:href="#DejaVuSans-30"/>
     <use xlink:href="#DejaVuSans-2e" x="63.623047"/>
     <use xlink:href="#DejaVuSans-37" x="95.410156"/>
    </g>
   </g>
   <g id="text_37">
    <!-- 0.7 -->
    <g style="fill: #262626" transform="translate(215.852649 664.02) scale(0.18 -0.18)">
     <use xlink:href="#DejaVuSans-30"/>
     <use xlink:href="#DejaVuSans-2e" x="63.623047"/>
     <use xlink:href="#DejaVuSans-37" x="95.410156"/>
    </g>
   </g>
   <g id="text_38">
    <!-- 0.7 -->
    <g style="fill: #262626" transform="translate(215.852649 708.13125) scale(0.18 -0.18)">
     <use xlink:href="#DejaVuSans-30"/>
     <use xlink:href="#DejaVuSans-2e" x="63.623047"/>
     <use xlink:href="#DejaVuSans-37" x="95.410156"/>
    </g>
   </g>
  </g>
 </g>
 <defs>
  <clipPath id="p1c0ba325ce">
   <rect x="211.28" y="19.44" width="326.487143" height="705.78"/>
  </clipPath>
 </defs>
</svg>
