<?xml version="1.0" encoding="utf-8" standalone="no"?>
<!DOCTYPE svg PUBLIC "-//W3C//DTD SVG 1.1//EN"
  "http://www.w3.org/Graphics/SVG/1.1/DTD/svg11.dtd">
<svg xmlns:xlink="http://www.w3.org/1999/xlink" width="504pt" height="504pt" viewBox="0 0 504 504" xmlns="http://www.w3.org/2000/svg" version="1.1">
 <metadata>
  <rdf:RDF xmlns:dc="http://purl.org/dc/elements/1.1/" xmlns:cc="http://creativecommons.org/ns#" xmlns:rdf="http://www.w3.org/1999/02/22-rdf-syntax-ns#">
   <cc:Work>
    <dc:type rdf:resource="http://purl.org/dc/dcmitype/StillImage"/>
    <dc:date>2024-02-16T17:04:34.551594</dc:date>
    <dc:format>image/svg+xml</dc:format>
    <dc:creator>
     <cc:Agent>
      <dc:title>Matplotlib v3.8.0, https://matplotlib.org/</dc:title>
     </cc:Agent>
    </dc:creator>
   </cc:Work>
  </rdf:RDF>
 </metadata>
 <defs>
  <style type="text/css">*{stroke-linejoin: round; stroke-linecap: butt}</style>
 </defs>
 <g id="figure_1">
  <g id="patch_1">
   <path d="M 0 504 
L 504 504 
L 504 0 
L 0 0 
z
" style="fill: #ffffff"/>
  </g>
  <g id="axes_1">
   <g id="matplotlib.axis_1"/>
   <g id="matplotlib.axis_2"/>
   <g id="patch_2">
    <path d="M 264.177 252 
C 264.177 224.567603 253.799287 198.125621 235.140518 178.016251 
C 216.481749 157.906881 190.889232 145.582174 163.533541 143.532149 
C 136.177851 141.482123 109.034278 149.854806 87.586767 166.958626 
C 66.139255 184.062446 51.93648 208.662376 47.847893 235.788376 
L 155.405 252 
z
" style="fill: #4c72b0; stroke: #ffffff; stroke-linejoin: miter"/>
   </g>
   <g id="patch_3">
    <path d="M 47.847893 235.788376 
C 46.111869 247.306144 46.237134 259.028352 48.218893 270.506392 
C 50.200653 281.984431 54.0133 293.069988 59.510925 303.338819 
L 155.405 252 
z
" style="fill: #dd8452; stroke: #ffffff; stroke-linejoin: miter"/>
   </g>
   <g id="patch_4">
    <path d="M 59.510925 303.338819 
C 65.00855 313.60765 72.120115 322.927065 80.57346 330.940412 
C 89.026805 338.953758 98.712701 345.55749 109.260468 350.498884 
L 155.405 252 
z
" style="fill: #55a868; stroke: #ffffff; stroke-linejoin: miter"/>
   </g>
   <g id="patch_5">
    <path d="M 109.260468 350.498884 
C 119.808235 355.440278 131.08158 358.655483 142.649073 360.021453 
C 154.216566 361.387423 165.928737 360.886508 177.337361 358.537878 
L 155.405 252 
z
" style="fill: #c44e52; stroke: #ffffff; stroke-linejoin: miter"/>
   </g>
   <g id="patch_6">
    <path d="M 177.337361 358.537878 
C 183.412686 357.287185 189.369912 355.519112 195.143867 353.253002 
C 200.917822 350.986892 206.487373 348.231039 211.79159 345.015593 
L 155.405 252 
z
" style="fill: #8172b3; stroke: #ffffff; stroke-linejoin: miter"/>
   </g>
   <g id="patch_7">
    <path d="M 211.79159 345.015593 
C 214.442488 343.408603 217.023478 341.689023 219.527489 339.861563 
C 222.031501 338.034104 224.456246 336.100435 226.795082 334.065853 
L 155.405 252 
z
" style="fill: #937860; stroke: #ffffff; stroke-linejoin: miter"/>
   </g>
   <g id="patch_8">
    <path d="M 226.795082 334.065853 
C 229.133918 332.03127 231.384709 329.897634 233.54129 327.670788 
C 235.69787 325.443943 237.758269 323.125922 239.716843 320.723076 
L 155.405 252 
z
" style="fill: #da8bc3; stroke: #ffffff; stroke-linejoin: miter"/>
   </g>
   <g id="patch_9">
    <path d="M 239.716843 320.723076 
C 241.185675 318.921061 242.596358 317.072419 243.946717 315.179999 
C 245.297077 313.287578 246.586418 311.352352 247.812755 309.377302 
L 155.405 252 
z
" style="fill: #8c8c8c; stroke: #ffffff; stroke-linejoin: miter"/>
   </g>
   <g id="patch_10">
    <path d="M 247.812755 309.377302 
C 249.039092 307.402251 250.201794 305.388393 251.29907 303.338829 
C 252.396345 301.289265 253.42763 299.205049 254.391335 297.089394 
L 155.405 252 
z
" style="fill: #ccb974; stroke: #ffffff; stroke-linejoin: miter"/>
   </g>
   <g id="patch_11">
    <path d="M 254.391335 297.089394 
C 255.033775 295.679024 255.645998 294.255084 256.227586 292.818551 
C 256.809174 291.382018 257.359994 289.933219 257.879668 288.473147 
L 155.405 252 
z
" style="fill: #64b5cd; stroke: #ffffff; stroke-linejoin: miter"/>
   </g>
   <g id="patch_12">
    <path d="M 257.879668 288.473147 
C 258.399342 287.013075 258.887752 285.542063 259.344562 284.061119 
C 259.801373 282.580175 260.226481 281.089637 260.619594 279.590526 
L 155.405 252 
z
" style="fill: #4c72b0; stroke: #ffffff; stroke-linejoin: miter"/>
   </g>
   <g id="patch_13">
    <path d="M 260.619594 279.590526 
C 261.012708 278.091415 261.373737 276.584073 261.702435 275.069534 
C 262.031132 273.554994 262.327423 272.033603 262.591105 270.506402 
L 155.405 252 
z
" style="fill: #dd8452; stroke: #ffffff; stroke-linejoin: miter"/>
   </g>
   <g id="patch_14">
    <path d="M 262.591105 270.506402 
C 262.722942 269.742823 262.846616 268.977857 262.962105 268.211635 
C 263.077595 267.445413 263.184893 266.677979 263.283982 265.909464 
L 155.405 252 
z
" style="fill: #55a868; stroke: #ffffff; stroke-linejoin: miter"/>
   </g>
   <g id="patch_15">
    <path d="M 263.283982 265.909464 
C 263.383071 265.14095 263.473945 264.371398 263.556589 263.600941 
C 263.639232 262.830484 263.71364 262.059166 263.779801 261.287119 
L 155.405 252 
z
" style="fill: #c44e52; stroke: #ffffff; stroke-linejoin: miter"/>
   </g>
   <g id="patch_16">
    <path d="M 263.779801 261.287119 
C 263.845961 260.515072 263.903869 259.74234 263.953516 258.969056 
C 264.003162 258.195772 264.044544 257.421979 264.077655 256.64781 
L 155.405 252 
z
" style="fill: #8172b3; stroke: #ffffff; stroke-linejoin: miter"/>
   </g>
   <g id="patch_17">
    <path d="M 264.077655 256.64781 
C 264.110765 255.873641 264.135602 255.09914 264.152161 254.324441 
C 264.16872 253.549741 264.177 252.774887 264.177 252.00001 
L 155.405 252 
z
" style="fill: #937860; stroke: #ffffff; stroke-linejoin: miter"/>
   </g>
   <g id="legend_1">
    <g id="patch_18">
     <path d="M 298.37 413.271 
L 483.77 413.271 
Q 485.77 413.271 485.77 411.271 
L 485.77 177.421 
Q 485.77 175.421 483.77 175.421 
L 298.37 175.421 
Q 296.37 175.421 296.37 177.421 
L 296.37 411.271 
Q 296.37 413.271 298.37 413.271 
z
" style="fill: #ffffff; opacity: 0.8; stroke: #cccccc; stroke-linejoin: miter"/>
    </g>
    <g id="patch_19">
     <path d="M 300.37 187.019437 
L 320.37 187.019437 
L 320.37 180.019437 
L 300.37 180.019437 
z
" style="fill: #4c72b0; stroke: #ffffff; stroke-linejoin: miter"/>
    </g>
    <g id="text_1">
     <!-- oncology (47.6%) -->
     <g style="fill: #262626" transform="translate(328.37 187.019437) scale(0.1 -0.1)">
      <defs>
       <path id="DejaVuSans-6f" d="M 1959 3097 
Q 1497 3097 1228 2736 
Q 959 2375 959 1747 
Q 959 1119 1226 758 
Q 1494 397 1959 397 
Q 2419 397 2687 759 
Q 2956 1122 2956 1747 
Q 2956 2369 2687 2733 
Q 2419 3097 1959 3097 
z
M 1959 3584 
Q 2709 3584 3137 3096 
Q 3566 2609 3566 1747 
Q 3566 888 3137 398 
Q 2709 -91 1959 -91 
Q 1206 -91 779 398 
Q 353 888 353 1747 
Q 353 2609 779 3096 
Q 1206 3584 1959 3584 
z
" transform="scale(0.015625)"/>
       <path id="DejaVuSans-6e" d="M 3513 2113 
L 3513 0 
L 2938 0 
L 2938 2094 
Q 2938 2591 2744 2837 
Q 2550 3084 2163 3084 
Q 1697 3084 1428 2787 
Q 1159 2491 1159 1978 
L 1159 0 
L 581 0 
L 581 3500 
L 1159 3500 
L 1159 2956 
Q 1366 3272 1645 3428 
Q 1925 3584 2291 3584 
Q 2894 3584 3203 3211 
Q 3513 2838 3513 2113 
z
" transform="scale(0.015625)"/>
       <path id="DejaVuSans-63" d="M 3122 3366 
L 3122 2828 
Q 2878 2963 2633 3030 
Q 2388 3097 2138 3097 
Q 1578 3097 1268 2742 
Q 959 2388 959 1747 
Q 959 1106 1268 751 
Q 1578 397 2138 397 
Q 2388 397 2633 464 
Q 2878 531 3122 666 
L 3122 134 
Q 2881 22 2623 -34 
Q 2366 -91 2075 -91 
Q 1284 -91 818 406 
Q 353 903 353 1747 
Q 353 2603 823 3093 
Q 1294 3584 2113 3584 
Q 2378 3584 2631 3529 
Q 2884 3475 3122 3366 
z
" transform="scale(0.015625)"/>
       <path id="DejaVuSans-6c" d="M 603 4863 
L 1178 4863 
L 1178 0 
L 603 0 
L 603 4863 
z
" transform="scale(0.015625)"/>
       <path id="DejaVuSans-67" d="M 2906 1791 
Q 2906 2416 2648 2759 
Q 2391 3103 1925 3103 
Q 1463 3103 1205 2759 
Q 947 2416 947 1791 
Q 947 1169 1205 825 
Q 1463 481 1925 481 
Q 2391 481 2648 825 
Q 2906 1169 2906 1791 
z
M 3481 434 
Q 3481 -459 3084 -895 
Q 2688 -1331 1869 -1331 
Q 1566 -1331 1297 -1286 
Q 1028 -1241 775 -1147 
L 775 -588 
Q 1028 -725 1275 -790 
Q 1522 -856 1778 -856 
Q 2344 -856 2625 -561 
Q 2906 -266 2906 331 
L 2906 616 
Q 2728 306 2450 153 
Q 2172 0 1784 0 
Q 1141 0 747 490 
Q 353 981 353 1791 
Q 353 2603 747 3093 
Q 1141 3584 1784 3584 
Q 2172 3584 2450 3431 
Q 2728 3278 2906 2969 
L 2906 3500 
L 3481 3500 
L 3481 434 
z
" transform="scale(0.015625)"/>
       <path id="DejaVuSans-79" d="M 2059 -325 
Q 1816 -950 1584 -1140 
Q 1353 -1331 966 -1331 
L 506 -1331 
L 506 -850 
L 844 -850 
Q 1081 -850 1212 -737 
Q 1344 -625 1503 -206 
L 1606 56 
L 191 3500 
L 800 3500 
L 1894 763 
L 2988 3500 
L 3597 3500 
L 2059 -325 
z
" transform="scale(0.015625)"/>
       <path id="DejaVuSans-20" transform="scale(0.015625)"/>
       <path id="DejaVuSans-28" d="M 1984 4856 
Q 1566 4138 1362 3434 
Q 1159 2731 1159 2009 
Q 1159 1288 1364 580 
Q 1569 -128 1984 -844 
L 1484 -844 
Q 1016 -109 783 600 
Q 550 1309 550 2009 
Q 550 2706 781 3412 
Q 1013 4119 1484 4856 
L 1984 4856 
z
" transform="scale(0.015625)"/>
       <path id="DejaVuSans-34" d="M 2419 4116 
L 825 1625 
L 2419 1625 
L 2419 4116 
z
M 2253 4666 
L 3047 4666 
L 3047 1625 
L 3713 1625 
L 3713 1100 
L 3047 1100 
L 3047 0 
L 2419 0 
L 2419 1100 
L 313 1100 
L 313 1709 
L 2253 4666 
z
" transform="scale(0.015625)"/>
       <path id="DejaVuSans-37" d="M 525 4666 
L 3525 4666 
L 3525 4397 
L 1831 0 
L 1172 0 
L 2766 4134 
L 525 4134 
L 525 4666 
z
" transform="scale(0.015625)"/>
       <path id="DejaVuSans-2e" d="M 684 794 
L 1344 794 
L 1344 0 
L 684 0 
L 684 794 
z
" transform="scale(0.015625)"/>
       <path id="DejaVuSans-36" d="M 2113 2584 
Q 1688 2584 1439 2293 
Q 1191 2003 1191 1497 
Q 1191 994 1439 701 
Q 1688 409 2113 409 
Q 2538 409 2786 701 
Q 3034 994 3034 1497 
Q 3034 2003 2786 2293 
Q 2538 2584 2113 2584 
z
M 3366 4563 
L 3366 3988 
Q 3128 4100 2886 4159 
Q 2644 4219 2406 4219 
Q 1781 4219 1451 3797 
Q 1122 3375 1075 2522 
Q 1259 2794 1537 2939 
Q 1816 3084 2150 3084 
Q 2853 3084 3261 2657 
Q 3669 2231 3669 1497 
Q 3669 778 3244 343 
Q 2819 -91 2113 -91 
Q 1303 -91 875 529 
Q 447 1150 447 2328 
Q 447 3434 972 4092 
Q 1497 4750 2381 4750 
Q 2619 4750 2861 4703 
Q 3103 4656 3366 4563 
z
" transform="scale(0.015625)"/>
       <path id="DejaVuSans-25" d="M 4653 2053 
Q 4381 2053 4226 1822 
Q 4072 1591 4072 1178 
Q 4072 772 4226 539 
Q 4381 306 4653 306 
Q 4919 306 5073 539 
Q 5228 772 5228 1178 
Q 5228 1588 5073 1820 
Q 4919 2053 4653 2053 
z
M 4653 2450 
Q 5147 2450 5437 2106 
Q 5728 1763 5728 1178 
Q 5728 594 5436 251 
Q 5144 -91 4653 -91 
Q 4153 -91 3862 251 
Q 3572 594 3572 1178 
Q 3572 1766 3864 2108 
Q 4156 2450 4653 2450 
z
M 1428 4353 
Q 1159 4353 1004 4120 
Q 850 3888 850 3481 
Q 850 3069 1003 2837 
Q 1156 2606 1428 2606 
Q 1700 2606 1854 2837 
Q 2009 3069 2009 3481 
Q 2009 3884 1853 4118 
Q 1697 4353 1428 4353 
z
M 4250 4750 
L 4750 4750 
L 1831 -91 
L 1331 -91 
L 4250 4750 
z
M 1428 4750 
Q 1922 4750 2215 4408 
Q 2509 4066 2509 3481 
Q 2509 2891 2217 2550 
Q 1925 2209 1428 2209 
Q 931 2209 642 2551 
Q 353 2894 353 3481 
Q 353 4063 643 4406 
Q 934 4750 1428 4750 
z
" transform="scale(0.015625)"/>
       <path id="DejaVuSans-29" d="M 513 4856 
L 1013 4856 
Q 1481 4119 1714 3412 
Q 1947 2706 1947 2009 
Q 1947 1309 1714 600 
Q 1481 -109 1013 -844 
L 513 -844 
Q 928 -128 1133 580 
Q 1338 1288 1338 2009 
Q 1338 2731 1133 3434 
Q 928 4138 513 4856 
z
" transform="scale(0.015625)"/>
      </defs>
      <use xlink:href="#DejaVuSans-6f"/>
      <use xlink:href="#DejaVuSans-6e" x="61.181641"/>
      <use xlink:href="#DejaVuSans-63" x="124.560547"/>
      <use xlink:href="#DejaVuSans-6f" x="179.541016"/>
      <use xlink:href="#DejaVuSans-6c" x="240.722656"/>
      <use xlink:href="#DejaVuSans-6f" x="268.505859"/>
      <use xlink:href="#DejaVuSans-67" x="329.6875"/>
      <use xlink:href="#DejaVuSans-79" x="393.164062"/>
      <use xlink:href="#DejaVuSans-20" x="452.34375"/>
      <use xlink:href="#DejaVuSans-28" x="484.130859"/>
      <use xlink:href="#DejaVuSans-34" x="523.144531"/>
      <use xlink:href="#DejaVuSans-37" x="586.767578"/>
      <use xlink:href="#DejaVuSans-2e" x="650.390625"/>
      <use xlink:href="#DejaVuSans-36" x="682.177734"/>
      <use xlink:href="#DejaVuSans-25" x="745.800781"/>
      <use xlink:href="#DejaVuSans-29" x="840.820312"/>
     </g>
    </g>
    <g id="patch_20">
     <path d="M 300.37 201.697563 
L 320.37 201.697563 
L 320.37 194.697563 
L 300.37 194.697563 
z
" style="fill: #dd8452; stroke: #ffffff; stroke-linejoin: miter"/>
    </g>
    <g id="text_2">
     <!-- neurological disorders (10.2%) -->
     <g style="fill: #262626" transform="translate(328.37 201.697563) scale(0.1 -0.1)">
      <defs>
       <path id="DejaVuSans-65" d="M 3597 1894 
L 3597 1613 
L 953 1613 
Q 991 1019 1311 708 
Q 1631 397 2203 397 
Q 2534 397 2845 478 
Q 3156 559 3463 722 
L 3463 178 
Q 3153 47 2828 -22 
Q 2503 -91 2169 -91 
Q 1331 -91 842 396 
Q 353 884 353 1716 
Q 353 2575 817 3079 
Q 1281 3584 2069 3584 
Q 2775 3584 3186 3129 
Q 3597 2675 3597 1894 
z
M 3022 2063 
Q 3016 2534 2758 2815 
Q 2500 3097 2075 3097 
Q 1594 3097 1305 2825 
Q 1016 2553 972 2059 
L 3022 2063 
z
" transform="scale(0.015625)"/>
       <path id="DejaVuSans-75" d="M 544 1381 
L 544 3500 
L 1119 3500 
L 1119 1403 
Q 1119 906 1312 657 
Q 1506 409 1894 409 
Q 2359 409 2629 706 
Q 2900 1003 2900 1516 
L 2900 3500 
L 3475 3500 
L 3475 0 
L 2900 0 
L 2900 538 
Q 2691 219 2414 64 
Q 2138 -91 1772 -91 
Q 1169 -91 856 284 
Q 544 659 544 1381 
z
M 1991 3584 
L 1991 3584 
z
" transform="scale(0.015625)"/>
       <path id="DejaVuSans-72" d="M 2631 2963 
Q 2534 3019 2420 3045 
Q 2306 3072 2169 3072 
Q 1681 3072 1420 2755 
Q 1159 2438 1159 1844 
L 1159 0 
L 581 0 
L 581 3500 
L 1159 3500 
L 1159 2956 
Q 1341 3275 1631 3429 
Q 1922 3584 2338 3584 
Q 2397 3584 2469 3576 
Q 2541 3569 2628 3553 
L 2631 2963 
z
" transform="scale(0.015625)"/>
       <path id="DejaVuSans-69" d="M 603 3500 
L 1178 3500 
L 1178 0 
L 603 0 
L 603 3500 
z
M 603 4863 
L 1178 4863 
L 1178 4134 
L 603 4134 
L 603 4863 
z
" transform="scale(0.015625)"/>
       <path id="DejaVuSans-61" d="M 2194 1759 
Q 1497 1759 1228 1600 
Q 959 1441 959 1056 
Q 959 750 1161 570 
Q 1363 391 1709 391 
Q 2188 391 2477 730 
Q 2766 1069 2766 1631 
L 2766 1759 
L 2194 1759 
z
M 3341 1997 
L 3341 0 
L 2766 0 
L 2766 531 
Q 2569 213 2275 61 
Q 1981 -91 1556 -91 
Q 1019 -91 701 211 
Q 384 513 384 1019 
Q 384 1609 779 1909 
Q 1175 2209 1959 2209 
L 2766 2209 
L 2766 2266 
Q 2766 2663 2505 2880 
Q 2244 3097 1772 3097 
Q 1472 3097 1187 3025 
Q 903 2953 641 2809 
L 641 3341 
Q 956 3463 1253 3523 
Q 1550 3584 1831 3584 
Q 2591 3584 2966 3190 
Q 3341 2797 3341 1997 
z
" transform="scale(0.015625)"/>
       <path id="DejaVuSans-64" d="M 2906 2969 
L 2906 4863 
L 3481 4863 
L 3481 0 
L 2906 0 
L 2906 525 
Q 2725 213 2448 61 
Q 2172 -91 1784 -91 
Q 1150 -91 751 415 
Q 353 922 353 1747 
Q 353 2572 751 3078 
Q 1150 3584 1784 3584 
Q 2172 3584 2448 3432 
Q 2725 3281 2906 2969 
z
M 947 1747 
Q 947 1113 1208 752 
Q 1469 391 1925 391 
Q 2381 391 2643 752 
Q 2906 1113 2906 1747 
Q 2906 2381 2643 2742 
Q 2381 3103 1925 3103 
Q 1469 3103 1208 2742 
Q 947 2381 947 1747 
z
" transform="scale(0.015625)"/>
       <path id="DejaVuSans-73" d="M 2834 3397 
L 2834 2853 
Q 2591 2978 2328 3040 
Q 2066 3103 1784 3103 
Q 1356 3103 1142 2972 
Q 928 2841 928 2578 
Q 928 2378 1081 2264 
Q 1234 2150 1697 2047 
L 1894 2003 
Q 2506 1872 2764 1633 
Q 3022 1394 3022 966 
Q 3022 478 2636 193 
Q 2250 -91 1575 -91 
Q 1294 -91 989 -36 
Q 684 19 347 128 
L 347 722 
Q 666 556 975 473 
Q 1284 391 1588 391 
Q 1994 391 2212 530 
Q 2431 669 2431 922 
Q 2431 1156 2273 1281 
Q 2116 1406 1581 1522 
L 1381 1569 
Q 847 1681 609 1914 
Q 372 2147 372 2553 
Q 372 3047 722 3315 
Q 1072 3584 1716 3584 
Q 2034 3584 2315 3537 
Q 2597 3491 2834 3397 
z
" transform="scale(0.015625)"/>
       <path id="DejaVuSans-31" d="M 794 531 
L 1825 531 
L 1825 4091 
L 703 3866 
L 703 4441 
L 1819 4666 
L 2450 4666 
L 2450 531 
L 3481 531 
L 3481 0 
L 794 0 
L 794 531 
z
" transform="scale(0.015625)"/>
       <path id="DejaVuSans-30" d="M 2034 4250 
Q 1547 4250 1301 3770 
Q 1056 3291 1056 2328 
Q 1056 1369 1301 889 
Q 1547 409 2034 409 
Q 2525 409 2770 889 
Q 3016 1369 3016 2328 
Q 3016 3291 2770 3770 
Q 2525 4250 2034 4250 
z
M 2034 4750 
Q 2819 4750 3233 4129 
Q 3647 3509 3647 2328 
Q 3647 1150 3233 529 
Q 2819 -91 2034 -91 
Q 1250 -91 836 529 
Q 422 1150 422 2328 
Q 422 3509 836 4129 
Q 1250 4750 2034 4750 
z
" transform="scale(0.015625)"/>
       <path id="DejaVuSans-32" d="M 1228 531 
L 3431 531 
L 3431 0 
L 469 0 
L 469 531 
Q 828 903 1448 1529 
Q 2069 2156 2228 2338 
Q 2531 2678 2651 2914 
Q 2772 3150 2772 3378 
Q 2772 3750 2511 3984 
Q 2250 4219 1831 4219 
Q 1534 4219 1204 4116 
Q 875 4013 500 3803 
L 500 4441 
Q 881 4594 1212 4672 
Q 1544 4750 1819 4750 
Q 2544 4750 2975 4387 
Q 3406 4025 3406 3419 
Q 3406 3131 3298 2873 
Q 3191 2616 2906 2266 
Q 2828 2175 2409 1742 
Q 1991 1309 1228 531 
z
" transform="scale(0.015625)"/>
      </defs>
      <use xlink:href="#DejaVuSans-6e"/>
      <use xlink:href="#DejaVuSans-65" x="63.378906"/>
      <use xlink:href="#DejaVuSans-75" x="124.902344"/>
      <use xlink:href="#DejaVuSans-72" x="188.28125"/>
      <use xlink:href="#DejaVuSans-6f" x="227.144531"/>
      <use xlink:href="#DejaVuSans-6c" x="288.326172"/>
      <use xlink:href="#DejaVuSans-6f" x="316.109375"/>
      <use xlink:href="#DejaVuSans-67" x="377.291016"/>
      <use xlink:href="#DejaVuSans-69" x="440.767578"/>
      <use xlink:href="#DejaVuSans-63" x="468.550781"/>
      <use xlink:href="#DejaVuSans-61" x="523.53125"/>
      <use xlink:href="#DejaVuSans-6c" x="584.810547"/>
      <use xlink:href="#DejaVuSans-20" x="612.59375"/>
      <use xlink:href="#DejaVuSans-64" x="644.380859"/>
      <use xlink:href="#DejaVuSans-69" x="707.857422"/>
      <use xlink:href="#DejaVuSans-73" x="735.640625"/>
      <use xlink:href="#DejaVuSans-6f" x="787.740234"/>
      <use xlink:href="#DejaVuSans-72" x="848.921875"/>
      <use xlink:href="#DejaVuSans-64" x="888.285156"/>
      <use xlink:href="#DejaVuSans-65" x="951.761719"/>
      <use xlink:href="#DejaVuSans-72" x="1013.285156"/>
      <use xlink:href="#DejaVuSans-73" x="1054.398438"/>
      <use xlink:href="#DejaVuSans-20" x="1106.498047"/>
      <use xlink:href="#DejaVuSans-28" x="1138.285156"/>
      <use xlink:href="#DejaVuSans-31" x="1177.298828"/>
      <use xlink:href="#DejaVuSans-30" x="1240.921875"/>
      <use xlink:href="#DejaVuSans-2e" x="1304.544922"/>
      <use xlink:href="#DejaVuSans-32" x="1336.332031"/>
      <use xlink:href="#DejaVuSans-25" x="1399.955078"/>
      <use xlink:href="#DejaVuSans-29" x="1494.974609"/>
     </g>
    </g>
    <g id="patch_21">
     <path d="M 300.37 216.375688 
L 320.37 216.375688 
L 320.37 209.375688 
L 300.37 209.375688 
z
" style="fill: #55a868; stroke: #ffffff; stroke-linejoin: miter"/>
    </g>
    <g id="text_3">
     <!-- immunology (10.2%) -->
     <g style="fill: #262626" transform="translate(328.37 216.375688) scale(0.1 -0.1)">
      <defs>
       <path id="DejaVuSans-6d" d="M 3328 2828 
Q 3544 3216 3844 3400 
Q 4144 3584 4550 3584 
Q 5097 3584 5394 3201 
Q 5691 2819 5691 2113 
L 5691 0 
L 5113 0 
L 5113 2094 
Q 5113 2597 4934 2840 
Q 4756 3084 4391 3084 
Q 3944 3084 3684 2787 
Q 3425 2491 3425 1978 
L 3425 0 
L 2847 0 
L 2847 2094 
Q 2847 2600 2669 2842 
Q 2491 3084 2119 3084 
Q 1678 3084 1418 2786 
Q 1159 2488 1159 1978 
L 1159 0 
L 581 0 
L 581 3500 
L 1159 3500 
L 1159 2956 
Q 1356 3278 1631 3431 
Q 1906 3584 2284 3584 
Q 2666 3584 2933 3390 
Q 3200 3197 3328 2828 
z
" transform="scale(0.015625)"/>
      </defs>
      <use xlink:href="#DejaVuSans-69"/>
      <use xlink:href="#DejaVuSans-6d" x="27.783203"/>
      <use xlink:href="#DejaVuSans-6d" x="125.195312"/>
      <use xlink:href="#DejaVuSans-75" x="222.607422"/>
      <use xlink:href="#DejaVuSans-6e" x="285.986328"/>
      <use xlink:href="#DejaVuSans-6f" x="349.365234"/>
      <use xlink:href="#DejaVuSans-6c" x="410.546875"/>
      <use xlink:href="#DejaVuSans-6f" x="438.330078"/>
      <use xlink:href="#DejaVuSans-67" x="499.511719"/>
      <use xlink:href="#DejaVuSans-79" x="562.988281"/>
      <use xlink:href="#DejaVuSans-20" x="622.167969"/>
      <use xlink:href="#DejaVuSans-28" x="653.955078"/>
      <use xlink:href="#DejaVuSans-31" x="692.96875"/>
      <use xlink:href="#DejaVuSans-30" x="756.591797"/>
      <use xlink:href="#DejaVuSans-2e" x="820.214844"/>
      <use xlink:href="#DejaVuSans-32" x="852.001953"/>
      <use xlink:href="#DejaVuSans-25" x="915.625"/>
      <use xlink:href="#DejaVuSans-29" x="1010.644531"/>
     </g>
    </g>
    <g id="patch_22">
     <path d="M 300.37 231.053812 
L 320.37 231.053812 
L 320.37 224.053812 
L 300.37 224.053812 
z
" style="fill: #c44e52; stroke: #ffffff; stroke-linejoin: miter"/>
    </g>
    <g id="text_4">
     <!-- others (10.2%) -->
     <g style="fill: #262626" transform="translate(328.37 231.053812) scale(0.1 -0.1)">
      <defs>
       <path id="DejaVuSans-74" d="M 1172 4494 
L 1172 3500 
L 2356 3500 
L 2356 3053 
L 1172 3053 
L 1172 1153 
Q 1172 725 1289 603 
Q 1406 481 1766 481 
L 2356 481 
L 2356 0 
L 1766 0 
Q 1100 0 847 248 
Q 594 497 594 1153 
L 594 3053 
L 172 3053 
L 172 3500 
L 594 3500 
L 594 4494 
L 1172 4494 
z
" transform="scale(0.015625)"/>
       <path id="DejaVuSans-68" d="M 3513 2113 
L 3513 0 
L 2938 0 
L 2938 2094 
Q 2938 2591 2744 2837 
Q 2550 3084 2163 3084 
Q 1697 3084 1428 2787 
Q 1159 2491 1159 1978 
L 1159 0 
L 581 0 
L 581 4863 
L 1159 4863 
L 1159 2956 
Q 1366 3272 1645 3428 
Q 1925 3584 2291 3584 
Q 2894 3584 3203 3211 
Q 3513 2838 3513 2113 
z
" transform="scale(0.015625)"/>
      </defs>
      <use xlink:href="#DejaVuSans-6f"/>
      <use xlink:href="#DejaVuSans-74" x="61.181641"/>
      <use xlink:href="#DejaVuSans-68" x="100.390625"/>
      <use xlink:href="#DejaVuSans-65" x="163.769531"/>
      <use xlink:href="#DejaVuSans-72" x="225.292969"/>
      <use xlink:href="#DejaVuSans-73" x="266.40625"/>
      <use xlink:href="#DejaVuSans-20" x="318.505859"/>
      <use xlink:href="#DejaVuSans-28" x="350.292969"/>
      <use xlink:href="#DejaVuSans-31" x="389.306641"/>
      <use xlink:href="#DejaVuSans-30" x="452.929688"/>
      <use xlink:href="#DejaVuSans-2e" x="516.552734"/>
      <use xlink:href="#DejaVuSans-32" x="548.339844"/>
      <use xlink:href="#DejaVuSans-25" x="611.962891"/>
      <use xlink:href="#DejaVuSans-29" x="706.982422"/>
     </g>
    </g>
    <g id="patch_23">
     <path d="M 300.37 245.731937 
L 320.37 245.731937 
L 320.37 238.731937 
L 300.37 238.731937 
z
" style="fill: #8172b3; stroke: #ffffff; stroke-linejoin: miter"/>
    </g>
    <g id="text_5">
     <!-- phenotype (5.4%) -->
     <g style="fill: #262626" transform="translate(328.37 245.731937) scale(0.1 -0.1)">
      <defs>
       <path id="DejaVuSans-70" d="M 1159 525 
L 1159 -1331 
L 581 -1331 
L 581 3500 
L 1159 3500 
L 1159 2969 
Q 1341 3281 1617 3432 
Q 1894 3584 2278 3584 
Q 2916 3584 3314 3078 
Q 3713 2572 3713 1747 
Q 3713 922 3314 415 
Q 2916 -91 2278 -91 
Q 1894 -91 1617 61 
Q 1341 213 1159 525 
z
M 3116 1747 
Q 3116 2381 2855 2742 
Q 2594 3103 2138 3103 
Q 1681 3103 1420 2742 
Q 1159 2381 1159 1747 
Q 1159 1113 1420 752 
Q 1681 391 2138 391 
Q 2594 391 2855 752 
Q 3116 1113 3116 1747 
z
" transform="scale(0.015625)"/>
       <path id="DejaVuSans-35" d="M 691 4666 
L 3169 4666 
L 3169 4134 
L 1269 4134 
L 1269 2991 
Q 1406 3038 1543 3061 
Q 1681 3084 1819 3084 
Q 2600 3084 3056 2656 
Q 3513 2228 3513 1497 
Q 3513 744 3044 326 
Q 2575 -91 1722 -91 
Q 1428 -91 1123 -41 
Q 819 9 494 109 
L 494 744 
Q 775 591 1075 516 
Q 1375 441 1709 441 
Q 2250 441 2565 725 
Q 2881 1009 2881 1497 
Q 2881 1984 2565 2268 
Q 2250 2553 1709 2553 
Q 1456 2553 1204 2497 
Q 953 2441 691 2322 
L 691 4666 
z
" transform="scale(0.015625)"/>
      </defs>
      <use xlink:href="#DejaVuSans-70"/>
      <use xlink:href="#DejaVuSans-68" x="63.476562"/>
      <use xlink:href="#DejaVuSans-65" x="126.855469"/>
      <use xlink:href="#DejaVuSans-6e" x="188.378906"/>
      <use xlink:href="#DejaVuSans-6f" x="251.757812"/>
      <use xlink:href="#DejaVuSans-74" x="312.939453"/>
      <use xlink:href="#DejaVuSans-79" x="352.148438"/>
      <use xlink:href="#DejaVuSans-70" x="411.328125"/>
      <use xlink:href="#DejaVuSans-65" x="474.804688"/>
      <use xlink:href="#DejaVuSans-20" x="536.328125"/>
      <use xlink:href="#DejaVuSans-28" x="568.115234"/>
      <use xlink:href="#DejaVuSans-35" x="607.128906"/>
      <use xlink:href="#DejaVuSans-2e" x="670.751953"/>
      <use xlink:href="#DejaVuSans-34" x="702.539062"/>
      <use xlink:href="#DejaVuSans-25" x="766.162109"/>
      <use xlink:href="#DejaVuSans-29" x="861.181641"/>
     </g>
    </g>
    <g id="patch_24">
     <path d="M 300.37 260.410062 
L 320.37 260.410062 
L 320.37 253.410062 
L 300.37 253.410062 
z
" style="fill: #937860; stroke: #ffffff; stroke-linejoin: miter"/>
    </g>
    <g id="text_6">
     <!-- covid (2.7%) -->
     <g style="fill: #262626" transform="translate(328.37 260.410062) scale(0.1 -0.1)">
      <defs>
       <path id="DejaVuSans-76" d="M 191 3500 
L 800 3500 
L 1894 563 
L 2988 3500 
L 3597 3500 
L 2284 0 
L 1503 0 
L 191 3500 
z
" transform="scale(0.015625)"/>
      </defs>
      <use xlink:href="#DejaVuSans-63"/>
      <use xlink:href="#DejaVuSans-6f" x="54.980469"/>
      <use xlink:href="#DejaVuSans-76" x="116.162109"/>
      <use xlink:href="#DejaVuSans-69" x="175.341797"/>
      <use xlink:href="#DejaVuSans-64" x="203.125"/>
      <use xlink:href="#DejaVuSans-20" x="266.601562"/>
      <use xlink:href="#DejaVuSans-28" x="298.388672"/>
      <use xlink:href="#DejaVuSans-32" x="337.402344"/>
      <use xlink:href="#DejaVuSans-2e" x="401.025391"/>
      <use xlink:href="#DejaVuSans-37" x="432.8125"/>
      <use xlink:href="#DejaVuSans-25" x="496.435547"/>
      <use xlink:href="#DejaVuSans-29" x="591.455078"/>
     </g>
    </g>
    <g id="patch_25">
     <path d="M 300.37 275.088188 
L 320.37 275.088188 
L 320.37 268.088188 
L 300.37 268.088188 
z
" style="fill: #da8bc3; stroke: #ffffff; stroke-linejoin: miter"/>
    </g>
    <g id="text_7">
     <!-- drug development (2.7%) -->
     <g style="fill: #262626" transform="translate(328.37 275.088188) scale(0.1 -0.1)">
      <use xlink:href="#DejaVuSans-64"/>
      <use xlink:href="#DejaVuSans-72" x="63.476562"/>
      <use xlink:href="#DejaVuSans-75" x="104.589844"/>
      <use xlink:href="#DejaVuSans-67" x="167.96875"/>
      <use xlink:href="#DejaVuSans-20" x="231.445312"/>
      <use xlink:href="#DejaVuSans-64" x="263.232422"/>
      <use xlink:href="#DejaVuSans-65" x="326.708984"/>
      <use xlink:href="#DejaVuSans-76" x="388.232422"/>
      <use xlink:href="#DejaVuSans-65" x="447.412109"/>
      <use xlink:href="#DejaVuSans-6c" x="508.935547"/>
      <use xlink:href="#DejaVuSans-6f" x="536.71875"/>
      <use xlink:href="#DejaVuSans-70" x="597.900391"/>
      <use xlink:href="#DejaVuSans-6d" x="661.376953"/>
      <use xlink:href="#DejaVuSans-65" x="758.789062"/>
      <use xlink:href="#DejaVuSans-6e" x="820.3125"/>
      <use xlink:href="#DejaVuSans-74" x="883.691406"/>
      <use xlink:href="#DejaVuSans-20" x="922.900391"/>
      <use xlink:href="#DejaVuSans-28" x="954.6875"/>
      <use xlink:href="#DejaVuSans-32" x="993.701172"/>
      <use xlink:href="#DejaVuSans-2e" x="1057.324219"/>
      <use xlink:href="#DejaVuSans-37" x="1089.111328"/>
      <use xlink:href="#DejaVuSans-25" x="1152.734375"/>
      <use xlink:href="#DejaVuSans-29" x="1247.753906"/>
     </g>
    </g>
    <g id="patch_26">
     <path d="M 300.37 289.766312 
L 320.37 289.766312 
L 320.37 282.766312 
L 300.37 282.766312 
z
" style="fill: #8c8c8c; stroke: #ffffff; stroke-linejoin: miter"/>
    </g>
    <g id="text_8">
     <!-- population genetics (2.0%) -->
     <g style="fill: #262626" transform="translate(328.37 289.766312) scale(0.1 -0.1)">
      <use xlink:href="#DejaVuSans-70"/>
      <use xlink:href="#DejaVuSans-6f" x="63.476562"/>
      <use xlink:href="#DejaVuSans-70" x="124.658203"/>
      <use xlink:href="#DejaVuSans-75" x="188.134766"/>
      <use xlink:href="#DejaVuSans-6c" x="251.513672"/>
      <use xlink:href="#DejaVuSans-61" x="279.296875"/>
      <use xlink:href="#DejaVuSans-74" x="340.576172"/>
      <use xlink:href="#DejaVuSans-69" x="379.785156"/>
      <use xlink:href="#DejaVuSans-6f" x="407.568359"/>
      <use xlink:href="#DejaVuSans-6e" x="468.75"/>
      <use xlink:href="#DejaVuSans-20" x="532.128906"/>
      <use xlink:href="#DejaVuSans-67" x="563.916016"/>
      <use xlink:href="#DejaVuSans-65" x="627.392578"/>
      <use xlink:href="#DejaVuSans-6e" x="688.916016"/>
      <use xlink:href="#DejaVuSans-65" x="752.294922"/>
      <use xlink:href="#DejaVuSans-74" x="813.818359"/>
      <use xlink:href="#DejaVuSans-69" x="853.027344"/>
      <use xlink:href="#DejaVuSans-63" x="880.810547"/>
      <use xlink:href="#DejaVuSans-73" x="935.791016"/>
      <use xlink:href="#DejaVuSans-20" x="987.890625"/>
      <use xlink:href="#DejaVuSans-28" x="1019.677734"/>
      <use xlink:href="#DejaVuSans-32" x="1058.691406"/>
      <use xlink:href="#DejaVuSans-2e" x="1122.314453"/>
      <use xlink:href="#DejaVuSans-30" x="1154.101562"/>
      <use xlink:href="#DejaVuSans-25" x="1217.724609"/>
      <use xlink:href="#DejaVuSans-29" x="1312.744141"/>
     </g>
    </g>
    <g id="patch_27">
     <path d="M 300.37 304.444437 
L 320.37 304.444437 
L 320.37 297.444437 
L 300.37 297.444437 
z
" style="fill: #ccb974; stroke: #ffffff; stroke-linejoin: miter"/>
    </g>
    <g id="text_9">
     <!-- heart disease (2.0%) -->
     <g style="fill: #262626" transform="translate(328.37 304.444437) scale(0.1 -0.1)">
      <use xlink:href="#DejaVuSans-68"/>
      <use xlink:href="#DejaVuSans-65" x="63.378906"/>
      <use xlink:href="#DejaVuSans-61" x="124.902344"/>
      <use xlink:href="#DejaVuSans-72" x="186.181641"/>
      <use xlink:href="#DejaVuSans-74" x="227.294922"/>
      <use xlink:href="#DejaVuSans-20" x="266.503906"/>
      <use xlink:href="#DejaVuSans-64" x="298.291016"/>
      <use xlink:href="#DejaVuSans-69" x="361.767578"/>
      <use xlink:href="#DejaVuSans-73" x="389.550781"/>
      <use xlink:href="#DejaVuSans-65" x="441.650391"/>
      <use xlink:href="#DejaVuSans-61" x="503.173828"/>
      <use xlink:href="#DejaVuSans-73" x="564.453125"/>
      <use xlink:href="#DejaVuSans-65" x="616.552734"/>
      <use xlink:href="#DejaVuSans-20" x="678.076172"/>
      <use xlink:href="#DejaVuSans-28" x="709.863281"/>
      <use xlink:href="#DejaVuSans-32" x="748.876953"/>
      <use xlink:href="#DejaVuSans-2e" x="812.5"/>
      <use xlink:href="#DejaVuSans-30" x="844.287109"/>
      <use xlink:href="#DejaVuSans-25" x="907.910156"/>
      <use xlink:href="#DejaVuSans-29" x="1002.929688"/>
     </g>
    </g>
    <g id="patch_28">
     <path d="M 300.37 319.122562 
L 320.37 319.122562 
L 320.37 312.122562 
L 300.37 312.122562 
z
" style="fill: #64b5cd; stroke: #ffffff; stroke-linejoin: miter"/>
    </g>
    <g id="text_10">
     <!-- cell differentation (1.4%) -->
     <g style="fill: #262626" transform="translate(328.37 319.122562) scale(0.1 -0.1)">
      <defs>
       <path id="DejaVuSans-66" d="M 2375 4863 
L 2375 4384 
L 1825 4384 
Q 1516 4384 1395 4259 
Q 1275 4134 1275 3809 
L 1275 3500 
L 2222 3500 
L 2222 3053 
L 1275 3053 
L 1275 0 
L 697 0 
L 697 3053 
L 147 3053 
L 147 3500 
L 697 3500 
L 697 3744 
Q 697 4328 969 4595 
Q 1241 4863 1831 4863 
L 2375 4863 
z
" transform="scale(0.015625)"/>
      </defs>
      <use xlink:href="#DejaVuSans-63"/>
      <use xlink:href="#DejaVuSans-65" x="54.980469"/>
      <use xlink:href="#DejaVuSans-6c" x="116.503906"/>
      <use xlink:href="#DejaVuSans-6c" x="144.287109"/>
      <use xlink:href="#DejaVuSans-20" x="172.070312"/>
      <use xlink:href="#DejaVuSans-64" x="203.857422"/>
      <use xlink:href="#DejaVuSans-69" x="267.333984"/>
      <use xlink:href="#DejaVuSans-66" x="295.117188"/>
      <use xlink:href="#DejaVuSans-66" x="330.322266"/>
      <use xlink:href="#DejaVuSans-65" x="365.527344"/>
      <use xlink:href="#DejaVuSans-72" x="427.050781"/>
      <use xlink:href="#DejaVuSans-65" x="465.914062"/>
      <use xlink:href="#DejaVuSans-6e" x="527.4375"/>
      <use xlink:href="#DejaVuSans-74" x="590.816406"/>
      <use xlink:href="#DejaVuSans-61" x="630.025391"/>
      <use xlink:href="#DejaVuSans-74" x="691.304688"/>
      <use xlink:href="#DejaVuSans-69" x="730.513672"/>
      <use xlink:href="#DejaVuSans-6f" x="758.296875"/>
      <use xlink:href="#DejaVuSans-6e" x="819.478516"/>
      <use xlink:href="#DejaVuSans-20" x="882.857422"/>
      <use xlink:href="#DejaVuSans-28" x="914.644531"/>
      <use xlink:href="#DejaVuSans-31" x="953.658203"/>
      <use xlink:href="#DejaVuSans-2e" x="1017.28125"/>
      <use xlink:href="#DejaVuSans-34" x="1049.068359"/>
      <use xlink:href="#DejaVuSans-25" x="1112.691406"/>
      <use xlink:href="#DejaVuSans-29" x="1207.710938"/>
     </g>
    </g>
    <g id="patch_29">
     <path d="M 300.37 333.800687 
L 320.37 333.800687 
L 320.37 326.800687 
L 300.37 326.800687 
z
" style="fill: #4c72b0; stroke: #ffffff; stroke-linejoin: miter"/>
    </g>
    <g id="text_11">
     <!-- metabolic disease (1.4%) -->
     <g style="fill: #262626" transform="translate(328.37 333.800687) scale(0.1 -0.1)">
      <defs>
       <path id="DejaVuSans-62" d="M 3116 1747 
Q 3116 2381 2855 2742 
Q 2594 3103 2138 3103 
Q 1681 3103 1420 2742 
Q 1159 2381 1159 1747 
Q 1159 1113 1420 752 
Q 1681 391 2138 391 
Q 2594 391 2855 752 
Q 3116 1113 3116 1747 
z
M 1159 2969 
Q 1341 3281 1617 3432 
Q 1894 3584 2278 3584 
Q 2916 3584 3314 3078 
Q 3713 2572 3713 1747 
Q 3713 922 3314 415 
Q 2916 -91 2278 -91 
Q 1894 -91 1617 61 
Q 1341 213 1159 525 
L 1159 0 
L 581 0 
L 581 4863 
L 1159 4863 
L 1159 2969 
z
" transform="scale(0.015625)"/>
      </defs>
      <use xlink:href="#DejaVuSans-6d"/>
      <use xlink:href="#DejaVuSans-65" x="97.412109"/>
      <use xlink:href="#DejaVuSans-74" x="158.935547"/>
      <use xlink:href="#DejaVuSans-61" x="198.144531"/>
      <use xlink:href="#DejaVuSans-62" x="259.423828"/>
      <use xlink:href="#DejaVuSans-6f" x="322.900391"/>
      <use xlink:href="#DejaVuSans-6c" x="384.082031"/>
      <use xlink:href="#DejaVuSans-69" x="411.865234"/>
      <use xlink:href="#DejaVuSans-63" x="439.648438"/>
      <use xlink:href="#DejaVuSans-20" x="494.628906"/>
      <use xlink:href="#DejaVuSans-64" x="526.416016"/>
      <use xlink:href="#DejaVuSans-69" x="589.892578"/>
      <use xlink:href="#DejaVuSans-73" x="617.675781"/>
      <use xlink:href="#DejaVuSans-65" x="669.775391"/>
      <use xlink:href="#DejaVuSans-61" x="731.298828"/>
      <use xlink:href="#DejaVuSans-73" x="792.578125"/>
      <use xlink:href="#DejaVuSans-65" x="844.677734"/>
      <use xlink:href="#DejaVuSans-20" x="906.201172"/>
      <use xlink:href="#DejaVuSans-28" x="937.988281"/>
      <use xlink:href="#DejaVuSans-31" x="977.001953"/>
      <use xlink:href="#DejaVuSans-2e" x="1040.625"/>
      <use xlink:href="#DejaVuSans-34" x="1072.412109"/>
      <use xlink:href="#DejaVuSans-25" x="1136.035156"/>
      <use xlink:href="#DejaVuSans-29" x="1231.054688"/>
     </g>
    </g>
    <g id="patch_30">
     <path d="M 300.37 348.478812 
L 320.37 348.478812 
L 320.37 341.478812 
L 300.37 341.478812 
z
" style="fill: #dd8452; stroke: #ffffff; stroke-linejoin: miter"/>
    </g>
    <g id="text_12">
     <!-- microorganisms (1.4%) -->
     <g style="fill: #262626" transform="translate(328.37 348.478812) scale(0.1 -0.1)">
      <use xlink:href="#DejaVuSans-6d"/>
      <use xlink:href="#DejaVuSans-69" x="97.412109"/>
      <use xlink:href="#DejaVuSans-63" x="125.195312"/>
      <use xlink:href="#DejaVuSans-72" x="180.175781"/>
      <use xlink:href="#DejaVuSans-6f" x="219.039062"/>
      <use xlink:href="#DejaVuSans-6f" x="280.220703"/>
      <use xlink:href="#DejaVuSans-72" x="341.402344"/>
      <use xlink:href="#DejaVuSans-67" x="380.765625"/>
      <use xlink:href="#DejaVuSans-61" x="444.242188"/>
      <use xlink:href="#DejaVuSans-6e" x="505.521484"/>
      <use xlink:href="#DejaVuSans-69" x="568.900391"/>
      <use xlink:href="#DejaVuSans-73" x="596.683594"/>
      <use xlink:href="#DejaVuSans-6d" x="648.783203"/>
      <use xlink:href="#DejaVuSans-73" x="746.195312"/>
      <use xlink:href="#DejaVuSans-20" x="798.294922"/>
      <use xlink:href="#DejaVuSans-28" x="830.082031"/>
      <use xlink:href="#DejaVuSans-31" x="869.095703"/>
      <use xlink:href="#DejaVuSans-2e" x="932.71875"/>
      <use xlink:href="#DejaVuSans-34" x="964.505859"/>
      <use xlink:href="#DejaVuSans-25" x="1028.128906"/>
      <use xlink:href="#DejaVuSans-29" x="1123.148438"/>
     </g>
    </g>
    <g id="patch_31">
     <path d="M 300.37 363.156937 
L 320.37 363.156937 
L 320.37 356.156937 
L 300.37 356.156937 
z
" style="fill: #55a868; stroke: #ffffff; stroke-linejoin: miter"/>
    </g>
    <g id="text_13">
     <!-- respitory disease (0.7%) -->
     <g style="fill: #262626" transform="translate(328.37 363.156937) scale(0.1 -0.1)">
      <use xlink:href="#DejaVuSans-72"/>
      <use xlink:href="#DejaVuSans-65" x="38.863281"/>
      <use xlink:href="#DejaVuSans-73" x="100.386719"/>
      <use xlink:href="#DejaVuSans-70" x="152.486328"/>
      <use xlink:href="#DejaVuSans-69" x="215.962891"/>
      <use xlink:href="#DejaVuSans-74" x="243.746094"/>
      <use xlink:href="#DejaVuSans-6f" x="282.955078"/>
      <use xlink:href="#DejaVuSans-72" x="344.136719"/>
      <use xlink:href="#DejaVuSans-79" x="385.25"/>
      <use xlink:href="#DejaVuSans-20" x="444.429688"/>
      <use xlink:href="#DejaVuSans-64" x="476.216797"/>
      <use xlink:href="#DejaVuSans-69" x="539.693359"/>
      <use xlink:href="#DejaVuSans-73" x="567.476562"/>
      <use xlink:href="#DejaVuSans-65" x="619.576172"/>
      <use xlink:href="#DejaVuSans-61" x="681.099609"/>
      <use xlink:href="#DejaVuSans-73" x="742.378906"/>
      <use xlink:href="#DejaVuSans-65" x="794.478516"/>
      <use xlink:href="#DejaVuSans-20" x="856.001953"/>
      <use xlink:href="#DejaVuSans-28" x="887.789062"/>
      <use xlink:href="#DejaVuSans-30" x="926.802734"/>
      <use xlink:href="#DejaVuSans-2e" x="990.425781"/>
      <use xlink:href="#DejaVuSans-37" x="1022.212891"/>
      <use xlink:href="#DejaVuSans-25" x="1085.835938"/>
      <use xlink:href="#DejaVuSans-29" x="1180.855469"/>
     </g>
    </g>
    <g id="patch_32">
     <path d="M 300.37 377.835062 
L 320.37 377.835062 
L 320.37 370.835062 
L 300.37 370.835062 
z
" style="fill: #c44e52; stroke: #ffffff; stroke-linejoin: miter"/>
    </g>
    <g id="text_14">
     <!-- tissue classification (0.7%) -->
     <g style="fill: #262626" transform="translate(328.37 377.835062) scale(0.1 -0.1)">
      <use xlink:href="#DejaVuSans-74"/>
      <use xlink:href="#DejaVuSans-69" x="39.208984"/>
      <use xlink:href="#DejaVuSans-73" x="66.992188"/>
      <use xlink:href="#DejaVuSans-73" x="119.091797"/>
      <use xlink:href="#DejaVuSans-75" x="171.191406"/>
      <use xlink:href="#DejaVuSans-65" x="234.570312"/>
      <use xlink:href="#DejaVuSans-20" x="296.09375"/>
      <use xlink:href="#DejaVuSans-63" x="327.880859"/>
      <use xlink:href="#DejaVuSans-6c" x="382.861328"/>
      <use xlink:href="#DejaVuSans-61" x="410.644531"/>
      <use xlink:href="#DejaVuSans-73" x="471.923828"/>
      <use xlink:href="#DejaVuSans-73" x="524.023438"/>
      <use xlink:href="#DejaVuSans-69" x="576.123047"/>
      <use xlink:href="#DejaVuSans-66" x="603.90625"/>
      <use xlink:href="#DejaVuSans-69" x="639.111328"/>
      <use xlink:href="#DejaVuSans-63" x="666.894531"/>
      <use xlink:href="#DejaVuSans-61" x="721.875"/>
      <use xlink:href="#DejaVuSans-74" x="783.154297"/>
      <use xlink:href="#DejaVuSans-69" x="822.363281"/>
      <use xlink:href="#DejaVuSans-6f" x="850.146484"/>
      <use xlink:href="#DejaVuSans-6e" x="911.328125"/>
      <use xlink:href="#DejaVuSans-20" x="974.707031"/>
      <use xlink:href="#DejaVuSans-28" x="1006.494141"/>
      <use xlink:href="#DejaVuSans-30" x="1045.507812"/>
      <use xlink:href="#DejaVuSans-2e" x="1109.130859"/>
      <use xlink:href="#DejaVuSans-37" x="1140.917969"/>
      <use xlink:href="#DejaVuSans-25" x="1204.541016"/>
      <use xlink:href="#DejaVuSans-29" x="1299.560547"/>
     </g>
    </g>
    <g id="patch_33">
     <path d="M 300.37 392.513187 
L 320.37 392.513187 
L 320.37 385.513187 
L 300.37 385.513187 
z
" style="fill: #8172b3; stroke: #ffffff; stroke-linejoin: miter"/>
    </g>
    <g id="text_15">
     <!-- single-cell (0.7%) -->
     <g style="fill: #262626" transform="translate(328.37 392.513187) scale(0.1 -0.1)">
      <defs>
       <path id="DejaVuSans-2d" d="M 313 2009 
L 1997 2009 
L 1997 1497 
L 313 1497 
L 313 2009 
z
" transform="scale(0.015625)"/>
      </defs>
      <use xlink:href="#DejaVuSans-73"/>
      <use xlink:href="#DejaVuSans-69" x="52.099609"/>
      <use xlink:href="#DejaVuSans-6e" x="79.882812"/>
      <use xlink:href="#DejaVuSans-67" x="143.261719"/>
      <use xlink:href="#DejaVuSans-6c" x="206.738281"/>
      <use xlink:href="#DejaVuSans-65" x="234.521484"/>
      <use xlink:href="#DejaVuSans-2d" x="296.044922"/>
      <use xlink:href="#DejaVuSans-63" x="332.128906"/>
      <use xlink:href="#DejaVuSans-65" x="387.109375"/>
      <use xlink:href="#DejaVuSans-6c" x="448.632812"/>
      <use xlink:href="#DejaVuSans-6c" x="476.416016"/>
      <use xlink:href="#DejaVuSans-20" x="504.199219"/>
      <use xlink:href="#DejaVuSans-28" x="535.986328"/>
      <use xlink:href="#DejaVuSans-30" x="575"/>
      <use xlink:href="#DejaVuSans-2e" x="638.623047"/>
      <use xlink:href="#DejaVuSans-37" x="670.410156"/>
      <use xlink:href="#DejaVuSans-25" x="734.033203"/>
      <use xlink:href="#DejaVuSans-29" x="829.052734"/>
     </g>
    </g>
    <g id="patch_34">
     <path d="M 300.37 407.191312 
L 320.37 407.191312 
L 320.37 400.191312 
L 300.37 400.191312 
z
" style="fill: #937860; stroke: #ffffff; stroke-linejoin: miter"/>
    </g>
    <g id="text_16">
     <!-- opthalmology (0.7%) -->
     <g style="fill: #262626" transform="translate(328.37 407.191312) scale(0.1 -0.1)">
      <use xlink:href="#DejaVuSans-6f"/>
      <use xlink:href="#DejaVuSans-70" x="61.181641"/>
      <use xlink:href="#DejaVuSans-74" x="124.658203"/>
      <use xlink:href="#DejaVuSans-68" x="163.867188"/>
      <use xlink:href="#DejaVuSans-61" x="227.246094"/>
      <use xlink:href="#DejaVuSans-6c" x="288.525391"/>
      <use xlink:href="#DejaVuSans-6d" x="316.308594"/>
      <use xlink:href="#DejaVuSans-6f" x="413.720703"/>
      <use xlink:href="#DejaVuSans-6c" x="474.902344"/>
      <use xlink:href="#DejaVuSans-6f" x="502.685547"/>
      <use xlink:href="#DejaVuSans-67" x="563.867188"/>
      <use xlink:href="#DejaVuSans-79" x="627.34375"/>
      <use xlink:href="#DejaVuSans-20" x="686.523438"/>
      <use xlink:href="#DejaVuSans-28" x="718.310547"/>
      <use xlink:href="#DejaVuSans-30" x="757.324219"/>
      <use xlink:href="#DejaVuSans-2e" x="820.947266"/>
      <use xlink:href="#DejaVuSans-37" x="852.734375"/>
      <use xlink:href="#DejaVuSans-25" x="916.357422"/>
      <use xlink:href="#DejaVuSans-29" x="1011.376953"/>
     </g>
    </g>
   </g>
  </g>
 </g>
</svg>
