<?xml version="1.0" encoding="utf-8" standalone="no"?>
<!DOCTYPE svg PUBLIC "-//W3C//DTD SVG 1.1//EN"
  "http://www.w3.org/Graphics/SVG/1.1/DTD/svg11.dtd">
<svg xmlns:xlink="http://www.w3.org/1999/xlink" width="1008pt" height="1008pt" viewBox="0 0 1008 1008" xmlns="http://www.w3.org/2000/svg" version="1.1">
 <metadata>
  <rdf:RDF xmlns:dc="http://purl.org/dc/elements/1.1/" xmlns:cc="http://creativecommons.org/ns#" xmlns:rdf="http://www.w3.org/1999/02/22-rdf-syntax-ns#">
   <cc:Work>
    <dc:type rdf:resource="http://purl.org/dc/dcmitype/StillImage"/>
    <dc:date>2023-11-30T17:00:19.899595</dc:date>
    <dc:format>image/svg+xml</dc:format>
    <dc:creator>
     <cc:Agent>
      <dc:title>Matplotlib v3.8.0, https://matplotlib.org/</dc:title>
     </cc:Agent>
    </dc:creator>
   </cc:Work>
  </rdf:RDF>
 </metadata>
 <defs>
  <style type="text/css">*{stroke-linejoin: round; stroke-linecap: butt}</style>
 </defs>
 <g id="figure_1">
  <g id="patch_1">
   <path d="M 0 1008 
L 1008 1008 
L 1008 0 
L 0 0 
z
" style="fill: #ffffff"/>
  </g>
  <g id="axes_1">
   <g id="patch_2">
    <path d="M 504 991.8 
C 633.366072 991.8 757.451061 940.402315 848.926688 848.926688 
C 940.402315 757.451061 991.8 633.366072 991.8 504 
C 991.8 374.633928 940.402315 250.548939 848.926688 159.073312 
C 757.451061 67.597685 633.366072 16.2 504 16.2 
C 374.633928 16.2 250.548939 67.597685 159.073312 159.073312 
C 67.597685 250.548939 16.2 374.633928 16.2 504 
C 16.2 633.366072 67.597685 757.451061 159.073312 848.926688 
C 250.548939 940.402315 374.633928 991.8 504 991.8 
z
" clip-path="url(#p9a463c6c55)" style="fill: #add8e6; opacity: 0.5; stroke: #add8e6; stroke-width: 3; stroke-linejoin: miter"/>
   </g>
   <g id="patch_3">
    <path d="M 197.162742 684.962742 
C 245.154622 684.962742 291.18734 665.895366 325.122724 631.959982 
C 359.058108 598.024598 378.125484 551.99188 378.125484 504 
C 378.125484 456.00812 359.058108 409.975402 325.122724 376.040018 
C 291.18734 342.104634 245.154622 323.037258 197.162742 323.037258 
C 149.170862 323.037258 103.138144 342.104634 69.20276 376.040018 
C 35.267376 409.975402 16.2 456.00812 16.2 504 
C 16.2 551.99188 35.267376 598.024598 69.20276 631.959982 
C 103.138144 665.895366 149.170862 684.962742 197.162742 684.962742 
z
" clip-path="url(#p9a463c6c55)" style="fill: #69b3a2; opacity: 0.9; stroke: #69b3a2; stroke-width: 3; stroke-linejoin: miter"/>
   </g>
   <g id="patch_4">
    <path d="M 684.962742 810.837258 
C 766.336934 810.837258 844.389205 778.506949 901.929448 720.966706 
C 959.469691 663.426463 991.8 585.374192 991.8 504 
C 991.8 422.625808 959.469691 344.573537 901.929448 287.033294 
C 844.389205 229.493051 766.336934 197.162742 684.962742 197.162742 
C 603.58855 197.162742 525.536279 229.493051 467.996036 287.033294 
C 410.455793 344.573537 378.125484 422.625808 378.125484 504 
C 378.125484 585.374192 410.455793 663.426463 467.996036 720.966706 
C 525.536279 778.506949 603.58855 810.837258 684.962742 810.837258 
z
" clip-path="url(#p9a463c6c55)" style="fill: #69b3a2; opacity: 0.9; stroke: #69b3a2; stroke-width: 3; stroke-linejoin: miter"/>
   </g>
   <g id="text_1">
    <!-- regression -->
    <g transform="translate(158.102976 504) scale(0.15 -0.15)">
     <defs>
      <path id="DejaVuSans-72" d="M 2631 2963 
Q 2534 3019 2420 3045 
Q 2306 3072 2169 3072 
Q 1681 3072 1420 2755 
Q 1159 2438 1159 1844 
L 1159 0 
L 581 0 
L 581 3500 
L 1159 3500 
L 1159 2956 
Q 1341 3275 1631 3429 
Q 1922 3584 2338 3584 
Q 2397 3584 2469 3576 
Q 2541 3569 2628 3553 
L 2631 2963 
z
" transform="scale(0.015625)"/>
      <path id="DejaVuSans-65" d="M 3597 1894 
L 3597 1613 
L 953 1613 
Q 991 1019 1311 708 
Q 1631 397 2203 397 
Q 2534 397 2845 478 
Q 3156 559 3463 722 
L 3463 178 
Q 3153 47 2828 -22 
Q 2503 -91 2169 -91 
Q 1331 -91 842 396 
Q 353 884 353 1716 
Q 353 2575 817 3079 
Q 1281 3584 2069 3584 
Q 2775 3584 3186 3129 
Q 3597 2675 3597 1894 
z
M 3022 2063 
Q 3016 2534 2758 2815 
Q 2500 3097 2075 3097 
Q 1594 3097 1305 2825 
Q 1016 2553 972 2059 
L 3022 2063 
z
" transform="scale(0.015625)"/>
      <path id="DejaVuSans-67" d="M 2906 1791 
Q 2906 2416 2648 2759 
Q 2391 3103 1925 3103 
Q 1463 3103 1205 2759 
Q 947 2416 947 1791 
Q 947 1169 1205 825 
Q 1463 481 1925 481 
Q 2391 481 2648 825 
Q 2906 1169 2906 1791 
z
M 3481 434 
Q 3481 -459 3084 -895 
Q 2688 -1331 1869 -1331 
Q 1566 -1331 1297 -1286 
Q 1028 -1241 775 -1147 
L 775 -588 
Q 1028 -725 1275 -790 
Q 1522 -856 1778 -856 
Q 2344 -856 2625 -561 
Q 2906 -266 2906 331 
L 2906 616 
Q 2728 306 2450 153 
Q 2172 0 1784 0 
Q 1141 0 747 490 
Q 353 981 353 1791 
Q 353 2603 747 3093 
Q 1141 3584 1784 3584 
Q 2172 3584 2450 3431 
Q 2728 3278 2906 2969 
L 2906 3500 
L 3481 3500 
L 3481 434 
z
" transform="scale(0.015625)"/>
      <path id="DejaVuSans-73" d="M 2834 3397 
L 2834 2853 
Q 2591 2978 2328 3040 
Q 2066 3103 1784 3103 
Q 1356 3103 1142 2972 
Q 928 2841 928 2578 
Q 928 2378 1081 2264 
Q 1234 2150 1697 2047 
L 1894 2003 
Q 2506 1872 2764 1633 
Q 3022 1394 3022 966 
Q 3022 478 2636 193 
Q 2250 -91 1575 -91 
Q 1294 -91 989 -36 
Q 684 19 347 128 
L 347 722 
Q 666 556 975 473 
Q 1284 391 1588 391 
Q 1994 391 2212 530 
Q 2431 669 2431 922 
Q 2431 1156 2273 1281 
Q 2116 1406 1581 1522 
L 1381 1569 
Q 847 1681 609 1914 
Q 372 2147 372 2553 
Q 372 3047 722 3315 
Q 1072 3584 1716 3584 
Q 2034 3584 2315 3537 
Q 2597 3491 2834 3397 
z
" transform="scale(0.015625)"/>
      <path id="DejaVuSans-69" d="M 603 3500 
L 1178 3500 
L 1178 0 
L 603 0 
L 603 3500 
z
M 603 4863 
L 1178 4863 
L 1178 4134 
L 603 4134 
L 603 4863 
z
" transform="scale(0.015625)"/>
      <path id="DejaVuSans-6f" d="M 1959 3097 
Q 1497 3097 1228 2736 
Q 959 2375 959 1747 
Q 959 1119 1226 758 
Q 1494 397 1959 397 
Q 2419 397 2687 759 
Q 2956 1122 2956 1747 
Q 2956 2369 2687 2733 
Q 2419 3097 1959 3097 
z
M 1959 3584 
Q 2709 3584 3137 3096 
Q 3566 2609 3566 1747 
Q 3566 888 3137 398 
Q 2709 -91 1959 -91 
Q 1206 -91 779 398 
Q 353 888 353 1747 
Q 353 2609 779 3096 
Q 1206 3584 1959 3584 
z
" transform="scale(0.015625)"/>
      <path id="DejaVuSans-6e" d="M 3513 2113 
L 3513 0 
L 2938 0 
L 2938 2094 
Q 2938 2591 2744 2837 
Q 2550 3084 2163 3084 
Q 1697 3084 1428 2787 
Q 1159 2491 1159 1978 
L 1159 0 
L 581 0 
L 581 3500 
L 1159 3500 
L 1159 2956 
Q 1366 3272 1645 3428 
Q 1925 3584 2291 3584 
Q 2894 3584 3203 3211 
Q 3513 2838 3513 2113 
z
" transform="scale(0.015625)"/>
     </defs>
     <use xlink:href="#DejaVuSans-72"/>
     <use xlink:href="#DejaVuSans-65" x="38.863281"/>
     <use xlink:href="#DejaVuSans-67" x="100.386719"/>
     <use xlink:href="#DejaVuSans-72" x="163.863281"/>
     <use xlink:href="#DejaVuSans-65" x="202.726562"/>
     <use xlink:href="#DejaVuSans-73" x="264.25"/>
     <use xlink:href="#DejaVuSans-73" x="316.349609"/>
     <use xlink:href="#DejaVuSans-69" x="368.449219"/>
     <use xlink:href="#DejaVuSans-6f" x="396.232422"/>
     <use xlink:href="#DejaVuSans-6e" x="457.414062"/>
    </g>
   </g>
   <g id="text_2">
    <!-- classification -->
    <g transform="translate(636.451805 504) scale(0.15 -0.15)">
     <defs>
      <path id="DejaVuSans-63" d="M 3122 3366 
L 3122 2828 
Q 2878 2963 2633 3030 
Q 2388 3097 2138 3097 
Q 1578 3097 1268 2742 
Q 959 2388 959 1747 
Q 959 1106 1268 751 
Q 1578 397 2138 397 
Q 2388 397 2633 464 
Q 2878 531 3122 666 
L 3122 134 
Q 2881 22 2623 -34 
Q 2366 -91 2075 -91 
Q 1284 -91 818 406 
Q 353 903 353 1747 
Q 353 2603 823 3093 
Q 1294 3584 2113 3584 
Q 2378 3584 2631 3529 
Q 2884 3475 3122 3366 
z
" transform="scale(0.015625)"/>
      <path id="DejaVuSans-6c" d="M 603 4863 
L 1178 4863 
L 1178 0 
L 603 0 
L 603 4863 
z
" transform="scale(0.015625)"/>
      <path id="DejaVuSans-61" d="M 2194 1759 
Q 1497 1759 1228 1600 
Q 959 1441 959 1056 
Q 959 750 1161 570 
Q 1363 391 1709 391 
Q 2188 391 2477 730 
Q 2766 1069 2766 1631 
L 2766 1759 
L 2194 1759 
z
M 3341 1997 
L 3341 0 
L 2766 0 
L 2766 531 
Q 2569 213 2275 61 
Q 1981 -91 1556 -91 
Q 1019 -91 701 211 
Q 384 513 384 1019 
Q 384 1609 779 1909 
Q 1175 2209 1959 2209 
L 2766 2209 
L 2766 2266 
Q 2766 2663 2505 2880 
Q 2244 3097 1772 3097 
Q 1472 3097 1187 3025 
Q 903 2953 641 2809 
L 641 3341 
Q 956 3463 1253 3523 
Q 1550 3584 1831 3584 
Q 2591 3584 2966 3190 
Q 3341 2797 3341 1997 
z
" transform="scale(0.015625)"/>
      <path id="DejaVuSans-66" d="M 2375 4863 
L 2375 4384 
L 1825 4384 
Q 1516 4384 1395 4259 
Q 1275 4134 1275 3809 
L 1275 3500 
L 2222 3500 
L 2222 3053 
L 1275 3053 
L 1275 0 
L 697 0 
L 697 3053 
L 147 3053 
L 147 3500 
L 697 3500 
L 697 3744 
Q 697 4328 969 4595 
Q 1241 4863 1831 4863 
L 2375 4863 
z
" transform="scale(0.015625)"/>
      <path id="DejaVuSans-74" d="M 1172 4494 
L 1172 3500 
L 2356 3500 
L 2356 3053 
L 1172 3053 
L 1172 1153 
Q 1172 725 1289 603 
Q 1406 481 1766 481 
L 2356 481 
L 2356 0 
L 1766 0 
Q 1100 0 847 248 
Q 594 497 594 1153 
L 594 3053 
L 172 3053 
L 172 3500 
L 594 3500 
L 594 4494 
L 1172 4494 
z
" transform="scale(0.015625)"/>
     </defs>
     <use xlink:href="#DejaVuSans-63"/>
     <use xlink:href="#DejaVuSans-6c" x="54.980469"/>
     <use xlink:href="#DejaVuSans-61" x="82.763672"/>
     <use xlink:href="#DejaVuSans-73" x="144.042969"/>
     <use xlink:href="#DejaVuSans-73" x="196.142578"/>
     <use xlink:href="#DejaVuSans-69" x="248.242188"/>
     <use xlink:href="#DejaVuSans-66" x="276.025391"/>
     <use xlink:href="#DejaVuSans-69" x="311.230469"/>
     <use xlink:href="#DejaVuSans-63" x="339.013672"/>
     <use xlink:href="#DejaVuSans-61" x="393.994141"/>
     <use xlink:href="#DejaVuSans-74" x="455.273438"/>
     <use xlink:href="#DejaVuSans-69" x="494.482422"/>
     <use xlink:href="#DejaVuSans-6f" x="522.265625"/>
     <use xlink:href="#DejaVuSans-6e" x="583.447266"/>
    </g>
   </g>
  </g>
 </g>
 <defs>
  <clipPath id="p9a463c6c55">
   <rect x="16.2" y="16.2" width="975.6" height="975.6"/>
  </clipPath>
 </defs>
</svg>
