<?xml version="1.0" encoding="utf-8" standalone="no"?>
<!DOCTYPE svg PUBLIC "-//W3C//DTD SVG 1.1//EN"
  "http://www.w3.org/Graphics/SVG/1.1/DTD/svg11.dtd">
<svg xmlns:xlink="http://www.w3.org/1999/xlink" width="1296pt" height="864pt" viewBox="0 0 1296 864" xmlns="http://www.w3.org/2000/svg" version="1.1">
 <metadata>
  <rdf:RDF xmlns:dc="http://purl.org/dc/elements/1.1/" xmlns:cc="http://creativecommons.org/ns#" xmlns:rdf="http://www.w3.org/1999/02/22-rdf-syntax-ns#">
   <cc:Work>
    <dc:type rdf:resource="http://purl.org/dc/dcmitype/StillImage"/>
    <dc:date>2023-11-09T12:22:54.503479</dc:date>
    <dc:format>image/svg+xml</dc:format>
    <dc:creator>
     <cc:Agent>
      <dc:title>Matplotlib v3.8.0, https://matplotlib.org/</dc:title>
     </cc:Agent>
    </dc:creator>
   </cc:Work>
  </rdf:RDF>
 </metadata>
 <defs>
  <style type="text/css">*{stroke-linejoin: round; stroke-linecap: butt}</style>
 </defs>
 <g id="figure_1">
  <g id="patch_1">
   <path d="M 0 864 
L 1296 864 
L 1296 0 
L 0 0 
z
" style="fill: #ffffff"/>
  </g>
  <g id="axes_1">
   <g id="matplotlib.axis_1"/>
   <g id="matplotlib.axis_2"/>
   <g id="patch_2">
    <path d="M 674.679861 432.000182 
C 674.679861 404.932196 668.326187 378.238353 656.131599 354.072926 
C 643.937011 329.907499 626.238624 308.938533 604.464752 292.858286 
C 582.690879 276.77804 557.443453 266.031045 530.760015 261.484618 
C 504.076578 256.938191 476.694783 258.718016 450.824426 266.680454 
C 424.954068 274.642893 401.310324 288.567827 381.801314 307.331473 
C 362.292305 326.095119 347.457351 349.178761 338.493676 374.719482 
C 329.530002 400.260202 326.685405 427.551935 330.189454 454.392156 
C 333.693503 481.232378 343.449329 506.879099 358.669607 529.262552 
L 428.757888 481.60399 
C 420.995546 470.188429 416.020075 457.108602 414.23301 443.420089 
C 412.445945 429.731576 413.896689 415.812792 418.468163 402.787025 
C 423.039637 389.761257 430.605464 377.9886 440.555059 368.41914 
C 450.504654 358.849681 462.562963 351.747965 475.756846 347.687121 
C 488.950728 343.626277 502.915443 342.718567 516.523996 345.037244 
C 530.13255 347.355922 543.008737 352.836889 554.113412 361.037815 
C 565.218087 369.238741 574.244264 379.932914 580.463504 392.257281 
C 586.682744 404.581649 589.923118 418.195509 589.923118 432.000182 
z
" style="fill: #f6583e; stroke: #ffffff; stroke-linejoin: miter"/>
   </g>
   <g id="patch_3">
    <path d="M 358.669607 529.262552 
C 373.463463 551.018892 393.02796 569.115904 415.869478 582.171998 
C 438.710996 595.228092 464.233089 602.902344 490.487313 604.608874 
C 516.741537 606.315404 543.042334 602.009652 567.381808 592.020332 
C 591.721283 582.031013 613.463876 566.618971 630.949683 546.960815 
L 567.620727 490.630105 
C 558.702965 500.655764 547.614243 508.515906 535.201111 513.610458 
C 522.787979 518.705011 509.374573 520.900945 495.984918 520.030615 
C 482.595264 519.160284 469.578996 515.246416 457.929822 508.587808 
C 446.280648 501.9292 436.302754 492.699724 428.757888 481.60399 
z
" style="fill: #5ba3d0; stroke: #ffffff; stroke-linejoin: miter"/>
   </g>
   <g id="patch_4">
    <path d="M 630.949683 546.960815 
C 644.916927 531.25835 655.906279 513.141093 663.378097 493.49871 
C 670.849916 473.856326 674.679861 453.015684 674.679861 432.000182 
L 589.923118 432.000182 
C 589.923118 442.718088 587.969845 453.346815 584.159218 463.364431 
C 580.348591 473.382047 574.744021 482.621848 567.620727 490.630105 
z
" style="fill: #928fc3; stroke: #ffffff; stroke-linejoin: miter"/>
   </g>
   <g id="patch_5">
    <path d="M 761.166334 432.000182 
C 761.166334 370.580168 739.357038 311.111691 699.647784 264.254533 
C 659.938529 217.397375 604.852731 186.129181 544.264572 176.054805 
C 483.676412 165.980428 421.436104 177.740069 368.700282 209.225799 
C 315.96446 240.711529 276.084342 289.922517 256.208478 348.037645 
L 336.404634 375.465407 
C 349.787716 336.334554 376.640329 303.199156 412.149116 281.998764 
C 447.657902 260.798372 489.566377 252.880215 530.362404 259.663628 
C 571.158431 266.447042 608.249535 287.500959 634.9871 319.051445 
C 661.724665 350.601931 676.409591 390.644039 676.409591 432.000182 
z
" style="fill: #f6583e; stroke: #ffffff; stroke-linejoin: miter"/>
   </g>
   <g id="patch_6">
    <path d="M 256.208478 348.037645 
C 246.964722 375.065505 242.247497 403.435298 242.247496 432.000176 
C 242.247496 460.565053 246.964719 488.934847 256.208474 515.962707 
L 336.404632 488.534949 
C 330.180503 470.336189 327.004239 451.233862 327.00424 432.000178 
C 327.00424 412.766494 330.180505 393.664166 336.404634 375.465407 
z
" style="fill: #928fc3; stroke: #ffffff; stroke-linejoin: miter"/>
   </g>
   <g id="patch_7">
    <path d="M 256.208474 515.962707 
C 259.898985 526.753408 264.296929 537.28906 269.373686 547.501094 
C 274.450443 557.713129 280.194975 567.579345 286.569896 577.035533 
L 356.847989 529.657318 
C 352.555542 523.290152 348.687557 516.646899 345.269208 509.770796 
C 341.850858 502.894693 338.889575 495.800688 336.404632 488.534949 
z
" style="fill: #60ba6c; stroke: #ffffff; stroke-linejoin: miter"/>
   </g>
   <g id="patch_8">
    <path d="M 286.569896 577.035533 
C 317.6289 623.106657 362.680523 658.004745 415.052803 676.561534 
C 467.425084 695.118323 524.398394 696.370182 577.535221 680.131716 
C 630.672049 663.893249 677.213062 631.007701 710.26573 586.345285 
C 743.318398 541.68287 761.166334 487.562851 761.166334 432.000182 
L 676.409591 432.000182 
C 676.409591 469.412379 664.39198 505.853192 642.136517 535.925885 
C 619.881054 565.998578 588.543438 588.141514 552.764641 599.075415 
C 516.985844 610.009315 478.623815 609.166397 443.359813 596.671492 
C 408.095811 584.176588 377.761052 560.678542 356.847989 529.657318 
z
" style="fill: #ffffff; stroke: #ffffff; stroke-linejoin: miter"/>
   </g>
   <g id="patch_9">
    <path d="M 847.652807 432.000182 
C 847.652807 355.317824 822.156693 280.769616 775.197479 220.147705 
C 728.238264 159.525794 662.429796 116.20452 588.181757 97.036509 
L 566.995421 179.102609 
C 623.05269 193.574457 672.738084 226.282019 708.192291 272.051562 
C 743.646498 317.821105 762.896064 374.105002 762.896064 432.000182 
z
" style="fill: #5ba3d0; stroke: #ffffff; stroke-linejoin: miter"/>
   </g>
   <g id="patch_10">
    <path d="M 588.181757 97.036509 
C 571.002588 92.601503 553.507662 89.494655 535.851885 87.743473 
C 518.196108 85.992292 500.431744 85.601961 482.716088 86.575937 
L 487.368841 171.204877 
C 500.744161 170.469525 514.156255 170.764225 527.486367 172.086367 
C 540.816479 173.408509 554.025149 175.75418 566.995421 179.102609 
z
" style="fill: #f87f2c; stroke: #ffffff; stroke-linejoin: miter"/>
   </g>
   <g id="patch_11">
    <path d="M 482.716088 86.575937 
C 442.139194 88.806785 402.270958 98.170118 364.943251 114.235709 
C 327.615543 130.3013 293.408969 152.819261 263.895257 180.754933 
L 322.159113 242.310019 
C 344.441966 221.218586 370.267929 204.217526 398.450348 192.088005 
C 426.632768 179.958484 456.733286 172.889167 487.368841 171.204877 
z
" style="fill: #60ba6c; stroke: #ffffff; stroke-linejoin: miter"/>
   </g>
   <g id="patch_12">
    <path d="M 263.895257 180.754933 
C 247.322825 196.441269 232.343011 213.728897 219.174842 232.365044 
C 206.006674 251.001192 194.714647 270.894583 185.463867 291.754346 
L 262.943413 326.114576 
C 269.927752 310.365455 278.453233 295.345944 288.3952 281.275653 
C 298.337167 267.205362 309.646927 254.153203 322.159113 242.310019 
z
" style="fill: #f6583e; stroke: #ffffff; stroke-linejoin: miter"/>
   </g>
   <g id="patch_13">
    <path d="M 185.463867 291.754346 
C 183.409727 296.386266 181.457598 301.062757 179.608894 305.780432 
C 177.76019 310.498108 176.015357 315.255831 174.375658 320.050156 
L 254.571816 347.477913 
C 255.809789 343.858197 257.127138 340.266116 258.522909 336.704271 
C 259.918681 333.142426 261.392538 329.611675 262.943413 326.114576 
z
" style="fill: #928fc3; stroke: #ffffff; stroke-linejoin: miter"/>
   </g>
   <g id="patch_14">
    <path d="M 174.375658 320.050156 
C 158.121041 367.577116 152.410789 418.078939 157.642935 468.035411 
C 162.875081 517.991883 178.925164 566.214658 204.674417 609.34238 
C 230.42367 652.470102 265.259581 689.476866 306.75392 717.783124 
C 348.248259 746.089382 395.413976 765.021796 444.963397 773.260688 
C 494.512818 781.499581 545.26728 778.848966 593.688957 765.493606 
C 642.110634 752.138247 687.04769 728.395833 725.367799 695.921324 
C 763.687907 663.446816 794.479525 623.012704 815.596331 577.437436 
C 836.713136 531.862169 847.652811 482.229874 847.652807 432.000158 
L 762.896064 432.000164 
C 762.896066 469.9236 754.636612 507.395982 738.693424 541.805309 
C 722.750236 576.214636 699.502564 606.742391 670.570882 631.260644 
C 641.6392 655.778898 607.711723 673.704421 571.153357 683.787717 
C 534.594991 693.871014 496.275372 695.872228 458.865559 689.651864 
C 421.455746 683.431501 385.84563 669.137528 354.517404 647.766303 
C 323.189178 626.395078 296.888065 598.454972 277.447379 565.893542 
C 258.006693 533.332112 245.88888 496.923917 241.93861 459.20678 
C 237.98834 421.489644 242.29958 383.360767 254.571816 347.477913 
z
" style="fill: #ffffff; stroke: #ffffff; stroke-linejoin: miter"/>
   </g>
   <g id="legend_1">
    <g id="patch_15">
     <path d="M 941.13928 501.086097 
L 1091.161155 501.086097 
Q 1093.161155 501.086097 1093.161155 499.086097 
L 1093.161155 309.270472 
Q 1093.161155 307.270472 1091.161155 307.270472 
L 941.13928 307.270472 
Q 939.13928 307.270472 939.13928 309.270472 
L 939.13928 499.086097 
Q 939.13928 501.086097 941.13928 501.086097 
z
" style="fill: #eaeaf2; opacity: 0.8; stroke: #cccccc; stroke-linejoin: miter"/>
    </g>
    <g id="patch_16">
     <path d="M 943.13928 318.86891 
L 963.13928 318.86891 
L 963.13928 311.86891 
L 943.13928 311.86891 
z
" style="fill: #f6583e; stroke: #ffffff; stroke-linejoin: miter"/>
    </g>
    <g id="text_1">
     <!-- ('passive',) -->
     <g style="fill: #262626" transform="translate(971.13928 318.86891) scale(0.1 -0.1)">
      <defs>
       <path id="DejaVuSans-28" d="M 1984 4856 
Q 1566 4138 1362 3434 
Q 1159 2731 1159 2009 
Q 1159 1288 1364 580 
Q 1569 -128 1984 -844 
L 1484 -844 
Q 1016 -109 783 600 
Q 550 1309 550 2009 
Q 550 2706 781 3412 
Q 1013 4119 1484 4856 
L 1984 4856 
z
" transform="scale(0.015625)"/>
       <path id="DejaVuSans-27" d="M 1147 4666 
L 1147 2931 
L 616 2931 
L 616 4666 
L 1147 4666 
z
" transform="scale(0.015625)"/>
       <path id="DejaVuSans-70" d="M 1159 525 
L 1159 -1331 
L 581 -1331 
L 581 3500 
L 1159 3500 
L 1159 2969 
Q 1341 3281 1617 3432 
Q 1894 3584 2278 3584 
Q 2916 3584 3314 3078 
Q 3713 2572 3713 1747 
Q 3713 922 3314 415 
Q 2916 -91 2278 -91 
Q 1894 -91 1617 61 
Q 1341 213 1159 525 
z
M 3116 1747 
Q 3116 2381 2855 2742 
Q 2594 3103 2138 3103 
Q 1681 3103 1420 2742 
Q 1159 2381 1159 1747 
Q 1159 1113 1420 752 
Q 1681 391 2138 391 
Q 2594 391 2855 752 
Q 3116 1113 3116 1747 
z
" transform="scale(0.015625)"/>
       <path id="DejaVuSans-61" d="M 2194 1759 
Q 1497 1759 1228 1600 
Q 959 1441 959 1056 
Q 959 750 1161 570 
Q 1363 391 1709 391 
Q 2188 391 2477 730 
Q 2766 1069 2766 1631 
L 2766 1759 
L 2194 1759 
z
M 3341 1997 
L 3341 0 
L 2766 0 
L 2766 531 
Q 2569 213 2275 61 
Q 1981 -91 1556 -91 
Q 1019 -91 701 211 
Q 384 513 384 1019 
Q 384 1609 779 1909 
Q 1175 2209 1959 2209 
L 2766 2209 
L 2766 2266 
Q 2766 2663 2505 2880 
Q 2244 3097 1772 3097 
Q 1472 3097 1187 3025 
Q 903 2953 641 2809 
L 641 3341 
Q 956 3463 1253 3523 
Q 1550 3584 1831 3584 
Q 2591 3584 2966 3190 
Q 3341 2797 3341 1997 
z
" transform="scale(0.015625)"/>
       <path id="DejaVuSans-73" d="M 2834 3397 
L 2834 2853 
Q 2591 2978 2328 3040 
Q 2066 3103 1784 3103 
Q 1356 3103 1142 2972 
Q 928 2841 928 2578 
Q 928 2378 1081 2264 
Q 1234 2150 1697 2047 
L 1894 2003 
Q 2506 1872 2764 1633 
Q 3022 1394 3022 966 
Q 3022 478 2636 193 
Q 2250 -91 1575 -91 
Q 1294 -91 989 -36 
Q 684 19 347 128 
L 347 722 
Q 666 556 975 473 
Q 1284 391 1588 391 
Q 1994 391 2212 530 
Q 2431 669 2431 922 
Q 2431 1156 2273 1281 
Q 2116 1406 1581 1522 
L 1381 1569 
Q 847 1681 609 1914 
Q 372 2147 372 2553 
Q 372 3047 722 3315 
Q 1072 3584 1716 3584 
Q 2034 3584 2315 3537 
Q 2597 3491 2834 3397 
z
" transform="scale(0.015625)"/>
       <path id="DejaVuSans-69" d="M 603 3500 
L 1178 3500 
L 1178 0 
L 603 0 
L 603 3500 
z
M 603 4863 
L 1178 4863 
L 1178 4134 
L 603 4134 
L 603 4863 
z
" transform="scale(0.015625)"/>
       <path id="DejaVuSans-76" d="M 191 3500 
L 800 3500 
L 1894 563 
L 2988 3500 
L 3597 3500 
L 2284 0 
L 1503 0 
L 191 3500 
z
" transform="scale(0.015625)"/>
       <path id="DejaVuSans-65" d="M 3597 1894 
L 3597 1613 
L 953 1613 
Q 991 1019 1311 708 
Q 1631 397 2203 397 
Q 2534 397 2845 478 
Q 3156 559 3463 722 
L 3463 178 
Q 3153 47 2828 -22 
Q 2503 -91 2169 -91 
Q 1331 -91 842 396 
Q 353 884 353 1716 
Q 353 2575 817 3079 
Q 1281 3584 2069 3584 
Q 2775 3584 3186 3129 
Q 3597 2675 3597 1894 
z
M 3022 2063 
Q 3016 2534 2758 2815 
Q 2500 3097 2075 3097 
Q 1594 3097 1305 2825 
Q 1016 2553 972 2059 
L 3022 2063 
z
" transform="scale(0.015625)"/>
       <path id="DejaVuSans-2c" d="M 750 794 
L 1409 794 
L 1409 256 
L 897 -744 
L 494 -744 
L 750 256 
L 750 794 
z
" transform="scale(0.015625)"/>
       <path id="DejaVuSans-29" d="M 513 4856 
L 1013 4856 
Q 1481 4119 1714 3412 
Q 1947 2706 1947 2009 
Q 1947 1309 1714 600 
Q 1481 -109 1013 -844 
L 513 -844 
Q 928 -128 1133 580 
Q 1338 1288 1338 2009 
Q 1338 2731 1133 3434 
Q 928 4138 513 4856 
z
" transform="scale(0.015625)"/>
      </defs>
      <use xlink:href="#DejaVuSans-28"/>
      <use xlink:href="#DejaVuSans-27" x="39.013672"/>
      <use xlink:href="#DejaVuSans-70" x="66.503906"/>
      <use xlink:href="#DejaVuSans-61" x="129.980469"/>
      <use xlink:href="#DejaVuSans-73" x="191.259766"/>
      <use xlink:href="#DejaVuSans-73" x="243.359375"/>
      <use xlink:href="#DejaVuSans-69" x="295.458984"/>
      <use xlink:href="#DejaVuSans-76" x="323.242188"/>
      <use xlink:href="#DejaVuSans-65" x="382.421875"/>
      <use xlink:href="#DejaVuSans-27" x="443.945312"/>
      <use xlink:href="#DejaVuSans-2c" x="471.435547"/>
      <use xlink:href="#DejaVuSans-29" x="503.222656"/>
     </g>
    </g>
    <g id="patch_17">
     <path d="M 943.13928 333.547035 
L 963.13928 333.547035 
L 963.13928 326.547035 
L 943.13928 326.547035 
z
" style="fill: #5ba3d0; stroke: #ffffff; stroke-linejoin: miter"/>
    </g>
    <g id="text_2">
     <!-- ('active',) -->
     <g style="fill: #262626" transform="translate(971.13928 333.547035) scale(0.1 -0.1)">
      <defs>
       <path id="DejaVuSans-63" d="M 3122 3366 
L 3122 2828 
Q 2878 2963 2633 3030 
Q 2388 3097 2138 3097 
Q 1578 3097 1268 2742 
Q 959 2388 959 1747 
Q 959 1106 1268 751 
Q 1578 397 2138 397 
Q 2388 397 2633 464 
Q 2878 531 3122 666 
L 3122 134 
Q 2881 22 2623 -34 
Q 2366 -91 2075 -91 
Q 1284 -91 818 406 
Q 353 903 353 1747 
Q 353 2603 823 3093 
Q 1294 3584 2113 3584 
Q 2378 3584 2631 3529 
Q 2884 3475 3122 3366 
z
" transform="scale(0.015625)"/>
       <path id="DejaVuSans-74" d="M 1172 4494 
L 1172 3500 
L 2356 3500 
L 2356 3053 
L 1172 3053 
L 1172 1153 
Q 1172 725 1289 603 
Q 1406 481 1766 481 
L 2356 481 
L 2356 0 
L 1766 0 
Q 1100 0 847 248 
Q 594 497 594 1153 
L 594 3053 
L 172 3053 
L 172 3500 
L 594 3500 
L 594 4494 
L 1172 4494 
z
" transform="scale(0.015625)"/>
      </defs>
      <use xlink:href="#DejaVuSans-28"/>
      <use xlink:href="#DejaVuSans-27" x="39.013672"/>
      <use xlink:href="#DejaVuSans-61" x="66.503906"/>
      <use xlink:href="#DejaVuSans-63" x="127.783203"/>
      <use xlink:href="#DejaVuSans-74" x="182.763672"/>
      <use xlink:href="#DejaVuSans-69" x="221.972656"/>
      <use xlink:href="#DejaVuSans-76" x="249.755859"/>
      <use xlink:href="#DejaVuSans-65" x="308.935547"/>
      <use xlink:href="#DejaVuSans-27" x="370.458984"/>
      <use xlink:href="#DejaVuSans-2c" x="397.949219"/>
      <use xlink:href="#DejaVuSans-29" x="429.736328"/>
     </g>
    </g>
    <g id="patch_18">
     <path d="M 943.13928 348.22516 
L 963.13928 348.22516 
L 963.13928 341.22516 
L 943.13928 341.22516 
z
" style="fill: #928fc3; stroke: #ffffff; stroke-linejoin: miter"/>
    </g>
    <g id="text_3">
     <!-- ('active, passive',) -->
     <g style="fill: #262626" transform="translate(971.13928 348.22516) scale(0.1 -0.1)">
      <defs>
       <path id="DejaVuSans-20" transform="scale(0.015625)"/>
      </defs>
      <use xlink:href="#DejaVuSans-28"/>
      <use xlink:href="#DejaVuSans-27" x="39.013672"/>
      <use xlink:href="#DejaVuSans-61" x="66.503906"/>
      <use xlink:href="#DejaVuSans-63" x="127.783203"/>
      <use xlink:href="#DejaVuSans-74" x="182.763672"/>
      <use xlink:href="#DejaVuSans-69" x="221.972656"/>
      <use xlink:href="#DejaVuSans-76" x="249.755859"/>
      <use xlink:href="#DejaVuSans-65" x="308.935547"/>
      <use xlink:href="#DejaVuSans-2c" x="370.458984"/>
      <use xlink:href="#DejaVuSans-20" x="402.246094"/>
      <use xlink:href="#DejaVuSans-70" x="434.033203"/>
      <use xlink:href="#DejaVuSans-61" x="497.509766"/>
      <use xlink:href="#DejaVuSans-73" x="558.789062"/>
      <use xlink:href="#DejaVuSans-73" x="610.888672"/>
      <use xlink:href="#DejaVuSans-69" x="662.988281"/>
      <use xlink:href="#DejaVuSans-76" x="690.771484"/>
      <use xlink:href="#DejaVuSans-65" x="749.951172"/>
      <use xlink:href="#DejaVuSans-27" x="811.474609"/>
      <use xlink:href="#DejaVuSans-2c" x="838.964844"/>
      <use xlink:href="#DejaVuSans-29" x="870.751953"/>
     </g>
    </g>
    <g id="patch_19">
     <path d="M 943.13928 362.903285 
L 963.13928 362.903285 
L 963.13928 355.903285 
L 943.13928 355.903285 
z
" style="fill: #f6583e; stroke: #ffffff; stroke-linejoin: miter"/>
    </g>
    <g id="text_4">
     <!-- attribution -->
     <g style="fill: #262626" transform="translate(971.13928 362.903285) scale(0.1 -0.1)">
      <defs>
       <path id="DejaVuSans-72" d="M 2631 2963 
Q 2534 3019 2420 3045 
Q 2306 3072 2169 3072 
Q 1681 3072 1420 2755 
Q 1159 2438 1159 1844 
L 1159 0 
L 581 0 
L 581 3500 
L 1159 3500 
L 1159 2956 
Q 1341 3275 1631 3429 
Q 1922 3584 2338 3584 
Q 2397 3584 2469 3576 
Q 2541 3569 2628 3553 
L 2631 2963 
z
" transform="scale(0.015625)"/>
       <path id="DejaVuSans-62" d="M 3116 1747 
Q 3116 2381 2855 2742 
Q 2594 3103 2138 3103 
Q 1681 3103 1420 2742 
Q 1159 2381 1159 1747 
Q 1159 1113 1420 752 
Q 1681 391 2138 391 
Q 2594 391 2855 752 
Q 3116 1113 3116 1747 
z
M 1159 2969 
Q 1341 3281 1617 3432 
Q 1894 3584 2278 3584 
Q 2916 3584 3314 3078 
Q 3713 2572 3713 1747 
Q 3713 922 3314 415 
Q 2916 -91 2278 -91 
Q 1894 -91 1617 61 
Q 1341 213 1159 525 
L 1159 0 
L 581 0 
L 581 4863 
L 1159 4863 
L 1159 2969 
z
" transform="scale(0.015625)"/>
       <path id="DejaVuSans-75" d="M 544 1381 
L 544 3500 
L 1119 3500 
L 1119 1403 
Q 1119 906 1312 657 
Q 1506 409 1894 409 
Q 2359 409 2629 706 
Q 2900 1003 2900 1516 
L 2900 3500 
L 3475 3500 
L 3475 0 
L 2900 0 
L 2900 538 
Q 2691 219 2414 64 
Q 2138 -91 1772 -91 
Q 1169 -91 856 284 
Q 544 659 544 1381 
z
M 1991 3584 
L 1991 3584 
z
" transform="scale(0.015625)"/>
       <path id="DejaVuSans-6f" d="M 1959 3097 
Q 1497 3097 1228 2736 
Q 959 2375 959 1747 
Q 959 1119 1226 758 
Q 1494 397 1959 397 
Q 2419 397 2687 759 
Q 2956 1122 2956 1747 
Q 2956 2369 2687 2733 
Q 2419 3097 1959 3097 
z
M 1959 3584 
Q 2709 3584 3137 3096 
Q 3566 2609 3566 1747 
Q 3566 888 3137 398 
Q 2709 -91 1959 -91 
Q 1206 -91 779 398 
Q 353 888 353 1747 
Q 353 2609 779 3096 
Q 1206 3584 1959 3584 
z
" transform="scale(0.015625)"/>
       <path id="DejaVuSans-6e" d="M 3513 2113 
L 3513 0 
L 2938 0 
L 2938 2094 
Q 2938 2591 2744 2837 
Q 2550 3084 2163 3084 
Q 1697 3084 1428 2787 
Q 1159 2491 1159 1978 
L 1159 0 
L 581 0 
L 581 3500 
L 1159 3500 
L 1159 2956 
Q 1366 3272 1645 3428 
Q 1925 3584 2291 3584 
Q 2894 3584 3203 3211 
Q 3513 2838 3513 2113 
z
" transform="scale(0.015625)"/>
      </defs>
      <use xlink:href="#DejaVuSans-61"/>
      <use xlink:href="#DejaVuSans-74" x="61.279297"/>
      <use xlink:href="#DejaVuSans-74" x="100.488281"/>
      <use xlink:href="#DejaVuSans-72" x="139.697266"/>
      <use xlink:href="#DejaVuSans-69" x="180.810547"/>
      <use xlink:href="#DejaVuSans-62" x="208.59375"/>
      <use xlink:href="#DejaVuSans-75" x="272.070312"/>
      <use xlink:href="#DejaVuSans-74" x="335.449219"/>
      <use xlink:href="#DejaVuSans-69" x="374.658203"/>
      <use xlink:href="#DejaVuSans-6f" x="402.441406"/>
      <use xlink:href="#DejaVuSans-6e" x="463.623047"/>
     </g>
    </g>
    <g id="patch_20">
     <path d="M 943.13928 377.58141 
L 963.13928 377.58141 
L 963.13928 370.58141 
L 943.13928 370.58141 
z
" style="fill: #928fc3; stroke: #ffffff; stroke-linejoin: miter"/>
    </g>
    <g id="text_5">
     <!-- hidden semantics -->
     <g style="fill: #262626" transform="translate(971.13928 377.58141) scale(0.1 -0.1)">
      <defs>
       <path id="DejaVuSans-68" d="M 3513 2113 
L 3513 0 
L 2938 0 
L 2938 2094 
Q 2938 2591 2744 2837 
Q 2550 3084 2163 3084 
Q 1697 3084 1428 2787 
Q 1159 2491 1159 1978 
L 1159 0 
L 581 0 
L 581 4863 
L 1159 4863 
L 1159 2956 
Q 1366 3272 1645 3428 
Q 1925 3584 2291 3584 
Q 2894 3584 3203 3211 
Q 3513 2838 3513 2113 
z
" transform="scale(0.015625)"/>
       <path id="DejaVuSans-64" d="M 2906 2969 
L 2906 4863 
L 3481 4863 
L 3481 0 
L 2906 0 
L 2906 525 
Q 2725 213 2448 61 
Q 2172 -91 1784 -91 
Q 1150 -91 751 415 
Q 353 922 353 1747 
Q 353 2572 751 3078 
Q 1150 3584 1784 3584 
Q 2172 3584 2448 3432 
Q 2725 3281 2906 2969 
z
M 947 1747 
Q 947 1113 1208 752 
Q 1469 391 1925 391 
Q 2381 391 2643 752 
Q 2906 1113 2906 1747 
Q 2906 2381 2643 2742 
Q 2381 3103 1925 3103 
Q 1469 3103 1208 2742 
Q 947 2381 947 1747 
z
" transform="scale(0.015625)"/>
       <path id="DejaVuSans-6d" d="M 3328 2828 
Q 3544 3216 3844 3400 
Q 4144 3584 4550 3584 
Q 5097 3584 5394 3201 
Q 5691 2819 5691 2113 
L 5691 0 
L 5113 0 
L 5113 2094 
Q 5113 2597 4934 2840 
Q 4756 3084 4391 3084 
Q 3944 3084 3684 2787 
Q 3425 2491 3425 1978 
L 3425 0 
L 2847 0 
L 2847 2094 
Q 2847 2600 2669 2842 
Q 2491 3084 2119 3084 
Q 1678 3084 1418 2786 
Q 1159 2488 1159 1978 
L 1159 0 
L 581 0 
L 581 3500 
L 1159 3500 
L 1159 2956 
Q 1356 3278 1631 3431 
Q 1906 3584 2284 3584 
Q 2666 3584 2933 3390 
Q 3200 3197 3328 2828 
z
" transform="scale(0.015625)"/>
      </defs>
      <use xlink:href="#DejaVuSans-68"/>
      <use xlink:href="#DejaVuSans-69" x="63.378906"/>
      <use xlink:href="#DejaVuSans-64" x="91.162109"/>
      <use xlink:href="#DejaVuSans-64" x="154.638672"/>
      <use xlink:href="#DejaVuSans-65" x="218.115234"/>
      <use xlink:href="#DejaVuSans-6e" x="279.638672"/>
      <use xlink:href="#DejaVuSans-20" x="343.017578"/>
      <use xlink:href="#DejaVuSans-73" x="374.804688"/>
      <use xlink:href="#DejaVuSans-65" x="426.904297"/>
      <use xlink:href="#DejaVuSans-6d" x="488.427734"/>
      <use xlink:href="#DejaVuSans-61" x="585.839844"/>
      <use xlink:href="#DejaVuSans-6e" x="647.119141"/>
      <use xlink:href="#DejaVuSans-74" x="710.498047"/>
      <use xlink:href="#DejaVuSans-69" x="749.707031"/>
      <use xlink:href="#DejaVuSans-63" x="777.490234"/>
      <use xlink:href="#DejaVuSans-73" x="832.470703"/>
     </g>
    </g>
    <g id="patch_21">
     <path d="M 943.13928 392.259535 
L 963.13928 392.259535 
L 963.13928 385.259535 
L 943.13928 385.259535 
z
" style="fill: #60ba6c; stroke: #ffffff; stroke-linejoin: miter"/>
    </g>
    <g id="text_6">
     <!-- rule -->
     <g style="fill: #262626" transform="translate(971.13928 392.259535) scale(0.1 -0.1)">
      <defs>
       <path id="DejaVuSans-6c" d="M 603 4863 
L 1178 4863 
L 1178 0 
L 603 0 
L 603 4863 
z
" transform="scale(0.015625)"/>
      </defs>
      <use xlink:href="#DejaVuSans-72"/>
      <use xlink:href="#DejaVuSans-75" x="41.113281"/>
      <use xlink:href="#DejaVuSans-6c" x="104.492188"/>
      <use xlink:href="#DejaVuSans-65" x="132.275391"/>
     </g>
    </g>
    <g id="patch_22">
     <path d="M 943.13928 406.93766 
L 963.13928 406.93766 
L 963.13928 399.93766 
L 943.13928 399.93766 
z
" style="fill: #ffffff; stroke: #ffffff; stroke-linejoin: miter"/>
    </g>
    <g id="text_7">
     <!-- extra -->
     <g style="fill: #262626" transform="translate(971.13928 406.93766) scale(0.1 -0.1)">
      <defs>
       <path id="DejaVuSans-78" d="M 3513 3500 
L 2247 1797 
L 3578 0 
L 2900 0 
L 1881 1375 
L 863 0 
L 184 0 
L 1544 1831 
L 300 3500 
L 978 3500 
L 1906 2253 
L 2834 3500 
L 3513 3500 
z
" transform="scale(0.015625)"/>
      </defs>
      <use xlink:href="#DejaVuSans-65"/>
      <use xlink:href="#DejaVuSans-78" x="59.773438"/>
      <use xlink:href="#DejaVuSans-74" x="118.953125"/>
      <use xlink:href="#DejaVuSans-72" x="158.162109"/>
      <use xlink:href="#DejaVuSans-61" x="199.275391"/>
     </g>
    </g>
    <g id="patch_23">
     <path d="M 943.13928 421.615785 
L 963.13928 421.615785 
L 963.13928 414.615785 
L 943.13928 414.615785 
z
" style="fill: #5ba3d0; stroke: #ffffff; stroke-linejoin: miter"/>
    </g>
    <g id="text_8">
     <!-- backpropagation-based -->
     <g style="fill: #262626" transform="translate(971.13928 421.615785) scale(0.1 -0.1)">
      <defs>
       <path id="DejaVuSans-6b" d="M 581 4863 
L 1159 4863 
L 1159 1991 
L 2875 3500 
L 3609 3500 
L 1753 1863 
L 3688 0 
L 2938 0 
L 1159 1709 
L 1159 0 
L 581 0 
L 581 4863 
z
" transform="scale(0.015625)"/>
       <path id="DejaVuSans-67" d="M 2906 1791 
Q 2906 2416 2648 2759 
Q 2391 3103 1925 3103 
Q 1463 3103 1205 2759 
Q 947 2416 947 1791 
Q 947 1169 1205 825 
Q 1463 481 1925 481 
Q 2391 481 2648 825 
Q 2906 1169 2906 1791 
z
M 3481 434 
Q 3481 -459 3084 -895 
Q 2688 -1331 1869 -1331 
Q 1566 -1331 1297 -1286 
Q 1028 -1241 775 -1147 
L 775 -588 
Q 1028 -725 1275 -790 
Q 1522 -856 1778 -856 
Q 2344 -856 2625 -561 
Q 2906 -266 2906 331 
L 2906 616 
Q 2728 306 2450 153 
Q 2172 0 1784 0 
Q 1141 0 747 490 
Q 353 981 353 1791 
Q 353 2603 747 3093 
Q 1141 3584 1784 3584 
Q 2172 3584 2450 3431 
Q 2728 3278 2906 2969 
L 2906 3500 
L 3481 3500 
L 3481 434 
z
" transform="scale(0.015625)"/>
       <path id="DejaVuSans-2d" d="M 313 2009 
L 1997 2009 
L 1997 1497 
L 313 1497 
L 313 2009 
z
" transform="scale(0.015625)"/>
      </defs>
      <use xlink:href="#DejaVuSans-62"/>
      <use xlink:href="#DejaVuSans-61" x="63.476562"/>
      <use xlink:href="#DejaVuSans-63" x="124.755859"/>
      <use xlink:href="#DejaVuSans-6b" x="179.736328"/>
      <use xlink:href="#DejaVuSans-70" x="237.646484"/>
      <use xlink:href="#DejaVuSans-72" x="301.123047"/>
      <use xlink:href="#DejaVuSans-6f" x="339.986328"/>
      <use xlink:href="#DejaVuSans-70" x="401.167969"/>
      <use xlink:href="#DejaVuSans-61" x="464.644531"/>
      <use xlink:href="#DejaVuSans-67" x="525.923828"/>
      <use xlink:href="#DejaVuSans-61" x="589.400391"/>
      <use xlink:href="#DejaVuSans-74" x="650.679688"/>
      <use xlink:href="#DejaVuSans-69" x="689.888672"/>
      <use xlink:href="#DejaVuSans-6f" x="717.671875"/>
      <use xlink:href="#DejaVuSans-6e" x="778.853516"/>
      <use xlink:href="#DejaVuSans-2d" x="842.232422"/>
      <use xlink:href="#DejaVuSans-62" x="878.316406"/>
      <use xlink:href="#DejaVuSans-61" x="941.792969"/>
      <use xlink:href="#DejaVuSans-73" x="1003.072266"/>
      <use xlink:href="#DejaVuSans-65" x="1055.171875"/>
      <use xlink:href="#DejaVuSans-64" x="1116.695312"/>
     </g>
    </g>
    <g id="patch_24">
     <path d="M 943.13928 436.29391 
L 963.13928 436.29391 
L 963.13928 429.29391 
L 943.13928 429.29391 
z
" style="fill: #f87f2c; stroke: #ffffff; stroke-linejoin: miter"/>
    </g>
    <g id="text_9">
     <!-- other -->
     <g style="fill: #262626" transform="translate(971.13928 436.29391) scale(0.1 -0.1)">
      <use xlink:href="#DejaVuSans-6f"/>
      <use xlink:href="#DejaVuSans-74" x="61.181641"/>
      <use xlink:href="#DejaVuSans-68" x="100.390625"/>
      <use xlink:href="#DejaVuSans-65" x="163.769531"/>
      <use xlink:href="#DejaVuSans-72" x="225.292969"/>
     </g>
    </g>
    <g id="patch_25">
     <path d="M 943.13928 450.972035 
L 963.13928 450.972035 
L 963.13928 443.972035 
L 943.13928 443.972035 
z
" style="fill: #60ba6c; stroke: #ffffff; stroke-linejoin: miter"/>
    </g>
    <g id="text_10">
     <!-- game theory -->
     <g style="fill: #262626" transform="translate(971.13928 450.972035) scale(0.1 -0.1)">
      <defs>
       <path id="DejaVuSans-79" d="M 2059 -325 
Q 1816 -950 1584 -1140 
Q 1353 -1331 966 -1331 
L 506 -1331 
L 506 -850 
L 844 -850 
Q 1081 -850 1212 -737 
Q 1344 -625 1503 -206 
L 1606 56 
L 191 3500 
L 800 3500 
L 1894 763 
L 2988 3500 
L 3597 3500 
L 2059 -325 
z
" transform="scale(0.015625)"/>
      </defs>
      <use xlink:href="#DejaVuSans-67"/>
      <use xlink:href="#DejaVuSans-61" x="63.476562"/>
      <use xlink:href="#DejaVuSans-6d" x="124.755859"/>
      <use xlink:href="#DejaVuSans-65" x="222.167969"/>
      <use xlink:href="#DejaVuSans-20" x="283.691406"/>
      <use xlink:href="#DejaVuSans-74" x="315.478516"/>
      <use xlink:href="#DejaVuSans-68" x="354.6875"/>
      <use xlink:href="#DejaVuSans-65" x="418.066406"/>
      <use xlink:href="#DejaVuSans-6f" x="479.589844"/>
      <use xlink:href="#DejaVuSans-72" x="540.771484"/>
      <use xlink:href="#DejaVuSans-79" x="581.884766"/>
     </g>
    </g>
    <g id="patch_26">
     <path d="M 943.13928 465.65016 
L 963.13928 465.65016 
L 963.13928 458.65016 
L 943.13928 458.65016 
z
" style="fill: #f6583e; stroke: #ffffff; stroke-linejoin: miter"/>
    </g>
    <g id="text_11">
     <!-- perturbation -->
     <g style="fill: #262626" transform="translate(971.13928 465.65016) scale(0.1 -0.1)">
      <use xlink:href="#DejaVuSans-70"/>
      <use xlink:href="#DejaVuSans-65" x="63.476562"/>
      <use xlink:href="#DejaVuSans-72" x="125"/>
      <use xlink:href="#DejaVuSans-74" x="166.113281"/>
      <use xlink:href="#DejaVuSans-75" x="205.322266"/>
      <use xlink:href="#DejaVuSans-72" x="268.701172"/>
      <use xlink:href="#DejaVuSans-62" x="309.814453"/>
      <use xlink:href="#DejaVuSans-61" x="373.291016"/>
      <use xlink:href="#DejaVuSans-74" x="434.570312"/>
      <use xlink:href="#DejaVuSans-69" x="473.779297"/>
      <use xlink:href="#DejaVuSans-6f" x="501.5625"/>
      <use xlink:href="#DejaVuSans-6e" x="562.744141"/>
     </g>
    </g>
    <g id="patch_27">
     <path d="M 943.13928 480.328285 
L 963.13928 480.328285 
L 963.13928 473.328285 
L 943.13928 473.328285 
z
" style="fill: #928fc3; stroke: #ffffff; stroke-linejoin: miter"/>
    </g>
    <g id="text_12">
     <!-- permutation -->
     <g style="fill: #262626" transform="translate(971.13928 480.328285) scale(0.1 -0.1)">
      <use xlink:href="#DejaVuSans-70"/>
      <use xlink:href="#DejaVuSans-65" x="63.476562"/>
      <use xlink:href="#DejaVuSans-72" x="125"/>
      <use xlink:href="#DejaVuSans-6d" x="164.363281"/>
      <use xlink:href="#DejaVuSans-75" x="261.775391"/>
      <use xlink:href="#DejaVuSans-74" x="325.154297"/>
      <use xlink:href="#DejaVuSans-61" x="364.363281"/>
      <use xlink:href="#DejaVuSans-74" x="425.642578"/>
      <use xlink:href="#DejaVuSans-69" x="464.851562"/>
      <use xlink:href="#DejaVuSans-6f" x="492.634766"/>
      <use xlink:href="#DejaVuSans-6e" x="553.816406"/>
     </g>
    </g>
    <g id="patch_28">
     <path d="M 943.13928 495.00641 
L 963.13928 495.00641 
L 963.13928 488.00641 
L 943.13928 488.00641 
z
" style="fill: #ffffff; stroke: #ffffff; stroke-linejoin: miter"/>
    </g>
    <g id="text_13">
     <!-- extra -->
     <g style="fill: #262626" transform="translate(971.13928 495.00641) scale(0.1 -0.1)">
      <use xlink:href="#DejaVuSans-65"/>
      <use xlink:href="#DejaVuSans-78" x="59.773438"/>
      <use xlink:href="#DejaVuSans-74" x="118.953125"/>
      <use xlink:href="#DejaVuSans-72" x="158.162109"/>
      <use xlink:href="#DejaVuSans-61" x="199.275391"/>
     </g>
    </g>
   </g>
  </g>
 </g>
</svg>
