<?xml version="1.0" encoding="utf-8" standalone="no"?>
<!DOCTYPE svg PUBLIC "-//W3C//DTD SVG 1.1//EN"
  "http://www.w3.org/Graphics/SVG/1.1/DTD/svg11.dtd">
<svg xmlns:xlink="http://www.w3.org/1999/xlink" width="720pt" height="720pt" viewBox="0 0 720 720" xmlns="http://www.w3.org/2000/svg" version="1.1">
 <metadata>
  <rdf:RDF xmlns:dc="http://purl.org/dc/elements/1.1/" xmlns:cc="http://creativecommons.org/ns#" xmlns:rdf="http://www.w3.org/1999/02/22-rdf-syntax-ns#">
   <cc:Work>
    <dc:type rdf:resource="http://purl.org/dc/dcmitype/StillImage"/>
    <dc:date>2024-02-16T17:32:34.159598</dc:date>
    <dc:format>image/svg+xml</dc:format>
    <dc:creator>
     <cc:Agent>
      <dc:title>Matplotlib v3.8.0, https://matplotlib.org/</dc:title>
     </cc:Agent>
    </dc:creator>
   </cc:Work>
  </rdf:RDF>
 </metadata>
 <defs>
  <style type="text/css">*{stroke-linejoin: round; stroke-linecap: butt}</style>
 </defs>
 <g id="figure_1">
  <g id="patch_1">
   <path d="M 0 720 
L 720 720 
L 720 0 
L 0 0 
z
" style="fill: #ffffff"/>
  </g>
  <g id="axes_1">
   <g id="patch_2">
    <path d="M 118.706 553.684 
L 505.312667 553.684 
L 505.312667 198.817333 
L 118.706 198.817333 
z
" style="fill: #ffffff"/>
   </g>
   <g id="matplotlib.axis_1">
    <g id="xtick_1">
     <g id="text_1">
      <!-- perturbation -->
      <g style="fill: #262626" transform="translate(164.722203 638.945125) rotate(-90) scale(0.121 -0.121)">
       <defs>
        <path id="DejaVuSans-70" d="M 1159 525 
L 1159 -1331 
L 581 -1331 
L 581 3500 
L 1159 3500 
L 1159 2969 
Q 1341 3281 1617 3432 
Q 1894 3584 2278 3584 
Q 2916 3584 3314 3078 
Q 3713 2572 3713 1747 
Q 3713 922 3314 415 
Q 2916 -91 2278 -91 
Q 1894 -91 1617 61 
Q 1341 213 1159 525 
z
M 3116 1747 
Q 3116 2381 2855 2742 
Q 2594 3103 2138 3103 
Q 1681 3103 1420 2742 
Q 1159 2381 1159 1747 
Q 1159 1113 1420 752 
Q 1681 391 2138 391 
Q 2594 391 2855 752 
Q 3116 1113 3116 1747 
z
" transform="scale(0.015625)"/>
        <path id="DejaVuSans-65" d="M 3597 1894 
L 3597 1613 
L 953 1613 
Q 991 1019 1311 708 
Q 1631 397 2203 397 
Q 2534 397 2845 478 
Q 3156 559 3463 722 
L 3463 178 
Q 3153 47 2828 -22 
Q 2503 -91 2169 -91 
Q 1331 -91 842 396 
Q 353 884 353 1716 
Q 353 2575 817 3079 
Q 1281 3584 2069 3584 
Q 2775 3584 3186 3129 
Q 3597 2675 3597 1894 
z
M 3022 2063 
Q 3016 2534 2758 2815 
Q 2500 3097 2075 3097 
Q 1594 3097 1305 2825 
Q 1016 2553 972 2059 
L 3022 2063 
z
" transform="scale(0.015625)"/>
        <path id="DejaVuSans-72" d="M 2631 2963 
Q 2534 3019 2420 3045 
Q 2306 3072 2169 3072 
Q 1681 3072 1420 2755 
Q 1159 2438 1159 1844 
L 1159 0 
L 581 0 
L 581 3500 
L 1159 3500 
L 1159 2956 
Q 1341 3275 1631 3429 
Q 1922 3584 2338 3584 
Q 2397 3584 2469 3576 
Q 2541 3569 2628 3553 
L 2631 2963 
z
" transform="scale(0.015625)"/>
        <path id="DejaVuSans-74" d="M 1172 4494 
L 1172 3500 
L 2356 3500 
L 2356 3053 
L 1172 3053 
L 1172 1153 
Q 1172 725 1289 603 
Q 1406 481 1766 481 
L 2356 481 
L 2356 0 
L 1766 0 
Q 1100 0 847 248 
Q 594 497 594 1153 
L 594 3053 
L 172 3053 
L 172 3500 
L 594 3500 
L 594 4494 
L 1172 4494 
z
" transform="scale(0.015625)"/>
        <path id="DejaVuSans-75" d="M 544 1381 
L 544 3500 
L 1119 3500 
L 1119 1403 
Q 1119 906 1312 657 
Q 1506 409 1894 409 
Q 2359 409 2629 706 
Q 2900 1003 2900 1516 
L 2900 3500 
L 3475 3500 
L 3475 0 
L 2900 0 
L 2900 538 
Q 2691 219 2414 64 
Q 2138 -91 1772 -91 
Q 1169 -91 856 284 
Q 544 659 544 1381 
z
M 1991 3584 
L 1991 3584 
z
" transform="scale(0.015625)"/>
        <path id="DejaVuSans-62" d="M 3116 1747 
Q 3116 2381 2855 2742 
Q 2594 3103 2138 3103 
Q 1681 3103 1420 2742 
Q 1159 2381 1159 1747 
Q 1159 1113 1420 752 
Q 1681 391 2138 391 
Q 2594 391 2855 752 
Q 3116 1113 3116 1747 
z
M 1159 2969 
Q 1341 3281 1617 3432 
Q 1894 3584 2278 3584 
Q 2916 3584 3314 3078 
Q 3713 2572 3713 1747 
Q 3713 922 3314 415 
Q 2916 -91 2278 -91 
Q 1894 -91 1617 61 
Q 1341 213 1159 525 
L 1159 0 
L 581 0 
L 581 4863 
L 1159 4863 
L 1159 2969 
z
" transform="scale(0.015625)"/>
        <path id="DejaVuSans-61" d="M 2194 1759 
Q 1497 1759 1228 1600 
Q 959 1441 959 1056 
Q 959 750 1161 570 
Q 1363 391 1709 391 
Q 2188 391 2477 730 
Q 2766 1069 2766 1631 
L 2766 1759 
L 2194 1759 
z
M 3341 1997 
L 3341 0 
L 2766 0 
L 2766 531 
Q 2569 213 2275 61 
Q 1981 -91 1556 -91 
Q 1019 -91 701 211 
Q 384 513 384 1019 
Q 384 1609 779 1909 
Q 1175 2209 1959 2209 
L 2766 2209 
L 2766 2266 
Q 2766 2663 2505 2880 
Q 2244 3097 1772 3097 
Q 1472 3097 1187 3025 
Q 903 2953 641 2809 
L 641 3341 
Q 956 3463 1253 3523 
Q 1550 3584 1831 3584 
Q 2591 3584 2966 3190 
Q 3341 2797 3341 1997 
z
" transform="scale(0.015625)"/>
        <path id="DejaVuSans-69" d="M 603 3500 
L 1178 3500 
L 1178 0 
L 603 0 
L 603 3500 
z
M 603 4863 
L 1178 4863 
L 1178 4134 
L 603 4134 
L 603 4863 
z
" transform="scale(0.015625)"/>
        <path id="DejaVuSans-6f" d="M 1959 3097 
Q 1497 3097 1228 2736 
Q 959 2375 959 1747 
Q 959 1119 1226 758 
Q 1494 397 1959 397 
Q 2419 397 2687 759 
Q 2956 1122 2956 1747 
Q 2956 2369 2687 2733 
Q 2419 3097 1959 3097 
z
M 1959 3584 
Q 2709 3584 3137 3096 
Q 3566 2609 3566 1747 
Q 3566 888 3137 398 
Q 2709 -91 1959 -91 
Q 1206 -91 779 398 
Q 353 888 353 1747 
Q 353 2609 779 3096 
Q 1206 3584 1959 3584 
z
" transform="scale(0.015625)"/>
        <path id="DejaVuSans-6e" d="M 3513 2113 
L 3513 0 
L 2938 0 
L 2938 2094 
Q 2938 2591 2744 2837 
Q 2550 3084 2163 3084 
Q 1697 3084 1428 2787 
Q 1159 2491 1159 1978 
L 1159 0 
L 581 0 
L 581 3500 
L 1159 3500 
L 1159 2956 
Q 1366 3272 1645 3428 
Q 1925 3584 2291 3584 
Q 2894 3584 3203 3211 
Q 3513 2838 3513 2113 
z
" transform="scale(0.015625)"/>
       </defs>
       <use xlink:href="#DejaVuSans-70"/>
       <use xlink:href="#DejaVuSans-65" x="63.476562"/>
       <use xlink:href="#DejaVuSans-72" x="125"/>
       <use xlink:href="#DejaVuSans-74" x="166.113281"/>
       <use xlink:href="#DejaVuSans-75" x="205.322266"/>
       <use xlink:href="#DejaVuSans-72" x="268.701172"/>
       <use xlink:href="#DejaVuSans-62" x="309.814453"/>
       <use xlink:href="#DejaVuSans-61" x="373.291016"/>
       <use xlink:href="#DejaVuSans-74" x="434.570312"/>
       <use xlink:href="#DejaVuSans-69" x="473.779297"/>
       <use xlink:href="#DejaVuSans-6f" x="501.5625"/>
       <use xlink:href="#DejaVuSans-6e" x="562.744141"/>
      </g>
     </g>
    </g>
    <g id="xtick_2">
     <g id="text_2">
      <!-- game theory -->
      <g style="fill: #262626" transform="translate(214.930861 640.754453) rotate(-90) scale(0.121 -0.121)">
       <defs>
        <path id="DejaVuSans-67" d="M 2906 1791 
Q 2906 2416 2648 2759 
Q 2391 3103 1925 3103 
Q 1463 3103 1205 2759 
Q 947 2416 947 1791 
Q 947 1169 1205 825 
Q 1463 481 1925 481 
Q 2391 481 2648 825 
Q 2906 1169 2906 1791 
z
M 3481 434 
Q 3481 -459 3084 -895 
Q 2688 -1331 1869 -1331 
Q 1566 -1331 1297 -1286 
Q 1028 -1241 775 -1147 
L 775 -588 
Q 1028 -725 1275 -790 
Q 1522 -856 1778 -856 
Q 2344 -856 2625 -561 
Q 2906 -266 2906 331 
L 2906 616 
Q 2728 306 2450 153 
Q 2172 0 1784 0 
Q 1141 0 747 490 
Q 353 981 353 1791 
Q 353 2603 747 3093 
Q 1141 3584 1784 3584 
Q 2172 3584 2450 3431 
Q 2728 3278 2906 2969 
L 2906 3500 
L 3481 3500 
L 3481 434 
z
" transform="scale(0.015625)"/>
        <path id="DejaVuSans-6d" d="M 3328 2828 
Q 3544 3216 3844 3400 
Q 4144 3584 4550 3584 
Q 5097 3584 5394 3201 
Q 5691 2819 5691 2113 
L 5691 0 
L 5113 0 
L 5113 2094 
Q 5113 2597 4934 2840 
Q 4756 3084 4391 3084 
Q 3944 3084 3684 2787 
Q 3425 2491 3425 1978 
L 3425 0 
L 2847 0 
L 2847 2094 
Q 2847 2600 2669 2842 
Q 2491 3084 2119 3084 
Q 1678 3084 1418 2786 
Q 1159 2488 1159 1978 
L 1159 0 
L 581 0 
L 581 3500 
L 1159 3500 
L 1159 2956 
Q 1356 3278 1631 3431 
Q 1906 3584 2284 3584 
Q 2666 3584 2933 3390 
Q 3200 3197 3328 2828 
z
" transform="scale(0.015625)"/>
        <path id="DejaVuSans-20" transform="scale(0.015625)"/>
        <path id="DejaVuSans-68" d="M 3513 2113 
L 3513 0 
L 2938 0 
L 2938 2094 
Q 2938 2591 2744 2837 
Q 2550 3084 2163 3084 
Q 1697 3084 1428 2787 
Q 1159 2491 1159 1978 
L 1159 0 
L 581 0 
L 581 4863 
L 1159 4863 
L 1159 2956 
Q 1366 3272 1645 3428 
Q 1925 3584 2291 3584 
Q 2894 3584 3203 3211 
Q 3513 2838 3513 2113 
z
" transform="scale(0.015625)"/>
        <path id="DejaVuSans-79" d="M 2059 -325 
Q 1816 -950 1584 -1140 
Q 1353 -1331 966 -1331 
L 506 -1331 
L 506 -850 
L 844 -850 
Q 1081 -850 1212 -737 
Q 1344 -625 1503 -206 
L 1606 56 
L 191 3500 
L 800 3500 
L 1894 763 
L 2988 3500 
L 3597 3500 
L 2059 -325 
z
" transform="scale(0.015625)"/>
       </defs>
       <use xlink:href="#DejaVuSans-67"/>
       <use xlink:href="#DejaVuSans-61" x="63.476562"/>
       <use xlink:href="#DejaVuSans-6d" x="124.755859"/>
       <use xlink:href="#DejaVuSans-65" x="222.167969"/>
       <use xlink:href="#DejaVuSans-20" x="283.691406"/>
       <use xlink:href="#DejaVuSans-74" x="315.478516"/>
       <use xlink:href="#DejaVuSans-68" x="354.6875"/>
       <use xlink:href="#DejaVuSans-65" x="418.066406"/>
       <use xlink:href="#DejaVuSans-6f" x="479.589844"/>
       <use xlink:href="#DejaVuSans-72" x="540.771484"/>
       <use xlink:href="#DejaVuSans-79" x="581.884766"/>
      </g>
     </g>
    </g>
    <g id="xtick_3">
     <g id="text_3">
      <!-- attention -->
      <g style="fill: #262626" transform="translate(265.139519 618.377016) rotate(-90) scale(0.121 -0.121)">
       <use xlink:href="#DejaVuSans-61"/>
       <use xlink:href="#DejaVuSans-74" x="61.279297"/>
       <use xlink:href="#DejaVuSans-74" x="100.488281"/>
       <use xlink:href="#DejaVuSans-65" x="139.697266"/>
       <use xlink:href="#DejaVuSans-6e" x="201.220703"/>
       <use xlink:href="#DejaVuSans-74" x="264.599609"/>
       <use xlink:href="#DejaVuSans-69" x="303.808594"/>
       <use xlink:href="#DejaVuSans-6f" x="331.591797"/>
       <use xlink:href="#DejaVuSans-6e" x="392.773438"/>
      </g>
     </g>
    </g>
    <g id="xtick_4">
     <g id="text_4">
      <!-- backpropagation-based -->
      <g style="fill: #262626" transform="translate(315.348177 705.990469) rotate(-90) scale(0.121 -0.121)">
       <defs>
        <path id="DejaVuSans-63" d="M 3122 3366 
L 3122 2828 
Q 2878 2963 2633 3030 
Q 2388 3097 2138 3097 
Q 1578 3097 1268 2742 
Q 959 2388 959 1747 
Q 959 1106 1268 751 
Q 1578 397 2138 397 
Q 2388 397 2633 464 
Q 2878 531 3122 666 
L 3122 134 
Q 2881 22 2623 -34 
Q 2366 -91 2075 -91 
Q 1284 -91 818 406 
Q 353 903 353 1747 
Q 353 2603 823 3093 
Q 1294 3584 2113 3584 
Q 2378 3584 2631 3529 
Q 2884 3475 3122 3366 
z
" transform="scale(0.015625)"/>
        <path id="DejaVuSans-6b" d="M 581 4863 
L 1159 4863 
L 1159 1991 
L 2875 3500 
L 3609 3500 
L 1753 1863 
L 3688 0 
L 2938 0 
L 1159 1709 
L 1159 0 
L 581 0 
L 581 4863 
z
" transform="scale(0.015625)"/>
        <path id="DejaVuSans-2d" d="M 313 2009 
L 1997 2009 
L 1997 1497 
L 313 1497 
L 313 2009 
z
" transform="scale(0.015625)"/>
        <path id="DejaVuSans-73" d="M 2834 3397 
L 2834 2853 
Q 2591 2978 2328 3040 
Q 2066 3103 1784 3103 
Q 1356 3103 1142 2972 
Q 928 2841 928 2578 
Q 928 2378 1081 2264 
Q 1234 2150 1697 2047 
L 1894 2003 
Q 2506 1872 2764 1633 
Q 3022 1394 3022 966 
Q 3022 478 2636 193 
Q 2250 -91 1575 -91 
Q 1294 -91 989 -36 
Q 684 19 347 128 
L 347 722 
Q 666 556 975 473 
Q 1284 391 1588 391 
Q 1994 391 2212 530 
Q 2431 669 2431 922 
Q 2431 1156 2273 1281 
Q 2116 1406 1581 1522 
L 1381 1569 
Q 847 1681 609 1914 
Q 372 2147 372 2553 
Q 372 3047 722 3315 
Q 1072 3584 1716 3584 
Q 2034 3584 2315 3537 
Q 2597 3491 2834 3397 
z
" transform="scale(0.015625)"/>
        <path id="DejaVuSans-64" d="M 2906 2969 
L 2906 4863 
L 3481 4863 
L 3481 0 
L 2906 0 
L 2906 525 
Q 2725 213 2448 61 
Q 2172 -91 1784 -91 
Q 1150 -91 751 415 
Q 353 922 353 1747 
Q 353 2572 751 3078 
Q 1150 3584 1784 3584 
Q 2172 3584 2448 3432 
Q 2725 3281 2906 2969 
z
M 947 1747 
Q 947 1113 1208 752 
Q 1469 391 1925 391 
Q 2381 391 2643 752 
Q 2906 1113 2906 1747 
Q 2906 2381 2643 2742 
Q 2381 3103 1925 3103 
Q 1469 3103 1208 2742 
Q 947 2381 947 1747 
z
" transform="scale(0.015625)"/>
       </defs>
       <use xlink:href="#DejaVuSans-62"/>
       <use xlink:href="#DejaVuSans-61" x="63.476562"/>
       <use xlink:href="#DejaVuSans-63" x="124.755859"/>
       <use xlink:href="#DejaVuSans-6b" x="179.736328"/>
       <use xlink:href="#DejaVuSans-70" x="237.646484"/>
       <use xlink:href="#DejaVuSans-72" x="301.123047"/>
       <use xlink:href="#DejaVuSans-6f" x="339.986328"/>
       <use xlink:href="#DejaVuSans-70" x="401.167969"/>
       <use xlink:href="#DejaVuSans-61" x="464.644531"/>
       <use xlink:href="#DejaVuSans-67" x="525.923828"/>
       <use xlink:href="#DejaVuSans-61" x="589.400391"/>
       <use xlink:href="#DejaVuSans-74" x="650.679688"/>
       <use xlink:href="#DejaVuSans-69" x="689.888672"/>
       <use xlink:href="#DejaVuSans-6f" x="717.671875"/>
       <use xlink:href="#DejaVuSans-6e" x="778.853516"/>
       <use xlink:href="#DejaVuSans-2d" x="842.232422"/>
       <use xlink:href="#DejaVuSans-62" x="878.316406"/>
       <use xlink:href="#DejaVuSans-61" x="941.792969"/>
       <use xlink:href="#DejaVuSans-73" x="1003.072266"/>
       <use xlink:href="#DejaVuSans-65" x="1055.171875"/>
       <use xlink:href="#DejaVuSans-64" x="1116.695312"/>
      </g>
     </g>
    </g>
    <g id="xtick_5">
     <g id="text_5">
      <!-- other -->
      <g style="fill: #262626" transform="translate(365.556835 595.419156) rotate(-90) scale(0.121 -0.121)">
       <use xlink:href="#DejaVuSans-6f"/>
       <use xlink:href="#DejaVuSans-74" x="61.181641"/>
       <use xlink:href="#DejaVuSans-68" x="100.390625"/>
       <use xlink:href="#DejaVuSans-65" x="163.769531"/>
       <use xlink:href="#DejaVuSans-72" x="225.292969"/>
      </g>
     </g>
    </g>
    <g id="xtick_6">
     <g id="text_6">
      <!-- permutation -->
      <g style="fill: #262626" transform="translate(415.765493 637.863687) rotate(-90) scale(0.121 -0.121)">
       <use xlink:href="#DejaVuSans-70"/>
       <use xlink:href="#DejaVuSans-65" x="63.476562"/>
       <use xlink:href="#DejaVuSans-72" x="125"/>
       <use xlink:href="#DejaVuSans-6d" x="164.363281"/>
       <use xlink:href="#DejaVuSans-75" x="261.775391"/>
       <use xlink:href="#DejaVuSans-74" x="325.154297"/>
       <use xlink:href="#DejaVuSans-61" x="364.363281"/>
       <use xlink:href="#DejaVuSans-74" x="425.642578"/>
       <use xlink:href="#DejaVuSans-69" x="464.851562"/>
       <use xlink:href="#DejaVuSans-6f" x="492.634766"/>
       <use xlink:href="#DejaVuSans-6e" x="553.816406"/>
      </g>
     </g>
    </g>
    <g id="xtick_7">
     <g id="text_7">
      <!-- nan -->
      <g style="fill: #262626" transform="translate(465.974151 585.935781) rotate(-90) scale(0.121 -0.121)">
       <use xlink:href="#DejaVuSans-6e"/>
       <use xlink:href="#DejaVuSans-61" x="63.378906"/>
       <use xlink:href="#DejaVuSans-6e" x="124.658203"/>
      </g>
     </g>
    </g>
   </g>
   <g id="matplotlib.axis_2">
    <g id="ytick_1">
     <g id="text_8">
      <!-- Clinical -->
      <g style="fill: #262626" transform="translate(65.574156 246.428529) scale(0.121 -0.121)">
       <defs>
        <path id="DejaVuSans-43" d="M 4122 4306 
L 4122 3641 
Q 3803 3938 3442 4084 
Q 3081 4231 2675 4231 
Q 1875 4231 1450 3742 
Q 1025 3253 1025 2328 
Q 1025 1406 1450 917 
Q 1875 428 2675 428 
Q 3081 428 3442 575 
Q 3803 722 4122 1019 
L 4122 359 
Q 3791 134 3420 21 
Q 3050 -91 2638 -91 
Q 1578 -91 968 557 
Q 359 1206 359 2328 
Q 359 3453 968 4101 
Q 1578 4750 2638 4750 
Q 3056 4750 3426 4639 
Q 3797 4528 4122 4306 
z
" transform="scale(0.015625)"/>
        <path id="DejaVuSans-6c" d="M 603 4863 
L 1178 4863 
L 1178 0 
L 603 0 
L 603 4863 
z
" transform="scale(0.015625)"/>
       </defs>
       <use xlink:href="#DejaVuSans-43"/>
       <use xlink:href="#DejaVuSans-6c" x="69.824219"/>
       <use xlink:href="#DejaVuSans-69" x="97.607422"/>
       <use xlink:href="#DejaVuSans-6e" x="125.390625"/>
       <use xlink:href="#DejaVuSans-69" x="188.769531"/>
       <use xlink:href="#DejaVuSans-63" x="216.552734"/>
       <use xlink:href="#DejaVuSans-61" x="271.533203"/>
       <use xlink:href="#DejaVuSans-6c" x="332.8125"/>
      </g>
     </g>
    </g>
    <g id="ytick_2">
     <g id="text_9">
      <!-- Epigenetics -->
      <g style="fill: #262626" transform="translate(39.215063 300.196206) scale(0.121 -0.121)">
       <defs>
        <path id="DejaVuSans-45" d="M 628 4666 
L 3578 4666 
L 3578 4134 
L 1259 4134 
L 1259 2753 
L 3481 2753 
L 3481 2222 
L 1259 2222 
L 1259 531 
L 3634 531 
L 3634 0 
L 628 0 
L 628 4666 
z
" transform="scale(0.015625)"/>
       </defs>
       <use xlink:href="#DejaVuSans-45"/>
       <use xlink:href="#DejaVuSans-70" x="63.183594"/>
       <use xlink:href="#DejaVuSans-69" x="126.660156"/>
       <use xlink:href="#DejaVuSans-67" x="154.443359"/>
       <use xlink:href="#DejaVuSans-65" x="217.919922"/>
       <use xlink:href="#DejaVuSans-6e" x="279.443359"/>
       <use xlink:href="#DejaVuSans-65" x="342.822266"/>
       <use xlink:href="#DejaVuSans-74" x="404.345703"/>
       <use xlink:href="#DejaVuSans-69" x="443.554688"/>
       <use xlink:href="#DejaVuSans-63" x="471.337891"/>
       <use xlink:href="#DejaVuSans-73" x="526.318359"/>
      </g>
     </g>
    </g>
    <g id="ytick_3">
     <g id="text_10">
      <!-- Genomics -->
      <g style="fill: #262626" transform="translate(49.208906 353.963883) scale(0.121 -0.121)">
       <defs>
        <path id="DejaVuSans-47" d="M 3809 666 
L 3809 1919 
L 2778 1919 
L 2778 2438 
L 4434 2438 
L 4434 434 
Q 4069 175 3628 42 
Q 3188 -91 2688 -91 
Q 1594 -91 976 548 
Q 359 1188 359 2328 
Q 359 3472 976 4111 
Q 1594 4750 2688 4750 
Q 3144 4750 3555 4637 
Q 3966 4525 4313 4306 
L 4313 3634 
Q 3963 3931 3569 4081 
Q 3175 4231 2741 4231 
Q 1884 4231 1454 3753 
Q 1025 3275 1025 2328 
Q 1025 1384 1454 906 
Q 1884 428 2741 428 
Q 3075 428 3337 486 
Q 3600 544 3809 666 
z
" transform="scale(0.015625)"/>
       </defs>
       <use xlink:href="#DejaVuSans-47"/>
       <use xlink:href="#DejaVuSans-65" x="77.490234"/>
       <use xlink:href="#DejaVuSans-6e" x="139.013672"/>
       <use xlink:href="#DejaVuSans-6f" x="202.392578"/>
       <use xlink:href="#DejaVuSans-6d" x="263.574219"/>
       <use xlink:href="#DejaVuSans-69" x="360.986328"/>
       <use xlink:href="#DejaVuSans-63" x="388.769531"/>
       <use xlink:href="#DejaVuSans-73" x="443.75"/>
      </g>
     </g>
    </g>
    <g id="ytick_4">
     <g id="text_11">
      <!-- Proteomics -->
      <g style="fill: #262626" transform="translate(42.319469 407.73156) scale(0.121 -0.121)">
       <defs>
        <path id="DejaVuSans-50" d="M 1259 4147 
L 1259 2394 
L 2053 2394 
Q 2494 2394 2734 2622 
Q 2975 2850 2975 3272 
Q 2975 3691 2734 3919 
Q 2494 4147 2053 4147 
L 1259 4147 
z
M 628 4666 
L 2053 4666 
Q 2838 4666 3239 4311 
Q 3641 3956 3641 3272 
Q 3641 2581 3239 2228 
Q 2838 1875 2053 1875 
L 1259 1875 
L 1259 0 
L 628 0 
L 628 4666 
z
" transform="scale(0.015625)"/>
       </defs>
       <use xlink:href="#DejaVuSans-50"/>
       <use xlink:href="#DejaVuSans-72" x="58.552734"/>
       <use xlink:href="#DejaVuSans-6f" x="97.416016"/>
       <use xlink:href="#DejaVuSans-74" x="158.597656"/>
       <use xlink:href="#DejaVuSans-65" x="197.806641"/>
       <use xlink:href="#DejaVuSans-6f" x="259.330078"/>
       <use xlink:href="#DejaVuSans-6d" x="320.511719"/>
       <use xlink:href="#DejaVuSans-69" x="417.923828"/>
       <use xlink:href="#DejaVuSans-63" x="445.707031"/>
       <use xlink:href="#DejaVuSans-73" x="500.6875"/>
      </g>
     </g>
    </g>
    <g id="ytick_5">
     <g id="text_12">
      <!-- Transcriptomics -->
      <g style="fill: #262626" transform="translate(14.317422 461.499237) scale(0.121 -0.121)">
       <defs>
        <path id="DejaVuSans-54" d="M -19 4666 
L 3928 4666 
L 3928 4134 
L 2272 4134 
L 2272 0 
L 1638 0 
L 1638 4134 
L -19 4134 
L -19 4666 
z
" transform="scale(0.015625)"/>
       </defs>
       <use xlink:href="#DejaVuSans-54"/>
       <use xlink:href="#DejaVuSans-72" x="46.333984"/>
       <use xlink:href="#DejaVuSans-61" x="87.447266"/>
       <use xlink:href="#DejaVuSans-6e" x="148.726562"/>
       <use xlink:href="#DejaVuSans-73" x="212.105469"/>
       <use xlink:href="#DejaVuSans-63" x="264.205078"/>
       <use xlink:href="#DejaVuSans-72" x="319.185547"/>
       <use xlink:href="#DejaVuSans-69" x="360.298828"/>
       <use xlink:href="#DejaVuSans-70" x="388.082031"/>
       <use xlink:href="#DejaVuSans-74" x="451.558594"/>
       <use xlink:href="#DejaVuSans-6f" x="490.767578"/>
       <use xlink:href="#DejaVuSans-6d" x="551.949219"/>
       <use xlink:href="#DejaVuSans-69" x="649.361328"/>
       <use xlink:href="#DejaVuSans-63" x="677.144531"/>
       <use xlink:href="#DejaVuSans-73" x="732.125"/>
      </g>
     </g>
    </g>
    <g id="ytick_6">
     <g id="text_13">
      <!-- other -->
      <g style="fill: #262626" transform="translate(76.970844 515.266913) scale(0.121 -0.121)">
       <use xlink:href="#DejaVuSans-6f"/>
       <use xlink:href="#DejaVuSans-74" x="61.181641"/>
       <use xlink:href="#DejaVuSans-68" x="100.390625"/>
       <use xlink:href="#DejaVuSans-65" x="163.769531"/>
       <use xlink:href="#DejaVuSans-72" x="225.292969"/>
      </g>
     </g>
    </g>
   </g>
   <g id="QuadMesh_1">
    <path d="M 136.27903 214.947636 
L 186.487688 214.947636 
L 186.487688 268.715313 
L 136.27903 268.715313 
L 136.27903 214.947636 
" clip-path="url(#p40bc254f4b)" style="fill: #c1c1c1"/>
    <path d="M 186.487688 214.947636 
L 236.696346 214.947636 
L 236.696346 268.715313 
L 186.487688 268.715313 
L 186.487688 214.947636 
" clip-path="url(#p40bc254f4b)" style="fill: #bbbbbb"/>
    <path d="M 236.696346 214.947636 
L 286.905004 214.947636 
L 286.905004 268.715313 
L 236.696346 268.715313 
L 236.696346 214.947636 
" clip-path="url(#p40bc254f4b)" style="fill: #c1c1c1"/>
    <path d="M 286.905004 214.947636 
L 337.113662 214.947636 
L 337.113662 268.715313 
L 286.905004 268.715313 
L 286.905004 214.947636 
" clip-path="url(#p40bc254f4b)" style="fill: none"/>
    <path d="M 337.113662 214.947636 
L 387.32232 214.947636 
L 387.32232 268.715313 
L 337.113662 268.715313 
L 337.113662 214.947636 
" clip-path="url(#p40bc254f4b)" style="fill: none"/>
    <path d="M 387.32232 214.947636 
L 437.530978 214.947636 
L 437.530978 268.715313 
L 387.32232 268.715313 
L 387.32232 214.947636 
" clip-path="url(#p40bc254f4b)" style="fill: none"/>
    <path d="M 437.530978 214.947636 
L 487.739636 214.947636 
L 487.739636 268.715313 
L 437.530978 268.715313 
L 437.530978 214.947636 
" clip-path="url(#p40bc254f4b)" style="fill: none"/>
    <path d="M 136.27903 268.715313 
L 186.487688 268.715313 
L 186.487688 322.48299 
L 136.27903 322.48299 
L 136.27903 268.715313 
" clip-path="url(#p40bc254f4b)" style="fill: #c1c1c1"/>
    <path d="M 186.487688 268.715313 
L 236.696346 268.715313 
L 236.696346 322.48299 
L 186.487688 322.48299 
L 186.487688 268.715313 
" clip-path="url(#p40bc254f4b)" style="fill: #a5a5a5"/>
    <path d="M 236.696346 268.715313 
L 286.905004 268.715313 
L 286.905004 322.48299 
L 236.696346 322.48299 
L 236.696346 268.715313 
" clip-path="url(#p40bc254f4b)" style="fill: #b6b6b6"/>
    <path d="M 286.905004 268.715313 
L 337.113662 268.715313 
L 337.113662 322.48299 
L 286.905004 322.48299 
L 286.905004 268.715313 
" clip-path="url(#p40bc254f4b)" style="fill: #b0b0b0"/>
    <path d="M 337.113662 268.715313 
L 387.32232 268.715313 
L 387.32232 322.48299 
L 337.113662 322.48299 
L 337.113662 268.715313 
" clip-path="url(#p40bc254f4b)" style="fill: #b6b6b6"/>
    <path d="M 387.32232 268.715313 
L 437.530978 268.715313 
L 437.530978 322.48299 
L 387.32232 322.48299 
L 387.32232 268.715313 
" clip-path="url(#p40bc254f4b)" style="fill: #c1c1c1"/>
    <path d="M 437.530978 268.715313 
L 487.739636 268.715313 
L 487.739636 322.48299 
L 437.530978 322.48299 
L 437.530978 268.715313 
" clip-path="url(#p40bc254f4b)" style="fill: none"/>
    <path d="M 136.27903 322.48299 
L 186.487688 322.48299 
L 186.487688 376.250667 
L 136.27903 376.250667 
L 136.27903 322.48299 
" clip-path="url(#p40bc254f4b)" style="fill: #aaaaaa"/>
    <path d="M 186.487688 322.48299 
L 236.696346 322.48299 
L 236.696346 376.250667 
L 186.487688 376.250667 
L 186.487688 322.48299 
" clip-path="url(#p40bc254f4b)" style="fill: #aaaaaa"/>
    <path d="M 236.696346 322.48299 
L 286.905004 322.48299 
L 286.905004 376.250667 
L 236.696346 376.250667 
L 236.696346 322.48299 
" clip-path="url(#p40bc254f4b)" style="fill: #b6b6b6"/>
    <path d="M 286.905004 322.48299 
L 337.113662 322.48299 
L 337.113662 376.250667 
L 286.905004 376.250667 
L 286.905004 322.48299 
" clip-path="url(#p40bc254f4b)" style="fill: #858585"/>
    <path d="M 337.113662 322.48299 
L 387.32232 322.48299 
L 387.32232 376.250667 
L 337.113662 376.250667 
L 337.113662 322.48299 
" clip-path="url(#p40bc254f4b)" style="fill: #b0b0b0"/>
    <path d="M 387.32232 322.48299 
L 437.530978 322.48299 
L 437.530978 376.250667 
L 387.32232 376.250667 
L 387.32232 322.48299 
" clip-path="url(#p40bc254f4b)" style="fill: #c1c1c1"/>
    <path d="M 437.530978 322.48299 
L 487.739636 322.48299 
L 487.739636 376.250667 
L 437.530978 376.250667 
L 437.530978 322.48299 
" clip-path="url(#p40bc254f4b)" style="fill: #c1c1c1"/>
    <path d="M 136.27903 376.250667 
L 186.487688 376.250667 
L 186.487688 430.018343 
L 136.27903 430.018343 
L 136.27903 376.250667 
" clip-path="url(#p40bc254f4b)" style="fill: #c1c1c1"/>
    <path d="M 186.487688 376.250667 
L 236.696346 376.250667 
L 236.696346 430.018343 
L 186.487688 430.018343 
L 186.487688 376.250667 
" clip-path="url(#p40bc254f4b)" style="fill: none"/>
    <path d="M 236.696346 376.250667 
L 286.905004 376.250667 
L 286.905004 430.018343 
L 236.696346 430.018343 
L 236.696346 376.250667 
" clip-path="url(#p40bc254f4b)" style="fill: none"/>
    <path d="M 286.905004 376.250667 
L 337.113662 376.250667 
L 337.113662 430.018343 
L 286.905004 430.018343 
L 286.905004 376.250667 
" clip-path="url(#p40bc254f4b)" style="fill: none"/>
    <path d="M 337.113662 376.250667 
L 387.32232 376.250667 
L 387.32232 430.018343 
L 337.113662 430.018343 
L 337.113662 376.250667 
" clip-path="url(#p40bc254f4b)" style="fill: #c1c1c1"/>
    <path d="M 387.32232 376.250667 
L 437.530978 376.250667 
L 437.530978 430.018343 
L 387.32232 430.018343 
L 387.32232 376.250667 
" clip-path="url(#p40bc254f4b)" style="fill: #c1c1c1"/>
    <path d="M 437.530978 376.250667 
L 487.739636 376.250667 
L 487.739636 430.018343 
L 437.530978 430.018343 
L 437.530978 376.250667 
" clip-path="url(#p40bc254f4b)" style="fill: none"/>
    <path d="M 136.27903 430.018343 
L 186.487688 430.018343 
L 186.487688 483.78602 
L 136.27903 483.78602 
L 136.27903 430.018343 
" clip-path="url(#p40bc254f4b)" style="fill: #aaaaaa"/>
    <path d="M 186.487688 430.018343 
L 236.696346 430.018343 
L 236.696346 483.78602 
L 186.487688 483.78602 
L 186.487688 430.018343 
" clip-path="url(#p40bc254f4b)" style="fill: #8a8a8a"/>
    <path d="M 236.696346 430.018343 
L 286.905004 430.018343 
L 286.905004 483.78602 
L 236.696346 483.78602 
L 236.696346 430.018343 
" clip-path="url(#p40bc254f4b)" style="fill: #bbbbbb"/>
    <path d="M 286.905004 430.018343 
L 337.113662 430.018343 
L 337.113662 483.78602 
L 286.905004 483.78602 
L 286.905004 430.018343 
" clip-path="url(#p40bc254f4b)" style="fill: #525252"/>
    <path d="M 337.113662 430.018343 
L 387.32232 430.018343 
L 387.32232 483.78602 
L 337.113662 483.78602 
L 337.113662 430.018343 
" clip-path="url(#p40bc254f4b)" style="fill: #aaaaaa"/>
    <path d="M 387.32232 430.018343 
L 437.530978 430.018343 
L 437.530978 483.78602 
L 387.32232 483.78602 
L 387.32232 430.018343 
" clip-path="url(#p40bc254f4b)" style="fill: #bbbbbb"/>
    <path d="M 437.530978 430.018343 
L 487.739636 430.018343 
L 487.739636 483.78602 
L 437.530978 483.78602 
L 437.530978 430.018343 
" clip-path="url(#p40bc254f4b)" style="fill: none"/>
    <path d="M 136.27903 483.78602 
L 186.487688 483.78602 
L 186.487688 537.553697 
L 136.27903 537.553697 
L 136.27903 483.78602 
" clip-path="url(#p40bc254f4b)" style="fill: none"/>
    <path d="M 186.487688 483.78602 
L 236.696346 483.78602 
L 236.696346 537.553697 
L 186.487688 537.553697 
L 186.487688 483.78602 
" clip-path="url(#p40bc254f4b)" style="fill: #c1c1c1"/>
    <path d="M 236.696346 483.78602 
L 286.905004 483.78602 
L 286.905004 537.553697 
L 236.696346 537.553697 
L 236.696346 483.78602 
" clip-path="url(#p40bc254f4b)" style="fill: none"/>
    <path d="M 286.905004 483.78602 
L 337.113662 483.78602 
L 337.113662 537.553697 
L 286.905004 537.553697 
L 286.905004 483.78602 
" clip-path="url(#p40bc254f4b)" style="fill: #a5a5a5"/>
    <path d="M 337.113662 483.78602 
L 387.32232 483.78602 
L 387.32232 537.553697 
L 337.113662 537.553697 
L 337.113662 483.78602 
" clip-path="url(#p40bc254f4b)" style="fill: none"/>
    <path d="M 387.32232 483.78602 
L 437.530978 483.78602 
L 437.530978 537.553697 
L 387.32232 537.553697 
L 387.32232 483.78602 
" clip-path="url(#p40bc254f4b)" style="fill: none"/>
    <path d="M 437.530978 483.78602 
L 487.739636 483.78602 
L 487.739636 537.553697 
L 437.530978 537.553697 
L 437.530978 483.78602 
" clip-path="url(#p40bc254f4b)" style="fill: none"/>
   </g>
   <g id="patch_3">
    <path d="M 118.706 553.684 
L 118.706 198.817333 
" style="fill: none; stroke: #262626; stroke-width: 1.25; stroke-linejoin: miter; stroke-linecap: square"/>
   </g>
   <g id="patch_4">
    <path d="M 118.706 553.684 
L 505.312667 553.684 
" style="fill: none; stroke: #262626; stroke-width: 1.25; stroke-linejoin: miter; stroke-linecap: square"/>
   </g>
  </g>
  <g id="axes_2">
   <g id="patch_5">
    <path d="M 118.706 184.561333 
L 505.312667 184.561333 
L 505.312667 14.256 
L 118.706 14.256 
z
" style="fill: #ffffff"/>
   </g>
   <g id="matplotlib.axis_3">
    <g id="xtick_8"/>
    <g id="xtick_9"/>
    <g id="xtick_10"/>
    <g id="xtick_11"/>
    <g id="xtick_12"/>
    <g id="xtick_13"/>
    <g id="xtick_14"/>
   </g>
   <g id="matplotlib.axis_4">
    <g id="ytick_7"/>
    <g id="ytick_8"/>
    <g id="ytick_9"/>
    <g id="ytick_10"/>
    <g id="ytick_11"/>
   </g>
   <g id="patch_6">
    <path d="M 136.27903 184.561333 
L 186.487688 184.561333 
L 186.487688 136.639919 
L 136.27903 136.639919 
z
" clip-path="url(#p0c2f4ae5b4)" style="fill: #808080; fill-opacity: 0.75; stroke: #ffffff; stroke-linejoin: miter"/>
   </g>
   <g id="patch_7">
    <path d="M 186.487688 184.561333 
L 236.696346 184.561333 
L 236.696346 92.404768 
L 186.487688 92.404768 
z
" clip-path="url(#p0c2f4ae5b4)" style="fill: #808080; fill-opacity: 0.75; stroke: #ffffff; stroke-linejoin: miter"/>
   </g>
   <g id="patch_8">
    <path d="M 236.696346 184.561333 
L 286.905004 184.561333 
L 286.905004 151.38497 
L 236.696346 151.38497 
z
" clip-path="url(#p0c2f4ae5b4)" style="fill: #808080; fill-opacity: 0.75; stroke: #ffffff; stroke-linejoin: miter"/>
   </g>
   <g id="patch_9">
    <path d="M 286.905004 184.561333 
L 337.113662 184.561333 
L 337.113662 22.365778 
L 286.905004 22.365778 
z
" clip-path="url(#p0c2f4ae5b4)" style="fill: #808080; fill-opacity: 0.75; stroke: #ffffff; stroke-linejoin: miter"/>
   </g>
   <g id="patch_10">
    <path d="M 337.113662 184.561333 
L 387.32232 184.561333 
L 387.32232 136.639919 
L 337.113662 136.639919 
z
" clip-path="url(#p0c2f4ae5b4)" style="fill: #808080; fill-opacity: 0.75; stroke: #ffffff; stroke-linejoin: miter"/>
   </g>
   <g id="patch_11">
    <path d="M 387.32232 184.561333 
L 437.530978 184.561333 
L 437.530978 166.13002 
L 387.32232 166.13002 
z
" clip-path="url(#p0c2f4ae5b4)" style="fill: #808080; fill-opacity: 0.75; stroke: #ffffff; stroke-linejoin: miter"/>
   </g>
   <g id="patch_12">
    <path d="M 437.530978 184.561333 
L 487.739636 184.561333 
L 487.739636 180.875071 
L 437.530978 180.875071 
z
" clip-path="url(#p0c2f4ae5b4)" style="fill: #808080; fill-opacity: 0.75; stroke: #ffffff; stroke-linejoin: miter"/>
   </g>
   <g id="patch_13">
    <path d="M 118.706 184.561333 
L 505.312667 184.561333 
" style="fill: none; stroke: #262626; stroke-width: 1.25; stroke-linejoin: miter; stroke-linecap: square"/>
   </g>
  </g>
  <g id="axes_3">
   <g id="patch_14">
    <path d="M 519.568667 553.684 
L 705.744 553.684 
L 705.744 198.817333 
L 519.568667 198.817333 
z
" style="fill: #ffffff"/>
   </g>
   <g id="matplotlib.axis_5">
    <g id="xtick_15"/>
    <g id="xtick_16"/>
    <g id="xtick_17"/>
    <g id="xtick_18"/>
    <g id="xtick_19"/>
   </g>
   <g id="matplotlib.axis_6">
    <g id="ytick_12"/>
    <g id="ytick_13"/>
    <g id="ytick_14"/>
    <g id="ytick_15"/>
    <g id="ytick_16"/>
    <g id="ytick_17"/>
   </g>
   <g id="patch_15">
    <path d="M 519.568667 214.947636 
L 534.658866 214.947636 
L 534.658866 268.715313 
L 519.568667 268.715313 
z
" clip-path="url(#p8c40ebba6e)" style="fill: #808080; fill-opacity: 0.75; stroke: #ffffff; stroke-linejoin: miter"/>
   </g>
   <g id="patch_16">
    <path d="M 519.568667 268.715313 
L 587.474563 268.715313 
L 587.474563 322.48299 
L 519.568667 322.48299 
z
" clip-path="url(#p8c40ebba6e)" style="fill: #808080; fill-opacity: 0.75; stroke: #ffffff; stroke-linejoin: miter"/>
   </g>
   <g id="patch_17">
    <path d="M 519.568667 322.48299 
L 636.517711 322.48299 
L 636.517711 376.250667 
L 519.568667 376.250667 
z
" clip-path="url(#p8c40ebba6e)" style="fill: #808080; fill-opacity: 0.75; stroke: #ffffff; stroke-linejoin: miter"/>
   </g>
   <g id="patch_18">
    <path d="M 519.568667 376.250667 
L 530.886316 376.250667 
L 530.886316 430.018343 
L 519.568667 430.018343 
z
" clip-path="url(#p8c40ebba6e)" style="fill: #808080; fill-opacity: 0.75; stroke: #ffffff; stroke-linejoin: miter"/>
   </g>
   <g id="patch_19">
    <path d="M 519.568667 430.018343 
L 696.878508 430.018343 
L 696.878508 483.78602 
L 519.568667 483.78602 
z
" clip-path="url(#p8c40ebba6e)" style="fill: #808080; fill-opacity: 0.75; stroke: #ffffff; stroke-linejoin: miter"/>
   </g>
   <g id="patch_20">
    <path d="M 519.568667 483.78602 
L 545.976515 483.78602 
L 545.976515 537.553697 
L 519.568667 537.553697 
z
" clip-path="url(#p8c40ebba6e)" style="fill: #808080; fill-opacity: 0.75; stroke: #ffffff; stroke-linejoin: miter"/>
   </g>
   <g id="patch_21">
    <path d="M 519.568667 553.684 
L 519.568667 198.817333 
" style="fill: none; stroke: #262626; stroke-width: 1.25; stroke-linejoin: miter; stroke-linecap: square"/>
   </g>
  </g>
 </g>
 <defs>
  <clipPath id="p40bc254f4b">
   <rect x="118.706" y="198.817333" width="386.606667" height="354.866667"/>
  </clipPath>
  <clipPath id="p0c2f4ae5b4">
   <rect x="118.706" y="14.256" width="386.606667" height="170.305333"/>
  </clipPath>
  <clipPath id="p8c40ebba6e">
   <rect x="519.568667" y="198.817333" width="186.175333" height="354.866667"/>
  </clipPath>
 </defs>
</svg>
