<?xml version="1.0" encoding="utf-8" standalone="no"?>
<!DOCTYPE svg PUBLIC "-//W3C//DTD SVG 1.1//EN"
  "http://www.w3.org/Graphics/SVG/1.1/DTD/svg11.dtd">
<svg xmlns:xlink="http://www.w3.org/1999/xlink" width="864pt" height="576pt" viewBox="0 0 864 576" xmlns="http://www.w3.org/2000/svg" version="1.1">
 <metadata>
  <rdf:RDF xmlns:dc="http://purl.org/dc/elements/1.1/" xmlns:cc="http://creativecommons.org/ns#" xmlns:rdf="http://www.w3.org/1999/02/22-rdf-syntax-ns#">
   <cc:Work>
    <dc:type rdf:resource="http://purl.org/dc/dcmitype/StillImage"/>
    <dc:date>2024-02-16T17:19:20.888113</dc:date>
    <dc:format>image/svg+xml</dc:format>
    <dc:creator>
     <cc:Agent>
      <dc:title>Matplotlib v3.8.0, https://matplotlib.org/</dc:title>
     </cc:Agent>
    </dc:creator>
   </cc:Work>
  </rdf:RDF>
 </metadata>
 <defs>
  <style type="text/css">*{stroke-linejoin: round; stroke-linecap: butt}</style>
 </defs>
 <g id="figure_1">
  <g id="patch_1">
   <path d="M 0 576 
L 864 576 
L 864 0 
L 0 0 
z
" style="fill: #ffffff"/>
  </g>
  <g id="axes_1">
   <g id="patch_2">
    <path d="M 71.28 484.286974 
L 844.56 484.286974 
L 844.56 19.44 
L 71.28 19.44 
z
" style="fill: #ffffff"/>
   </g>
   <g id="matplotlib.axis_1">
    <g id="xtick_1">
     <g id="line2d_1">
      <path d="M 106.429091 484.286974 
L 106.429091 19.44 
" clip-path="url(#p4d29ab5d72)" style="fill: none; stroke: #cccccc; stroke-linecap: round"/>
     </g>
     <g id="text_1">
      <!-- 1999 -->
      <g style="fill: #262626" transform="translate(94.801935 532.345452) rotate(-45) scale(0.165 -0.165)">
       <defs>
        <path id="DejaVuSans-31" d="M 794 531 
L 1825 531 
L 1825 4091 
L 703 3866 
L 703 4441 
L 1819 4666 
L 2450 4666 
L 2450 531 
L 3481 531 
L 3481 0 
L 794 0 
L 794 531 
z
" transform="scale(0.015625)"/>
        <path id="DejaVuSans-39" d="M 703 97 
L 703 672 
Q 941 559 1184 500 
Q 1428 441 1663 441 
Q 2288 441 2617 861 
Q 2947 1281 2994 2138 
Q 2813 1869 2534 1725 
Q 2256 1581 1919 1581 
Q 1219 1581 811 2004 
Q 403 2428 403 3163 
Q 403 3881 828 4315 
Q 1253 4750 1959 4750 
Q 2769 4750 3195 4129 
Q 3622 3509 3622 2328 
Q 3622 1225 3098 567 
Q 2575 -91 1691 -91 
Q 1453 -91 1209 -44 
Q 966 3 703 97 
z
M 1959 2075 
Q 2384 2075 2632 2365 
Q 2881 2656 2881 3163 
Q 2881 3666 2632 3958 
Q 2384 4250 1959 4250 
Q 1534 4250 1286 3958 
Q 1038 3666 1038 3163 
Q 1038 2656 1286 2365 
Q 1534 2075 1959 2075 
z
" transform="scale(0.015625)"/>
       </defs>
       <use xlink:href="#DejaVuSans-31"/>
       <use xlink:href="#DejaVuSans-39" x="63.623047"/>
       <use xlink:href="#DejaVuSans-39" x="127.246094"/>
       <use xlink:href="#DejaVuSans-39" x="190.869141"/>
      </g>
     </g>
    </g>
    <g id="xtick_2">
     <g id="line2d_2">
      <path d="M 194.301818 484.286974 
L 194.301818 19.44 
" clip-path="url(#p4d29ab5d72)" style="fill: none; stroke: #cccccc; stroke-linecap: round"/>
     </g>
     <g id="text_2">
      <!-- 2002 -->
      <g style="fill: #262626" transform="translate(182.674663 532.345452) rotate(-45) scale(0.165 -0.165)">
       <defs>
        <path id="DejaVuSans-32" d="M 1228 531 
L 3431 531 
L 3431 0 
L 469 0 
L 469 531 
Q 828 903 1448 1529 
Q 2069 2156 2228 2338 
Q 2531 2678 2651 2914 
Q 2772 3150 2772 3378 
Q 2772 3750 2511 3984 
Q 2250 4219 1831 4219 
Q 1534 4219 1204 4116 
Q 875 4013 500 3803 
L 500 4441 
Q 881 4594 1212 4672 
Q 1544 4750 1819 4750 
Q 2544 4750 2975 4387 
Q 3406 4025 3406 3419 
Q 3406 3131 3298 2873 
Q 3191 2616 2906 2266 
Q 2828 2175 2409 1742 
Q 1991 1309 1228 531 
z
" transform="scale(0.015625)"/>
        <path id="DejaVuSans-30" d="M 2034 4250 
Q 1547 4250 1301 3770 
Q 1056 3291 1056 2328 
Q 1056 1369 1301 889 
Q 1547 409 2034 409 
Q 2525 409 2770 889 
Q 3016 1369 3016 2328 
Q 3016 3291 2770 3770 
Q 2525 4250 2034 4250 
z
M 2034 4750 
Q 2819 4750 3233 4129 
Q 3647 3509 3647 2328 
Q 3647 1150 3233 529 
Q 2819 -91 2034 -91 
Q 1250 -91 836 529 
Q 422 1150 422 2328 
Q 422 3509 836 4129 
Q 1250 4750 2034 4750 
z
" transform="scale(0.015625)"/>
       </defs>
       <use xlink:href="#DejaVuSans-32"/>
       <use xlink:href="#DejaVuSans-30" x="63.623047"/>
       <use xlink:href="#DejaVuSans-30" x="127.246094"/>
       <use xlink:href="#DejaVuSans-32" x="190.869141"/>
      </g>
     </g>
    </g>
    <g id="xtick_3">
     <g id="line2d_3">
      <path d="M 311.465455 484.286974 
L 311.465455 19.44 
" clip-path="url(#p4d29ab5d72)" style="fill: none; stroke: #cccccc; stroke-linecap: round"/>
     </g>
     <g id="text_3">
      <!-- 2006 -->
      <g style="fill: #262626" transform="translate(299.838299 532.345452) rotate(-45) scale(0.165 -0.165)">
       <defs>
        <path id="DejaVuSans-36" d="M 2113 2584 
Q 1688 2584 1439 2293 
Q 1191 2003 1191 1497 
Q 1191 994 1439 701 
Q 1688 409 2113 409 
Q 2538 409 2786 701 
Q 3034 994 3034 1497 
Q 3034 2003 2786 2293 
Q 2538 2584 2113 2584 
z
M 3366 4563 
L 3366 3988 
Q 3128 4100 2886 4159 
Q 2644 4219 2406 4219 
Q 1781 4219 1451 3797 
Q 1122 3375 1075 2522 
Q 1259 2794 1537 2939 
Q 1816 3084 2150 3084 
Q 2853 3084 3261 2657 
Q 3669 2231 3669 1497 
Q 3669 778 3244 343 
Q 2819 -91 2113 -91 
Q 1303 -91 875 529 
Q 447 1150 447 2328 
Q 447 3434 972 4092 
Q 1497 4750 2381 4750 
Q 2619 4750 2861 4703 
Q 3103 4656 3366 4563 
z
" transform="scale(0.015625)"/>
       </defs>
       <use xlink:href="#DejaVuSans-32"/>
       <use xlink:href="#DejaVuSans-30" x="63.623047"/>
       <use xlink:href="#DejaVuSans-30" x="127.246094"/>
       <use xlink:href="#DejaVuSans-36" x="190.869141"/>
      </g>
     </g>
    </g>
    <g id="xtick_4">
     <g id="line2d_4">
      <path d="M 340.756364 484.286974 
L 340.756364 19.44 
" clip-path="url(#p4d29ab5d72)" style="fill: none; stroke: #cccccc; stroke-linecap: round"/>
     </g>
     <g id="text_4">
      <!-- 2007 -->
      <g style="fill: #262626" transform="translate(329.129208 532.345452) rotate(-45) scale(0.165 -0.165)">
       <defs>
        <path id="DejaVuSans-37" d="M 525 4666 
L 3525 4666 
L 3525 4397 
L 1831 0 
L 1172 0 
L 2766 4134 
L 525 4134 
L 525 4666 
z
" transform="scale(0.015625)"/>
       </defs>
       <use xlink:href="#DejaVuSans-32"/>
       <use xlink:href="#DejaVuSans-30" x="63.623047"/>
       <use xlink:href="#DejaVuSans-30" x="127.246094"/>
       <use xlink:href="#DejaVuSans-37" x="190.869141"/>
      </g>
     </g>
    </g>
    <g id="xtick_5">
     <g id="line2d_5">
      <path d="M 370.047273 484.286974 
L 370.047273 19.44 
" clip-path="url(#p4d29ab5d72)" style="fill: none; stroke: #cccccc; stroke-linecap: round"/>
     </g>
     <g id="text_5">
      <!-- 2008 -->
      <g style="fill: #262626" transform="translate(358.420117 532.345452) rotate(-45) scale(0.165 -0.165)">
       <defs>
        <path id="DejaVuSans-38" d="M 2034 2216 
Q 1584 2216 1326 1975 
Q 1069 1734 1069 1313 
Q 1069 891 1326 650 
Q 1584 409 2034 409 
Q 2484 409 2743 651 
Q 3003 894 3003 1313 
Q 3003 1734 2745 1975 
Q 2488 2216 2034 2216 
z
M 1403 2484 
Q 997 2584 770 2862 
Q 544 3141 544 3541 
Q 544 4100 942 4425 
Q 1341 4750 2034 4750 
Q 2731 4750 3128 4425 
Q 3525 4100 3525 3541 
Q 3525 3141 3298 2862 
Q 3072 2584 2669 2484 
Q 3125 2378 3379 2068 
Q 3634 1759 3634 1313 
Q 3634 634 3220 271 
Q 2806 -91 2034 -91 
Q 1263 -91 848 271 
Q 434 634 434 1313 
Q 434 1759 690 2068 
Q 947 2378 1403 2484 
z
M 1172 3481 
Q 1172 3119 1398 2916 
Q 1625 2713 2034 2713 
Q 2441 2713 2670 2916 
Q 2900 3119 2900 3481 
Q 2900 3844 2670 4047 
Q 2441 4250 2034 4250 
Q 1625 4250 1398 4047 
Q 1172 3844 1172 3481 
z
" transform="scale(0.015625)"/>
       </defs>
       <use xlink:href="#DejaVuSans-32"/>
       <use xlink:href="#DejaVuSans-30" x="63.623047"/>
       <use xlink:href="#DejaVuSans-30" x="127.246094"/>
       <use xlink:href="#DejaVuSans-38" x="190.869141"/>
      </g>
     </g>
    </g>
    <g id="xtick_6">
     <g id="line2d_6">
      <path d="M 633.665455 484.286974 
L 633.665455 19.44 
" clip-path="url(#p4d29ab5d72)" style="fill: none; stroke: #cccccc; stroke-linecap: round"/>
     </g>
     <g id="text_6">
      <!-- 2017 -->
      <g style="fill: #262626" transform="translate(622.038299 532.345452) rotate(-45) scale(0.165 -0.165)">
       <use xlink:href="#DejaVuSans-32"/>
       <use xlink:href="#DejaVuSans-30" x="63.623047"/>
       <use xlink:href="#DejaVuSans-31" x="127.246094"/>
       <use xlink:href="#DejaVuSans-37" x="190.869141"/>
      </g>
     </g>
    </g>
    <g id="xtick_7">
     <g id="line2d_7">
      <path d="M 662.956364 484.286974 
L 662.956364 19.44 
" clip-path="url(#p4d29ab5d72)" style="fill: none; stroke: #cccccc; stroke-linecap: round"/>
     </g>
     <g id="text_7">
      <!-- 2018 -->
      <g style="fill: #262626" transform="translate(651.329208 532.345452) rotate(-45) scale(0.165 -0.165)">
       <use xlink:href="#DejaVuSans-32"/>
       <use xlink:href="#DejaVuSans-30" x="63.623047"/>
       <use xlink:href="#DejaVuSans-31" x="127.246094"/>
       <use xlink:href="#DejaVuSans-38" x="190.869141"/>
      </g>
     </g>
    </g>
    <g id="xtick_8">
     <g id="line2d_8">
      <path d="M 692.247273 484.286974 
L 692.247273 19.44 
" clip-path="url(#p4d29ab5d72)" style="fill: none; stroke: #cccccc; stroke-linecap: round"/>
     </g>
     <g id="text_8">
      <!-- 2019 -->
      <g style="fill: #262626" transform="translate(680.620117 532.345452) rotate(-45) scale(0.165 -0.165)">
       <use xlink:href="#DejaVuSans-32"/>
       <use xlink:href="#DejaVuSans-30" x="63.623047"/>
       <use xlink:href="#DejaVuSans-31" x="127.246094"/>
       <use xlink:href="#DejaVuSans-39" x="190.869141"/>
      </g>
     </g>
    </g>
    <g id="xtick_9">
     <g id="line2d_9">
      <path d="M 721.538182 484.286974 
L 721.538182 19.44 
" clip-path="url(#p4d29ab5d72)" style="fill: none; stroke: #cccccc; stroke-linecap: round"/>
     </g>
     <g id="text_9">
      <!-- 2020 -->
      <g style="fill: #262626" transform="translate(709.911026 532.345452) rotate(-45) scale(0.165 -0.165)">
       <use xlink:href="#DejaVuSans-32"/>
       <use xlink:href="#DejaVuSans-30" x="63.623047"/>
       <use xlink:href="#DejaVuSans-32" x="127.246094"/>
       <use xlink:href="#DejaVuSans-30" x="190.869141"/>
      </g>
     </g>
    </g>
    <g id="xtick_10">
     <g id="line2d_10">
      <path d="M 750.829091 484.286974 
L 750.829091 19.44 
" clip-path="url(#p4d29ab5d72)" style="fill: none; stroke: #cccccc; stroke-linecap: round"/>
     </g>
     <g id="text_10">
      <!-- 2021 -->
      <g style="fill: #262626" transform="translate(739.201935 532.345452) rotate(-45) scale(0.165 -0.165)">
       <use xlink:href="#DejaVuSans-32"/>
       <use xlink:href="#DejaVuSans-30" x="63.623047"/>
       <use xlink:href="#DejaVuSans-32" x="127.246094"/>
       <use xlink:href="#DejaVuSans-31" x="190.869141"/>
      </g>
     </g>
    </g>
    <g id="xtick_11">
     <g id="line2d_11">
      <path d="M 780.12 484.286974 
L 780.12 19.44 
" clip-path="url(#p4d29ab5d72)" style="fill: none; stroke: #cccccc; stroke-linecap: round"/>
     </g>
     <g id="text_11">
      <!-- 2022 -->
      <g style="fill: #262626" transform="translate(768.492844 532.345452) rotate(-45) scale(0.165 -0.165)">
       <use xlink:href="#DejaVuSans-32"/>
       <use xlink:href="#DejaVuSans-30" x="63.623047"/>
       <use xlink:href="#DejaVuSans-32" x="127.246094"/>
       <use xlink:href="#DejaVuSans-32" x="190.869141"/>
      </g>
     </g>
    </g>
    <g id="xtick_12">
     <g id="line2d_12">
      <path d="M 809.410909 484.286974 
L 809.410909 19.44 
" clip-path="url(#p4d29ab5d72)" style="fill: none; stroke: #cccccc; stroke-linecap: round"/>
     </g>
     <g id="text_12">
      <!-- 2023 -->
      <g style="fill: #262626" transform="translate(797.783753 532.345452) rotate(-45) scale(0.165 -0.165)">
       <defs>
        <path id="DejaVuSans-33" d="M 2597 2516 
Q 3050 2419 3304 2112 
Q 3559 1806 3559 1356 
Q 3559 666 3084 287 
Q 2609 -91 1734 -91 
Q 1441 -91 1130 -33 
Q 819 25 488 141 
L 488 750 
Q 750 597 1062 519 
Q 1375 441 1716 441 
Q 2309 441 2620 675 
Q 2931 909 2931 1356 
Q 2931 1769 2642 2001 
Q 2353 2234 1838 2234 
L 1294 2234 
L 1294 2753 
L 1863 2753 
Q 2328 2753 2575 2939 
Q 2822 3125 2822 3475 
Q 2822 3834 2567 4026 
Q 2313 4219 1838 4219 
Q 1578 4219 1281 4162 
Q 984 4106 628 3988 
L 628 4550 
Q 988 4650 1302 4700 
Q 1616 4750 1894 4750 
Q 2613 4750 3031 4423 
Q 3450 4097 3450 3541 
Q 3450 3153 3228 2886 
Q 3006 2619 2597 2516 
z
" transform="scale(0.015625)"/>
       </defs>
       <use xlink:href="#DejaVuSans-32"/>
       <use xlink:href="#DejaVuSans-30" x="63.623047"/>
       <use xlink:href="#DejaVuSans-32" x="127.246094"/>
       <use xlink:href="#DejaVuSans-33" x="190.869141"/>
      </g>
     </g>
    </g>
    <g id="text_13">
     <!-- Year -->
     <g style="fill: #262626" transform="translate(438.8625 552.449065) scale(0.18 -0.18)">
      <defs>
       <path id="DejaVuSans-59" d="M -13 4666 
L 666 4666 
L 1959 2747 
L 3244 4666 
L 3922 4666 
L 2272 2222 
L 2272 0 
L 1638 0 
L 1638 2222 
L -13 4666 
z
" transform="scale(0.015625)"/>
       <path id="DejaVuSans-65" d="M 3597 1894 
L 3597 1613 
L 953 1613 
Q 991 1019 1311 708 
Q 1631 397 2203 397 
Q 2534 397 2845 478 
Q 3156 559 3463 722 
L 3463 178 
Q 3153 47 2828 -22 
Q 2503 -91 2169 -91 
Q 1331 -91 842 396 
Q 353 884 353 1716 
Q 353 2575 817 3079 
Q 1281 3584 2069 3584 
Q 2775 3584 3186 3129 
Q 3597 2675 3597 1894 
z
M 3022 2063 
Q 3016 2534 2758 2815 
Q 2500 3097 2075 3097 
Q 1594 3097 1305 2825 
Q 1016 2553 972 2059 
L 3022 2063 
z
" transform="scale(0.015625)"/>
       <path id="DejaVuSans-61" d="M 2194 1759 
Q 1497 1759 1228 1600 
Q 959 1441 959 1056 
Q 959 750 1161 570 
Q 1363 391 1709 391 
Q 2188 391 2477 730 
Q 2766 1069 2766 1631 
L 2766 1759 
L 2194 1759 
z
M 3341 1997 
L 3341 0 
L 2766 0 
L 2766 531 
Q 2569 213 2275 61 
Q 1981 -91 1556 -91 
Q 1019 -91 701 211 
Q 384 513 384 1019 
Q 384 1609 779 1909 
Q 1175 2209 1959 2209 
L 2766 2209 
L 2766 2266 
Q 2766 2663 2505 2880 
Q 2244 3097 1772 3097 
Q 1472 3097 1187 3025 
Q 903 2953 641 2809 
L 641 3341 
Q 956 3463 1253 3523 
Q 1550 3584 1831 3584 
Q 2591 3584 2966 3190 
Q 3341 2797 3341 1997 
z
" transform="scale(0.015625)"/>
       <path id="DejaVuSans-72" d="M 2631 2963 
Q 2534 3019 2420 3045 
Q 2306 3072 2169 3072 
Q 1681 3072 1420 2755 
Q 1159 2438 1159 1844 
L 1159 0 
L 581 0 
L 581 3500 
L 1159 3500 
L 1159 2956 
Q 1341 3275 1631 3429 
Q 1922 3584 2338 3584 
Q 2397 3584 2469 3576 
Q 2541 3569 2628 3553 
L 2631 2963 
z
" transform="scale(0.015625)"/>
      </defs>
      <use xlink:href="#DejaVuSans-59"/>
      <use xlink:href="#DejaVuSans-65" x="47.833984"/>
      <use xlink:href="#DejaVuSans-61" x="109.357422"/>
      <use xlink:href="#DejaVuSans-72" x="170.636719"/>
     </g>
    </g>
   </g>
   <g id="matplotlib.axis_2">
    <g id="ytick_1">
     <g id="line2d_13">
      <path d="M 71.28 463.157566 
L 844.56 463.157566 
" clip-path="url(#p4d29ab5d72)" style="fill: none; stroke: #cccccc; stroke-linecap: round"/>
     </g>
     <g id="text_14">
      <!-- 0 -->
      <g style="fill: #262626" transform="translate(51.281875 469.426277) scale(0.165 -0.165)">
       <use xlink:href="#DejaVuSans-30"/>
      </g>
     </g>
    </g>
    <g id="ytick_2">
     <g id="line2d_14">
      <path d="M 71.28 406.051058 
L 844.56 406.051058 
" clip-path="url(#p4d29ab5d72)" style="fill: none; stroke: #cccccc; stroke-linecap: round"/>
     </g>
     <g id="text_15">
      <!-- 5 -->
      <g style="fill: #262626" transform="translate(51.281875 412.319769) scale(0.165 -0.165)">
       <defs>
        <path id="DejaVuSans-35" d="M 691 4666 
L 3169 4666 
L 3169 4134 
L 1269 4134 
L 1269 2991 
Q 1406 3038 1543 3061 
Q 1681 3084 1819 3084 
Q 2600 3084 3056 2656 
Q 3513 2228 3513 1497 
Q 3513 744 3044 326 
Q 2575 -91 1722 -91 
Q 1428 -91 1123 -41 
Q 819 9 494 109 
L 494 744 
Q 775 591 1075 516 
Q 1375 441 1709 441 
Q 2250 441 2565 725 
Q 2881 1009 2881 1497 
Q 2881 1984 2565 2268 
Q 2250 2553 1709 2553 
Q 1456 2553 1204 2497 
Q 953 2441 691 2322 
L 691 4666 
z
" transform="scale(0.015625)"/>
       </defs>
       <use xlink:href="#DejaVuSans-35"/>
      </g>
     </g>
    </g>
    <g id="ytick_3">
     <g id="line2d_15">
      <path d="M 71.28 348.94455 
L 844.56 348.94455 
" clip-path="url(#p4d29ab5d72)" style="fill: none; stroke: #cccccc; stroke-linecap: round"/>
     </g>
     <g id="text_16">
      <!-- 10 -->
      <g style="fill: #262626" transform="translate(40.78375 355.213261) scale(0.165 -0.165)">
       <use xlink:href="#DejaVuSans-31"/>
       <use xlink:href="#DejaVuSans-30" x="63.623047"/>
      </g>
     </g>
    </g>
    <g id="ytick_4">
     <g id="line2d_16">
      <path d="M 71.28 291.838043 
L 844.56 291.838043 
" clip-path="url(#p4d29ab5d72)" style="fill: none; stroke: #cccccc; stroke-linecap: round"/>
     </g>
     <g id="text_17">
      <!-- 15 -->
      <g style="fill: #262626" transform="translate(40.78375 298.106753) scale(0.165 -0.165)">
       <use xlink:href="#DejaVuSans-31"/>
       <use xlink:href="#DejaVuSans-35" x="63.623047"/>
      </g>
     </g>
    </g>
    <g id="ytick_5">
     <g id="line2d_17">
      <path d="M 71.28 234.731535 
L 844.56 234.731535 
" clip-path="url(#p4d29ab5d72)" style="fill: none; stroke: #cccccc; stroke-linecap: round"/>
     </g>
     <g id="text_18">
      <!-- 20 -->
      <g style="fill: #262626" transform="translate(40.78375 241.000246) scale(0.165 -0.165)">
       <use xlink:href="#DejaVuSans-32"/>
       <use xlink:href="#DejaVuSans-30" x="63.623047"/>
      </g>
     </g>
    </g>
    <g id="ytick_6">
     <g id="line2d_18">
      <path d="M 71.28 177.625027 
L 844.56 177.625027 
" clip-path="url(#p4d29ab5d72)" style="fill: none; stroke: #cccccc; stroke-linecap: round"/>
     </g>
     <g id="text_19">
      <!-- 25 -->
      <g style="fill: #262626" transform="translate(40.78375 183.893738) scale(0.165 -0.165)">
       <use xlink:href="#DejaVuSans-32"/>
       <use xlink:href="#DejaVuSans-35" x="63.623047"/>
      </g>
     </g>
    </g>
    <g id="ytick_7">
     <g id="line2d_19">
      <path d="M 71.28 120.518519 
L 844.56 120.518519 
" clip-path="url(#p4d29ab5d72)" style="fill: none; stroke: #cccccc; stroke-linecap: round"/>
     </g>
     <g id="text_20">
      <!-- 30 -->
      <g style="fill: #262626" transform="translate(40.78375 126.78723) scale(0.165 -0.165)">
       <use xlink:href="#DejaVuSans-33"/>
       <use xlink:href="#DejaVuSans-30" x="63.623047"/>
      </g>
     </g>
    </g>
    <g id="ytick_8">
     <g id="line2d_20">
      <path d="M 71.28 63.412011 
L 844.56 63.412011 
" clip-path="url(#p4d29ab5d72)" style="fill: none; stroke: #cccccc; stroke-linecap: round"/>
     </g>
     <g id="text_21">
      <!-- 35 -->
      <g style="fill: #262626" transform="translate(40.78375 69.680722) scale(0.165 -0.165)">
       <use xlink:href="#DejaVuSans-33"/>
       <use xlink:href="#DejaVuSans-35" x="63.623047"/>
      </g>
     </g>
    </g>
    <g id="text_22">
     <!-- Cumulative Count -->
     <g style="fill: #262626" transform="translate(33.040313 332.818487) rotate(-90) scale(0.18 -0.18)">
      <defs>
       <path id="DejaVuSans-43" d="M 4122 4306 
L 4122 3641 
Q 3803 3938 3442 4084 
Q 3081 4231 2675 4231 
Q 1875 4231 1450 3742 
Q 1025 3253 1025 2328 
Q 1025 1406 1450 917 
Q 1875 428 2675 428 
Q 3081 428 3442 575 
Q 3803 722 4122 1019 
L 4122 359 
Q 3791 134 3420 21 
Q 3050 -91 2638 -91 
Q 1578 -91 968 557 
Q 359 1206 359 2328 
Q 359 3453 968 4101 
Q 1578 4750 2638 4750 
Q 3056 4750 3426 4639 
Q 3797 4528 4122 4306 
z
" transform="scale(0.015625)"/>
       <path id="DejaVuSans-75" d="M 544 1381 
L 544 3500 
L 1119 3500 
L 1119 1403 
Q 1119 906 1312 657 
Q 1506 409 1894 409 
Q 2359 409 2629 706 
Q 2900 1003 2900 1516 
L 2900 3500 
L 3475 3500 
L 3475 0 
L 2900 0 
L 2900 538 
Q 2691 219 2414 64 
Q 2138 -91 1772 -91 
Q 1169 -91 856 284 
Q 544 659 544 1381 
z
M 1991 3584 
L 1991 3584 
z
" transform="scale(0.015625)"/>
       <path id="DejaVuSans-6d" d="M 3328 2828 
Q 3544 3216 3844 3400 
Q 4144 3584 4550 3584 
Q 5097 3584 5394 3201 
Q 5691 2819 5691 2113 
L 5691 0 
L 5113 0 
L 5113 2094 
Q 5113 2597 4934 2840 
Q 4756 3084 4391 3084 
Q 3944 3084 3684 2787 
Q 3425 2491 3425 1978 
L 3425 0 
L 2847 0 
L 2847 2094 
Q 2847 2600 2669 2842 
Q 2491 3084 2119 3084 
Q 1678 3084 1418 2786 
Q 1159 2488 1159 1978 
L 1159 0 
L 581 0 
L 581 3500 
L 1159 3500 
L 1159 2956 
Q 1356 3278 1631 3431 
Q 1906 3584 2284 3584 
Q 2666 3584 2933 3390 
Q 3200 3197 3328 2828 
z
" transform="scale(0.015625)"/>
       <path id="DejaVuSans-6c" d="M 603 4863 
L 1178 4863 
L 1178 0 
L 603 0 
L 603 4863 
z
" transform="scale(0.015625)"/>
       <path id="DejaVuSans-74" d="M 1172 4494 
L 1172 3500 
L 2356 3500 
L 2356 3053 
L 1172 3053 
L 1172 1153 
Q 1172 725 1289 603 
Q 1406 481 1766 481 
L 2356 481 
L 2356 0 
L 1766 0 
Q 1100 0 847 248 
Q 594 497 594 1153 
L 594 3053 
L 172 3053 
L 172 3500 
L 594 3500 
L 594 4494 
L 1172 4494 
z
" transform="scale(0.015625)"/>
       <path id="DejaVuSans-69" d="M 603 3500 
L 1178 3500 
L 1178 0 
L 603 0 
L 603 3500 
z
M 603 4863 
L 1178 4863 
L 1178 4134 
L 603 4134 
L 603 4863 
z
" transform="scale(0.015625)"/>
       <path id="DejaVuSans-76" d="M 191 3500 
L 800 3500 
L 1894 563 
L 2988 3500 
L 3597 3500 
L 2284 0 
L 1503 0 
L 191 3500 
z
" transform="scale(0.015625)"/>
       <path id="DejaVuSans-20" transform="scale(0.015625)"/>
       <path id="DejaVuSans-6f" d="M 1959 3097 
Q 1497 3097 1228 2736 
Q 959 2375 959 1747 
Q 959 1119 1226 758 
Q 1494 397 1959 397 
Q 2419 397 2687 759 
Q 2956 1122 2956 1747 
Q 2956 2369 2687 2733 
Q 2419 3097 1959 3097 
z
M 1959 3584 
Q 2709 3584 3137 3096 
Q 3566 2609 3566 1747 
Q 3566 888 3137 398 
Q 2709 -91 1959 -91 
Q 1206 -91 779 398 
Q 353 888 353 1747 
Q 353 2609 779 3096 
Q 1206 3584 1959 3584 
z
" transform="scale(0.015625)"/>
       <path id="DejaVuSans-6e" d="M 3513 2113 
L 3513 0 
L 2938 0 
L 2938 2094 
Q 2938 2591 2744 2837 
Q 2550 3084 2163 3084 
Q 1697 3084 1428 2787 
Q 1159 2491 1159 1978 
L 1159 0 
L 581 0 
L 581 3500 
L 1159 3500 
L 1159 2956 
Q 1366 3272 1645 3428 
Q 1925 3584 2291 3584 
Q 2894 3584 3203 3211 
Q 3513 2838 3513 2113 
z
" transform="scale(0.015625)"/>
      </defs>
      <use xlink:href="#DejaVuSans-43"/>
      <use xlink:href="#DejaVuSans-75" x="69.824219"/>
      <use xlink:href="#DejaVuSans-6d" x="133.203125"/>
      <use xlink:href="#DejaVuSans-75" x="230.615234"/>
      <use xlink:href="#DejaVuSans-6c" x="293.994141"/>
      <use xlink:href="#DejaVuSans-61" x="321.777344"/>
      <use xlink:href="#DejaVuSans-74" x="383.056641"/>
      <use xlink:href="#DejaVuSans-69" x="422.265625"/>
      <use xlink:href="#DejaVuSans-76" x="450.048828"/>
      <use xlink:href="#DejaVuSans-65" x="509.228516"/>
      <use xlink:href="#DejaVuSans-20" x="570.751953"/>
      <use xlink:href="#DejaVuSans-43" x="602.539062"/>
      <use xlink:href="#DejaVuSans-6f" x="672.363281"/>
      <use xlink:href="#DejaVuSans-75" x="733.544922"/>
      <use xlink:href="#DejaVuSans-6e" x="796.923828"/>
      <use xlink:href="#DejaVuSans-74" x="860.302734"/>
     </g>
    </g>
   </g>
   <g id="line2d_21">
    <path d="M 106.429091 463.157566 
L 194.301818 463.157566 
L 311.465455 463.157566 
L 340.756364 463.157566 
L 370.047273 463.157566 
L 633.665455 463.157566 
L 662.956364 463.157566 
L 692.247273 451.736265 
L 721.538182 417.47236 
L 750.829091 280.416741 
L 780.12 109.097217 
L 809.410909 51.990709 
" clip-path="url(#p4d29ab5d72)" style="fill: none; stroke: #376742; stroke-width: 4; stroke-linecap: round"/>
    <defs>
     <path id="m5e6c101783" d="M 0 4.5 
C 1.193414 4.5 2.338109 4.025852 3.181981 3.181981 
C 4.025852 2.338109 4.5 1.193414 4.5 0 
C 4.5 -1.193414 4.025852 -2.338109 3.181981 -3.181981 
C 2.338109 -4.025852 1.193414 -4.5 0 -4.5 
C -1.193414 -4.5 -2.338109 -4.025852 -3.181981 -3.181981 
C -4.025852 -2.338109 -4.5 -1.193414 -4.5 0 
C -4.5 1.193414 -4.025852 2.338109 -3.181981 3.181981 
C -2.338109 4.025852 -1.193414 4.5 0 4.5 
z
" style="stroke: #376742"/>
    </defs>
    <g clip-path="url(#p4d29ab5d72)">
     <use xlink:href="#m5e6c101783" x="106.429091" y="463.157566" style="fill: #376742; stroke: #376742"/>
     <use xlink:href="#m5e6c101783" x="194.301818" y="463.157566" style="fill: #376742; stroke: #376742"/>
     <use xlink:href="#m5e6c101783" x="311.465455" y="463.157566" style="fill: #376742; stroke: #376742"/>
     <use xlink:href="#m5e6c101783" x="340.756364" y="463.157566" style="fill: #376742; stroke: #376742"/>
     <use xlink:href="#m5e6c101783" x="370.047273" y="463.157566" style="fill: #376742; stroke: #376742"/>
     <use xlink:href="#m5e6c101783" x="633.665455" y="463.157566" style="fill: #376742; stroke: #376742"/>
     <use xlink:href="#m5e6c101783" x="662.956364" y="463.157566" style="fill: #376742; stroke: #376742"/>
     <use xlink:href="#m5e6c101783" x="692.247273" y="451.736265" style="fill: #376742; stroke: #376742"/>
     <use xlink:href="#m5e6c101783" x="721.538182" y="417.47236" style="fill: #376742; stroke: #376742"/>
     <use xlink:href="#m5e6c101783" x="750.829091" y="280.416741" style="fill: #376742; stroke: #376742"/>
     <use xlink:href="#m5e6c101783" x="780.12" y="109.097217" style="fill: #376742; stroke: #376742"/>
     <use xlink:href="#m5e6c101783" x="809.410909" y="51.990709" style="fill: #376742; stroke: #376742"/>
    </g>
   </g>
   <g id="line2d_22">
    <path d="M 106.429091 463.157566 
L 194.301818 463.157566 
L 311.465455 463.157566 
L 340.756364 463.157566 
L 370.047273 463.157566 
L 633.665455 463.157566 
L 662.956364 451.736265 
L 692.247273 440.314963 
L 721.538182 440.314963 
L 750.829091 417.47236 
L 780.12 383.208455 
L 809.410909 383.208455 
" clip-path="url(#p4d29ab5d72)" style="fill: none; stroke: #219a55; stroke-width: 4; stroke-linecap: round"/>
    <defs>
     <path id="m79b596224c" d="M 0 4.5 
C 1.193414 4.5 2.338109 4.025852 3.181981 3.181981 
C 4.025852 2.338109 4.5 1.193414 4.5 0 
C 4.5 -1.193414 4.025852 -2.338109 3.181981 -3.181981 
C 2.338109 -4.025852 1.193414 -4.5 0 -4.5 
C -1.193414 -4.5 -2.338109 -4.025852 -3.181981 -3.181981 
C -4.025852 -2.338109 -4.5 -1.193414 -4.5 0 
C -4.5 1.193414 -4.025852 2.338109 -3.181981 3.181981 
C -2.338109 4.025852 -1.193414 4.5 0 4.5 
z
" style="stroke: #219a55"/>
    </defs>
    <g clip-path="url(#p4d29ab5d72)">
     <use xlink:href="#m79b596224c" x="106.429091" y="463.157566" style="fill: #219a55; stroke: #219a55"/>
     <use xlink:href="#m79b596224c" x="194.301818" y="463.157566" style="fill: #219a55; stroke: #219a55"/>
     <use xlink:href="#m79b596224c" x="311.465455" y="463.157566" style="fill: #219a55; stroke: #219a55"/>
     <use xlink:href="#m79b596224c" x="340.756364" y="463.157566" style="fill: #219a55; stroke: #219a55"/>
     <use xlink:href="#m79b596224c" x="370.047273" y="463.157566" style="fill: #219a55; stroke: #219a55"/>
     <use xlink:href="#m79b596224c" x="633.665455" y="463.157566" style="fill: #219a55; stroke: #219a55"/>
     <use xlink:href="#m79b596224c" x="662.956364" y="451.736265" style="fill: #219a55; stroke: #219a55"/>
     <use xlink:href="#m79b596224c" x="692.247273" y="440.314963" style="fill: #219a55; stroke: #219a55"/>
     <use xlink:href="#m79b596224c" x="721.538182" y="440.314963" style="fill: #219a55; stroke: #219a55"/>
     <use xlink:href="#m79b596224c" x="750.829091" y="417.47236" style="fill: #219a55; stroke: #219a55"/>
     <use xlink:href="#m79b596224c" x="780.12" y="383.208455" style="fill: #219a55; stroke: #219a55"/>
     <use xlink:href="#m79b596224c" x="809.410909" y="383.208455" style="fill: #219a55; stroke: #219a55"/>
    </g>
   </g>
   <g id="line2d_23">
    <path d="M 106.429091 463.157566 
L 194.301818 463.157566 
L 311.465455 463.157566 
L 340.756364 463.157566 
L 370.047273 428.893661 
L 633.665455 428.893661 
L 662.956364 406.051058 
L 692.247273 383.208455 
L 721.538182 314.680646 
L 750.829091 211.888932 
L 780.12 74.833313 
L 809.410909 40.569408 
" clip-path="url(#p4d29ab5d72)" style="fill: none; stroke: #a0d183; stroke-width: 4; stroke-linecap: round"/>
    <defs>
     <path id="m671537bed1" d="M 0 4.5 
C 1.193414 4.5 2.338109 4.025852 3.181981 3.181981 
C 4.025852 2.338109 4.5 1.193414 4.5 0 
C 4.5 -1.193414 4.025852 -2.338109 3.181981 -3.181981 
C 2.338109 -4.025852 1.193414 -4.5 0 -4.5 
C -1.193414 -4.5 -2.338109 -4.025852 -3.181981 -3.181981 
C -4.025852 -2.338109 -4.5 -1.193414 -4.5 0 
C -4.5 1.193414 -4.025852 2.338109 -3.181981 3.181981 
C -2.338109 4.025852 -1.193414 4.5 0 4.5 
z
" style="stroke: #a0d183"/>
    </defs>
    <g clip-path="url(#p4d29ab5d72)">
     <use xlink:href="#m671537bed1" x="106.429091" y="463.157566" style="fill: #a0d183; stroke: #a0d183"/>
     <use xlink:href="#m671537bed1" x="194.301818" y="463.157566" style="fill: #a0d183; stroke: #a0d183"/>
     <use xlink:href="#m671537bed1" x="311.465455" y="463.157566" style="fill: #a0d183; stroke: #a0d183"/>
     <use xlink:href="#m671537bed1" x="340.756364" y="463.157566" style="fill: #a0d183; stroke: #a0d183"/>
     <use xlink:href="#m671537bed1" x="370.047273" y="428.893661" style="fill: #a0d183; stroke: #a0d183"/>
     <use xlink:href="#m671537bed1" x="633.665455" y="428.893661" style="fill: #a0d183; stroke: #a0d183"/>
     <use xlink:href="#m671537bed1" x="662.956364" y="406.051058" style="fill: #a0d183; stroke: #a0d183"/>
     <use xlink:href="#m671537bed1" x="692.247273" y="383.208455" style="fill: #a0d183; stroke: #a0d183"/>
     <use xlink:href="#m671537bed1" x="721.538182" y="314.680646" style="fill: #a0d183; stroke: #a0d183"/>
     <use xlink:href="#m671537bed1" x="750.829091" y="211.888932" style="fill: #a0d183; stroke: #a0d183"/>
     <use xlink:href="#m671537bed1" x="780.12" y="74.833313" style="fill: #a0d183; stroke: #a0d183"/>
     <use xlink:href="#m671537bed1" x="809.410909" y="40.569408" style="fill: #a0d183; stroke: #a0d183"/>
    </g>
   </g>
   <g id="line2d_24">
    <path d="M 106.429091 463.157566 
L 194.301818 463.157566 
L 311.465455 463.157566 
L 340.756364 463.157566 
L 370.047273 463.157566 
L 633.665455 463.157566 
L 662.956364 463.157566 
L 692.247273 451.736265 
L 721.538182 440.314963 
L 750.829091 383.208455 
L 780.12 291.838043 
L 809.410909 268.995439 
" clip-path="url(#p4d29ab5d72)" style="fill: none; stroke: #a8b354; stroke-width: 4; stroke-linecap: round"/>
    <defs>
     <path id="m2573fe14ad" d="M 0 4.5 
C 1.193414 4.5 2.338109 4.025852 3.181981 3.181981 
C 4.025852 2.338109 4.5 1.193414 4.5 0 
C 4.5 -1.193414 4.025852 -2.338109 3.181981 -3.181981 
C 2.338109 -4.025852 1.193414 -4.5 0 -4.5 
C -1.193414 -4.5 -2.338109 -4.025852 -3.181981 -3.181981 
C -4.025852 -2.338109 -4.5 -1.193414 -4.5 0 
C -4.5 1.193414 -4.025852 2.338109 -3.181981 3.181981 
C -2.338109 4.025852 -1.193414 4.5 0 4.5 
z
" style="stroke: #a8b354"/>
    </defs>
    <g clip-path="url(#p4d29ab5d72)">
     <use xlink:href="#m2573fe14ad" x="106.429091" y="463.157566" style="fill: #a8b354; stroke: #a8b354"/>
     <use xlink:href="#m2573fe14ad" x="194.301818" y="463.157566" style="fill: #a8b354; stroke: #a8b354"/>
     <use xlink:href="#m2573fe14ad" x="311.465455" y="463.157566" style="fill: #a8b354; stroke: #a8b354"/>
     <use xlink:href="#m2573fe14ad" x="340.756364" y="463.157566" style="fill: #a8b354; stroke: #a8b354"/>
     <use xlink:href="#m2573fe14ad" x="370.047273" y="463.157566" style="fill: #a8b354; stroke: #a8b354"/>
     <use xlink:href="#m2573fe14ad" x="633.665455" y="463.157566" style="fill: #a8b354; stroke: #a8b354"/>
     <use xlink:href="#m2573fe14ad" x="662.956364" y="463.157566" style="fill: #a8b354; stroke: #a8b354"/>
     <use xlink:href="#m2573fe14ad" x="692.247273" y="451.736265" style="fill: #a8b354; stroke: #a8b354"/>
     <use xlink:href="#m2573fe14ad" x="721.538182" y="440.314963" style="fill: #a8b354; stroke: #a8b354"/>
     <use xlink:href="#m2573fe14ad" x="750.829091" y="383.208455" style="fill: #a8b354; stroke: #a8b354"/>
     <use xlink:href="#m2573fe14ad" x="780.12" y="291.838043" style="fill: #a8b354; stroke: #a8b354"/>
     <use xlink:href="#m2573fe14ad" x="809.410909" y="268.995439" style="fill: #a8b354; stroke: #a8b354"/>
    </g>
   </g>
   <g id="line2d_25">
    <path d="M 106.429091 451.736265 
L 194.301818 440.314963 
L 311.465455 428.893661 
L 340.756364 417.47236 
L 370.047273 417.47236 
L 633.665455 417.47236 
L 662.956364 417.47236 
L 692.247273 394.629757 
L 721.538182 383.208455 
L 750.829091 383.208455 
L 780.12 326.101947 
L 809.410909 314.680646 
" clip-path="url(#p4d29ab5d72)" style="fill: none; stroke: #8ed3d0; stroke-width: 4; stroke-linecap: round"/>
    <defs>
     <path id="m79ad3ec802" d="M 0 4.5 
C 1.193414 4.5 2.338109 4.025852 3.181981 3.181981 
C 4.025852 2.338109 4.5 1.193414 4.5 0 
C 4.5 -1.193414 4.025852 -2.338109 3.181981 -3.181981 
C 2.338109 -4.025852 1.193414 -4.5 0 -4.5 
C -1.193414 -4.5 -2.338109 -4.025852 -3.181981 -3.181981 
C -4.025852 -2.338109 -4.5 -1.193414 -4.5 0 
C -4.5 1.193414 -4.025852 2.338109 -3.181981 3.181981 
C -2.338109 4.025852 -1.193414 4.5 0 4.5 
z
" style="stroke: #8ed3d0"/>
    </defs>
    <g clip-path="url(#p4d29ab5d72)">
     <use xlink:href="#m79ad3ec802" x="106.429091" y="451.736265" style="fill: #8ed3d0; stroke: #8ed3d0"/>
     <use xlink:href="#m79ad3ec802" x="194.301818" y="440.314963" style="fill: #8ed3d0; stroke: #8ed3d0"/>
     <use xlink:href="#m79ad3ec802" x="311.465455" y="428.893661" style="fill: #8ed3d0; stroke: #8ed3d0"/>
     <use xlink:href="#m79ad3ec802" x="340.756364" y="417.47236" style="fill: #8ed3d0; stroke: #8ed3d0"/>
     <use xlink:href="#m79ad3ec802" x="370.047273" y="417.47236" style="fill: #8ed3d0; stroke: #8ed3d0"/>
     <use xlink:href="#m79ad3ec802" x="633.665455" y="417.47236" style="fill: #8ed3d0; stroke: #8ed3d0"/>
     <use xlink:href="#m79ad3ec802" x="662.956364" y="417.47236" style="fill: #8ed3d0; stroke: #8ed3d0"/>
     <use xlink:href="#m79ad3ec802" x="692.247273" y="394.629757" style="fill: #8ed3d0; stroke: #8ed3d0"/>
     <use xlink:href="#m79ad3ec802" x="721.538182" y="383.208455" style="fill: #8ed3d0; stroke: #8ed3d0"/>
     <use xlink:href="#m79ad3ec802" x="750.829091" y="383.208455" style="fill: #8ed3d0; stroke: #8ed3d0"/>
     <use xlink:href="#m79ad3ec802" x="780.12" y="326.101947" style="fill: #8ed3d0; stroke: #8ed3d0"/>
     <use xlink:href="#m79ad3ec802" x="809.410909" y="314.680646" style="fill: #8ed3d0; stroke: #8ed3d0"/>
    </g>
   </g>
   <g id="line2d_26">
    <path d="M 106.429091 463.157566 
L 194.301818 463.157566 
L 311.465455 463.157566 
L 340.756364 463.157566 
L 370.047273 463.157566 
L 633.665455 463.157566 
L 662.956364 463.157566 
L 692.247273 463.157566 
L 721.538182 463.157566 
L 750.829091 451.736265 
L 780.12 394.629757 
L 809.410909 383.208455 
" clip-path="url(#p4d29ab5d72)" style="fill: none; stroke: #173017; stroke-width: 4; stroke-linecap: round"/>
    <defs>
     <path id="m3a244058fa" d="M 0 4.5 
C 1.193414 4.5 2.338109 4.025852 3.181981 3.181981 
C 4.025852 2.338109 4.5 1.193414 4.5 0 
C 4.5 -1.193414 4.025852 -2.338109 3.181981 -3.181981 
C 2.338109 -4.025852 1.193414 -4.5 0 -4.5 
C -1.193414 -4.5 -2.338109 -4.025852 -3.181981 -3.181981 
C -4.025852 -2.338109 -4.5 -1.193414 -4.5 0 
C -4.5 1.193414 -4.025852 2.338109 -3.181981 3.181981 
C -2.338109 4.025852 -1.193414 4.5 0 4.5 
z
" style="stroke: #173017"/>
    </defs>
    <g clip-path="url(#p4d29ab5d72)">
     <use xlink:href="#m3a244058fa" x="106.429091" y="463.157566" style="fill: #173017; stroke: #173017"/>
     <use xlink:href="#m3a244058fa" x="194.301818" y="463.157566" style="fill: #173017; stroke: #173017"/>
     <use xlink:href="#m3a244058fa" x="311.465455" y="463.157566" style="fill: #173017; stroke: #173017"/>
     <use xlink:href="#m3a244058fa" x="340.756364" y="463.157566" style="fill: #173017; stroke: #173017"/>
     <use xlink:href="#m3a244058fa" x="370.047273" y="463.157566" style="fill: #173017; stroke: #173017"/>
     <use xlink:href="#m3a244058fa" x="633.665455" y="463.157566" style="fill: #173017; stroke: #173017"/>
     <use xlink:href="#m3a244058fa" x="662.956364" y="463.157566" style="fill: #173017; stroke: #173017"/>
     <use xlink:href="#m3a244058fa" x="692.247273" y="463.157566" style="fill: #173017; stroke: #173017"/>
     <use xlink:href="#m3a244058fa" x="721.538182" y="463.157566" style="fill: #173017; stroke: #173017"/>
     <use xlink:href="#m3a244058fa" x="750.829091" y="451.736265" style="fill: #173017; stroke: #173017"/>
     <use xlink:href="#m3a244058fa" x="780.12" y="394.629757" style="fill: #173017; stroke: #173017"/>
     <use xlink:href="#m3a244058fa" x="809.410909" y="383.208455" style="fill: #173017; stroke: #173017"/>
    </g>
   </g>
   <g id="line2d_27">
    <path d="M 106.429091 463.157566 
L 194.301818 463.157566 
L 311.465455 463.157566 
L 340.756364 463.157566 
L 370.047273 451.736265 
L 633.665455 440.314963 
L 662.956364 406.051058 
L 692.247273 394.629757 
L 721.538182 371.787154 
L 750.829091 280.416741 
L 780.12 223.310233 
L 809.410909 189.046328 
" clip-path="url(#p4d29ab5d72)" style="fill: none; stroke: #a0e701; stroke-width: 4; stroke-linecap: round"/>
    <defs>
     <path id="m142ffce959" d="M 0 4.5 
C 1.193414 4.5 2.338109 4.025852 3.181981 3.181981 
C 4.025852 2.338109 4.5 1.193414 4.5 0 
C 4.5 -1.193414 4.025852 -2.338109 3.181981 -3.181981 
C 2.338109 -4.025852 1.193414 -4.5 0 -4.5 
C -1.193414 -4.5 -2.338109 -4.025852 -3.181981 -3.181981 
C -4.025852 -2.338109 -4.5 -1.193414 -4.5 0 
C -4.5 1.193414 -4.025852 2.338109 -3.181981 3.181981 
C -2.338109 4.025852 -1.193414 4.5 0 4.5 
z
" style="stroke: #a0e701"/>
    </defs>
    <g clip-path="url(#p4d29ab5d72)">
     <use xlink:href="#m142ffce959" x="106.429091" y="463.157566" style="fill: #a0e701; stroke: #a0e701"/>
     <use xlink:href="#m142ffce959" x="194.301818" y="463.157566" style="fill: #a0e701; stroke: #a0e701"/>
     <use xlink:href="#m142ffce959" x="311.465455" y="463.157566" style="fill: #a0e701; stroke: #a0e701"/>
     <use xlink:href="#m142ffce959" x="340.756364" y="463.157566" style="fill: #a0e701; stroke: #a0e701"/>
     <use xlink:href="#m142ffce959" x="370.047273" y="451.736265" style="fill: #a0e701; stroke: #a0e701"/>
     <use xlink:href="#m142ffce959" x="633.665455" y="440.314963" style="fill: #a0e701; stroke: #a0e701"/>
     <use xlink:href="#m142ffce959" x="662.956364" y="406.051058" style="fill: #a0e701; stroke: #a0e701"/>
     <use xlink:href="#m142ffce959" x="692.247273" y="394.629757" style="fill: #a0e701; stroke: #a0e701"/>
     <use xlink:href="#m142ffce959" x="721.538182" y="371.787154" style="fill: #a0e701; stroke: #a0e701"/>
     <use xlink:href="#m142ffce959" x="750.829091" y="280.416741" style="fill: #a0e701; stroke: #a0e701"/>
     <use xlink:href="#m142ffce959" x="780.12" y="223.310233" style="fill: #a0e701; stroke: #a0e701"/>
     <use xlink:href="#m142ffce959" x="809.410909" y="189.046328" style="fill: #a0e701; stroke: #a0e701"/>
    </g>
   </g>
   <g id="patch_3">
    <path d="M 71.28 484.286974 
L 71.28 19.44 
" style="fill: none; stroke: #cccccc; stroke-width: 1.25; stroke-linejoin: miter; stroke-linecap: square"/>
   </g>
   <g id="patch_4">
    <path d="M 844.56 484.286974 
L 844.56 19.44 
" style="fill: none; stroke: #cccccc; stroke-width: 1.25; stroke-linejoin: miter; stroke-linecap: square"/>
   </g>
   <g id="patch_5">
    <path d="M 71.28 484.286974 
L 844.56 484.286974 
" style="fill: none; stroke: #cccccc; stroke-width: 1.25; stroke-linejoin: miter; stroke-linecap: square"/>
   </g>
   <g id="patch_6">
    <path d="M 71.28 19.44 
L 844.56 19.44 
" style="fill: none; stroke: #cccccc; stroke-width: 1.25; stroke-linejoin: miter; stroke-linecap: square"/>
   </g>
   <g id="legend_1">
    <g id="patch_7">
     <path d="M 82.83 202.172344 
L 378.945703 202.172344 
Q 382.245703 202.172344 382.245703 198.872344 
L 382.245703 30.99 
Q 382.245703 27.69 378.945703 27.69 
L 82.83 27.69 
Q 79.53 27.69 79.53 30.99 
L 79.53 198.872344 
Q 79.53 202.172344 82.83 202.172344 
z
" style="fill: #ffffff; stroke: #cccccc; stroke-linejoin: miter"/>
    </g>
    <g id="line2d_28">
     <path d="M 86.13 41.052422 
L 102.63 41.052422 
L 119.13 41.052422 
" style="fill: none; stroke: #376742; stroke-width: 4; stroke-linecap: round"/>
     <g>
      <use xlink:href="#m5e6c101783" x="102.63" y="41.052422" style="fill: #376742; stroke: #376742"/>
     </g>
    </g>
    <g id="text_23">
     <!-- Autoencoder -->
     <g style="fill: #262626" transform="translate(132.33 46.827422) scale(0.165 -0.165)">
      <defs>
       <path id="DejaVuSans-41" d="M 2188 4044 
L 1331 1722 
L 3047 1722 
L 2188 4044 
z
M 1831 4666 
L 2547 4666 
L 4325 0 
L 3669 0 
L 3244 1197 
L 1141 1197 
L 716 0 
L 50 0 
L 1831 4666 
z
" transform="scale(0.015625)"/>
       <path id="DejaVuSans-63" d="M 3122 3366 
L 3122 2828 
Q 2878 2963 2633 3030 
Q 2388 3097 2138 3097 
Q 1578 3097 1268 2742 
Q 959 2388 959 1747 
Q 959 1106 1268 751 
Q 1578 397 2138 397 
Q 2388 397 2633 464 
Q 2878 531 3122 666 
L 3122 134 
Q 2881 22 2623 -34 
Q 2366 -91 2075 -91 
Q 1284 -91 818 406 
Q 353 903 353 1747 
Q 353 2603 823 3093 
Q 1294 3584 2113 3584 
Q 2378 3584 2631 3529 
Q 2884 3475 3122 3366 
z
" transform="scale(0.015625)"/>
       <path id="DejaVuSans-64" d="M 2906 2969 
L 2906 4863 
L 3481 4863 
L 3481 0 
L 2906 0 
L 2906 525 
Q 2725 213 2448 61 
Q 2172 -91 1784 -91 
Q 1150 -91 751 415 
Q 353 922 353 1747 
Q 353 2572 751 3078 
Q 1150 3584 1784 3584 
Q 2172 3584 2448 3432 
Q 2725 3281 2906 2969 
z
M 947 1747 
Q 947 1113 1208 752 
Q 1469 391 1925 391 
Q 2381 391 2643 752 
Q 2906 1113 2906 1747 
Q 2906 2381 2643 2742 
Q 2381 3103 1925 3103 
Q 1469 3103 1208 2742 
Q 947 2381 947 1747 
z
" transform="scale(0.015625)"/>
      </defs>
      <use xlink:href="#DejaVuSans-41"/>
      <use xlink:href="#DejaVuSans-75" x="68.408203"/>
      <use xlink:href="#DejaVuSans-74" x="131.787109"/>
      <use xlink:href="#DejaVuSans-6f" x="170.996094"/>
      <use xlink:href="#DejaVuSans-65" x="232.177734"/>
      <use xlink:href="#DejaVuSans-6e" x="293.701172"/>
      <use xlink:href="#DejaVuSans-63" x="357.080078"/>
      <use xlink:href="#DejaVuSans-6f" x="412.060547"/>
      <use xlink:href="#DejaVuSans-64" x="473.242188"/>
      <use xlink:href="#DejaVuSans-65" x="536.71875"/>
      <use xlink:href="#DejaVuSans-72" x="598.242188"/>
     </g>
    </g>
    <g id="line2d_29">
     <path d="M 86.13 65.271328 
L 102.63 65.271328 
L 119.13 65.271328 
" style="fill: none; stroke: #219a55; stroke-width: 4; stroke-linecap: round"/>
     <g>
      <use xlink:href="#m79b596224c" x="102.63" y="65.271328" style="fill: #219a55; stroke: #219a55"/>
     </g>
    </g>
    <g id="text_24">
     <!-- Convolutional neural network -->
     <g style="fill: #262626" transform="translate(132.33 71.046328) scale(0.165 -0.165)">
      <defs>
       <path id="DejaVuSans-77" d="M 269 3500 
L 844 3500 
L 1563 769 
L 2278 3500 
L 2956 3500 
L 3675 769 
L 4391 3500 
L 4966 3500 
L 4050 0 
L 3372 0 
L 2619 2869 
L 1863 0 
L 1184 0 
L 269 3500 
z
" transform="scale(0.015625)"/>
       <path id="DejaVuSans-6b" d="M 581 4863 
L 1159 4863 
L 1159 1991 
L 2875 3500 
L 3609 3500 
L 1753 1863 
L 3688 0 
L 2938 0 
L 1159 1709 
L 1159 0 
L 581 0 
L 581 4863 
z
" transform="scale(0.015625)"/>
      </defs>
      <use xlink:href="#DejaVuSans-43"/>
      <use xlink:href="#DejaVuSans-6f" x="69.824219"/>
      <use xlink:href="#DejaVuSans-6e" x="131.005859"/>
      <use xlink:href="#DejaVuSans-76" x="194.384766"/>
      <use xlink:href="#DejaVuSans-6f" x="253.564453"/>
      <use xlink:href="#DejaVuSans-6c" x="314.746094"/>
      <use xlink:href="#DejaVuSans-75" x="342.529297"/>
      <use xlink:href="#DejaVuSans-74" x="405.908203"/>
      <use xlink:href="#DejaVuSans-69" x="445.117188"/>
      <use xlink:href="#DejaVuSans-6f" x="472.900391"/>
      <use xlink:href="#DejaVuSans-6e" x="534.082031"/>
      <use xlink:href="#DejaVuSans-61" x="597.460938"/>
      <use xlink:href="#DejaVuSans-6c" x="658.740234"/>
      <use xlink:href="#DejaVuSans-20" x="686.523438"/>
      <use xlink:href="#DejaVuSans-6e" x="718.310547"/>
      <use xlink:href="#DejaVuSans-65" x="781.689453"/>
      <use xlink:href="#DejaVuSans-75" x="843.212891"/>
      <use xlink:href="#DejaVuSans-72" x="906.591797"/>
      <use xlink:href="#DejaVuSans-61" x="947.705078"/>
      <use xlink:href="#DejaVuSans-6c" x="1008.984375"/>
      <use xlink:href="#DejaVuSans-20" x="1036.767578"/>
      <use xlink:href="#DejaVuSans-6e" x="1068.554688"/>
      <use xlink:href="#DejaVuSans-65" x="1131.933594"/>
      <use xlink:href="#DejaVuSans-74" x="1193.457031"/>
      <use xlink:href="#DejaVuSans-77" x="1232.666016"/>
      <use xlink:href="#DejaVuSans-6f" x="1314.453125"/>
      <use xlink:href="#DejaVuSans-72" x="1375.634766"/>
      <use xlink:href="#DejaVuSans-6b" x="1416.748047"/>
     </g>
    </g>
    <g id="line2d_30">
     <path d="M 86.13 89.490234 
L 102.63 89.490234 
L 119.13 89.490234 
" style="fill: none; stroke: #a0d183; stroke-width: 4; stroke-linecap: round"/>
     <g>
      <use xlink:href="#m671537bed1" x="102.63" y="89.490234" style="fill: #a0d183; stroke: #a0d183"/>
     </g>
    </g>
    <g id="text_25">
     <!-- Dense neural network -->
     <g style="fill: #262626" transform="translate(132.33 95.265234) scale(0.165 -0.165)">
      <defs>
       <path id="DejaVuSans-44" d="M 1259 4147 
L 1259 519 
L 2022 519 
Q 2988 519 3436 956 
Q 3884 1394 3884 2338 
Q 3884 3275 3436 3711 
Q 2988 4147 2022 4147 
L 1259 4147 
z
M 628 4666 
L 1925 4666 
Q 3281 4666 3915 4102 
Q 4550 3538 4550 2338 
Q 4550 1131 3912 565 
Q 3275 0 1925 0 
L 628 0 
L 628 4666 
z
" transform="scale(0.015625)"/>
       <path id="DejaVuSans-73" d="M 2834 3397 
L 2834 2853 
Q 2591 2978 2328 3040 
Q 2066 3103 1784 3103 
Q 1356 3103 1142 2972 
Q 928 2841 928 2578 
Q 928 2378 1081 2264 
Q 1234 2150 1697 2047 
L 1894 2003 
Q 2506 1872 2764 1633 
Q 3022 1394 3022 966 
Q 3022 478 2636 193 
Q 2250 -91 1575 -91 
Q 1294 -91 989 -36 
Q 684 19 347 128 
L 347 722 
Q 666 556 975 473 
Q 1284 391 1588 391 
Q 1994 391 2212 530 
Q 2431 669 2431 922 
Q 2431 1156 2273 1281 
Q 2116 1406 1581 1522 
L 1381 1569 
Q 847 1681 609 1914 
Q 372 2147 372 2553 
Q 372 3047 722 3315 
Q 1072 3584 1716 3584 
Q 2034 3584 2315 3537 
Q 2597 3491 2834 3397 
z
" transform="scale(0.015625)"/>
      </defs>
      <use xlink:href="#DejaVuSans-44"/>
      <use xlink:href="#DejaVuSans-65" x="77.001953"/>
      <use xlink:href="#DejaVuSans-6e" x="138.525391"/>
      <use xlink:href="#DejaVuSans-73" x="201.904297"/>
      <use xlink:href="#DejaVuSans-65" x="254.003906"/>
      <use xlink:href="#DejaVuSans-20" x="315.527344"/>
      <use xlink:href="#DejaVuSans-6e" x="347.314453"/>
      <use xlink:href="#DejaVuSans-65" x="410.693359"/>
      <use xlink:href="#DejaVuSans-75" x="472.216797"/>
      <use xlink:href="#DejaVuSans-72" x="535.595703"/>
      <use xlink:href="#DejaVuSans-61" x="576.708984"/>
      <use xlink:href="#DejaVuSans-6c" x="637.988281"/>
      <use xlink:href="#DejaVuSans-20" x="665.771484"/>
      <use xlink:href="#DejaVuSans-6e" x="697.558594"/>
      <use xlink:href="#DejaVuSans-65" x="760.9375"/>
      <use xlink:href="#DejaVuSans-74" x="822.460938"/>
      <use xlink:href="#DejaVuSans-77" x="861.669922"/>
      <use xlink:href="#DejaVuSans-6f" x="943.457031"/>
      <use xlink:href="#DejaVuSans-72" x="1004.638672"/>
      <use xlink:href="#DejaVuSans-6b" x="1045.751953"/>
     </g>
    </g>
    <g id="line2d_31">
     <path d="M 86.13 113.709141 
L 102.63 113.709141 
L 119.13 113.709141 
" style="fill: none; stroke: #a8b354; stroke-width: 4; stroke-linecap: round"/>
     <g>
      <use xlink:href="#m2573fe14ad" x="102.63" y="113.709141" style="fill: #a8b354; stroke: #a8b354"/>
     </g>
    </g>
    <g id="text_26">
     <!-- Graph neural network -->
     <g style="fill: #262626" transform="translate(132.33 119.484141) scale(0.165 -0.165)">
      <defs>
       <path id="DejaVuSans-47" d="M 3809 666 
L 3809 1919 
L 2778 1919 
L 2778 2438 
L 4434 2438 
L 4434 434 
Q 4069 175 3628 42 
Q 3188 -91 2688 -91 
Q 1594 -91 976 548 
Q 359 1188 359 2328 
Q 359 3472 976 4111 
Q 1594 4750 2688 4750 
Q 3144 4750 3555 4637 
Q 3966 4525 4313 4306 
L 4313 3634 
Q 3963 3931 3569 4081 
Q 3175 4231 2741 4231 
Q 1884 4231 1454 3753 
Q 1025 3275 1025 2328 
Q 1025 1384 1454 906 
Q 1884 428 2741 428 
Q 3075 428 3337 486 
Q 3600 544 3809 666 
z
" transform="scale(0.015625)"/>
       <path id="DejaVuSans-70" d="M 1159 525 
L 1159 -1331 
L 581 -1331 
L 581 3500 
L 1159 3500 
L 1159 2969 
Q 1341 3281 1617 3432 
Q 1894 3584 2278 3584 
Q 2916 3584 3314 3078 
Q 3713 2572 3713 1747 
Q 3713 922 3314 415 
Q 2916 -91 2278 -91 
Q 1894 -91 1617 61 
Q 1341 213 1159 525 
z
M 3116 1747 
Q 3116 2381 2855 2742 
Q 2594 3103 2138 3103 
Q 1681 3103 1420 2742 
Q 1159 2381 1159 1747 
Q 1159 1113 1420 752 
Q 1681 391 2138 391 
Q 2594 391 2855 752 
Q 3116 1113 3116 1747 
z
" transform="scale(0.015625)"/>
       <path id="DejaVuSans-68" d="M 3513 2113 
L 3513 0 
L 2938 0 
L 2938 2094 
Q 2938 2591 2744 2837 
Q 2550 3084 2163 3084 
Q 1697 3084 1428 2787 
Q 1159 2491 1159 1978 
L 1159 0 
L 581 0 
L 581 4863 
L 1159 4863 
L 1159 2956 
Q 1366 3272 1645 3428 
Q 1925 3584 2291 3584 
Q 2894 3584 3203 3211 
Q 3513 2838 3513 2113 
z
" transform="scale(0.015625)"/>
      </defs>
      <use xlink:href="#DejaVuSans-47"/>
      <use xlink:href="#DejaVuSans-72" x="77.490234"/>
      <use xlink:href="#DejaVuSans-61" x="118.603516"/>
      <use xlink:href="#DejaVuSans-70" x="179.882812"/>
      <use xlink:href="#DejaVuSans-68" x="243.359375"/>
      <use xlink:href="#DejaVuSans-20" x="306.738281"/>
      <use xlink:href="#DejaVuSans-6e" x="338.525391"/>
      <use xlink:href="#DejaVuSans-65" x="401.904297"/>
      <use xlink:href="#DejaVuSans-75" x="463.427734"/>
      <use xlink:href="#DejaVuSans-72" x="526.806641"/>
      <use xlink:href="#DejaVuSans-61" x="567.919922"/>
      <use xlink:href="#DejaVuSans-6c" x="629.199219"/>
      <use xlink:href="#DejaVuSans-20" x="656.982422"/>
      <use xlink:href="#DejaVuSans-6e" x="688.769531"/>
      <use xlink:href="#DejaVuSans-65" x="752.148438"/>
      <use xlink:href="#DejaVuSans-74" x="813.671875"/>
      <use xlink:href="#DejaVuSans-77" x="852.880859"/>
      <use xlink:href="#DejaVuSans-6f" x="934.667969"/>
      <use xlink:href="#DejaVuSans-72" x="995.849609"/>
      <use xlink:href="#DejaVuSans-6b" x="1036.962891"/>
     </g>
    </g>
    <g id="line2d_32">
     <path d="M 86.13 137.928047 
L 102.63 137.928047 
L 119.13 137.928047 
" style="fill: none; stroke: #8ed3d0; stroke-width: 4; stroke-linecap: round"/>
     <g>
      <use xlink:href="#m79ad3ec802" x="102.63" y="137.928047" style="fill: #8ed3d0; stroke: #8ed3d0"/>
     </g>
    </g>
    <g id="text_27">
     <!-- Other -->
     <g style="fill: #262626" transform="translate(132.33 143.703047) scale(0.165 -0.165)">
      <defs>
       <path id="DejaVuSans-4f" d="M 2522 4238 
Q 1834 4238 1429 3725 
Q 1025 3213 1025 2328 
Q 1025 1447 1429 934 
Q 1834 422 2522 422 
Q 3209 422 3611 934 
Q 4013 1447 4013 2328 
Q 4013 3213 3611 3725 
Q 3209 4238 2522 4238 
z
M 2522 4750 
Q 3503 4750 4090 4092 
Q 4678 3434 4678 2328 
Q 4678 1225 4090 567 
Q 3503 -91 2522 -91 
Q 1538 -91 948 565 
Q 359 1222 359 2328 
Q 359 3434 948 4092 
Q 1538 4750 2522 4750 
z
" transform="scale(0.015625)"/>
      </defs>
      <use xlink:href="#DejaVuSans-4f"/>
      <use xlink:href="#DejaVuSans-74" x="78.710938"/>
      <use xlink:href="#DejaVuSans-68" x="117.919922"/>
      <use xlink:href="#DejaVuSans-65" x="181.298828"/>
      <use xlink:href="#DejaVuSans-72" x="242.822266"/>
     </g>
    </g>
    <g id="line2d_33">
     <path d="M 86.13 162.146953 
L 102.63 162.146953 
L 119.13 162.146953 
" style="fill: none; stroke: #173017; stroke-width: 4; stroke-linecap: round"/>
     <g>
      <use xlink:href="#m3a244058fa" x="102.63" y="162.146953" style="fill: #173017; stroke: #173017"/>
     </g>
    </g>
    <g id="text_28">
     <!-- Transformer -->
     <g style="fill: #262626" transform="translate(132.33 167.921953) scale(0.165 -0.165)">
      <defs>
       <path id="DejaVuSans-54" d="M -19 4666 
L 3928 4666 
L 3928 4134 
L 2272 4134 
L 2272 0 
L 1638 0 
L 1638 4134 
L -19 4134 
L -19 4666 
z
" transform="scale(0.015625)"/>
       <path id="DejaVuSans-66" d="M 2375 4863 
L 2375 4384 
L 1825 4384 
Q 1516 4384 1395 4259 
Q 1275 4134 1275 3809 
L 1275 3500 
L 2222 3500 
L 2222 3053 
L 1275 3053 
L 1275 0 
L 697 0 
L 697 3053 
L 147 3053 
L 147 3500 
L 697 3500 
L 697 3744 
Q 697 4328 969 4595 
Q 1241 4863 1831 4863 
L 2375 4863 
z
" transform="scale(0.015625)"/>
      </defs>
      <use xlink:href="#DejaVuSans-54"/>
      <use xlink:href="#DejaVuSans-72" x="46.333984"/>
      <use xlink:href="#DejaVuSans-61" x="87.447266"/>
      <use xlink:href="#DejaVuSans-6e" x="148.726562"/>
      <use xlink:href="#DejaVuSans-73" x="212.105469"/>
      <use xlink:href="#DejaVuSans-66" x="264.205078"/>
      <use xlink:href="#DejaVuSans-6f" x="299.410156"/>
      <use xlink:href="#DejaVuSans-72" x="360.591797"/>
      <use xlink:href="#DejaVuSans-6d" x="399.955078"/>
      <use xlink:href="#DejaVuSans-65" x="497.367188"/>
      <use xlink:href="#DejaVuSans-72" x="558.890625"/>
     </g>
    </g>
    <g id="line2d_34">
     <path d="M 86.13 186.365859 
L 102.63 186.365859 
L 119.13 186.365859 
" style="fill: none; stroke: #a0e701; stroke-width: 4; stroke-linecap: round"/>
     <g>
      <use xlink:href="#m142ffce959" x="102.63" y="186.365859" style="fill: #a0e701; stroke: #a0e701"/>
     </g>
    </g>
    <g id="text_29">
     <!-- Visible neural network -->
     <g style="fill: #262626" transform="translate(132.33 192.140859) scale(0.165 -0.165)">
      <defs>
       <path id="DejaVuSans-56" d="M 1831 0 
L 50 4666 
L 709 4666 
L 2188 738 
L 3669 4666 
L 4325 4666 
L 2547 0 
L 1831 0 
z
" transform="scale(0.015625)"/>
       <path id="DejaVuSans-62" d="M 3116 1747 
Q 3116 2381 2855 2742 
Q 2594 3103 2138 3103 
Q 1681 3103 1420 2742 
Q 1159 2381 1159 1747 
Q 1159 1113 1420 752 
Q 1681 391 2138 391 
Q 2594 391 2855 752 
Q 3116 1113 3116 1747 
z
M 1159 2969 
Q 1341 3281 1617 3432 
Q 1894 3584 2278 3584 
Q 2916 3584 3314 3078 
Q 3713 2572 3713 1747 
Q 3713 922 3314 415 
Q 2916 -91 2278 -91 
Q 1894 -91 1617 61 
Q 1341 213 1159 525 
L 1159 0 
L 581 0 
L 581 4863 
L 1159 4863 
L 1159 2969 
z
" transform="scale(0.015625)"/>
      </defs>
      <use xlink:href="#DejaVuSans-56"/>
      <use xlink:href="#DejaVuSans-69" x="66.158203"/>
      <use xlink:href="#DejaVuSans-73" x="93.941406"/>
      <use xlink:href="#DejaVuSans-69" x="146.041016"/>
      <use xlink:href="#DejaVuSans-62" x="173.824219"/>
      <use xlink:href="#DejaVuSans-6c" x="237.300781"/>
      <use xlink:href="#DejaVuSans-65" x="265.083984"/>
      <use xlink:href="#DejaVuSans-20" x="326.607422"/>
      <use xlink:href="#DejaVuSans-6e" x="358.394531"/>
      <use xlink:href="#DejaVuSans-65" x="421.773438"/>
      <use xlink:href="#DejaVuSans-75" x="483.296875"/>
      <use xlink:href="#DejaVuSans-72" x="546.675781"/>
      <use xlink:href="#DejaVuSans-61" x="587.789062"/>
      <use xlink:href="#DejaVuSans-6c" x="649.068359"/>
      <use xlink:href="#DejaVuSans-20" x="676.851562"/>
      <use xlink:href="#DejaVuSans-6e" x="708.638672"/>
      <use xlink:href="#DejaVuSans-65" x="772.017578"/>
      <use xlink:href="#DejaVuSans-74" x="833.541016"/>
      <use xlink:href="#DejaVuSans-77" x="872.75"/>
      <use xlink:href="#DejaVuSans-6f" x="954.537109"/>
      <use xlink:href="#DejaVuSans-72" x="1015.71875"/>
      <use xlink:href="#DejaVuSans-6b" x="1056.832031"/>
     </g>
    </g>
   </g>
  </g>
 </g>
 <defs>
  <clipPath id="p4d29ab5d72">
   <rect x="71.28" y="19.44" width="773.28" height="464.846974"/>
  </clipPath>
 </defs>
</svg>
