<?xml version="1.0" encoding="utf-8" standalone="no"?>
<!DOCTYPE svg PUBLIC "-//W3C//DTD SVG 1.1//EN"
  "http://www.w3.org/Graphics/SVG/1.1/DTD/svg11.dtd">
<svg xmlns:xlink="http://www.w3.org/1999/xlink" width="720pt" height="720pt" viewBox="0 0 720 720" xmlns="http://www.w3.org/2000/svg" version="1.1">
 <metadata>
  <rdf:RDF xmlns:dc="http://purl.org/dc/elements/1.1/" xmlns:cc="http://creativecommons.org/ns#" xmlns:rdf="http://www.w3.org/1999/02/22-rdf-syntax-ns#">
   <cc:Work>
    <dc:type rdf:resource="http://purl.org/dc/dcmitype/StillImage"/>
    <dc:date>2023-11-09T12:58:22.584002</dc:date>
    <dc:format>image/svg+xml</dc:format>
    <dc:creator>
     <cc:Agent>
      <dc:title>Matplotlib v3.8.0, https://matplotlib.org/</dc:title>
     </cc:Agent>
    </dc:creator>
   </cc:Work>
  </rdf:RDF>
 </metadata>
 <defs>
  <style type="text/css">*{stroke-linejoin: round; stroke-linecap: butt}</style>
 </defs>
 <g id="figure_1">
  <g id="patch_1">
   <path d="M 0 720 
L 720 720 
L 720 0 
L 0 0 
z
" style="fill: #ffffff"/>
  </g>
  <g id="axes_1">
   <g id="patch_2">
    <path d="M 255.776 553.684 
L 551.002667 553.684 
L 551.002667 198.817333 
L 255.776 198.817333 
z
" style="fill: #ffffff"/>
   </g>
   <g id="matplotlib.axis_1">
    <g id="xtick_1">
     <g id="text_1">
      <!-- permutation -->
      <g style="fill: #262626" transform="translate(291.7048 637.863687) rotate(-90) scale(0.121 -0.121)">
       <defs>
        <path id="DejaVuSans-70" d="M 1159 525 
L 1159 -1331 
L 581 -1331 
L 581 3500 
L 1159 3500 
L 1159 2969 
Q 1341 3281 1617 3432 
Q 1894 3584 2278 3584 
Q 2916 3584 3314 3078 
Q 3713 2572 3713 1747 
Q 3713 922 3314 415 
Q 2916 -91 2278 -91 
Q 1894 -91 1617 61 
Q 1341 213 1159 525 
z
M 3116 1747 
Q 3116 2381 2855 2742 
Q 2594 3103 2138 3103 
Q 1681 3103 1420 2742 
Q 1159 2381 1159 1747 
Q 1159 1113 1420 752 
Q 1681 391 2138 391 
Q 2594 391 2855 752 
Q 3116 1113 3116 1747 
z
" transform="scale(0.015625)"/>
        <path id="DejaVuSans-65" d="M 3597 1894 
L 3597 1613 
L 953 1613 
Q 991 1019 1311 708 
Q 1631 397 2203 397 
Q 2534 397 2845 478 
Q 3156 559 3463 722 
L 3463 178 
Q 3153 47 2828 -22 
Q 2503 -91 2169 -91 
Q 1331 -91 842 396 
Q 353 884 353 1716 
Q 353 2575 817 3079 
Q 1281 3584 2069 3584 
Q 2775 3584 3186 3129 
Q 3597 2675 3597 1894 
z
M 3022 2063 
Q 3016 2534 2758 2815 
Q 2500 3097 2075 3097 
Q 1594 3097 1305 2825 
Q 1016 2553 972 2059 
L 3022 2063 
z
" transform="scale(0.015625)"/>
        <path id="DejaVuSans-72" d="M 2631 2963 
Q 2534 3019 2420 3045 
Q 2306 3072 2169 3072 
Q 1681 3072 1420 2755 
Q 1159 2438 1159 1844 
L 1159 0 
L 581 0 
L 581 3500 
L 1159 3500 
L 1159 2956 
Q 1341 3275 1631 3429 
Q 1922 3584 2338 3584 
Q 2397 3584 2469 3576 
Q 2541 3569 2628 3553 
L 2631 2963 
z
" transform="scale(0.015625)"/>
        <path id="DejaVuSans-6d" d="M 3328 2828 
Q 3544 3216 3844 3400 
Q 4144 3584 4550 3584 
Q 5097 3584 5394 3201 
Q 5691 2819 5691 2113 
L 5691 0 
L 5113 0 
L 5113 2094 
Q 5113 2597 4934 2840 
Q 4756 3084 4391 3084 
Q 3944 3084 3684 2787 
Q 3425 2491 3425 1978 
L 3425 0 
L 2847 0 
L 2847 2094 
Q 2847 2600 2669 2842 
Q 2491 3084 2119 3084 
Q 1678 3084 1418 2786 
Q 1159 2488 1159 1978 
L 1159 0 
L 581 0 
L 581 3500 
L 1159 3500 
L 1159 2956 
Q 1356 3278 1631 3431 
Q 1906 3584 2284 3584 
Q 2666 3584 2933 3390 
Q 3200 3197 3328 2828 
z
" transform="scale(0.015625)"/>
        <path id="DejaVuSans-75" d="M 544 1381 
L 544 3500 
L 1119 3500 
L 1119 1403 
Q 1119 906 1312 657 
Q 1506 409 1894 409 
Q 2359 409 2629 706 
Q 2900 1003 2900 1516 
L 2900 3500 
L 3475 3500 
L 3475 0 
L 2900 0 
L 2900 538 
Q 2691 219 2414 64 
Q 2138 -91 1772 -91 
Q 1169 -91 856 284 
Q 544 659 544 1381 
z
M 1991 3584 
L 1991 3584 
z
" transform="scale(0.015625)"/>
        <path id="DejaVuSans-74" d="M 1172 4494 
L 1172 3500 
L 2356 3500 
L 2356 3053 
L 1172 3053 
L 1172 1153 
Q 1172 725 1289 603 
Q 1406 481 1766 481 
L 2356 481 
L 2356 0 
L 1766 0 
Q 1100 0 847 248 
Q 594 497 594 1153 
L 594 3053 
L 172 3053 
L 172 3500 
L 594 3500 
L 594 4494 
L 1172 4494 
z
" transform="scale(0.015625)"/>
        <path id="DejaVuSans-61" d="M 2194 1759 
Q 1497 1759 1228 1600 
Q 959 1441 959 1056 
Q 959 750 1161 570 
Q 1363 391 1709 391 
Q 2188 391 2477 730 
Q 2766 1069 2766 1631 
L 2766 1759 
L 2194 1759 
z
M 3341 1997 
L 3341 0 
L 2766 0 
L 2766 531 
Q 2569 213 2275 61 
Q 1981 -91 1556 -91 
Q 1019 -91 701 211 
Q 384 513 384 1019 
Q 384 1609 779 1909 
Q 1175 2209 1959 2209 
L 2766 2209 
L 2766 2266 
Q 2766 2663 2505 2880 
Q 2244 3097 1772 3097 
Q 1472 3097 1187 3025 
Q 903 2953 641 2809 
L 641 3341 
Q 956 3463 1253 3523 
Q 1550 3584 1831 3584 
Q 2591 3584 2966 3190 
Q 3341 2797 3341 1997 
z
" transform="scale(0.015625)"/>
        <path id="DejaVuSans-69" d="M 603 3500 
L 1178 3500 
L 1178 0 
L 603 0 
L 603 3500 
z
M 603 4863 
L 1178 4863 
L 1178 4134 
L 603 4134 
L 603 4863 
z
" transform="scale(0.015625)"/>
        <path id="DejaVuSans-6f" d="M 1959 3097 
Q 1497 3097 1228 2736 
Q 959 2375 959 1747 
Q 959 1119 1226 758 
Q 1494 397 1959 397 
Q 2419 397 2687 759 
Q 2956 1122 2956 1747 
Q 2956 2369 2687 2733 
Q 2419 3097 1959 3097 
z
M 1959 3584 
Q 2709 3584 3137 3096 
Q 3566 2609 3566 1747 
Q 3566 888 3137 398 
Q 2709 -91 1959 -91 
Q 1206 -91 779 398 
Q 353 888 353 1747 
Q 353 2609 779 3096 
Q 1206 3584 1959 3584 
z
" transform="scale(0.015625)"/>
        <path id="DejaVuSans-6e" d="M 3513 2113 
L 3513 0 
L 2938 0 
L 2938 2094 
Q 2938 2591 2744 2837 
Q 2550 3084 2163 3084 
Q 1697 3084 1428 2787 
Q 1159 2491 1159 1978 
L 1159 0 
L 581 0 
L 581 3500 
L 1159 3500 
L 1159 2956 
Q 1366 3272 1645 3428 
Q 1925 3584 2291 3584 
Q 2894 3584 3203 3211 
Q 3513 2838 3513 2113 
z
" transform="scale(0.015625)"/>
       </defs>
       <use xlink:href="#DejaVuSans-70"/>
       <use xlink:href="#DejaVuSans-65" x="63.476562"/>
       <use xlink:href="#DejaVuSans-72" x="125"/>
       <use xlink:href="#DejaVuSans-6d" x="164.363281"/>
       <use xlink:href="#DejaVuSans-75" x="261.775391"/>
       <use xlink:href="#DejaVuSans-74" x="325.154297"/>
       <use xlink:href="#DejaVuSans-61" x="364.363281"/>
       <use xlink:href="#DejaVuSans-74" x="425.642578"/>
       <use xlink:href="#DejaVuSans-69" x="464.851562"/>
       <use xlink:href="#DejaVuSans-6f" x="492.634766"/>
       <use xlink:href="#DejaVuSans-6e" x="553.816406"/>
      </g>
     </g>
    </g>
    <g id="xtick_2">
     <g id="text_2">
      <!-- game theory -->
      <g style="fill: #262626" transform="translate(330.045926 640.754453) rotate(-90) scale(0.121 -0.121)">
       <defs>
        <path id="DejaVuSans-67" d="M 2906 1791 
Q 2906 2416 2648 2759 
Q 2391 3103 1925 3103 
Q 1463 3103 1205 2759 
Q 947 2416 947 1791 
Q 947 1169 1205 825 
Q 1463 481 1925 481 
Q 2391 481 2648 825 
Q 2906 1169 2906 1791 
z
M 3481 434 
Q 3481 -459 3084 -895 
Q 2688 -1331 1869 -1331 
Q 1566 -1331 1297 -1286 
Q 1028 -1241 775 -1147 
L 775 -588 
Q 1028 -725 1275 -790 
Q 1522 -856 1778 -856 
Q 2344 -856 2625 -561 
Q 2906 -266 2906 331 
L 2906 616 
Q 2728 306 2450 153 
Q 2172 0 1784 0 
Q 1141 0 747 490 
Q 353 981 353 1791 
Q 353 2603 747 3093 
Q 1141 3584 1784 3584 
Q 2172 3584 2450 3431 
Q 2728 3278 2906 2969 
L 2906 3500 
L 3481 3500 
L 3481 434 
z
" transform="scale(0.015625)"/>
        <path id="DejaVuSans-20" transform="scale(0.015625)"/>
        <path id="DejaVuSans-68" d="M 3513 2113 
L 3513 0 
L 2938 0 
L 2938 2094 
Q 2938 2591 2744 2837 
Q 2550 3084 2163 3084 
Q 1697 3084 1428 2787 
Q 1159 2491 1159 1978 
L 1159 0 
L 581 0 
L 581 4863 
L 1159 4863 
L 1159 2956 
Q 1366 3272 1645 3428 
Q 1925 3584 2291 3584 
Q 2894 3584 3203 3211 
Q 3513 2838 3513 2113 
z
" transform="scale(0.015625)"/>
        <path id="DejaVuSans-79" d="M 2059 -325 
Q 1816 -950 1584 -1140 
Q 1353 -1331 966 -1331 
L 506 -1331 
L 506 -850 
L 844 -850 
Q 1081 -850 1212 -737 
Q 1344 -625 1503 -206 
L 1606 56 
L 191 3500 
L 800 3500 
L 1894 763 
L 2988 3500 
L 3597 3500 
L 2059 -325 
z
" transform="scale(0.015625)"/>
       </defs>
       <use xlink:href="#DejaVuSans-67"/>
       <use xlink:href="#DejaVuSans-61" x="63.476562"/>
       <use xlink:href="#DejaVuSans-6d" x="124.755859"/>
       <use xlink:href="#DejaVuSans-65" x="222.167969"/>
       <use xlink:href="#DejaVuSans-20" x="283.691406"/>
       <use xlink:href="#DejaVuSans-74" x="315.478516"/>
       <use xlink:href="#DejaVuSans-68" x="354.6875"/>
       <use xlink:href="#DejaVuSans-65" x="418.066406"/>
       <use xlink:href="#DejaVuSans-6f" x="479.589844"/>
       <use xlink:href="#DejaVuSans-72" x="540.771484"/>
       <use xlink:href="#DejaVuSans-79" x="581.884766"/>
      </g>
     </g>
    </g>
    <g id="xtick_3">
     <g id="text_3">
      <!-- other -->
      <g style="fill: #262626" transform="translate(368.387052 595.419156) rotate(-90) scale(0.121 -0.121)">
       <use xlink:href="#DejaVuSans-6f"/>
       <use xlink:href="#DejaVuSans-74" x="61.181641"/>
       <use xlink:href="#DejaVuSans-68" x="100.390625"/>
       <use xlink:href="#DejaVuSans-65" x="163.769531"/>
       <use xlink:href="#DejaVuSans-72" x="225.292969"/>
      </g>
     </g>
    </g>
    <g id="xtick_4">
     <g id="text_4">
      <!-- backpropagation-based -->
      <g style="fill: #262626" transform="translate(406.728177 705.990469) rotate(-90) scale(0.121 -0.121)">
       <defs>
        <path id="DejaVuSans-62" d="M 3116 1747 
Q 3116 2381 2855 2742 
Q 2594 3103 2138 3103 
Q 1681 3103 1420 2742 
Q 1159 2381 1159 1747 
Q 1159 1113 1420 752 
Q 1681 391 2138 391 
Q 2594 391 2855 752 
Q 3116 1113 3116 1747 
z
M 1159 2969 
Q 1341 3281 1617 3432 
Q 1894 3584 2278 3584 
Q 2916 3584 3314 3078 
Q 3713 2572 3713 1747 
Q 3713 922 3314 415 
Q 2916 -91 2278 -91 
Q 1894 -91 1617 61 
Q 1341 213 1159 525 
L 1159 0 
L 581 0 
L 581 4863 
L 1159 4863 
L 1159 2969 
z
" transform="scale(0.015625)"/>
        <path id="DejaVuSans-63" d="M 3122 3366 
L 3122 2828 
Q 2878 2963 2633 3030 
Q 2388 3097 2138 3097 
Q 1578 3097 1268 2742 
Q 959 2388 959 1747 
Q 959 1106 1268 751 
Q 1578 397 2138 397 
Q 2388 397 2633 464 
Q 2878 531 3122 666 
L 3122 134 
Q 2881 22 2623 -34 
Q 2366 -91 2075 -91 
Q 1284 -91 818 406 
Q 353 903 353 1747 
Q 353 2603 823 3093 
Q 1294 3584 2113 3584 
Q 2378 3584 2631 3529 
Q 2884 3475 3122 3366 
z
" transform="scale(0.015625)"/>
        <path id="DejaVuSans-6b" d="M 581 4863 
L 1159 4863 
L 1159 1991 
L 2875 3500 
L 3609 3500 
L 1753 1863 
L 3688 0 
L 2938 0 
L 1159 1709 
L 1159 0 
L 581 0 
L 581 4863 
z
" transform="scale(0.015625)"/>
        <path id="DejaVuSans-2d" d="M 313 2009 
L 1997 2009 
L 1997 1497 
L 313 1497 
L 313 2009 
z
" transform="scale(0.015625)"/>
        <path id="DejaVuSans-73" d="M 2834 3397 
L 2834 2853 
Q 2591 2978 2328 3040 
Q 2066 3103 1784 3103 
Q 1356 3103 1142 2972 
Q 928 2841 928 2578 
Q 928 2378 1081 2264 
Q 1234 2150 1697 2047 
L 1894 2003 
Q 2506 1872 2764 1633 
Q 3022 1394 3022 966 
Q 3022 478 2636 193 
Q 2250 -91 1575 -91 
Q 1294 -91 989 -36 
Q 684 19 347 128 
L 347 722 
Q 666 556 975 473 
Q 1284 391 1588 391 
Q 1994 391 2212 530 
Q 2431 669 2431 922 
Q 2431 1156 2273 1281 
Q 2116 1406 1581 1522 
L 1381 1569 
Q 847 1681 609 1914 
Q 372 2147 372 2553 
Q 372 3047 722 3315 
Q 1072 3584 1716 3584 
Q 2034 3584 2315 3537 
Q 2597 3491 2834 3397 
z
" transform="scale(0.015625)"/>
        <path id="DejaVuSans-64" d="M 2906 2969 
L 2906 4863 
L 3481 4863 
L 3481 0 
L 2906 0 
L 2906 525 
Q 2725 213 2448 61 
Q 2172 -91 1784 -91 
Q 1150 -91 751 415 
Q 353 922 353 1747 
Q 353 2572 751 3078 
Q 1150 3584 1784 3584 
Q 2172 3584 2448 3432 
Q 2725 3281 2906 2969 
z
M 947 1747 
Q 947 1113 1208 752 
Q 1469 391 1925 391 
Q 2381 391 2643 752 
Q 2906 1113 2906 1747 
Q 2906 2381 2643 2742 
Q 2381 3103 1925 3103 
Q 1469 3103 1208 2742 
Q 947 2381 947 1747 
z
" transform="scale(0.015625)"/>
       </defs>
       <use xlink:href="#DejaVuSans-62"/>
       <use xlink:href="#DejaVuSans-61" x="63.476562"/>
       <use xlink:href="#DejaVuSans-63" x="124.755859"/>
       <use xlink:href="#DejaVuSans-6b" x="179.736328"/>
       <use xlink:href="#DejaVuSans-70" x="237.646484"/>
       <use xlink:href="#DejaVuSans-72" x="301.123047"/>
       <use xlink:href="#DejaVuSans-6f" x="339.986328"/>
       <use xlink:href="#DejaVuSans-70" x="401.167969"/>
       <use xlink:href="#DejaVuSans-61" x="464.644531"/>
       <use xlink:href="#DejaVuSans-67" x="525.923828"/>
       <use xlink:href="#DejaVuSans-61" x="589.400391"/>
       <use xlink:href="#DejaVuSans-74" x="650.679688"/>
       <use xlink:href="#DejaVuSans-69" x="689.888672"/>
       <use xlink:href="#DejaVuSans-6f" x="717.671875"/>
       <use xlink:href="#DejaVuSans-6e" x="778.853516"/>
       <use xlink:href="#DejaVuSans-2d" x="842.232422"/>
       <use xlink:href="#DejaVuSans-62" x="878.316406"/>
       <use xlink:href="#DejaVuSans-61" x="941.792969"/>
       <use xlink:href="#DejaVuSans-73" x="1003.072266"/>
       <use xlink:href="#DejaVuSans-65" x="1055.171875"/>
       <use xlink:href="#DejaVuSans-64" x="1116.695312"/>
      </g>
     </g>
    </g>
    <g id="xtick_5">
     <g id="text_5">
      <!-- attention -->
      <g style="fill: #262626" transform="translate(445.069303 618.377016) rotate(-90) scale(0.121 -0.121)">
       <use xlink:href="#DejaVuSans-61"/>
       <use xlink:href="#DejaVuSans-74" x="61.279297"/>
       <use xlink:href="#DejaVuSans-74" x="100.488281"/>
       <use xlink:href="#DejaVuSans-65" x="139.697266"/>
       <use xlink:href="#DejaVuSans-6e" x="201.220703"/>
       <use xlink:href="#DejaVuSans-74" x="264.599609"/>
       <use xlink:href="#DejaVuSans-69" x="303.808594"/>
       <use xlink:href="#DejaVuSans-6f" x="331.591797"/>
       <use xlink:href="#DejaVuSans-6e" x="392.773438"/>
      </g>
     </g>
    </g>
    <g id="xtick_6">
     <g id="text_6">
      <!-- perturbation -->
      <g style="fill: #262626" transform="translate(483.410428 638.945125) rotate(-90) scale(0.121 -0.121)">
       <use xlink:href="#DejaVuSans-70"/>
       <use xlink:href="#DejaVuSans-65" x="63.476562"/>
       <use xlink:href="#DejaVuSans-72" x="125"/>
       <use xlink:href="#DejaVuSans-74" x="166.113281"/>
       <use xlink:href="#DejaVuSans-75" x="205.322266"/>
       <use xlink:href="#DejaVuSans-72" x="268.701172"/>
       <use xlink:href="#DejaVuSans-62" x="309.814453"/>
       <use xlink:href="#DejaVuSans-61" x="373.291016"/>
       <use xlink:href="#DejaVuSans-74" x="434.570312"/>
       <use xlink:href="#DejaVuSans-69" x="473.779297"/>
       <use xlink:href="#DejaVuSans-6f" x="501.5625"/>
       <use xlink:href="#DejaVuSans-6e" x="562.744141"/>
      </g>
     </g>
    </g>
    <g id="xtick_7">
     <g id="text_7">
      <!-- nan -->
      <g style="fill: #262626" transform="translate(521.751554 585.935781) rotate(-90) scale(0.121 -0.121)">
       <use xlink:href="#DejaVuSans-6e"/>
       <use xlink:href="#DejaVuSans-61" x="63.378906"/>
       <use xlink:href="#DejaVuSans-6e" x="124.658203"/>
      </g>
     </g>
    </g>
   </g>
   <g id="matplotlib.axis_2">
    <g id="ytick_1">
     <g id="text_8">
      <!-- Autoencoder -->
      <g style="fill: #262626" transform="translate(168.911625 239.70757) scale(0.121 -0.121)">
       <defs>
        <path id="DejaVuSans-41" d="M 2188 4044 
L 1331 1722 
L 3047 1722 
L 2188 4044 
z
M 1831 4666 
L 2547 4666 
L 4325 0 
L 3669 0 
L 3244 1197 
L 1141 1197 
L 716 0 
L 50 0 
L 1831 4666 
z
" transform="scale(0.015625)"/>
       </defs>
       <use xlink:href="#DejaVuSans-41"/>
       <use xlink:href="#DejaVuSans-75" x="68.408203"/>
       <use xlink:href="#DejaVuSans-74" x="131.787109"/>
       <use xlink:href="#DejaVuSans-6f" x="170.996094"/>
       <use xlink:href="#DejaVuSans-65" x="232.177734"/>
       <use xlink:href="#DejaVuSans-6e" x="293.701172"/>
       <use xlink:href="#DejaVuSans-63" x="357.080078"/>
       <use xlink:href="#DejaVuSans-6f" x="412.060547"/>
       <use xlink:href="#DejaVuSans-64" x="473.242188"/>
       <use xlink:href="#DejaVuSans-65" x="536.71875"/>
       <use xlink:href="#DejaVuSans-72" x="598.242188"/>
      </g>
     </g>
    </g>
    <g id="ytick_2">
     <g id="text_9">
      <!-- Generative adversarial network (GAN) -->
      <g style="fill: #262626" transform="translate(14.910766 280.033327) scale(0.121 -0.121)">
       <defs>
        <path id="DejaVuSans-47" d="M 3809 666 
L 3809 1919 
L 2778 1919 
L 2778 2438 
L 4434 2438 
L 4434 434 
Q 4069 175 3628 42 
Q 3188 -91 2688 -91 
Q 1594 -91 976 548 
Q 359 1188 359 2328 
Q 359 3472 976 4111 
Q 1594 4750 2688 4750 
Q 3144 4750 3555 4637 
Q 3966 4525 4313 4306 
L 4313 3634 
Q 3963 3931 3569 4081 
Q 3175 4231 2741 4231 
Q 1884 4231 1454 3753 
Q 1025 3275 1025 2328 
Q 1025 1384 1454 906 
Q 1884 428 2741 428 
Q 3075 428 3337 486 
Q 3600 544 3809 666 
z
" transform="scale(0.015625)"/>
        <path id="DejaVuSans-76" d="M 191 3500 
L 800 3500 
L 1894 563 
L 2988 3500 
L 3597 3500 
L 2284 0 
L 1503 0 
L 191 3500 
z
" transform="scale(0.015625)"/>
        <path id="DejaVuSans-6c" d="M 603 4863 
L 1178 4863 
L 1178 0 
L 603 0 
L 603 4863 
z
" transform="scale(0.015625)"/>
        <path id="DejaVuSans-77" d="M 269 3500 
L 844 3500 
L 1563 769 
L 2278 3500 
L 2956 3500 
L 3675 769 
L 4391 3500 
L 4966 3500 
L 4050 0 
L 3372 0 
L 2619 2869 
L 1863 0 
L 1184 0 
L 269 3500 
z
" transform="scale(0.015625)"/>
        <path id="DejaVuSans-28" d="M 1984 4856 
Q 1566 4138 1362 3434 
Q 1159 2731 1159 2009 
Q 1159 1288 1364 580 
Q 1569 -128 1984 -844 
L 1484 -844 
Q 1016 -109 783 600 
Q 550 1309 550 2009 
Q 550 2706 781 3412 
Q 1013 4119 1484 4856 
L 1984 4856 
z
" transform="scale(0.015625)"/>
        <path id="DejaVuSans-4e" d="M 628 4666 
L 1478 4666 
L 3547 763 
L 3547 4666 
L 4159 4666 
L 4159 0 
L 3309 0 
L 1241 3903 
L 1241 0 
L 628 0 
L 628 4666 
z
" transform="scale(0.015625)"/>
        <path id="DejaVuSans-29" d="M 513 4856 
L 1013 4856 
Q 1481 4119 1714 3412 
Q 1947 2706 1947 2009 
Q 1947 1309 1714 600 
Q 1481 -109 1013 -844 
L 513 -844 
Q 928 -128 1133 580 
Q 1338 1288 1338 2009 
Q 1338 2731 1133 3434 
Q 928 4138 513 4856 
z
" transform="scale(0.015625)"/>
       </defs>
       <use xlink:href="#DejaVuSans-47"/>
       <use xlink:href="#DejaVuSans-65" x="77.490234"/>
       <use xlink:href="#DejaVuSans-6e" x="139.013672"/>
       <use xlink:href="#DejaVuSans-65" x="202.392578"/>
       <use xlink:href="#DejaVuSans-72" x="263.916016"/>
       <use xlink:href="#DejaVuSans-61" x="305.029297"/>
       <use xlink:href="#DejaVuSans-74" x="366.308594"/>
       <use xlink:href="#DejaVuSans-69" x="405.517578"/>
       <use xlink:href="#DejaVuSans-76" x="433.300781"/>
       <use xlink:href="#DejaVuSans-65" x="492.480469"/>
       <use xlink:href="#DejaVuSans-20" x="554.003906"/>
       <use xlink:href="#DejaVuSans-61" x="585.791016"/>
       <use xlink:href="#DejaVuSans-64" x="647.070312"/>
       <use xlink:href="#DejaVuSans-76" x="710.546875"/>
       <use xlink:href="#DejaVuSans-65" x="769.726562"/>
       <use xlink:href="#DejaVuSans-72" x="831.25"/>
       <use xlink:href="#DejaVuSans-73" x="872.363281"/>
       <use xlink:href="#DejaVuSans-61" x="924.462891"/>
       <use xlink:href="#DejaVuSans-72" x="985.742188"/>
       <use xlink:href="#DejaVuSans-69" x="1026.855469"/>
       <use xlink:href="#DejaVuSans-61" x="1054.638672"/>
       <use xlink:href="#DejaVuSans-6c" x="1115.917969"/>
       <use xlink:href="#DejaVuSans-20" x="1143.701172"/>
       <use xlink:href="#DejaVuSans-6e" x="1175.488281"/>
       <use xlink:href="#DejaVuSans-65" x="1238.867188"/>
       <use xlink:href="#DejaVuSans-74" x="1300.390625"/>
       <use xlink:href="#DejaVuSans-77" x="1339.599609"/>
       <use xlink:href="#DejaVuSans-6f" x="1421.386719"/>
       <use xlink:href="#DejaVuSans-72" x="1482.568359"/>
       <use xlink:href="#DejaVuSans-6b" x="1523.681641"/>
       <use xlink:href="#DejaVuSans-20" x="1581.591797"/>
       <use xlink:href="#DejaVuSans-28" x="1613.378906"/>
       <use xlink:href="#DejaVuSans-47" x="1652.392578"/>
       <use xlink:href="#DejaVuSans-41" x="1729.882812"/>
       <use xlink:href="#DejaVuSans-4e" x="1798.291016"/>
       <use xlink:href="#DejaVuSans-29" x="1873.095703"/>
      </g>
     </g>
    </g>
    <g id="ytick_3">
     <g id="text_10">
      <!-- Graph network -->
      <g style="fill: #262626" transform="translate(156.178266 320.359085) scale(0.121 -0.121)">
       <use xlink:href="#DejaVuSans-47"/>
       <use xlink:href="#DejaVuSans-72" x="77.490234"/>
       <use xlink:href="#DejaVuSans-61" x="118.603516"/>
       <use xlink:href="#DejaVuSans-70" x="179.882812"/>
       <use xlink:href="#DejaVuSans-68" x="243.359375"/>
       <use xlink:href="#DejaVuSans-20" x="306.738281"/>
       <use xlink:href="#DejaVuSans-6e" x="338.525391"/>
       <use xlink:href="#DejaVuSans-65" x="401.904297"/>
       <use xlink:href="#DejaVuSans-74" x="463.427734"/>
       <use xlink:href="#DejaVuSans-77" x="502.636719"/>
       <use xlink:href="#DejaVuSans-6f" x="584.423828"/>
       <use xlink:href="#DejaVuSans-72" x="645.605469"/>
       <use xlink:href="#DejaVuSans-6b" x="686.71875"/>
      </g>
     </g>
    </g>
    <g id="ytick_4">
     <g id="text_11">
      <!-- LSTM -->
      <g style="fill: #262626" transform="translate(214.021938 360.684843) scale(0.121 -0.121)">
       <defs>
        <path id="DejaVuSans-4c" d="M 628 4666 
L 1259 4666 
L 1259 531 
L 3531 531 
L 3531 0 
L 628 0 
L 628 4666 
z
" transform="scale(0.015625)"/>
        <path id="DejaVuSans-53" d="M 3425 4513 
L 3425 3897 
Q 3066 4069 2747 4153 
Q 2428 4238 2131 4238 
Q 1616 4238 1336 4038 
Q 1056 3838 1056 3469 
Q 1056 3159 1242 3001 
Q 1428 2844 1947 2747 
L 2328 2669 
Q 3034 2534 3370 2195 
Q 3706 1856 3706 1288 
Q 3706 609 3251 259 
Q 2797 -91 1919 -91 
Q 1588 -91 1214 -16 
Q 841 59 441 206 
L 441 856 
Q 825 641 1194 531 
Q 1563 422 1919 422 
Q 2459 422 2753 634 
Q 3047 847 3047 1241 
Q 3047 1584 2836 1778 
Q 2625 1972 2144 2069 
L 1759 2144 
Q 1053 2284 737 2584 
Q 422 2884 422 3419 
Q 422 4038 858 4394 
Q 1294 4750 2059 4750 
Q 2388 4750 2728 4690 
Q 3069 4631 3425 4513 
z
" transform="scale(0.015625)"/>
        <path id="DejaVuSans-54" d="M -19 4666 
L 3928 4666 
L 3928 4134 
L 2272 4134 
L 2272 0 
L 1638 0 
L 1638 4134 
L -19 4134 
L -19 4666 
z
" transform="scale(0.015625)"/>
        <path id="DejaVuSans-4d" d="M 628 4666 
L 1569 4666 
L 2759 1491 
L 3956 4666 
L 4897 4666 
L 4897 0 
L 4281 0 
L 4281 4097 
L 3078 897 
L 2444 897 
L 1241 4097 
L 1241 0 
L 628 0 
L 628 4666 
z
" transform="scale(0.015625)"/>
       </defs>
       <use xlink:href="#DejaVuSans-4c"/>
       <use xlink:href="#DejaVuSans-53" x="55.712891"/>
       <use xlink:href="#DejaVuSans-54" x="119.189453"/>
       <use xlink:href="#DejaVuSans-4d" x="180.273438"/>
      </g>
     </g>
    </g>
    <g id="ytick_5">
     <g id="text_12">
      <!-- Neural network -->
      <g style="fill: #262626" transform="translate(153.376359 401.0106) scale(0.121 -0.121)">
       <use xlink:href="#DejaVuSans-4e"/>
       <use xlink:href="#DejaVuSans-65" x="74.804688"/>
       <use xlink:href="#DejaVuSans-75" x="136.328125"/>
       <use xlink:href="#DejaVuSans-72" x="199.707031"/>
       <use xlink:href="#DejaVuSans-61" x="240.820312"/>
       <use xlink:href="#DejaVuSans-6c" x="302.099609"/>
       <use xlink:href="#DejaVuSans-20" x="329.882812"/>
       <use xlink:href="#DejaVuSans-6e" x="361.669922"/>
       <use xlink:href="#DejaVuSans-65" x="425.048828"/>
       <use xlink:href="#DejaVuSans-74" x="486.572266"/>
       <use xlink:href="#DejaVuSans-77" x="525.78125"/>
       <use xlink:href="#DejaVuSans-6f" x="607.568359"/>
       <use xlink:href="#DejaVuSans-72" x="668.75"/>
       <use xlink:href="#DejaVuSans-6b" x="709.863281"/>
      </g>
     </g>
    </g>
    <g id="ytick_6">
     <g id="text_13">
      <!-- Transformer -->
      <g style="fill: #262626" transform="translate(173.677891 441.336358) scale(0.121 -0.121)">
       <defs>
        <path id="DejaVuSans-66" d="M 2375 4863 
L 2375 4384 
L 1825 4384 
Q 1516 4384 1395 4259 
Q 1275 4134 1275 3809 
L 1275 3500 
L 2222 3500 
L 2222 3053 
L 1275 3053 
L 1275 0 
L 697 0 
L 697 3053 
L 147 3053 
L 147 3500 
L 697 3500 
L 697 3744 
Q 697 4328 969 4595 
Q 1241 4863 1831 4863 
L 2375 4863 
z
" transform="scale(0.015625)"/>
       </defs>
       <use xlink:href="#DejaVuSans-54"/>
       <use xlink:href="#DejaVuSans-72" x="46.333984"/>
       <use xlink:href="#DejaVuSans-61" x="87.447266"/>
       <use xlink:href="#DejaVuSans-6e" x="148.726562"/>
       <use xlink:href="#DejaVuSans-73" x="212.105469"/>
       <use xlink:href="#DejaVuSans-66" x="264.205078"/>
       <use xlink:href="#DejaVuSans-6f" x="299.410156"/>
       <use xlink:href="#DejaVuSans-72" x="360.591797"/>
       <use xlink:href="#DejaVuSans-6d" x="399.955078"/>
       <use xlink:href="#DejaVuSans-65" x="497.367188"/>
       <use xlink:href="#DejaVuSans-72" x="558.890625"/>
      </g>
     </g>
    </g>
    <g id="ytick_7">
     <g id="text_14">
      <!-- meta-learning -->
      <g style="fill: #262626" transform="translate(161.156281 481.662115) scale(0.121 -0.121)">
       <use xlink:href="#DejaVuSans-6d"/>
       <use xlink:href="#DejaVuSans-65" x="97.412109"/>
       <use xlink:href="#DejaVuSans-74" x="158.935547"/>
       <use xlink:href="#DejaVuSans-61" x="198.144531"/>
       <use xlink:href="#DejaVuSans-2d" x="259.423828"/>
       <use xlink:href="#DejaVuSans-6c" x="295.507812"/>
       <use xlink:href="#DejaVuSans-65" x="323.291016"/>
       <use xlink:href="#DejaVuSans-61" x="384.814453"/>
       <use xlink:href="#DejaVuSans-72" x="446.09375"/>
       <use xlink:href="#DejaVuSans-6e" x="485.457031"/>
       <use xlink:href="#DejaVuSans-69" x="548.835938"/>
       <use xlink:href="#DejaVuSans-6e" x="576.619141"/>
       <use xlink:href="#DejaVuSans-67" x="639.998047"/>
      </g>
     </g>
    </g>
    <g id="ytick_8">
     <g id="text_15">
      <!-- other -->
      <g style="fill: #262626" transform="translate(214.040844 521.987873) scale(0.121 -0.121)">
       <use xlink:href="#DejaVuSans-6f"/>
       <use xlink:href="#DejaVuSans-74" x="61.181641"/>
       <use xlink:href="#DejaVuSans-68" x="100.390625"/>
       <use xlink:href="#DejaVuSans-65" x="163.769531"/>
       <use xlink:href="#DejaVuSans-72" x="225.292969"/>
      </g>
     </g>
    </g>
   </g>
   <g id="QuadMesh_1">
    <path d="M 269.195394 214.947636 
L 307.536519 214.947636 
L 307.536519 255.273394 
L 269.195394 255.273394 
L 269.195394 214.947636 
" clip-path="url(#pb965fce99d)" style="fill: #b4b4f5"/>
    <path d="M 307.536519 214.947636 
L 345.877645 214.947636 
L 345.877645 255.273394 
L 307.536519 255.273394 
L 307.536519 214.947636 
" clip-path="url(#pb965fce99d)" style="fill: #8d8dff"/>
    <path d="M 345.877645 214.947636 
L 384.218771 214.947636 
L 384.218771 255.273394 
L 345.877645 255.273394 
L 345.877645 214.947636 
" clip-path="url(#pb965fce99d)" style="fill: #b4b4f5"/>
    <path d="M 384.218771 214.947636 
L 422.559896 214.947636 
L 422.559896 255.273394 
L 384.218771 255.273394 
L 384.218771 214.947636 
" clip-path="url(#pb965fce99d)" style="fill: #8686ff"/>
    <path d="M 422.559896 214.947636 
L 460.901022 214.947636 
L 460.901022 255.273394 
L 422.559896 255.273394 
L 422.559896 214.947636 
" clip-path="url(#pb965fce99d)" style="fill: #bbbbf3"/>
    <path d="M 460.901022 214.947636 
L 499.242147 214.947636 
L 499.242147 255.273394 
L 460.901022 255.273394 
L 460.901022 214.947636 
" clip-path="url(#pb965fce99d)" style="fill: #acacf7"/>
    <path d="M 499.242147 214.947636 
L 537.583273 214.947636 
L 537.583273 255.273394 
L 499.242147 255.273394 
L 499.242147 214.947636 
" clip-path="url(#pb965fce99d)" style="fill: none"/>
    <path d="M 269.195394 255.273394 
L 307.536519 255.273394 
L 307.536519 295.599152 
L 269.195394 295.599152 
L 269.195394 255.273394 
" clip-path="url(#pb965fce99d)" style="fill: none"/>
    <path d="M 307.536519 255.273394 
L 345.877645 255.273394 
L 345.877645 295.599152 
L 307.536519 295.599152 
L 307.536519 255.273394 
" clip-path="url(#pb965fce99d)" style="fill: #bbbbf3"/>
    <path d="M 345.877645 255.273394 
L 384.218771 255.273394 
L 384.218771 295.599152 
L 345.877645 295.599152 
L 345.877645 255.273394 
" clip-path="url(#pb965fce99d)" style="fill: none"/>
    <path d="M 384.218771 255.273394 
L 422.559896 255.273394 
L 422.559896 295.599152 
L 384.218771 295.599152 
L 384.218771 255.273394 
" clip-path="url(#pb965fce99d)" style="fill: none"/>
    <path d="M 422.559896 255.273394 
L 460.901022 255.273394 
L 460.901022 295.599152 
L 422.559896 295.599152 
L 422.559896 255.273394 
" clip-path="url(#pb965fce99d)" style="fill: none"/>
    <path d="M 460.901022 255.273394 
L 499.242147 255.273394 
L 499.242147 295.599152 
L 460.901022 295.599152 
L 460.901022 255.273394 
" clip-path="url(#pb965fce99d)" style="fill: none"/>
    <path d="M 499.242147 255.273394 
L 537.583273 255.273394 
L 537.583273 295.599152 
L 499.242147 295.599152 
L 499.242147 255.273394 
" clip-path="url(#pb965fce99d)" style="fill: none"/>
    <path d="M 269.195394 295.599152 
L 307.536519 295.599152 
L 307.536519 335.924909 
L 269.195394 335.924909 
L 269.195394 295.599152 
" clip-path="url(#pb965fce99d)" style="fill: #bbbbf3"/>
    <path d="M 307.536519 295.599152 
L 345.877645 295.599152 
L 345.877645 335.924909 
L 307.536519 335.924909 
L 307.536519 295.599152 
" clip-path="url(#pb965fce99d)" style="fill: #bbbbf3"/>
    <path d="M 345.877645 295.599152 
L 384.218771 295.599152 
L 384.218771 335.924909 
L 345.877645 335.924909 
L 345.877645 295.599152 
" clip-path="url(#pb965fce99d)" style="fill: #bbbbf3"/>
    <path d="M 384.218771 295.599152 
L 422.559896 295.599152 
L 422.559896 335.924909 
L 384.218771 335.924909 
L 384.218771 295.599152 
" clip-path="url(#pb965fce99d)" style="fill: #9595fd"/>
    <path d="M 422.559896 295.599152 
L 460.901022 295.599152 
L 460.901022 335.924909 
L 422.559896 335.924909 
L 422.559896 295.599152 
" clip-path="url(#pb965fce99d)" style="fill: #bbbbf3"/>
    <path d="M 460.901022 295.599152 
L 499.242147 295.599152 
L 499.242147 335.924909 
L 460.901022 335.924909 
L 460.901022 295.599152 
" clip-path="url(#pb965fce99d)" style="fill: #bbbbf3"/>
    <path d="M 499.242147 295.599152 
L 537.583273 295.599152 
L 537.583273 335.924909 
L 499.242147 335.924909 
L 499.242147 295.599152 
" clip-path="url(#pb965fce99d)" style="fill: none"/>
    <path d="M 269.195394 335.924909 
L 307.536519 335.924909 
L 307.536519 376.250667 
L 269.195394 376.250667 
L 269.195394 335.924909 
" clip-path="url(#pb965fce99d)" style="fill: none"/>
    <path d="M 307.536519 335.924909 
L 345.877645 335.924909 
L 345.877645 376.250667 
L 307.536519 376.250667 
L 307.536519 335.924909 
" clip-path="url(#pb965fce99d)" style="fill: #bbbbf3"/>
    <path d="M 345.877645 335.924909 
L 384.218771 335.924909 
L 384.218771 376.250667 
L 345.877645 376.250667 
L 345.877645 335.924909 
" clip-path="url(#pb965fce99d)" style="fill: none"/>
    <path d="M 384.218771 335.924909 
L 422.559896 335.924909 
L 422.559896 376.250667 
L 384.218771 376.250667 
L 384.218771 335.924909 
" clip-path="url(#pb965fce99d)" style="fill: none"/>
    <path d="M 422.559896 335.924909 
L 460.901022 335.924909 
L 460.901022 376.250667 
L 422.559896 376.250667 
L 422.559896 335.924909 
" clip-path="url(#pb965fce99d)" style="fill: none"/>
    <path d="M 460.901022 335.924909 
L 499.242147 335.924909 
L 499.242147 376.250667 
L 460.901022 376.250667 
L 460.901022 335.924909 
" clip-path="url(#pb965fce99d)" style="fill: none"/>
    <path d="M 499.242147 335.924909 
L 537.583273 335.924909 
L 537.583273 376.250667 
L 499.242147 376.250667 
L 499.242147 335.924909 
" clip-path="url(#pb965fce99d)" style="fill: none"/>
    <path d="M 269.195394 376.250667 
L 307.536519 376.250667 
L 307.536519 416.576424 
L 269.195394 416.576424 
L 269.195394 376.250667 
" clip-path="url(#pb965fce99d)" style="fill: none"/>
    <path d="M 307.536519 376.250667 
L 345.877645 376.250667 
L 345.877645 416.576424 
L 307.536519 416.576424 
L 307.536519 376.250667 
" clip-path="url(#pb965fce99d)" style="fill: #8d8dff"/>
    <path d="M 345.877645 376.250667 
L 384.218771 376.250667 
L 384.218771 416.576424 
L 345.877645 416.576424 
L 345.877645 376.250667 
" clip-path="url(#pb965fce99d)" style="fill: #a5a5f9"/>
    <path d="M 384.218771 376.250667 
L 422.559896 376.250667 
L 422.559896 416.576424 
L 384.218771 416.576424 
L 384.218771 376.250667 
" clip-path="url(#pb965fce99d)" style="fill: #4747a3"/>
    <path d="M 422.559896 376.250667 
L 460.901022 376.250667 
L 460.901022 416.576424 
L 422.559896 416.576424 
L 422.559896 376.250667 
" clip-path="url(#pb965fce99d)" style="fill: #b4b4f5"/>
    <path d="M 460.901022 376.250667 
L 499.242147 376.250667 
L 499.242147 416.576424 
L 460.901022 416.576424 
L 460.901022 376.250667 
" clip-path="url(#pb965fce99d)" style="fill: #8d8dff"/>
    <path d="M 499.242147 376.250667 
L 537.583273 376.250667 
L 537.583273 416.576424 
L 499.242147 416.576424 
L 499.242147 376.250667 
" clip-path="url(#pb965fce99d)" style="fill: #bbbbf3"/>
    <path d="M 269.195394 416.576424 
L 307.536519 416.576424 
L 307.536519 456.902182 
L 269.195394 456.902182 
L 269.195394 416.576424 
" clip-path="url(#pb965fce99d)" style="fill: none"/>
    <path d="M 307.536519 416.576424 
L 345.877645 416.576424 
L 345.877645 456.902182 
L 307.536519 456.902182 
L 307.536519 416.576424 
" clip-path="url(#pb965fce99d)" style="fill: #bbbbf3"/>
    <path d="M 345.877645 416.576424 
L 384.218771 416.576424 
L 384.218771 456.902182 
L 345.877645 456.902182 
L 345.877645 416.576424 
" clip-path="url(#pb965fce99d)" style="fill: none"/>
    <path d="M 384.218771 416.576424 
L 422.559896 416.576424 
L 422.559896 456.902182 
L 384.218771 456.902182 
L 384.218771 416.576424 
" clip-path="url(#pb965fce99d)" style="fill: #b4b4f5"/>
    <path d="M 422.559896 416.576424 
L 460.901022 416.576424 
L 460.901022 456.902182 
L 422.559896 456.902182 
L 422.559896 416.576424 
" clip-path="url(#pb965fce99d)" style="fill: #acacf7"/>
    <path d="M 460.901022 416.576424 
L 499.242147 416.576424 
L 499.242147 456.902182 
L 460.901022 456.902182 
L 460.901022 416.576424 
" clip-path="url(#pb965fce99d)" style="fill: none"/>
    <path d="M 499.242147 416.576424 
L 537.583273 416.576424 
L 537.583273 456.902182 
L 499.242147 456.902182 
L 499.242147 416.576424 
" clip-path="url(#pb965fce99d)" style="fill: none"/>
    <path d="M 269.195394 456.902182 
L 307.536519 456.902182 
L 307.536519 497.227939 
L 269.195394 497.227939 
L 269.195394 456.902182 
" clip-path="url(#pb965fce99d)" style="fill: none"/>
    <path d="M 307.536519 456.902182 
L 345.877645 456.902182 
L 345.877645 497.227939 
L 307.536519 497.227939 
L 307.536519 456.902182 
" clip-path="url(#pb965fce99d)" style="fill: none"/>
    <path d="M 345.877645 456.902182 
L 384.218771 456.902182 
L 384.218771 497.227939 
L 345.877645 497.227939 
L 345.877645 456.902182 
" clip-path="url(#pb965fce99d)" style="fill: none"/>
    <path d="M 384.218771 456.902182 
L 422.559896 456.902182 
L 422.559896 497.227939 
L 384.218771 497.227939 
L 384.218771 456.902182 
" clip-path="url(#pb965fce99d)" style="fill: #bbbbf3"/>
    <path d="M 422.559896 456.902182 
L 460.901022 456.902182 
L 460.901022 497.227939 
L 422.559896 497.227939 
L 422.559896 456.902182 
" clip-path="url(#pb965fce99d)" style="fill: none"/>
    <path d="M 460.901022 456.902182 
L 499.242147 456.902182 
L 499.242147 497.227939 
L 460.901022 497.227939 
L 460.901022 456.902182 
" clip-path="url(#pb965fce99d)" style="fill: none"/>
    <path d="M 499.242147 456.902182 
L 537.583273 456.902182 
L 537.583273 497.227939 
L 499.242147 497.227939 
L 499.242147 456.902182 
" clip-path="url(#pb965fce99d)" style="fill: none"/>
    <path d="M 269.195394 497.227939 
L 307.536519 497.227939 
L 307.536519 537.553697 
L 269.195394 537.553697 
L 269.195394 497.227939 
" clip-path="url(#pb965fce99d)" style="fill: none"/>
    <path d="M 307.536519 497.227939 
L 345.877645 497.227939 
L 345.877645 537.553697 
L 307.536519 537.553697 
L 307.536519 497.227939 
" clip-path="url(#pb965fce99d)" style="fill: none"/>
    <path d="M 345.877645 497.227939 
L 384.218771 497.227939 
L 384.218771 537.553697 
L 345.877645 537.553697 
L 345.877645 497.227939 
" clip-path="url(#pb965fce99d)" style="fill: none"/>
    <path d="M 384.218771 497.227939 
L 422.559896 497.227939 
L 422.559896 537.553697 
L 384.218771 537.553697 
L 384.218771 497.227939 
" clip-path="url(#pb965fce99d)" style="fill: #bbbbf3"/>
    <path d="M 422.559896 497.227939 
L 460.901022 497.227939 
L 460.901022 537.553697 
L 422.559896 537.553697 
L 422.559896 497.227939 
" clip-path="url(#pb965fce99d)" style="fill: none"/>
    <path d="M 460.901022 497.227939 
L 499.242147 497.227939 
L 499.242147 537.553697 
L 460.901022 537.553697 
L 460.901022 497.227939 
" clip-path="url(#pb965fce99d)" style="fill: none"/>
    <path d="M 499.242147 497.227939 
L 537.583273 497.227939 
L 537.583273 537.553697 
L 499.242147 537.553697 
L 499.242147 497.227939 
" clip-path="url(#pb965fce99d)" style="fill: none"/>
   </g>
   <g id="patch_3">
    <path d="M 255.776 553.684 
L 255.776 198.817333 
" style="fill: none; stroke: #262626; stroke-width: 1.25; stroke-linejoin: miter; stroke-linecap: square"/>
   </g>
   <g id="patch_4">
    <path d="M 255.776 553.684 
L 551.002667 553.684 
" style="fill: none; stroke: #262626; stroke-width: 1.25; stroke-linejoin: miter; stroke-linecap: square"/>
   </g>
  </g>
  <g id="axes_2">
   <g id="patch_5">
    <path d="M 255.776 184.561333 
L 551.002667 184.561333 
L 551.002667 14.256 
L 255.776 14.256 
z
" style="fill: #ffffff"/>
   </g>
   <g id="matplotlib.axis_3">
    <g id="xtick_8"/>
    <g id="xtick_9"/>
    <g id="xtick_10"/>
    <g id="xtick_11"/>
    <g id="xtick_12"/>
    <g id="xtick_13"/>
    <g id="xtick_14"/>
   </g>
   <g id="matplotlib.axis_4">
    <g id="ytick_9"/>
    <g id="ytick_10"/>
    <g id="ytick_11"/>
    <g id="ytick_12"/>
   </g>
   <g id="patch_6">
    <path d="M 269.195394 184.561333 
L 307.536519 184.561333 
L 307.536519 171.410342 
L 269.195394 171.410342 
z
" clip-path="url(#p2215fa9528)" style="fill: #0000ff; fill-opacity: 0.75; stroke: #ffffff; stroke-linejoin: miter"/>
   </g>
   <g id="patch_7">
    <path d="M 307.536519 184.561333 
L 345.877645 184.561333 
L 345.877645 105.655387 
L 307.536519 105.655387 
z
" clip-path="url(#p2215fa9528)" style="fill: #0000ff; fill-opacity: 0.75; stroke: #ffffff; stroke-linejoin: miter"/>
   </g>
   <g id="patch_8">
    <path d="M 345.877645 184.561333 
L 384.218771 184.561333 
L 384.218771 153.875688 
L 345.877645 153.875688 
z
" clip-path="url(#p2215fa9528)" style="fill: #0000ff; fill-opacity: 0.75; stroke: #ffffff; stroke-linejoin: miter"/>
   </g>
   <g id="patch_9">
    <path d="M 384.218771 184.561333 
L 422.559896 184.561333 
L 422.559896 22.365778 
L 384.218771 22.365778 
z
" clip-path="url(#p2215fa9528)" style="fill: #0000ff; fill-opacity: 0.75; stroke: #ffffff; stroke-linejoin: miter"/>
   </g>
   <g id="patch_10">
    <path d="M 422.559896 184.561333 
L 460.901022 184.561333 
L 460.901022 153.875688 
L 422.559896 153.875688 
z
" clip-path="url(#p2215fa9528)" style="fill: #0000ff; fill-opacity: 0.75; stroke: #ffffff; stroke-linejoin: miter"/>
   </g>
   <g id="patch_11">
    <path d="M 460.901022 184.561333 
L 499.242147 184.561333 
L 499.242147 136.341033 
L 460.901022 136.341033 
z
" clip-path="url(#p2215fa9528)" style="fill: #0000ff; fill-opacity: 0.75; stroke: #ffffff; stroke-linejoin: miter"/>
   </g>
   <g id="patch_12">
    <path d="M 499.242147 184.561333 
L 537.583273 184.561333 
L 537.583273 180.17767 
L 499.242147 180.17767 
z
" clip-path="url(#p2215fa9528)" style="fill: #0000ff; fill-opacity: 0.75; stroke: #ffffff; stroke-linejoin: miter"/>
   </g>
   <g id="patch_13">
    <path d="M 255.776 184.561333 
L 551.002667 184.561333 
" style="fill: none; stroke: #262626; stroke-width: 1.25; stroke-linejoin: miter; stroke-linecap: square"/>
   </g>
  </g>
  <g id="axes_3">
   <g id="patch_14">
    <path d="M 565.258667 553.684 
L 705.744 553.684 
L 705.744 198.817333 
L 565.258667 198.817333 
z
" style="fill: #ffffff"/>
   </g>
   <g id="matplotlib.axis_5">
    <g id="xtick_15"/>
    <g id="xtick_16"/>
    <g id="xtick_17"/>
   </g>
   <g id="matplotlib.axis_6">
    <g id="ytick_13"/>
    <g id="ytick_14"/>
    <g id="ytick_15"/>
    <g id="ytick_16"/>
    <g id="ytick_17"/>
    <g id="ytick_18"/>
    <g id="ytick_19"/>
    <g id="ytick_20"/>
   </g>
   <g id="patch_15">
    <path d="M 565.258667 214.947636 
L 642.191111 214.947636 
L 642.191111 255.273394 
L 565.258667 255.273394 
z
" clip-path="url(#p60bca8f0b9)" style="fill: #0000ff; fill-opacity: 0.75; stroke: #ffffff; stroke-linejoin: miter"/>
   </g>
   <g id="patch_16">
    <path d="M 565.258667 255.273394 
L 568.603556 255.273394 
L 568.603556 295.599152 
L 565.258667 295.599152 
z
" clip-path="url(#p60bca8f0b9)" style="fill: #0000ff; fill-opacity: 0.75; stroke: #ffffff; stroke-linejoin: miter"/>
   </g>
   <g id="patch_17">
    <path d="M 565.258667 295.599152 
L 602.052444 295.599152 
L 602.052444 335.924909 
L 565.258667 335.924909 
z
" clip-path="url(#p60bca8f0b9)" style="fill: #0000ff; fill-opacity: 0.75; stroke: #ffffff; stroke-linejoin: miter"/>
   </g>
   <g id="patch_18">
    <path d="M 565.258667 335.924909 
L 568.603556 335.924909 
L 568.603556 376.250667 
L 565.258667 376.250667 
z
" clip-path="url(#p60bca8f0b9)" style="fill: #0000ff; fill-opacity: 0.75; stroke: #ffffff; stroke-linejoin: miter"/>
   </g>
   <g id="patch_19">
    <path d="M 565.258667 376.250667 
L 699.054222 376.250667 
L 699.054222 416.576424 
L 565.258667 416.576424 
z
" clip-path="url(#p60bca8f0b9)" style="fill: #0000ff; fill-opacity: 0.75; stroke: #ffffff; stroke-linejoin: miter"/>
   </g>
   <g id="patch_20">
    <path d="M 565.258667 416.576424 
L 585.328 416.576424 
L 585.328 456.902182 
L 565.258667 456.902182 
z
" clip-path="url(#p60bca8f0b9)" style="fill: #0000ff; fill-opacity: 0.75; stroke: #ffffff; stroke-linejoin: miter"/>
   </g>
   <g id="patch_21">
    <path d="M 565.258667 456.902182 
L 568.603556 456.902182 
L 568.603556 497.227939 
L 565.258667 497.227939 
z
" clip-path="url(#p60bca8f0b9)" style="fill: #0000ff; fill-opacity: 0.75; stroke: #ffffff; stroke-linejoin: miter"/>
   </g>
   <g id="patch_22">
    <path d="M 565.258667 497.227939 
L 568.603556 497.227939 
L 568.603556 537.553697 
L 565.258667 537.553697 
z
" clip-path="url(#p60bca8f0b9)" style="fill: #0000ff; fill-opacity: 0.75; stroke: #ffffff; stroke-linejoin: miter"/>
   </g>
   <g id="patch_23">
    <path d="M 565.258667 553.684 
L 565.258667 198.817333 
" style="fill: none; stroke: #262626; stroke-width: 1.25; stroke-linejoin: miter; stroke-linecap: square"/>
   </g>
  </g>
 </g>
 <defs>
  <clipPath id="pb965fce99d">
   <rect x="255.776" y="198.817333" width="295.226667" height="354.866667"/>
  </clipPath>
  <clipPath id="p2215fa9528">
   <rect x="255.776" y="14.256" width="295.226667" height="170.305333"/>
  </clipPath>
  <clipPath id="p60bca8f0b9">
   <rect x="565.258667" y="198.817333" width="140.485333" height="354.866667"/>
  </clipPath>
 </defs>
</svg>
