<?xml version="1.0" encoding="utf-8" standalone="no"?>
<!DOCTYPE svg PUBLIC "-//W3C//DTD SVG 1.1//EN"
  "http://www.w3.org/Graphics/SVG/1.1/DTD/svg11.dtd">
<svg xmlns:xlink="http://www.w3.org/1999/xlink" width="1296pt" height="864pt" viewBox="0 0 1296 864" xmlns="http://www.w3.org/2000/svg" version="1.1">
 <metadata>
  <rdf:RDF xmlns:dc="http://purl.org/dc/elements/1.1/" xmlns:cc="http://creativecommons.org/ns#" xmlns:rdf="http://www.w3.org/1999/02/22-rdf-syntax-ns#">
   <cc:Work>
    <dc:type rdf:resource="http://purl.org/dc/dcmitype/StillImage"/>
    <dc:date>2024-02-16T17:31:19.145652</dc:date>
    <dc:format>image/svg+xml</dc:format>
    <dc:creator>
     <cc:Agent>
      <dc:title>Matplotlib v3.8.0, https://matplotlib.org/</dc:title>
     </cc:Agent>
    </dc:creator>
   </cc:Work>
  </rdf:RDF>
 </metadata>
 <defs>
  <style type="text/css">*{stroke-linejoin: round; stroke-linecap: butt}</style>
 </defs>
 <g id="figure_1">
  <g id="patch_1">
   <path d="M 0 864 
L 1296 864 
L 1296 0 
L 0 0 
z
" style="fill: #ffffff"/>
  </g>
  <g id="axes_1">
   <g id="matplotlib.axis_1"/>
   <g id="matplotlib.axis_2"/>
   <g id="patch_2">
    <path d="M 674.679878 432.000167 
C 674.679878 404.932179 668.326203 378.238334 656.131614 354.072905 
C 643.937025 329.907475 626.238637 308.938508 604.464763 292.85826 
C 582.690889 276.778011 557.44346 266.031016 530.76002 261.484589 
C 504.07658 256.938161 476.694784 258.717986 450.824424 266.680425 
C 424.954064 274.642865 401.310318 288.5678 381.801307 307.331448 
C 362.292296 326.095095 347.45734 349.178739 338.493665 374.719462 
C 329.52999 400.260184 326.685393 427.551919 330.189442 454.392143 
C 333.693491 481.232367 343.449318 506.87909 358.669597 529.262545 
L 428.757884 481.603979 
C 420.995542 470.188418 416.02007 457.108589 414.233005 443.420075 
C 412.44594 429.731561 413.896684 415.812776 418.468159 402.787007 
C 423.039633 389.761239 430.60546 377.98858 440.555056 368.41912 
C 450.504652 358.84966 462.562962 351.747943 475.756846 347.687099 
C 488.950729 343.626254 502.915445 342.718544 516.524 345.037222 
C 530.132554 347.3559 543.008743 352.836868 554.113419 361.037794 
C 565.218094 369.238721 574.244272 379.932894 580.463513 392.257263 
C 586.682753 404.581632 589.923127 418.195493 589.923127 432.000167 
z
" style="fill: #f6583e; stroke: #ffffff; stroke-linejoin: miter"/>
   </g>
   <g id="patch_3">
    <path d="M 358.669597 529.262545 
C 373.463454 551.018887 393.027953 569.115901 415.869473 582.171996 
C 438.710993 595.228091 464.233088 602.902343 490.487315 604.608873 
C 516.741541 606.315404 543.042339 602.009651 567.381816 592.02033 
C 591.721293 582.03101 613.463888 566.618967 630.949696 546.960809 
L 567.620734 490.630094 
C 558.702972 500.655755 547.614249 508.515897 535.201116 513.61045 
C 522.787983 518.705004 509.374576 520.900938 495.98492 520.030607 
C 482.595265 519.160277 469.578996 515.246408 457.929821 508.5878 
C 446.280646 501.929191 436.302751 492.699714 428.757884 481.603979 
z
" style="fill: #5ba3d0; stroke: #ffffff; stroke-linejoin: miter"/>
   </g>
   <g id="patch_4">
    <path d="M 630.949696 546.960809 
C 644.916941 531.258343 655.906294 513.141085 663.378113 493.4987 
C 670.849932 473.856314 674.679878 453.01567 674.679878 432.000167 
L 589.923127 432.000167 
C 589.923127 442.718074 587.969855 453.346802 584.159227 463.364419 
C 580.3486 473.382035 574.74403 482.621837 567.620734 490.630094 
z
" style="fill: #928fc3; stroke: #ffffff; stroke-linejoin: miter"/>
   </g>
   <g id="patch_5">
    <path d="M 761.166358 432.000167 
C 761.166358 370.580147 739.357061 311.111666 699.647803 264.254504 
C 659.938545 217.397342 604.852742 186.129146 544.264578 176.054768 
C 483.676413 165.980391 421.4361 177.740032 368.700273 209.225765 
C 315.964447 240.711498 276.084326 289.92249 256.20846 348.037623 
L 336.404623 375.465387 
C 349.787706 336.334531 376.640321 303.19913 412.14911 281.998736 
C 447.6579 260.798343 489.566378 252.880184 530.362409 259.663598 
C 571.15844 266.447013 608.249547 287.500932 634.987114 319.051421 
C 661.724681 350.601909 676.409608 390.64402 676.409608 432.000167 
z
" style="fill: #f6583e; stroke: #ffffff; stroke-linejoin: miter"/>
   </g>
   <g id="patch_6">
    <path d="M 256.20846 348.037623 
C 246.964703 375.065485 242.247477 403.435281 242.247477 432.000161 
C 242.247476 460.565041 246.9647 488.934836 256.208456 515.962699 
L 336.40462 488.534938 
C 330.180491 470.336178 327.004227 451.233849 327.004227 432.000163 
C 327.004228 412.766477 330.180493 393.664148 336.404623 375.465387 
z
" style="fill: #928fc3; stroke: #ffffff; stroke-linejoin: miter"/>
   </g>
   <g id="patch_7">
    <path d="M 256.208456 515.962699 
C 259.898967 526.753401 264.296912 537.289053 269.373669 547.501089 
C 274.450426 557.713124 280.194958 567.579341 286.56988 577.03553 
L 356.847979 529.657311 
C 352.555532 523.290144 348.687547 516.646891 345.269197 509.770788 
C 341.850847 502.894684 338.889564 495.800678 336.40462 488.534938 
z
" style="fill: #60ba6c; stroke: #ffffff; stroke-linejoin: miter"/>
   </g>
   <g id="patch_8">
    <path d="M 286.56988 577.03553 
C 317.628887 623.106658 362.680513 658.004749 415.052798 676.56154 
C 467.425083 695.11833 524.398398 696.370189 577.53523 680.131721 
C 630.672062 663.893254 677.213079 631.007702 710.26575 586.345283 
C 743.31842 541.682864 761.166358 487.562841 761.166358 432.000167 
L 676.409608 432.000167 
C 676.409608 469.412367 664.391996 505.853183 642.136531 535.925878 
C 619.881067 565.998574 588.543448 588.141512 552.764648 599.075414 
C 516.985848 610.009315 478.623816 609.166397 443.359811 596.671491 
C 408.095805 584.176585 377.761044 560.678537 356.847979 529.657311 
z
" style="fill: #ffffff; stroke: #ffffff; stroke-linejoin: miter"/>
   </g>
   <g id="patch_9">
    <path d="M 847.652839 432.000167 
C 847.652839 362.034375 826.427504 293.687719 786.79362 236.030393 
C 747.159737 178.373067 690.951705 134.073661 625.628818 109.011091 
L 595.267952 188.143415 
C 644.586732 207.065655 687.023796 240.511706 716.947378 284.042988 
C 746.87096 327.574269 762.896088 379.175994 762.896088 432.000167 
z
" style="fill: #5ba3d0; stroke: #ffffff; stroke-linejoin: miter"/>
   </g>
   <g id="patch_10">
    <path d="M 625.628818 109.011091 
C 610.493948 103.204264 594.969626 98.468412 579.170648 94.838557 
C 563.37167 91.208702 547.337076 88.693813 531.185436 87.312486 
L 523.963199 171.760968 
C 536.157687 172.80387 548.263806 174.702611 560.192034 177.443152 
C 572.120262 180.183692 583.841126 183.75926 595.267952 188.143415 
z
" style="fill: #f87f2c; stroke: #ffffff; stroke-linejoin: miter"/>
   </g>
   <g id="patch_11">
    <path d="M 531.185436 87.312486 
C 494.203448 84.149698 456.952305 86.95919 420.863039 95.633034 
C 384.773774 104.306879 350.314514 118.732564 318.809042 138.355914 
L 363.619021 210.298756 
C 387.405653 195.483126 413.422394 184.591734 440.669789 178.042982 
C 467.917185 171.494229 496.041798 169.373062 523.963199 171.760968 
z
" style="fill: #60ba6c; stroke: #ffffff; stroke-linejoin: miter"/>
   </g>
   <g id="patch_12">
    <path d="M 318.809042 138.355914 
C 301.113115 149.377915 284.449687 161.977008 269.02227 175.999317 
C 253.594853 190.021626 239.466511 205.409832 226.809793 221.975998 
L 294.159589 273.431919 
C 303.71541 260.924464 314.382309 249.306368 326.030009 238.719525 
C 337.677708 228.132682 350.258597 218.620367 363.619021 210.298756 
z
" style="fill: #f6583e; stroke: #ffffff; stroke-linejoin: miter"/>
   </g>
   <g id="patch_13">
    <path d="M 226.809793 221.975998 
C 223.999005 225.654992 221.262355 229.390041 218.601497 233.178887 
C 215.940639 236.967734 213.356109 240.809615 210.849469 244.702208 
L 282.109544 290.590208 
C 284.002057 287.6513 285.953377 284.75068 287.962325 281.890101 
C 289.971273 279.029522 292.037444 276.20956 294.159589 273.431919 
z
" style="fill: #928fc3; stroke: #ffffff; stroke-linejoin: miter"/>
   </g>
   <g id="patch_14">
    <path d="M 210.849469 244.702208 
C 203.327531 256.383124 196.516082 268.506566 190.45214 281.006644 
C 184.388198 293.506722 179.082769 306.360752 174.564686 319.498875 
L 254.714533 347.061692 
C 258.125685 337.142409 262.131285 327.437616 266.709561 318.000057 
C 271.287837 308.562498 276.430481 299.4093 282.109544 290.590208 
z
" style="fill: #888888; stroke: #ffffff; stroke-linejoin: miter"/>
   </g>
   <g id="patch_15">
    <path d="M 174.564686 319.498875 
C 158.222039 367.021619 152.429139 417.539636 157.590166 467.528206 
C 162.751193 517.516775 178.743258 565.785622 204.450569 608.966954 
C 230.157881 652.148286 264.968324 689.213914 306.453119 717.577712 
C 347.937914 745.94151 395.10927 764.92811 444.675967 773.212785 
C 494.242663 781.497461 545.024471 778.882947 593.478265 765.551662 
C 641.932059 752.220377 686.904108 728.489752 725.256642 696.01551 
C 763.609175 663.541267 794.428984 623.096649 815.565721 577.50354 
C 836.702459 531.91043 847.65284 482.254445 847.652839 432.000159 
L 762.896088 432.000161 
C 762.896089 469.942147 754.628551 507.432416 738.670315 541.855213 
C 722.712078 576.278011 699.443122 606.813697 670.486959 631.331751 
C 641.530796 655.849804 607.5769 673.766426 570.994285 683.831546 
C 534.411671 693.896666 496.071406 695.870624 458.64855 689.615694 
C 421.225693 683.360764 385.61132 669.025881 354.2903 647.611214 
C 322.969279 626.196546 296.687395 598.211997 277.278375 565.610091 
C 257.869354 533.008185 245.795345 496.565206 241.89877 458.823836 
C 238.002195 421.082466 242.375834 382.941363 254.714533 347.061692 
z
" style="fill: #ffffff; stroke: #ffffff; stroke-linejoin: miter"/>
   </g>
   <g id="legend_1">
    <g id="patch_16">
     <path d="M 941.139319 515.764196 
L 1091.161194 515.764196 
Q 1093.161194 515.764196 1093.161194 513.764196 
L 1093.161194 309.270446 
Q 1093.161194 307.270446 1091.161194 307.270446 
L 941.139319 307.270446 
Q 939.139319 307.270446 939.139319 309.270446 
L 939.139319 513.764196 
Q 939.139319 515.764196 941.139319 515.764196 
z
" style="fill: #eaeaf2; opacity: 0.8; stroke: #cccccc; stroke-linejoin: miter"/>
    </g>
    <g id="patch_17">
     <path d="M 943.139319 318.868884 
L 963.139319 318.868884 
L 963.139319 311.868884 
L 943.139319 311.868884 
z
" style="fill: #f6583e; stroke: #ffffff; stroke-linejoin: miter"/>
    </g>
    <g id="text_1">
     <!-- ('passive',) -->
     <g style="fill: #262626" transform="translate(971.139319 318.868884) scale(0.1 -0.1)">
      <defs>
       <path id="DejaVuSans-28" d="M 1984 4856 
Q 1566 4138 1362 3434 
Q 1159 2731 1159 2009 
Q 1159 1288 1364 580 
Q 1569 -128 1984 -844 
L 1484 -844 
Q 1016 -109 783 600 
Q 550 1309 550 2009 
Q 550 2706 781 3412 
Q 1013 4119 1484 4856 
L 1984 4856 
z
" transform="scale(0.015625)"/>
       <path id="DejaVuSans-27" d="M 1147 4666 
L 1147 2931 
L 616 2931 
L 616 4666 
L 1147 4666 
z
" transform="scale(0.015625)"/>
       <path id="DejaVuSans-70" d="M 1159 525 
L 1159 -1331 
L 581 -1331 
L 581 3500 
L 1159 3500 
L 1159 2969 
Q 1341 3281 1617 3432 
Q 1894 3584 2278 3584 
Q 2916 3584 3314 3078 
Q 3713 2572 3713 1747 
Q 3713 922 3314 415 
Q 2916 -91 2278 -91 
Q 1894 -91 1617 61 
Q 1341 213 1159 525 
z
M 3116 1747 
Q 3116 2381 2855 2742 
Q 2594 3103 2138 3103 
Q 1681 3103 1420 2742 
Q 1159 2381 1159 1747 
Q 1159 1113 1420 752 
Q 1681 391 2138 391 
Q 2594 391 2855 752 
Q 3116 1113 3116 1747 
z
" transform="scale(0.015625)"/>
       <path id="DejaVuSans-61" d="M 2194 1759 
Q 1497 1759 1228 1600 
Q 959 1441 959 1056 
Q 959 750 1161 570 
Q 1363 391 1709 391 
Q 2188 391 2477 730 
Q 2766 1069 2766 1631 
L 2766 1759 
L 2194 1759 
z
M 3341 1997 
L 3341 0 
L 2766 0 
L 2766 531 
Q 2569 213 2275 61 
Q 1981 -91 1556 -91 
Q 1019 -91 701 211 
Q 384 513 384 1019 
Q 384 1609 779 1909 
Q 1175 2209 1959 2209 
L 2766 2209 
L 2766 2266 
Q 2766 2663 2505 2880 
Q 2244 3097 1772 3097 
Q 1472 3097 1187 3025 
Q 903 2953 641 2809 
L 641 3341 
Q 956 3463 1253 3523 
Q 1550 3584 1831 3584 
Q 2591 3584 2966 3190 
Q 3341 2797 3341 1997 
z
" transform="scale(0.015625)"/>
       <path id="DejaVuSans-73" d="M 2834 3397 
L 2834 2853 
Q 2591 2978 2328 3040 
Q 2066 3103 1784 3103 
Q 1356 3103 1142 2972 
Q 928 2841 928 2578 
Q 928 2378 1081 2264 
Q 1234 2150 1697 2047 
L 1894 2003 
Q 2506 1872 2764 1633 
Q 3022 1394 3022 966 
Q 3022 478 2636 193 
Q 2250 -91 1575 -91 
Q 1294 -91 989 -36 
Q 684 19 347 128 
L 347 722 
Q 666 556 975 473 
Q 1284 391 1588 391 
Q 1994 391 2212 530 
Q 2431 669 2431 922 
Q 2431 1156 2273 1281 
Q 2116 1406 1581 1522 
L 1381 1569 
Q 847 1681 609 1914 
Q 372 2147 372 2553 
Q 372 3047 722 3315 
Q 1072 3584 1716 3584 
Q 2034 3584 2315 3537 
Q 2597 3491 2834 3397 
z
" transform="scale(0.015625)"/>
       <path id="DejaVuSans-69" d="M 603 3500 
L 1178 3500 
L 1178 0 
L 603 0 
L 603 3500 
z
M 603 4863 
L 1178 4863 
L 1178 4134 
L 603 4134 
L 603 4863 
z
" transform="scale(0.015625)"/>
       <path id="DejaVuSans-76" d="M 191 3500 
L 800 3500 
L 1894 563 
L 2988 3500 
L 3597 3500 
L 2284 0 
L 1503 0 
L 191 3500 
z
" transform="scale(0.015625)"/>
       <path id="DejaVuSans-65" d="M 3597 1894 
L 3597 1613 
L 953 1613 
Q 991 1019 1311 708 
Q 1631 397 2203 397 
Q 2534 397 2845 478 
Q 3156 559 3463 722 
L 3463 178 
Q 3153 47 2828 -22 
Q 2503 -91 2169 -91 
Q 1331 -91 842 396 
Q 353 884 353 1716 
Q 353 2575 817 3079 
Q 1281 3584 2069 3584 
Q 2775 3584 3186 3129 
Q 3597 2675 3597 1894 
z
M 3022 2063 
Q 3016 2534 2758 2815 
Q 2500 3097 2075 3097 
Q 1594 3097 1305 2825 
Q 1016 2553 972 2059 
L 3022 2063 
z
" transform="scale(0.015625)"/>
       <path id="DejaVuSans-2c" d="M 750 794 
L 1409 794 
L 1409 256 
L 897 -744 
L 494 -744 
L 750 256 
L 750 794 
z
" transform="scale(0.015625)"/>
       <path id="DejaVuSans-29" d="M 513 4856 
L 1013 4856 
Q 1481 4119 1714 3412 
Q 1947 2706 1947 2009 
Q 1947 1309 1714 600 
Q 1481 -109 1013 -844 
L 513 -844 
Q 928 -128 1133 580 
Q 1338 1288 1338 2009 
Q 1338 2731 1133 3434 
Q 928 4138 513 4856 
z
" transform="scale(0.015625)"/>
      </defs>
      <use xlink:href="#DejaVuSans-28"/>
      <use xlink:href="#DejaVuSans-27" x="39.013672"/>
      <use xlink:href="#DejaVuSans-70" x="66.503906"/>
      <use xlink:href="#DejaVuSans-61" x="129.980469"/>
      <use xlink:href="#DejaVuSans-73" x="191.259766"/>
      <use xlink:href="#DejaVuSans-73" x="243.359375"/>
      <use xlink:href="#DejaVuSans-69" x="295.458984"/>
      <use xlink:href="#DejaVuSans-76" x="323.242188"/>
      <use xlink:href="#DejaVuSans-65" x="382.421875"/>
      <use xlink:href="#DejaVuSans-27" x="443.945312"/>
      <use xlink:href="#DejaVuSans-2c" x="471.435547"/>
      <use xlink:href="#DejaVuSans-29" x="503.222656"/>
     </g>
    </g>
    <g id="patch_18">
     <path d="M 943.139319 333.547009 
L 963.139319 333.547009 
L 963.139319 326.547009 
L 943.139319 326.547009 
z
" style="fill: #5ba3d0; stroke: #ffffff; stroke-linejoin: miter"/>
    </g>
    <g id="text_2">
     <!-- ('active',) -->
     <g style="fill: #262626" transform="translate(971.139319 333.547009) scale(0.1 -0.1)">
      <defs>
       <path id="DejaVuSans-63" d="M 3122 3366 
L 3122 2828 
Q 2878 2963 2633 3030 
Q 2388 3097 2138 3097 
Q 1578 3097 1268 2742 
Q 959 2388 959 1747 
Q 959 1106 1268 751 
Q 1578 397 2138 397 
Q 2388 397 2633 464 
Q 2878 531 3122 666 
L 3122 134 
Q 2881 22 2623 -34 
Q 2366 -91 2075 -91 
Q 1284 -91 818 406 
Q 353 903 353 1747 
Q 353 2603 823 3093 
Q 1294 3584 2113 3584 
Q 2378 3584 2631 3529 
Q 2884 3475 3122 3366 
z
" transform="scale(0.015625)"/>
       <path id="DejaVuSans-74" d="M 1172 4494 
L 1172 3500 
L 2356 3500 
L 2356 3053 
L 1172 3053 
L 1172 1153 
Q 1172 725 1289 603 
Q 1406 481 1766 481 
L 2356 481 
L 2356 0 
L 1766 0 
Q 1100 0 847 248 
Q 594 497 594 1153 
L 594 3053 
L 172 3053 
L 172 3500 
L 594 3500 
L 594 4494 
L 1172 4494 
z
" transform="scale(0.015625)"/>
      </defs>
      <use xlink:href="#DejaVuSans-28"/>
      <use xlink:href="#DejaVuSans-27" x="39.013672"/>
      <use xlink:href="#DejaVuSans-61" x="66.503906"/>
      <use xlink:href="#DejaVuSans-63" x="127.783203"/>
      <use xlink:href="#DejaVuSans-74" x="182.763672"/>
      <use xlink:href="#DejaVuSans-69" x="221.972656"/>
      <use xlink:href="#DejaVuSans-76" x="249.755859"/>
      <use xlink:href="#DejaVuSans-65" x="308.935547"/>
      <use xlink:href="#DejaVuSans-27" x="370.458984"/>
      <use xlink:href="#DejaVuSans-2c" x="397.949219"/>
      <use xlink:href="#DejaVuSans-29" x="429.736328"/>
     </g>
    </g>
    <g id="patch_19">
     <path d="M 943.139319 348.225134 
L 963.139319 348.225134 
L 963.139319 341.225134 
L 943.139319 341.225134 
z
" style="fill: #928fc3; stroke: #ffffff; stroke-linejoin: miter"/>
    </g>
    <g id="text_3">
     <!-- ('active, passive',) -->
     <g style="fill: #262626" transform="translate(971.139319 348.225134) scale(0.1 -0.1)">
      <defs>
       <path id="DejaVuSans-20" transform="scale(0.015625)"/>
      </defs>
      <use xlink:href="#DejaVuSans-28"/>
      <use xlink:href="#DejaVuSans-27" x="39.013672"/>
      <use xlink:href="#DejaVuSans-61" x="66.503906"/>
      <use xlink:href="#DejaVuSans-63" x="127.783203"/>
      <use xlink:href="#DejaVuSans-74" x="182.763672"/>
      <use xlink:href="#DejaVuSans-69" x="221.972656"/>
      <use xlink:href="#DejaVuSans-76" x="249.755859"/>
      <use xlink:href="#DejaVuSans-65" x="308.935547"/>
      <use xlink:href="#DejaVuSans-2c" x="370.458984"/>
      <use xlink:href="#DejaVuSans-20" x="402.246094"/>
      <use xlink:href="#DejaVuSans-70" x="434.033203"/>
      <use xlink:href="#DejaVuSans-61" x="497.509766"/>
      <use xlink:href="#DejaVuSans-73" x="558.789062"/>
      <use xlink:href="#DejaVuSans-73" x="610.888672"/>
      <use xlink:href="#DejaVuSans-69" x="662.988281"/>
      <use xlink:href="#DejaVuSans-76" x="690.771484"/>
      <use xlink:href="#DejaVuSans-65" x="749.951172"/>
      <use xlink:href="#DejaVuSans-27" x="811.474609"/>
      <use xlink:href="#DejaVuSans-2c" x="838.964844"/>
      <use xlink:href="#DejaVuSans-29" x="870.751953"/>
     </g>
    </g>
    <g id="patch_20">
     <path d="M 943.139319 362.903259 
L 963.139319 362.903259 
L 963.139319 355.903259 
L 943.139319 355.903259 
z
" style="fill: #f6583e; stroke: #ffffff; stroke-linejoin: miter"/>
    </g>
    <g id="text_4">
     <!-- attribution -->
     <g style="fill: #262626" transform="translate(971.139319 362.903259) scale(0.1 -0.1)">
      <defs>
       <path id="DejaVuSans-72" d="M 2631 2963 
Q 2534 3019 2420 3045 
Q 2306 3072 2169 3072 
Q 1681 3072 1420 2755 
Q 1159 2438 1159 1844 
L 1159 0 
L 581 0 
L 581 3500 
L 1159 3500 
L 1159 2956 
Q 1341 3275 1631 3429 
Q 1922 3584 2338 3584 
Q 2397 3584 2469 3576 
Q 2541 3569 2628 3553 
L 2631 2963 
z
" transform="scale(0.015625)"/>
       <path id="DejaVuSans-62" d="M 3116 1747 
Q 3116 2381 2855 2742 
Q 2594 3103 2138 3103 
Q 1681 3103 1420 2742 
Q 1159 2381 1159 1747 
Q 1159 1113 1420 752 
Q 1681 391 2138 391 
Q 2594 391 2855 752 
Q 3116 1113 3116 1747 
z
M 1159 2969 
Q 1341 3281 1617 3432 
Q 1894 3584 2278 3584 
Q 2916 3584 3314 3078 
Q 3713 2572 3713 1747 
Q 3713 922 3314 415 
Q 2916 -91 2278 -91 
Q 1894 -91 1617 61 
Q 1341 213 1159 525 
L 1159 0 
L 581 0 
L 581 4863 
L 1159 4863 
L 1159 2969 
z
" transform="scale(0.015625)"/>
       <path id="DejaVuSans-75" d="M 544 1381 
L 544 3500 
L 1119 3500 
L 1119 1403 
Q 1119 906 1312 657 
Q 1506 409 1894 409 
Q 2359 409 2629 706 
Q 2900 1003 2900 1516 
L 2900 3500 
L 3475 3500 
L 3475 0 
L 2900 0 
L 2900 538 
Q 2691 219 2414 64 
Q 2138 -91 1772 -91 
Q 1169 -91 856 284 
Q 544 659 544 1381 
z
M 1991 3584 
L 1991 3584 
z
" transform="scale(0.015625)"/>
       <path id="DejaVuSans-6f" d="M 1959 3097 
Q 1497 3097 1228 2736 
Q 959 2375 959 1747 
Q 959 1119 1226 758 
Q 1494 397 1959 397 
Q 2419 397 2687 759 
Q 2956 1122 2956 1747 
Q 2956 2369 2687 2733 
Q 2419 3097 1959 3097 
z
M 1959 3584 
Q 2709 3584 3137 3096 
Q 3566 2609 3566 1747 
Q 3566 888 3137 398 
Q 2709 -91 1959 -91 
Q 1206 -91 779 398 
Q 353 888 353 1747 
Q 353 2609 779 3096 
Q 1206 3584 1959 3584 
z
" transform="scale(0.015625)"/>
       <path id="DejaVuSans-6e" d="M 3513 2113 
L 3513 0 
L 2938 0 
L 2938 2094 
Q 2938 2591 2744 2837 
Q 2550 3084 2163 3084 
Q 1697 3084 1428 2787 
Q 1159 2491 1159 1978 
L 1159 0 
L 581 0 
L 581 3500 
L 1159 3500 
L 1159 2956 
Q 1366 3272 1645 3428 
Q 1925 3584 2291 3584 
Q 2894 3584 3203 3211 
Q 3513 2838 3513 2113 
z
" transform="scale(0.015625)"/>
      </defs>
      <use xlink:href="#DejaVuSans-61"/>
      <use xlink:href="#DejaVuSans-74" x="61.279297"/>
      <use xlink:href="#DejaVuSans-74" x="100.488281"/>
      <use xlink:href="#DejaVuSans-72" x="139.697266"/>
      <use xlink:href="#DejaVuSans-69" x="180.810547"/>
      <use xlink:href="#DejaVuSans-62" x="208.59375"/>
      <use xlink:href="#DejaVuSans-75" x="272.070312"/>
      <use xlink:href="#DejaVuSans-74" x="335.449219"/>
      <use xlink:href="#DejaVuSans-69" x="374.658203"/>
      <use xlink:href="#DejaVuSans-6f" x="402.441406"/>
      <use xlink:href="#DejaVuSans-6e" x="463.623047"/>
     </g>
    </g>
    <g id="patch_21">
     <path d="M 943.139319 377.581384 
L 963.139319 377.581384 
L 963.139319 370.581384 
L 943.139319 370.581384 
z
" style="fill: #928fc3; stroke: #ffffff; stroke-linejoin: miter"/>
    </g>
    <g id="text_5">
     <!-- hidden semantics -->
     <g style="fill: #262626" transform="translate(971.139319 377.581384) scale(0.1 -0.1)">
      <defs>
       <path id="DejaVuSans-68" d="M 3513 2113 
L 3513 0 
L 2938 0 
L 2938 2094 
Q 2938 2591 2744 2837 
Q 2550 3084 2163 3084 
Q 1697 3084 1428 2787 
Q 1159 2491 1159 1978 
L 1159 0 
L 581 0 
L 581 4863 
L 1159 4863 
L 1159 2956 
Q 1366 3272 1645 3428 
Q 1925 3584 2291 3584 
Q 2894 3584 3203 3211 
Q 3513 2838 3513 2113 
z
" transform="scale(0.015625)"/>
       <path id="DejaVuSans-64" d="M 2906 2969 
L 2906 4863 
L 3481 4863 
L 3481 0 
L 2906 0 
L 2906 525 
Q 2725 213 2448 61 
Q 2172 -91 1784 -91 
Q 1150 -91 751 415 
Q 353 922 353 1747 
Q 353 2572 751 3078 
Q 1150 3584 1784 3584 
Q 2172 3584 2448 3432 
Q 2725 3281 2906 2969 
z
M 947 1747 
Q 947 1113 1208 752 
Q 1469 391 1925 391 
Q 2381 391 2643 752 
Q 2906 1113 2906 1747 
Q 2906 2381 2643 2742 
Q 2381 3103 1925 3103 
Q 1469 3103 1208 2742 
Q 947 2381 947 1747 
z
" transform="scale(0.015625)"/>
       <path id="DejaVuSans-6d" d="M 3328 2828 
Q 3544 3216 3844 3400 
Q 4144 3584 4550 3584 
Q 5097 3584 5394 3201 
Q 5691 2819 5691 2113 
L 5691 0 
L 5113 0 
L 5113 2094 
Q 5113 2597 4934 2840 
Q 4756 3084 4391 3084 
Q 3944 3084 3684 2787 
Q 3425 2491 3425 1978 
L 3425 0 
L 2847 0 
L 2847 2094 
Q 2847 2600 2669 2842 
Q 2491 3084 2119 3084 
Q 1678 3084 1418 2786 
Q 1159 2488 1159 1978 
L 1159 0 
L 581 0 
L 581 3500 
L 1159 3500 
L 1159 2956 
Q 1356 3278 1631 3431 
Q 1906 3584 2284 3584 
Q 2666 3584 2933 3390 
Q 3200 3197 3328 2828 
z
" transform="scale(0.015625)"/>
      </defs>
      <use xlink:href="#DejaVuSans-68"/>
      <use xlink:href="#DejaVuSans-69" x="63.378906"/>
      <use xlink:href="#DejaVuSans-64" x="91.162109"/>
      <use xlink:href="#DejaVuSans-64" x="154.638672"/>
      <use xlink:href="#DejaVuSans-65" x="218.115234"/>
      <use xlink:href="#DejaVuSans-6e" x="279.638672"/>
      <use xlink:href="#DejaVuSans-20" x="343.017578"/>
      <use xlink:href="#DejaVuSans-73" x="374.804688"/>
      <use xlink:href="#DejaVuSans-65" x="426.904297"/>
      <use xlink:href="#DejaVuSans-6d" x="488.427734"/>
      <use xlink:href="#DejaVuSans-61" x="585.839844"/>
      <use xlink:href="#DejaVuSans-6e" x="647.119141"/>
      <use xlink:href="#DejaVuSans-74" x="710.498047"/>
      <use xlink:href="#DejaVuSans-69" x="749.707031"/>
      <use xlink:href="#DejaVuSans-63" x="777.490234"/>
      <use xlink:href="#DejaVuSans-73" x="832.470703"/>
     </g>
    </g>
    <g id="patch_22">
     <path d="M 943.139319 392.259509 
L 963.139319 392.259509 
L 963.139319 385.259509 
L 943.139319 385.259509 
z
" style="fill: #60ba6c; stroke: #ffffff; stroke-linejoin: miter"/>
    </g>
    <g id="text_6">
     <!-- rule -->
     <g style="fill: #262626" transform="translate(971.139319 392.259509) scale(0.1 -0.1)">
      <defs>
       <path id="DejaVuSans-6c" d="M 603 4863 
L 1178 4863 
L 1178 0 
L 603 0 
L 603 4863 
z
" transform="scale(0.015625)"/>
      </defs>
      <use xlink:href="#DejaVuSans-72"/>
      <use xlink:href="#DejaVuSans-75" x="41.113281"/>
      <use xlink:href="#DejaVuSans-6c" x="104.492188"/>
      <use xlink:href="#DejaVuSans-65" x="132.275391"/>
     </g>
    </g>
    <g id="patch_23">
     <path d="M 943.139319 406.937634 
L 963.139319 406.937634 
L 963.139319 399.937634 
L 943.139319 399.937634 
z
" style="fill: #ffffff; stroke: #ffffff; stroke-linejoin: miter"/>
    </g>
    <g id="text_7">
     <!-- extra -->
     <g style="fill: #262626" transform="translate(971.139319 406.937634) scale(0.1 -0.1)">
      <defs>
       <path id="DejaVuSans-78" d="M 3513 3500 
L 2247 1797 
L 3578 0 
L 2900 0 
L 1881 1375 
L 863 0 
L 184 0 
L 1544 1831 
L 300 3500 
L 978 3500 
L 1906 2253 
L 2834 3500 
L 3513 3500 
z
" transform="scale(0.015625)"/>
      </defs>
      <use xlink:href="#DejaVuSans-65"/>
      <use xlink:href="#DejaVuSans-78" x="59.773438"/>
      <use xlink:href="#DejaVuSans-74" x="118.953125"/>
      <use xlink:href="#DejaVuSans-72" x="158.162109"/>
      <use xlink:href="#DejaVuSans-61" x="199.275391"/>
     </g>
    </g>
    <g id="patch_24">
     <path d="M 943.139319 421.615759 
L 963.139319 421.615759 
L 963.139319 414.615759 
L 943.139319 414.615759 
z
" style="fill: #5ba3d0; stroke: #ffffff; stroke-linejoin: miter"/>
    </g>
    <g id="text_8">
     <!-- backpropagation-based -->
     <g style="fill: #262626" transform="translate(971.139319 421.615759) scale(0.1 -0.1)">
      <defs>
       <path id="DejaVuSans-6b" d="M 581 4863 
L 1159 4863 
L 1159 1991 
L 2875 3500 
L 3609 3500 
L 1753 1863 
L 3688 0 
L 2938 0 
L 1159 1709 
L 1159 0 
L 581 0 
L 581 4863 
z
" transform="scale(0.015625)"/>
       <path id="DejaVuSans-67" d="M 2906 1791 
Q 2906 2416 2648 2759 
Q 2391 3103 1925 3103 
Q 1463 3103 1205 2759 
Q 947 2416 947 1791 
Q 947 1169 1205 825 
Q 1463 481 1925 481 
Q 2391 481 2648 825 
Q 2906 1169 2906 1791 
z
M 3481 434 
Q 3481 -459 3084 -895 
Q 2688 -1331 1869 -1331 
Q 1566 -1331 1297 -1286 
Q 1028 -1241 775 -1147 
L 775 -588 
Q 1028 -725 1275 -790 
Q 1522 -856 1778 -856 
Q 2344 -856 2625 -561 
Q 2906 -266 2906 331 
L 2906 616 
Q 2728 306 2450 153 
Q 2172 0 1784 0 
Q 1141 0 747 490 
Q 353 981 353 1791 
Q 353 2603 747 3093 
Q 1141 3584 1784 3584 
Q 2172 3584 2450 3431 
Q 2728 3278 2906 2969 
L 2906 3500 
L 3481 3500 
L 3481 434 
z
" transform="scale(0.015625)"/>
       <path id="DejaVuSans-2d" d="M 313 2009 
L 1997 2009 
L 1997 1497 
L 313 1497 
L 313 2009 
z
" transform="scale(0.015625)"/>
      </defs>
      <use xlink:href="#DejaVuSans-62"/>
      <use xlink:href="#DejaVuSans-61" x="63.476562"/>
      <use xlink:href="#DejaVuSans-63" x="124.755859"/>
      <use xlink:href="#DejaVuSans-6b" x="179.736328"/>
      <use xlink:href="#DejaVuSans-70" x="237.646484"/>
      <use xlink:href="#DejaVuSans-72" x="301.123047"/>
      <use xlink:href="#DejaVuSans-6f" x="339.986328"/>
      <use xlink:href="#DejaVuSans-70" x="401.167969"/>
      <use xlink:href="#DejaVuSans-61" x="464.644531"/>
      <use xlink:href="#DejaVuSans-67" x="525.923828"/>
      <use xlink:href="#DejaVuSans-61" x="589.400391"/>
      <use xlink:href="#DejaVuSans-74" x="650.679688"/>
      <use xlink:href="#DejaVuSans-69" x="689.888672"/>
      <use xlink:href="#DejaVuSans-6f" x="717.671875"/>
      <use xlink:href="#DejaVuSans-6e" x="778.853516"/>
      <use xlink:href="#DejaVuSans-2d" x="842.232422"/>
      <use xlink:href="#DejaVuSans-62" x="878.316406"/>
      <use xlink:href="#DejaVuSans-61" x="941.792969"/>
      <use xlink:href="#DejaVuSans-73" x="1003.072266"/>
      <use xlink:href="#DejaVuSans-65" x="1055.171875"/>
      <use xlink:href="#DejaVuSans-64" x="1116.695312"/>
     </g>
    </g>
    <g id="patch_25">
     <path d="M 943.139319 436.293884 
L 963.139319 436.293884 
L 963.139319 429.293884 
L 943.139319 429.293884 
z
" style="fill: #f87f2c; stroke: #ffffff; stroke-linejoin: miter"/>
    </g>
    <g id="text_9">
     <!-- other -->
     <g style="fill: #262626" transform="translate(971.139319 436.293884) scale(0.1 -0.1)">
      <use xlink:href="#DejaVuSans-6f"/>
      <use xlink:href="#DejaVuSans-74" x="61.181641"/>
      <use xlink:href="#DejaVuSans-68" x="100.390625"/>
      <use xlink:href="#DejaVuSans-65" x="163.769531"/>
      <use xlink:href="#DejaVuSans-72" x="225.292969"/>
     </g>
    </g>
    <g id="patch_26">
     <path d="M 943.139319 450.972009 
L 963.139319 450.972009 
L 963.139319 443.972009 
L 943.139319 443.972009 
z
" style="fill: #60ba6c; stroke: #ffffff; stroke-linejoin: miter"/>
    </g>
    <g id="text_10">
     <!-- game theory -->
     <g style="fill: #262626" transform="translate(971.139319 450.972009) scale(0.1 -0.1)">
      <defs>
       <path id="DejaVuSans-79" d="M 2059 -325 
Q 1816 -950 1584 -1140 
Q 1353 -1331 966 -1331 
L 506 -1331 
L 506 -850 
L 844 -850 
Q 1081 -850 1212 -737 
Q 1344 -625 1503 -206 
L 1606 56 
L 191 3500 
L 800 3500 
L 1894 763 
L 2988 3500 
L 3597 3500 
L 2059 -325 
z
" transform="scale(0.015625)"/>
      </defs>
      <use xlink:href="#DejaVuSans-67"/>
      <use xlink:href="#DejaVuSans-61" x="63.476562"/>
      <use xlink:href="#DejaVuSans-6d" x="124.755859"/>
      <use xlink:href="#DejaVuSans-65" x="222.167969"/>
      <use xlink:href="#DejaVuSans-20" x="283.691406"/>
      <use xlink:href="#DejaVuSans-74" x="315.478516"/>
      <use xlink:href="#DejaVuSans-68" x="354.6875"/>
      <use xlink:href="#DejaVuSans-65" x="418.066406"/>
      <use xlink:href="#DejaVuSans-6f" x="479.589844"/>
      <use xlink:href="#DejaVuSans-72" x="540.771484"/>
      <use xlink:href="#DejaVuSans-79" x="581.884766"/>
     </g>
    </g>
    <g id="patch_27">
     <path d="M 943.139319 465.650134 
L 963.139319 465.650134 
L 963.139319 458.650134 
L 943.139319 458.650134 
z
" style="fill: #f6583e; stroke: #ffffff; stroke-linejoin: miter"/>
    </g>
    <g id="text_11">
     <!-- perturbation -->
     <g style="fill: #262626" transform="translate(971.139319 465.650134) scale(0.1 -0.1)">
      <use xlink:href="#DejaVuSans-70"/>
      <use xlink:href="#DejaVuSans-65" x="63.476562"/>
      <use xlink:href="#DejaVuSans-72" x="125"/>
      <use xlink:href="#DejaVuSans-74" x="166.113281"/>
      <use xlink:href="#DejaVuSans-75" x="205.322266"/>
      <use xlink:href="#DejaVuSans-72" x="268.701172"/>
      <use xlink:href="#DejaVuSans-62" x="309.814453"/>
      <use xlink:href="#DejaVuSans-61" x="373.291016"/>
      <use xlink:href="#DejaVuSans-74" x="434.570312"/>
      <use xlink:href="#DejaVuSans-69" x="473.779297"/>
      <use xlink:href="#DejaVuSans-6f" x="501.5625"/>
      <use xlink:href="#DejaVuSans-6e" x="562.744141"/>
     </g>
    </g>
    <g id="patch_28">
     <path d="M 943.139319 480.328259 
L 963.139319 480.328259 
L 963.139319 473.328259 
L 943.139319 473.328259 
z
" style="fill: #928fc3; stroke: #ffffff; stroke-linejoin: miter"/>
    </g>
    <g id="text_12">
     <!-- permutation -->
     <g style="fill: #262626" transform="translate(971.139319 480.328259) scale(0.1 -0.1)">
      <use xlink:href="#DejaVuSans-70"/>
      <use xlink:href="#DejaVuSans-65" x="63.476562"/>
      <use xlink:href="#DejaVuSans-72" x="125"/>
      <use xlink:href="#DejaVuSans-6d" x="164.363281"/>
      <use xlink:href="#DejaVuSans-75" x="261.775391"/>
      <use xlink:href="#DejaVuSans-74" x="325.154297"/>
      <use xlink:href="#DejaVuSans-61" x="364.363281"/>
      <use xlink:href="#DejaVuSans-74" x="425.642578"/>
      <use xlink:href="#DejaVuSans-69" x="464.851562"/>
      <use xlink:href="#DejaVuSans-6f" x="492.634766"/>
      <use xlink:href="#DejaVuSans-6e" x="553.816406"/>
     </g>
    </g>
    <g id="patch_29">
     <path d="M 943.139319 495.006384 
L 963.139319 495.006384 
L 963.139319 488.006384 
L 943.139319 488.006384 
z
" style="fill: #888888; stroke: #ffffff; stroke-linejoin: miter"/>
    </g>
    <g id="text_13">
     <!-- attention -->
     <g style="fill: #262626" transform="translate(971.139319 495.006384) scale(0.1 -0.1)">
      <use xlink:href="#DejaVuSans-61"/>
      <use xlink:href="#DejaVuSans-74" x="61.279297"/>
      <use xlink:href="#DejaVuSans-74" x="100.488281"/>
      <use xlink:href="#DejaVuSans-65" x="139.697266"/>
      <use xlink:href="#DejaVuSans-6e" x="201.220703"/>
      <use xlink:href="#DejaVuSans-74" x="264.599609"/>
      <use xlink:href="#DejaVuSans-69" x="303.808594"/>
      <use xlink:href="#DejaVuSans-6f" x="331.591797"/>
      <use xlink:href="#DejaVuSans-6e" x="392.773438"/>
     </g>
    </g>
    <g id="patch_30">
     <path d="M 943.139319 509.684509 
L 963.139319 509.684509 
L 963.139319 502.684509 
L 943.139319 502.684509 
z
" style="fill: #ffffff; stroke: #ffffff; stroke-linejoin: miter"/>
    </g>
    <g id="text_14">
     <!-- extra -->
     <g style="fill: #262626" transform="translate(971.139319 509.684509) scale(0.1 -0.1)">
      <use xlink:href="#DejaVuSans-65"/>
      <use xlink:href="#DejaVuSans-78" x="59.773438"/>
      <use xlink:href="#DejaVuSans-74" x="118.953125"/>
      <use xlink:href="#DejaVuSans-72" x="158.162109"/>
      <use xlink:href="#DejaVuSans-61" x="199.275391"/>
     </g>
    </g>
   </g>
  </g>
 </g>
</svg>
